<svg xmlns="http://www.w3.org/2000/svg" viewBox="0 0 70.46 55.63"><defs><style>.cls-1{fill:#fff;}.cls-2{fill:#3286b5;}.cls-3{fill:#b0b0b0;}.cls-4{fill:#193340;}.cls-5{fill:none;}</style></defs><title>Web_icons</title><g id="EPS_BACK" data-name="EPS BACK"><circle class="cls-1" cx="35.23" cy="25.75" r="23.72"/><path class="cls-2" d="M10.44,10H6.25A5.33,5.33,0,0,0,.93,15.28V36.22a5.34,5.34,0,0,0,5.32,5.32h4.19a29.33,29.33,0,0,1,0-31.57Z"/><path class="cls-2" d="M64.21,10H60a29.38,29.38,0,0,1,0,31.57h4.19a5.33,5.33,0,0,0,5.31-5.32V15.28A5.33,5.33,0,0,0,64.21,10Z"/><path class="cls-3" d="M35.23,50.83A25.08,25.08,0,1,1,60.3,25.75,25.11,25.11,0,0,1,35.23,50.83Zm0-47.15A22.08,22.08,0,1,0,57.3,25.75,22.1,22.1,0,0,0,35.23,3.68Z"/><circle class="cls-3" cx="31.43" cy="54.08" r="0.87"/><circle class="cls-3" cx="35.23" cy="54.08" r="0.87"/><circle class="cls-3" cx="39.03" cy="54.08" r="0.87"/></g><g id="EPS_ICON" data-name="EPS ICON"><path class="cls-4" d="M29.08,33.77h-2v-2a.5.5,0,0,0-.5-.5.5.5,0,0,0-.5.5v2.48a.5.5,0,0,0,.5.5h2.47a.5.5,0,0,0,.5-.5A.5.5,0,0,0,29.08,33.77Z"/><path class="cls-4" d="M43.77,14.17H42a.5.5,0,0,0-.5.5.51.51,0,0,0,.5.5h1.24v1.22a.5.5,0,0,0,.5.5.5.5,0,0,0,.5-.5V14.67A.5.5,0,0,0,43.77,14.17Z"/><rect class="cls-4" x="39.08" y="41.58" width="1.25" height="1"/><path class="cls-4" d="M48.52,37.45a4.13,4.13,0,0,1-4.12,4.13H42.06v1H44.4a5.13,5.13,0,0,0,5.12-5.13V19.94h-1Z"/><rect class="cls-4" x="48.52" y="16.96" width="1" height="1.25"/><rect class="cls-4" x="20.86" y="31.42" width="1" height="1.25"/><path class="cls-4" d="M29.69,9.92v-1H26A5.13,5.13,0,0,0,20.86,14V29.68h1V14A4.13,4.13,0,0,1,26,9.92Z"/><rect class="cls-4" x="31.43" y="8.92" width="1.25" height="1"/><path class="cls-5" d="M44.4,12.92H26a1.13,1.13,0,0,0-1.13,1.13v22H45.52v-22A1.12,1.12,0,0,0,44.4,12.92Z"/><path class="cls-4" d="M44.4,11.42H26a2.63,2.63,0,0,0-2.63,2.63v23.4A2.63,2.63,0,0,0,26,40.08H44.4A2.62,2.62,0,0,0,47,37.45V14.05A2.62,2.62,0,0,0,44.4,11.42ZM35.19,38.94a1.06,1.06,0,1,1,1.05-1A1,1,0,0,1,35.19,38.94Zm10.33-2.88H24.85v-22A1.13,1.13,0,0,1,26,12.92H44.4a1.12,1.12,0,0,1,1.12,1.13Z"/></g></svg>