<svg xmlns="http://www.w3.org/2000/svg" viewBox="0 0 70.46 55.63"><defs><style>.cls-1{fill:#fff;}.cls-2{fill:#3286b5;}.cls-3{fill:#b0b0b0;}.cls-4{fill:#193340;}</style></defs><title>Web_icons</title><g id="EPS_BACK" data-name="EPS BACK"><circle class="cls-1" cx="35.23" cy="25.75" r="23.72"/><path class="cls-2" d="M10.44,10H6.25A5.33,5.33,0,0,0,.93,15.28V36.22a5.34,5.34,0,0,0,5.32,5.32h4.19a29.33,29.33,0,0,1,0-31.57Z"/><path class="cls-2" d="M64.21,10H60a29.38,29.38,0,0,1,0,31.57h4.19a5.33,5.33,0,0,0,5.31-5.32V15.28A5.33,5.33,0,0,0,64.21,10Z"/><path class="cls-3" d="M35.23,50.83A25.08,25.08,0,1,1,60.3,25.75,25.11,25.11,0,0,1,35.23,50.83Zm0-47.15A22.08,22.08,0,1,0,57.3,25.75,22.1,22.1,0,0,0,35.23,3.68Z"/><circle class="cls-3" cx="31.43" cy="54.08" r="0.87"/><circle class="cls-3" cx="35.23" cy="54.08" r="0.87"/><circle class="cls-3" cx="39.03" cy="54.08" r="0.87"/></g><g id="EPS_ICON" data-name="EPS ICON"><path class="cls-4" d="M31.58,39.3a12,12,0,0,0,2-4.19,8.15,8.15,0,0,1-2.88-1,5.13,5.13,0,0,1-.45,1.49h0a10.72,10.72,0,0,1-1,1.8h0c-.36.52-.75,1-1.16,1.52h0l-.6.69-.1.1c-.2.22-.4.42-.6.62l0,0-.1.09-.41.41-.11.09c-.17.16-.33.31-.49.44l2.13,2.13.22-.2.1-.09.27-.26.11-.1c.14-.13.29-.27.44-.43h0l.57-.58a.52.52,0,0,1,.1-.11l.62-.69a.27.27,0,0,1,.07-.08c.45-.53.91-1.11,1.34-1.73Z"/><path class="cls-4" d="M51.16,15.81c-1.16,1.35-4.65,4.81-7.29,5.12v0a3.82,3.82,0,0,1-.57,0,1.91,1.91,0,0,1-.5-.12l-.15-.06a4.25,4.25,0,0,1-.43-.21.31.31,0,0,1-.1,0A8.09,8.09,0,0,1,41,19.74h0a8.18,8.18,0,0,1-.76-.68,5.19,5.19,0,0,0-.68-.56l-.12-.08A4.88,4.88,0,0,0,38.7,18L38.58,18a6.81,6.81,0,0,0-1.74-.49h-.06c-.25,0-.49-.05-.74-.06h0c-.24,0-.49,0-.74,0h0a9.07,9.07,0,0,0-5.7,2.32l-.09.08h0c-.17.17-.33.35-.49.54l-.12.17c-.11.14-.22.29-.32.44l-.11.18c-.1.16-.19.33-.28.49l-.08.17c-.09.18-.18.37-.26.56l-.06.14a5.83,5.83,0,0,0-.22.63l0,.1a5.56,5.56,0,0,0-.19.7l0,.06c-.05.25-.1.51-.13.76v0c0,.26-.06.53-.07.8h0c.14,0,.28,0,.42,0a7.37,7.37,0,0,1,2.58.78,6.16,6.16,0,0,1,.16-1.8v-.05c0-.18.1-.36.16-.54v0c.07-.2.14-.38.22-.56h0c.08-.16.16-.32.25-.47s0-.09.07-.13.14-.22.22-.33l.09-.12c.1-.13.21-.26.32-.38h0a.27.27,0,0,1,.08-.07,6.19,6.19,0,0,1,4.34-1.46h0a4,4,0,0,1,1.13.22l0,0,.4.19.1.06a2.69,2.69,0,0,1,.37.3l.09.08,0,0,.12.11,0,0,.17.16.05,0,.26.23h0l.06.05.14.11.26.21.19.15.28.2.22.15.3.19.25.15.32.17.26.14.36.15.26.1.41.13a2,2,0,0,0,.23.06,4.64,4.64,0,0,0,.65.11h.38c.21,0,.42,0,.62,0l.11,0c4-.45,8.07-4.77,9.12-6Z"/><path class="cls-4" d="M29.49,31.3l.41.36h0c.13.11.24.22.33.31h0a6.22,6.22,0,0,0,.68.57l.19.12c.2.13.41.25.62.36l.15.07a7,7,0,0,0,1.81.52,8.07,8.07,0,0,0,1.48.08l.81-.06H36c.25,0,.5-.08.74-.13l.1,0c.23,0,.45-.11.67-.18l.15,0q.3-.09.6-.21l.17-.07.54-.24.2-.1.47-.27a2.26,2.26,0,0,0,.2-.13,4.37,4.37,0,0,0,.44-.31l.18-.13a4.88,4.88,0,0,0,.53-.48h0a.6.6,0,0,0,.08-.08,9,9,0,0,0,2.31-5.81,4,4,0,0,1-.49,0,7,7,0,0,1-2.52-.73,6.5,6.5,0,0,1-.14,1.8A5.64,5.64,0,0,1,39,29.11a.27.27,0,0,1-.07.08h0a3.05,3.05,0,0,1-.38.32l-.12.09c-.1.07-.21.15-.33.22L38,29.9a5.75,5.75,0,0,1-1,.46l-.06,0a5.44,5.44,0,0,1-.54.15h-.05a6.3,6.3,0,0,1-1.82.16,4.54,4.54,0,0,1-1.13-.24l-.06,0a2.81,2.81,0,0,1-.39-.19l-.1-.06a2.28,2.28,0,0,1-.38-.3h0l-.09-.09,0,0-.13-.13,0,0-.17-.16-.05,0-.26-.24h0l-.34-.28-.09-.07-.31-.24-.11-.08-.43-.3-.06,0-.41-.25-.15-.08-.4-.21-.11-.05-.52-.22-.13,0-.43-.13-.16,0a3.44,3.44,0,0,0-.56-.09H27a6.52,6.52,0,0,0-1.31.12,9.31,9.31,0,0,0-2.12.72l-.13.07c-.3.14-.6.3-.89.47l-.13.08c-.31.18-.62.38-.92.58l0,0a20.72,20.72,0,0,0-1.73,1.34c-.07.05-.12.11-.18.16l-.54.48-.22.2-.44.43-.19.19a1.85,1.85,0,0,0-.14.14l-.28.29-.11.12-.24.26-.26.29,2.12,2.13c.14-.17.3-.34.46-.52l.09-.09.45-.47a.46.46,0,0,1,.07-.07l0,0,.63-.6.11-.11c1.7-1.54,3.82-3,5.5-3.2a2.63,2.63,0,0,1,.56,0,2.19,2.19,0,0,1,.51.12l.14.06c.15.06.3.14.46.22l.09.05c.19.11.39.24.58.37h0c.2.14.38.28.56.42"/><path class="cls-4" d="M37.44,14.22a6.16,6.16,0,0,0-.26.67s0,.09,0,.13a7.69,7.69,0,0,0-.21.79l0,.15a8.07,8.07,0,0,1,2.89.91.77.77,0,0,1,0-.15s0-.1,0-.14a5.44,5.44,0,0,1,.2-.74l.06-.14A8,8,0,0,1,40.4,15l0-.06c.14-.27.3-.54.46-.8,0-.06.07-.12.11-.17.17-.27.34-.53.53-.79a1.47,1.47,0,0,0,.1-.13c.18-.24.37-.48.56-.71a.76.76,0,0,0,.08-.11c.21-.25.42-.49.64-.73l.14-.15c.21-.23.43-.46.64-.67l0,0,.08-.08.46-.44.16-.15.47-.41L42.75,7.4l0,0-.21.19-.14.13L42.09,8l-.18.18-.3.28c-.14.15-.29.29-.44.46h0l-.48.51-.15.16-.38.44a2.09,2.09,0,0,0-.14.17c-.18.2-.35.41-.52.63a.44.44,0,0,1-.08.11l-.42.57-.15.21-.37.56-.11.17c-.15.25-.3.49-.43.74,0,.06-.06.13-.1.18s-.2.4-.29.61S37.47,14.14,37.44,14.22Z"/><path class="cls-4" d="M41.37,16.56l2.78,2.78A7.52,7.52,0,0,0,46,18.39L42.3,14.66A7.28,7.28,0,0,0,41.37,16.56Z"/><path class="cls-4" d="M43.63,12.91l4.14,4.14c.42-.36.85-.75,1.28-1.18l.18-.19L45,11.45l-.22.22C44.36,12.08,44,12.5,43.63,12.91Z"/><path class="cls-4" d="M38.92,24.76l-2.87-2.87a5.06,5.06,0,0,0-2.38.45l4.81,4.81A5.16,5.16,0,0,0,38.92,24.76Z"/><path class="cls-4" d="M26.79,38.12,22.6,33.93c-.4.35-.81.72-1.21,1.12-.09.08-.16.17-.25.25l4.28,4.28.22-.21C26.05,39,26.43,38.54,26.79,38.12Z"/><path class="cls-4" d="M29.07,34.49l-2.83-2.83a8.11,8.11,0,0,0-1.89.95l3.76,3.76A8,8,0,0,0,29.07,34.49Z"/><path class="cls-4" d="M31.59,26.16l3,3A5.16,5.16,0,0,0,37,28.71L32.1,23.84A5.11,5.11,0,0,0,31.59,26.16Z"/><path class="cls-4" d="M28.44,18.74h0l.09-.08a10.49,10.49,0,0,1,6.87-2.76,13.08,13.08,0,0,1,2.37-5.23c-.28-.22-.51-.39-.8-.6a14.89,14.89,0,0,0-2.39,4.88,11.38,11.38,0,0,0-6.75,3l-.09.08c-.16.16-.3.32-.44.49l.68.74C28.13,19.07,28.28,18.9,28.44,18.74Z"/><path class="cls-4" d="M39.68,8.31l-.74-.67-.86,1,.76.64C39.12,8.93,39.4,8.62,39.68,8.31Z"/><path class="cls-4" d="M27,20.76l-.87-.51a11.9,11.9,0,0,0-.63,1.35l.94.32A11.28,11.28,0,0,1,27,20.76Z"/><path class="cls-4" d="M42.17,32.29l-.08.09A10.44,10.44,0,0,1,35,35.2a13.23,13.23,0,0,1-2.33,5.08l.8.6a15,15,0,0,0,2.34-4.71,11.32,11.32,0,0,0,6.95-3.09l.09-.1c.14-.14.27-.3.4-.45l-.69-.74C42.46,32,42.32,32.14,42.17,32.29Z"/><path class="cls-4" d="M43.64,30.24l.87.52a10.74,10.74,0,0,0,.62-1.38l-1-.32A9.7,9.7,0,0,1,43.64,30.24Z"/><path class="cls-4" d="M30.82,42.63l.73.68c.29-.31.57-.64.86-1l-.76-.64C31.37,42,31.1,42.33,30.82,42.63Z"/></g></svg>