<svg xmlns="http://www.w3.org/2000/svg" viewBox="0 0 70.46 55.63"><defs><style>.cls-1{fill:#fff;}.cls-2{fill:#3286b5;}.cls-3{fill:#b0b0b0;}.cls-4{fill:none;}.cls-5{fill:#193340;}</style></defs><title>Web_icons</title><g id="EPS_BACK" data-name="EPS BACK"><circle class="cls-1" cx="35.23" cy="25.75" r="23.72"/><path class="cls-2" d="M10.44,10H6.25A5.33,5.33,0,0,0,.93,15.28V36.22a5.34,5.34,0,0,0,5.32,5.32h4.19a29.33,29.33,0,0,1,0-31.57Z"/><path class="cls-2" d="M64.21,10H60a29.38,29.38,0,0,1,0,31.57h4.19a5.33,5.33,0,0,0,5.31-5.32V15.28A5.33,5.33,0,0,0,64.21,10Z"/><path class="cls-3" d="M35.23,50.83A25.08,25.08,0,1,1,60.3,25.75,25.11,25.11,0,0,1,35.23,50.83Zm0-47.15A22.08,22.08,0,1,0,57.3,25.75,22.1,22.1,0,0,0,35.23,3.68Z"/><circle class="cls-3" cx="31.43" cy="54.08" r="0.87"/><circle class="cls-3" cx="35.23" cy="54.08" r="0.87"/><circle class="cls-3" cx="39.03" cy="54.08" r="0.87"/></g><g id="EPS_ICON" data-name="EPS ICON"><path class="cls-4" d="M47.86,17.88H22.7a.89.89,0,0,0-.89.88v13H48.74v-13A.88.88,0,0,0,47.86,17.88ZM26.91,30.28h-3.1a.5.5,0,0,1-.5-.5V27.09a.5.5,0,0,1,1,0v2.19h2.6a.5.5,0,0,1,.5.5A.51.51,0,0,1,26.91,30.28Zm20.33-8.55a.5.5,0,0,1-.5.5.5.5,0,0,1-.5-.5V20.38H44.65a.5.5,0,0,1,0-1h2.09a.5.5,0,0,1,.5.5Z"/><path class="cls-5" d="M26.91,29.28h-2.6V27.09a.5.5,0,0,0-1,0v2.69a.5.5,0,0,0,.5.5h3.1a.51.51,0,0,0,.5-.5A.5.5,0,0,0,26.91,29.28Z"/><path class="cls-5" d="M46.74,19.38H44.65a.5.5,0,0,0,0,1h1.59v1.35a.5.5,0,0,0,.5.5.5.5,0,0,0,.5-.5V19.88A.5.5,0,0,0,46.74,19.38Z"/><path class="cls-5" d="M50.24,33.3V18.76a2.39,2.39,0,0,0-2.38-2.38H22.7a2.39,2.39,0,0,0-2.39,2.38V33.3a2.39,2.39,0,0,0,2.39,2.39H47.86A2.39,2.39,0,0,0,50.24,33.3Zm-15,.84a.76.76,0,1,1,.75-.76A.76.76,0,0,1,35.28,34.14Zm13.46-2.41H21.81v-13a.89.89,0,0,1,.89-.88H47.86a.88.88,0,0,1,.88.88Z"/><path class="cls-5" d="M38.68,40.13h-1.3V37.2h-4.2v2.93h-1.3a1.07,1.07,0,0,0-1.07,1.07v.5h8.94v-.5A1.07,1.07,0,0,0,38.68,40.13Z"/><rect class="cls-5" x="26.1" y="13.88" width="1.25" height="1"/><path class="cls-5" d="M24.36,14.88v-1H22.7a4.89,4.89,0,0,0-4.89,4.89v7h1v-7a3.89,3.89,0,0,1,3.89-3.89Z"/><rect class="cls-5" x="17.81" y="27.55" width="1" height="1.25"/><rect class="cls-5" x="45.61" y="37.19" width="1.25" height="1"/><path class="cls-5" d="M51.74,33.3a3.88,3.88,0,0,1-3.15,3.81v1a4.88,4.88,0,0,0,4.15-4.81V24.71h-1Z"/><rect class="cls-5" x="51.74" y="21.72" width="1" height="1.25"/></g></svg>