<svg xmlns="http://www.w3.org/2000/svg" viewBox="0 0 70.46 55.63"><defs><style>.cls-1{fill:#fff;}.cls-2{fill:#3286b5;}.cls-3{fill:#b0b0b0;}.cls-4{fill:#193340;}</style></defs><title>Web_icons</title><g id="EPS_BACK" data-name="EPS BACK"><circle class="cls-1" cx="35.23" cy="25.75" r="23.72"/><path class="cls-2" d="M10.44,10H6.25A5.33,5.33,0,0,0,.93,15.28V36.22a5.34,5.34,0,0,0,5.32,5.32h4.19a29.33,29.33,0,0,1,0-31.57Z"/><path class="cls-2" d="M64.21,10H60a29.38,29.38,0,0,1,0,31.57h4.19a5.33,5.33,0,0,0,5.31-5.32V15.28A5.33,5.33,0,0,0,64.21,10Z"/><path class="cls-3" d="M35.23,50.83A25.08,25.08,0,1,1,60.3,25.75,25.11,25.11,0,0,1,35.23,50.83Zm0-47.15A22.08,22.08,0,1,0,57.3,25.75,22.1,22.1,0,0,0,35.23,3.68Z"/><circle class="cls-3" cx="31.43" cy="54.08" r="0.87"/><circle class="cls-3" cx="35.23" cy="54.08" r="0.87"/><circle class="cls-3" cx="39.03" cy="54.08" r="0.87"/></g><g id="EPS_ICON" data-name="EPS ICON"><path class="cls-4" d="M42.4,11.2H25.53a.54.54,0,0,0-.53.54V38a.54.54,0,0,0,.53.54H42.4a3.06,3.06,0,0,0,3.05-3V14.25A3.06,3.06,0,0,0,42.4,11.2ZM29.1,34.89a.75.75,0,0,1-1.5,0V32.56a.75.75,0,0,1,1.5,0Zm0-5.93a.75.75,0,0,1-1.5,0V14.86a.75.75,0,0,1,1.5,0ZM42.76,20a1.64,1.64,0,0,1-1.64,1.64H33.19A1.63,1.63,0,0,1,31.55,20V17.85a1.64,1.64,0,0,1,1.64-1.64h7.93a1.65,1.65,0,0,1,1.64,1.64Z"/><path class="cls-4" d="M40.82,17.43H33.48a.5.5,0,0,0,0,1h7.34a.5.5,0,0,0,0-1Z"/><path class="cls-4" d="M37.94,19.46H33.48a.51.51,0,0,0-.5.5.5.5,0,0,0,.5.5h4.46a.5.5,0,0,0,.5-.5A.5.5,0,0,0,37.94,19.46Z"/><path class="cls-4" d="M42.69,8.72v1A4.55,4.55,0,0,1,47,14.25V28.54h1V14.25A5.54,5.54,0,0,0,42.69,8.72Z"/><rect class="cls-4" x="22.5" y="16.6" width="1" height="1.25"/><path class="cls-4" d="M23.5,38V19.58h-1V38a3,3,0,0,0,3,3h2.62v-1H25.53A2,2,0,0,1,23.5,38Z"/><rect class="cls-4" x="39.7" y="8.7" width="1.25" height="1"/><rect class="cls-4" x="46.95" y="30.28" width="1" height="1.25"/><rect class="cls-4" x="29.89" y="40.05" width="1.25" height="1"/></g></svg>