<svg xmlns="http://www.w3.org/2000/svg" viewBox="0 0 70.46 55.63"><defs><style>.cls-1{fill:#fff;}.cls-2{fill:#3286b5;}.cls-3{fill:#b0b0b0;}.cls-4{fill:none;}.cls-5{fill:#193340;}</style></defs><title>Web_icons</title><g id="EPS_BACK" data-name="EPS BACK"><circle class="cls-1" cx="35.23" cy="25.75" r="23.72"/><path class="cls-2" d="M10.44,10H6.25A5.33,5.33,0,0,0,.93,15.28V36.22a5.34,5.34,0,0,0,5.32,5.32h4.19a29.33,29.33,0,0,1,0-31.57Z"/><path class="cls-2" d="M64.21,10H60a29.38,29.38,0,0,1,0,31.57h4.19a5.33,5.33,0,0,0,5.31-5.32V15.28A5.33,5.33,0,0,0,64.21,10Z"/><path class="cls-3" d="M35.23,50.83A25.08,25.08,0,1,1,60.3,25.75,25.11,25.11,0,0,1,35.23,50.83Zm0-47.15A22.08,22.08,0,1,0,57.3,25.75,22.1,22.1,0,0,0,35.23,3.68Z"/><circle class="cls-3" cx="31.43" cy="54.08" r="0.87"/><circle class="cls-3" cx="35.23" cy="54.08" r="0.87"/><circle class="cls-3" cx="39.03" cy="54.08" r="0.87"/></g><g id="EPS_ICON" data-name="EPS ICON"><path class="cls-4" d="M34.74,32l0-2.62-3.47.68a21.14,21.14,0,0,1-2.86-7.73l-6.2,1.3.48,2.26,2.11,10,12.3-2.59L36.79,32Z"/><path class="cls-4" d="M36.22,30.49l12.57-.16-.13-10.21,0-2.36-5.15.07a20.54,20.54,0,0,0,3,9.23l-10.32,2Z"/><path class="cls-5" d="M38.31,32l12-.16L50.16,20.1l0-3.86-6.74.09V13.42H28.06v3.32c0,.58,0,1.17,0,1.94s.07,1.48.13,2.16l-7.79,1.64.78,3.73,2.42,11.51,15.24-3.21Zm5.17-14.14,5.15-.07,0,2.36.13,10.21-12.57.16,0-1.4,10.32-2A20.54,20.54,0,0,1,43.48,17.83Zm-11.6,6.62h0a.5.5,0,0,1,0-1l5.32-.33a.49.49,0,0,1,.53.46.5.5,0,0,1-.47.53Zm9.37-3.14-9.74.61h0a.5.5,0,0,1-.5-.47.49.49,0,0,1,.47-.53l9.73-.62a.5.5,0,0,1,.07,1Zm-9.94-3.06,9.74-.61a.49.49,0,0,1,.53.47.51.51,0,0,1-.47.53l-9.74.61h0a.5.5,0,0,1,0-1ZM24.77,35.94l-2.11-10-.48-2.26,6.2-1.3a21.14,21.14,0,0,0,2.86,7.73l3.47-.68,0,2.62,2,0,.28,1.36Z"/><rect class="cls-5" x="30.75" y="10.92" width="1.25" height="1"/><path class="cls-5" d="M18.63,21.32l7.15-1.5.82-.25,0-.84c0-.83,0-1.41,0-2V11.92H29v-1H25.56v5.77c0,.61,0,1.21,0,2.07v.08l-8.12,1.7,1.62,7.7,1-.19Z"/><polygon class="cls-5" points="52.84 34.28 52.67 21.36 51.67 21.38 51.83 33.29 41.37 33.43 40.16 33.44 40.41 34.63 40.63 35.67 37.85 36.26 38.05 37.23 41.81 36.45 41.38 34.43 52.84 34.28"/><rect class="cls-5" x="51.64" y="18.38" width="1" height="1.25" transform="translate(-0.24 0.68) rotate(-0.74)"/><rect class="cls-5" x="35.02" y="36.73" width="1.25" height="1" transform="translate(-6.89 8.12) rotate(-11.86)"/><polygon class="cls-5" points="19.42 29.95 19.68 31.16 20.66 30.97 20.41 29.75 19.42 29.95"/></g></svg>