<svg xmlns="http://www.w3.org/2000/svg" viewBox="0 0 70.46 55.63"><defs><style>.cls-1{fill:#fff;}.cls-2{fill:#3286b5;}.cls-3{fill:#b0b0b0;}.cls-4{fill:#193340;}.cls-5{fill:none;}</style></defs><title>Web_icons</title><g id="EPS_BACK" data-name="EPS BACK"><circle class="cls-1" cx="35.23" cy="25.75" r="23.72"/><path class="cls-2" d="M10.44,10H6.25A5.33,5.33,0,0,0,.93,15.28V36.22a5.34,5.34,0,0,0,5.32,5.32h4.19a29.33,29.33,0,0,1,0-31.57Z"/><path class="cls-2" d="M64.21,10H60a29.38,29.38,0,0,1,0,31.57h4.19a5.33,5.33,0,0,0,5.31-5.32V15.28A5.33,5.33,0,0,0,64.21,10Z"/><path class="cls-3" d="M35.23,50.83A25.08,25.08,0,1,1,60.3,25.75,25.11,25.11,0,0,1,35.23,50.83Zm0-47.15A22.08,22.08,0,1,0,57.3,25.75,22.1,22.1,0,0,0,35.23,3.68Z"/><circle class="cls-3" cx="31.43" cy="54.08" r="0.87"/><circle class="cls-3" cx="35.23" cy="54.08" r="0.87"/><circle class="cls-3" cx="39.03" cy="54.08" r="0.87"/></g><g id="EPS_ICON" data-name="EPS ICON"><rect class="cls-4" x="23.99" y="17.32" width="1" height="1.25"/><rect class="cls-4" x="32.79" y="40.12" width="1.25" height="1"/><path class="cls-4" d="M28.78,40.12A3.79,3.79,0,0,1,25,36.33v-16H24v16a4.8,4.8,0,0,0,4.79,4.79h2.27v-1Z"/><rect class="cls-4" x="36.01" y="9.79" width="1.25" height="1"/><rect class="cls-4" x="45.45" y="31.95" width="1" height="1.25"/><path class="cls-4" d="M46.45,14.58a4.8,4.8,0,0,0-4.79-4.79H39v1h2.67a3.79,3.79,0,0,1,3.79,3.79V30.21h1Z"/><rect class="cls-5" x="28.74" y="14.54" width="12.96" height="3.1" rx="0.5"/><path class="cls-4" d="M41.66,12.29H28.78a2.3,2.3,0,0,0-2.29,2.29V36.33a2.3,2.3,0,0,0,2.29,2.29H41.66A2.29,2.29,0,0,0,44,36.33V14.58A2.29,2.29,0,0,0,41.66,12.29ZM31.15,35.85H29.24v-2h1.91Zm0-3.42H29.24v-2h1.91Zm0-3.42H29.24V27h1.91Zm0-3.42H29.24v-2h1.91Zm0-3.42H29.24v-2h1.91ZM34.5,35.85H32.59v-2H34.5Zm0-3.42H32.59v-2H34.5Zm0-3.42H32.59V27H34.5Zm0-3.42H32.59v-2H34.5Zm0-3.42H32.59v-2H34.5Zm3.35,13.68H35.94v-2h1.91Zm0-3.42H35.94v-2h1.91Zm0-3.42H35.94V27h1.91Zm0-3.42H35.94v-2h1.91Zm0-3.42H35.94v-2h1.91ZM41.2,35.85H39.29v-2H41.2Zm0-3.42H39.29v-2H41.2Zm0-3.42H39.29V27H41.2Zm0-3.42H39.29v-2H41.2Zm0-3.42H39.29v-2H41.2Zm.5-5a.5.5,0,0,1-.5.5h-12a.51.51,0,0,1-.5-.5V15a.51.51,0,0,1,.5-.5h12a.5.5,0,0,1,.5.5Z"/></g></svg>