<svg xmlns="http://www.w3.org/2000/svg" viewBox="0 0 70.46 55.63"><defs><style>.cls-1{fill:#fff;}.cls-2{fill:#3286b5;}.cls-3{fill:#b0b0b0;}.cls-4{fill:#193340;}</style></defs><title>Web_icons</title><g id="EPS_BACK" data-name="EPS BACK"><circle class="cls-1" cx="35.23" cy="25.75" r="23.72"/><path class="cls-2" d="M10.44,10H6.25A5.33,5.33,0,0,0,.93,15.28V36.22a5.34,5.34,0,0,0,5.32,5.32h4.19a29.33,29.33,0,0,1,0-31.57Z"/><path class="cls-2" d="M64.21,10H60a29.38,29.38,0,0,1,0,31.57h4.19a5.33,5.33,0,0,0,5.31-5.32V15.28A5.33,5.33,0,0,0,64.21,10Z"/><path class="cls-3" d="M35.23,50.83A25.08,25.08,0,1,1,60.3,25.75,25.11,25.11,0,0,1,35.23,50.83Zm0-47.15A22.08,22.08,0,1,0,57.3,25.75,22.1,22.1,0,0,0,35.23,3.68Z"/><circle class="cls-3" cx="31.43" cy="54.08" r="0.87"/><circle class="cls-3" cx="35.23" cy="54.08" r="0.87"/><circle class="cls-3" cx="39.03" cy="54.08" r="0.87"/></g><g id="EPS_ICON" data-name="EPS ICON"><polygon class="cls-4" points="27.94 41.43 29.64 41.34 30.19 39.96 28.77 39.39 27.94 41.43"/><path class="cls-4" d="M28.46,29.76l8.64,3.47,7.14-17.77L35.6,12ZM37,16.05a.78.78,0,0,1,1-.42l2,.8a.77.77,0,0,1,.42,1L35.72,29.07a.75.75,0,0,1-1,.42l-2-.8a.77.77,0,0,1-.42-1Z"/><path class="cls-4" d="M27.1,33.14a1.31,1.31,0,0,0,.73,1.7l1.62.65-.81,2a.74.74,0,0,0,.4.94l1.64.66a.71.71,0,0,0,.93-.4l.81-2,1.62.66a1.31,1.31,0,0,0,1.7-.73l.61-1.52-8.64-3.48Z"/><path class="cls-4" d="M43.4,12.5l-.51-.2.41-1a1.07,1.07,0,0,0-.6-1.4L40.58,9a1.08,1.08,0,0,0-1.41.59l-.4,1-.51-.21a1.87,1.87,0,0,0-2.22.65l8.52,3.43A1.88,1.88,0,0,0,43.4,12.5Z"/><path class="cls-4" d="M32.68,15.24l-.93-.37L24.94,31.81l.93.36Z"/><path class="cls-4" d="M25.56,34.15l-1,.15a3.73,3.73,0,0,0,.7,1.62l.88-.51A2.89,2.89,0,0,1,25.56,34.15Z"/><path class="cls-4" d="M46.66,12.4l-.88.48a3.3,3.3,0,0,1,.29,1.45l1-.13A4.27,4.27,0,0,0,46.66,12.4Z"/><path class="cls-4" d="M45.54,16.25,39.76,30.64l.92.37,5.79-14.38Z"/><rect class="cls-4" x="32.47" y="12.36" width="1.25" height="1" transform="translate(8.82 38.77) rotate(-68.1)"/><rect class="cls-4" x="38.71" y="32.52" width="1.25" height="1" transform="translate(-5.97 57.2) rotate(-68.1)"/></g></svg>