<?xml version="1.0" encoding="utf-8"?>
<!-- Generator: Adobe Illustrator 23.0.2, SVG Export Plug-In . SVG Version: 6.00 Build 0)  -->
<svg version="1.1" id="Layer_1" xmlns="http://www.w3.org/2000/svg" xmlns:xlink="http://www.w3.org/1999/xlink" x="0px" y="0px"
	 viewBox="0 0 68.6 50.2" style="enable-background:new 0 0 68.6 50.2;" xml:space="preserve">
<style type="text/css">
	.st0{fill:#FFFFFF;}
	.st1{fill:#F58256;}
	.st2{fill:#7C8C8E;}
	.st3{display:none;fill:#B0B0B0;}
	.st4{fill:none;}
	.st5{fill:#193340;}
</style>
<title>Web_icons</title>
<g id="EPS_BACK">
	<circle class="st0" cx="34.3" cy="25.1" r="23.7"/>
	<path class="st1" d="M9.5,9.3H5.3C2.4,9.3,0,11.7,0,14.6v20.9c0,2.9,2.4,5.3,5.3,5.3h4.2C3.4,31.2,3.4,18.9,9.5,9.3L9.5,9.3z"/>
	<path class="st1" d="M63.3,9.3h-4.2c6.1,9.6,6.1,21.9,0,31.6h4.2c2.9,0,5.3-2.4,5.3-5.3v-21C68.5,11.7,66.2,9.4,63.3,9.3z"/>
	<path class="st2" d="M34.3,50.2c-13.9,0-25.1-11.2-25.1-25.1C9.2,11.2,20.4,0,34.3,0c13.9,0,25.1,11.2,25.1,25.1c0,0,0,0,0,0
		C59.4,38.9,48.1,50.1,34.3,50.2z M34.3,3c-12.2,0-22.1,9.9-22.1,22.1s9.9,22.1,22.1,22.1c12.2,0,22.1-9.9,22.1-22.1c0,0,0,0,0,0
		C56.4,12.9,46.5,3,34.3,3z"/>
	<circle class="st3" cx="30.5" cy="53.4" r="0.9"/>
	<circle class="st3" cx="34.3" cy="53.4" r="0.9"/>
	<circle class="st3" cx="38.1" cy="53.4" r="0.9"/>
</g>
<g id="EPS_ICON">
	<path class="st4" d="M29.5,10.7c-4.2,2-5.9,7.1-3.9,11.3s7.1,5.9,11.3,3.9c4.2-2,5.9-7.1,3.9-11.3C38.8,10.4,33.7,8.7,29.5,10.7z"
		/>
	<path class="st5" d="M40.4,27.5c-0.7,0.5-1.4,1-2.1,1.3c-0.7,0.4-1.5,0.6-2.3,0.8l4.5,9.4l4.4-2.2L40.4,27.5z"/>
	<path class="st5" d="M41.2,40.4c0.7,1.2,2.2,1.5,3.4,0.8c1-0.6,1.4-1.8,1-3v-0.1l-4.5,2.1L41.2,40.4z"/>
	<path class="st5" d="M28.8,9.1c-5.1,2.4-7.2,8.5-4.8,13.6c2,4.3,6.7,6.6,11.3,5.6c1.6-0.3,3.2-1.1,4.4-2.1c4.4-3.6,5-10,1.4-14.4
		C38.1,8.1,33,7,28.8,9.1L28.8,9.1z M36.9,25.8c-4.2,2-9.2,0.3-11.3-3.9s-0.3-9.2,3.9-11.3s9.2-0.3,11.3,3.9c0,0,0,0,0,0
		C42.8,18.8,41.1,23.8,36.9,25.8C36.9,25.8,36.9,25.8,36.9,25.8z"/>
	<rect x="36.4" y="35.8" transform="matrix(0.9001 -0.4357 0.4357 0.9001 -12.1834 19.7117)" class="st5" width="1" height="1.2"/>
	<path class="st5" d="M21.8,23.8c0.1,0.2,0.2,0.4,0.3,0.6l0.9-0.5c-0.1-0.2-0.2-0.4-0.3-0.5c-0.1-0.2-0.2-0.4-0.3-0.6l-0.9,0.4
		C21.6,23.3,21.7,23.6,21.8,23.8z"/>
	<path class="st5" d="M20.9,21.3l1-0.3c-1.1-4.5,0.5-9.2,4.2-12.1l-0.6-0.8C21.5,11.3,19.7,16.4,20.9,21.3z"/>
	<path class="st5" d="M33.7,30.9l1.7,3.6l0.9-0.4l-1.5-3.2l-0.5-1c-0.4,0-0.7,0-1.1,0c-3.6,0-7-1.7-9.2-4.5L23.2,26
		C25.7,29.2,29.6,31.1,33.7,30.9z"/>
	<path class="st5" d="M27.7,6.8l-0.6,0.3L27.5,8c0.2-0.1,0.4-0.2,0.5-0.3s0.4-0.2,0.6-0.3c-0.1-0.3-0.2-0.6-0.4-0.9L27.7,6.8z"/>
	<path class="st5" d="M30.2,12L30.2,12l6.1,12.5l0,0c3.3-2.1,4.2-6.4,2.1-9.7C36.6,12.2,33.3,11,30.2,12z M38.5,18.8
		c-0.1,0-0.1,0-0.2,0c-0.3,0-0.5-0.2-0.5-0.5c0,0,0,0,0,0c0-0.7-0.2-1.4-0.5-2c-0.3-0.7-0.8-1.2-1.4-1.7c-0.2-0.2-0.3-0.5-0.1-0.7
		c0.2-0.2,0.5-0.3,0.7-0.1c0.7,0.5,1.3,1.2,1.7,2.1c0.4,0.8,0.6,1.6,0.6,2.5C38.8,18.6,38.7,18.7,38.5,18.8z"/>
	<path class="st5" d="M45.6,19.2c-0.1,0-0.2,0.1-0.2,0c-0.3,0-0.5-0.2-0.5-0.5c0,0,0,0,0,0c0.2-3.9-1.6-7.6-4.8-9.9
		c-0.2-0.2-0.3-0.5-0.1-0.7c0.2-0.2,0.5-0.3,0.7-0.1c3.4,2.5,5.3,6.5,5.2,10.7C45.9,18.9,45.8,19.1,45.6,19.2z"/>
</g>
</svg>
