<?xml version="1.0" encoding="utf-8"?>
<!-- Generator: Adobe Illustrator 23.0.2, SVG Export Plug-In . SVG Version: 6.00 Build 0)  -->
<svg version="1.1" id="Layer_1" xmlns="http://www.w3.org/2000/svg" xmlns:xlink="http://www.w3.org/1999/xlink" x="0px" y="0px"
	 viewBox="0 0 36.1 36.1" style="enable-background:new 0 0 36.1 36.1;" xml:space="preserve">
<style type="text/css">
	.st0{display:none;}
	.st1{display:inline;fill:#B0B0B0;}
	.st2{fill:none;}
</style>
<title>Web_icons</title>
<g id="EPS_BACK" class="st0">
	<circle class="st1" cx="15.4" cy="47.4" r="0.9"/>
	<circle class="st1" cx="19.2" cy="47.4" r="0.9"/>
	<circle class="st1" cx="23" cy="47.4" r="0.9"/>
</g>
<g id="EPS_ICON">
	<path class="st2" d="M14.4,4.7c-4.2,2-5.9,7.1-3.9,11.3s7.1,5.9,11.3,3.9s5.9-7.1,3.9-11.3S18.6,2.7,14.4,4.7z"/>
	<path d="M25.3,21.5c-0.7,0.5-1.4,1-2.1,1.3c-0.7,0.4-1.5,0.6-2.3,0.8l4.5,9.4l4.4-2.2L25.3,21.5z"/>
	<path d="M26.1,34.4c0.7,1.2,2.2,1.5,3.4,0.8c1-0.6,1.4-1.8,1-3v-0.1L26,34.2L26.1,34.4z"/>
	<path d="M13.7,3.1c-5.1,2.4-7.2,8.5-4.8,13.6c2,4.3,6.7,6.6,11.3,5.6c1.6-0.3,3.2-1.1,4.4-2.1c4.4-3.6,5-10,1.4-14.4
		C23,2.1,17.9,1,13.7,3.1L13.7,3.1z M21.8,19.8c-4.2,2-9.2,0.3-11.3-3.9s-0.3-9.2,3.9-11.3s9.2-0.3,11.3,3.9l0,0
		C27.7,12.8,26,17.8,21.8,19.8L21.8,19.8z"/>
	<rect x="21.3" y="29.8" transform="matrix(0.9001 -0.4357 0.4357 0.9001 -11.0578 12.5336)" width="1" height="1.2"/>
	<path d="M6.7,17.8C6.8,18,6.9,18.2,7,18.4l0.9-0.5c-0.1-0.2-0.2-0.4-0.3-0.5c-0.1-0.2-0.2-0.4-0.3-0.6l-0.9,0.4
		C6.5,17.3,6.6,17.6,6.7,17.8z"/>
	<path d="M5.8,15.3l1-0.3C5.7,10.5,7.3,5.8,11,2.9l-0.6-0.8C6.4,5.3,4.6,10.4,5.8,15.3z"/>
	<path d="M18.6,24.9l1.7,3.6l0.9-0.4l-1.5-3.2l-0.5-1c-0.4,0-0.7,0-1.1,0c-3.6,0-7-1.7-9.2-4.5L8.1,20
		C10.6,23.2,14.5,25.1,18.6,24.9z"/>
	<path d="M12.6,0.8L12,1.1L12.4,2c0.2-0.1,0.4-0.2,0.5-0.3c0.1-0.1,0.4-0.2,0.6-0.3c-0.1-0.3-0.2-0.6-0.4-0.9L12.6,0.8z"/>
	<path d="M15.1,6L15.1,6l6.1,12.5l0,0c3.3-2.1,4.2-6.4,2.1-9.7C21.5,6.2,18.2,5,15.1,6z M23.4,12.8c-0.1,0-0.1,0-0.2,0
		c-0.3,0-0.5-0.2-0.5-0.5l0,0c0-0.7-0.2-1.4-0.5-2c-0.3-0.7-0.8-1.2-1.4-1.7c-0.2-0.2-0.3-0.5-0.1-0.7c0.2-0.2,0.5-0.3,0.7-0.1
		c0.7,0.5,1.3,1.2,1.7,2.1c0.4,0.8,0.6,1.6,0.6,2.5C23.7,12.6,23.6,12.7,23.4,12.8z"/>
	<path d="M30.5,13.2c-0.1,0-0.2,0.1-0.2,0c-0.3,0-0.5-0.2-0.5-0.5l0,0C30,8.8,28.2,5.1,25,2.8c-0.2-0.2-0.3-0.5-0.1-0.7
		s0.5-0.3,0.7-0.1c3.4,2.5,5.3,6.5,5.2,10.7C30.8,12.9,30.7,13.1,30.5,13.2z"/>
</g>
</svg>
