<?xml version="1.0" encoding="utf-8"?>
<!-- Generator: Adobe Illustrator 23.0.2, SVG Export Plug-In . SVG Version: 6.00 Build 0)  -->
<svg version="1.1" id="Layer_1" xmlns="http://www.w3.org/2000/svg" xmlns:xlink="http://www.w3.org/1999/xlink" x="0px" y="0px"
	 viewBox="0 0 36.1 36.1" style="enable-background:new 0 0 36.1 36.1;" xml:space="preserve">
<style type="text/css">
	.st0{display:none;}
	.st1{display:inline;fill:#B0B0B0;}
</style>
<title>Web_icons</title>
<g id="EPS_BACK" class="st0">
	<circle class="st1" cx="15.6" cy="46.8" r="0.9"/>
	<circle class="st1" cx="19.4" cy="46.8" r="0.9"/>
	<circle class="st1" cx="23.2" cy="46.8" r="0.9"/>
</g>
<g id="EPS_ICON">
	<path d="M29.3,23.9c0,1-0.4,2-1.1,2.7l-0.1,0.1v7.7c0,0.6-0.2,1.2-0.6,1.6h1.2c0.3-0.5,0.4-1.1,0.4-1.6V27c0.8-0.9,1.2-2,1.2-3.2
		v-0.3h-1V23.9z"/>
	<path d="M21.6,34.1h-4.1v0.5c0,0.5-0.3,1.1-0.6,1.5h1.2c0.2-0.3,0.3-0.6,0.3-0.9h2.3c0.1,0.3,0.2,0.6,0.3,0.9h1.2
		c-0.4-0.4-0.6-0.9-0.6-1.5C21.6,34.6,21.6,34.1,21.6,34.1z"/>
	<path d="M11.2,26.7l-0.1-0.1c-0.3-0.3-0.5-0.6-0.7-0.9c-0.1-0.3-0.4-0.4-0.6-0.3c-0.3,0.1-0.4,0.4-0.3,0.6c0,0,0,0.1,0.1,0.1
		c0.2,0.4,0.4,0.7,0.7,1v7.3c0,0.6,0.2,1.1,0.4,1.6h1.2c-0.4-0.4-0.6-1-0.6-1.6L11.2,26.7L11.2,26.7z"/>
	<rect x="29.3" y="20.4" width="1" height="1.5"/>
	<path d="M10.4,9.4c0.3,0,0.5-0.2,0.5-0.5V7.3c0-3.5,2.8-6.3,6.3-6.3l0,0h1.2c0.3,0,0.5-0.2,0.5-0.5S18.7,0,18.4,0h-1.2
		c-4,0-7.3,3.3-7.3,7.3v1.6C9.9,9.2,10.1,9.4,10.4,9.4z"/>
	<path d="M28.9,12.3h-2.1V7.2c0-2.6-2.1-4.8-4.8-4.8h-4.8c-2.6,0-4.8,2.1-4.8,4.8v5.1h-2.2c-1.3,0-2.3,1-2.3,2.3l0,0v0.1
		c-1.6,0.3-2.8,1.8-2.8,3.5v2.1c0,2,1.6,3.6,3.5,3.6h2.9c0,0.9,0.5,1.7,1.2,2.1v8.4c0,0.5,0.4,0.9,0.9,0.9h1.5
		c0.5,0,0.9-0.4,0.9-0.9v-1.8h7.1v1.8c0,0.5,0.4,0.9,0.9,0.9h1.6c0.5,0,0.9-0.4,0.9-0.9v-8.5c0.7-0.4,1.2-1.2,1.2-2.1v-1.3
		c0-1.2-0.9-2.3-2.1-2.4v-1.5h3.2c1.3,0,2.3-1,2.3-2.3l0,0v-1.8C31.2,13.3,30.1,12.3,28.9,12.3L28.9,12.3z M13.9,7.2
		c0-1.8,1.5-3.3,3.3-3.3l0,0H22c1.8,0,3.3,1.5,3.3,3.3l0,0v5.1H13.9V7.2z M11.4,22.4H8.6c-1.1-0.1-2.1-1-2.1-2.1v-2.1
		c0-0.9,0.5-1.6,1.3-1.9v0.1c0,1.3,1,2.3,2.3,2.3l0,0h3.8v1.4h-0.1C12.6,20.1,11.5,21.1,11.4,22.4z M23.2,31.1H16v-1.3h7.2V31.1z
		 M23.2,28.3H16v-2h7.2V28.3z M26.3,22.5v1.3c0,0.5-0.4,0.9-0.9,0.9H13.8c-0.5,0-0.9-0.4-0.9-0.9v-1.3c0-0.5,0.4-0.9,0.9-0.9h11.5
		C25.9,21.6,26.3,22,26.3,22.5L26.3,22.5z M17.2,20.1v-1.4h5.1v1.4H17.2z M29.6,16.3c0,0.4-0.4,0.8-0.8,0.8l0,0H10.2
		c-0.4,0-0.8-0.4-0.8-0.8v-1.8c0-0.4,0.4-0.8,0.8-0.8l0,0h18.7c0.4,0,0.8,0.3,0.8,0.8l0,0L29.6,16.3z"/>
	<path d="M22,4.7c-0.3,0-0.5,0.2-0.5,0.5l0,0c0,0.3,0.2,0.5,0.5,0.5c0.9,0,1.5,0.7,1.5,1.5l0,0c0,0.3,0.2,0.5,0.5,0.5
		s0.5-0.2,0.5-0.5C24.5,5.8,23.4,4.7,22,4.7z"/>
</g>
</svg>
