<?xml version="1.0" encoding="utf-8"?>
<!-- Generator: Adobe Illustrator 23.0.2, SVG Export Plug-In . SVG Version: 6.00 Build 0)  -->
<svg version="1.1" id="Layer_1" xmlns="http://www.w3.org/2000/svg" xmlns:xlink="http://www.w3.org/1999/xlink" x="0px" y="0px"
	 viewBox="0 0 68.6 50.2" style="enable-background:new 0 0 68.6 50.2;" xml:space="preserve">
<style type="text/css">
	.st0{fill:#FFFFFF;}
	.st1{fill:#F58256;}
	.st2{fill:#7C8C8E;}
	.st3{display:none;fill:#B0B0B0;}
	.st4{fill:#193340;}
</style>
<title>Web_icons</title>
<g id="EPS_BACK">
	<circle class="st0" cx="34.3" cy="25.1" r="23.7"/>
	<path class="st1" d="M9.5,9.3H5.3C2.4,9.3,0,11.7,0,14.6v20.9c0,2.9,2.4,5.3,5.3,5.3h4.2C3.4,31.2,3.4,18.9,9.5,9.3L9.5,9.3z"/>
	<path class="st1" d="M63.3,9.3h-4.2c6.1,9.6,6.1,21.9,0,31.6h4.2c2.9,0,5.3-2.4,5.3-5.3v-21C68.5,11.7,66.2,9.4,63.3,9.3z"/>
	<path class="st2" d="M34.3,50.2c-13.9,0-25.1-11.2-25.1-25.1C9.2,11.2,20.4,0,34.3,0c13.9,0,25.1,11.2,25.1,25.1c0,0,0,0,0,0
		C59.4,38.9,48.1,50.1,34.3,50.2z M34.3,3c-12.2,0-22.1,9.9-22.1,22.1s9.9,22.1,22.1,22.1c12.2,0,22.1-9.9,22.1-22.1c0,0,0,0,0,0
		C56.4,12.9,46.5,3,34.3,3z"/>
	<circle class="st3" cx="30.5" cy="53.4" r="0.9"/>
	<circle class="st3" cx="34.3" cy="53.4" r="0.9"/>
	<circle class="st3" cx="38.1" cy="53.4" r="0.9"/>
</g>
<g id="EPS_ICON">
	<path class="st4" d="M44.2,30.5c0,1-0.4,2-1.1,2.7L43,33.3V41c0,0.6-0.2,1.2-0.6,1.6h1.2c0.3-0.5,0.4-1.1,0.4-1.6v-7.4
		c0.8-0.9,1.2-2,1.2-3.2v-0.3h-1L44.2,30.5z"/>
	<path class="st4" d="M36.5,40.7h-4.1v0.5c0,0.5-0.3,1.1-0.6,1.5H33c0.2-0.3,0.3-0.6,0.3-0.9h2.3c0.1,0.3,0.2,0.6,0.3,0.9h1.2
		c-0.4-0.4-0.6-0.9-0.6-1.5L36.5,40.7z"/>
	<path class="st4" d="M26.1,33.3l-0.1-0.1c-0.3-0.3-0.5-0.6-0.7-0.9c-0.1-0.3-0.4-0.4-0.6-0.3c-0.3,0.1-0.4,0.4-0.3,0.6
		c0,0,0,0.1,0.1,0.1c0.2,0.4,0.4,0.7,0.7,1V41c0,0.6,0.2,1.1,0.4,1.6h1.2c-0.4-0.4-0.6-1-0.6-1.6V33.3z"/>
	<rect x="44.2" y="27" class="st4" width="1" height="1.5"/>
	<path class="st4" d="M25.3,16c0.3,0,0.5-0.2,0.5-0.5v-1.6c0-3.5,2.8-6.3,6.3-6.3l0,0h1.2c0.3,0,0.5-0.2,0.5-0.5
		c0-0.3-0.2-0.5-0.5-0.5h-1.2c-4,0-7.3,3.3-7.3,7.3v1.6C24.8,15.8,25,16,25.3,16z"/>
	<path class="st4" d="M43.8,18.9h-2.1v-5.1c0-2.6-2.1-4.8-4.8-4.8h-4.8c-2.6,0-4.8,2.1-4.8,4.8v5.1h-2.2c-1.3,0-2.3,1-2.3,2.3
		c0,0,0,0,0,0v0.1c-1.6,0.3-2.8,1.8-2.8,3.5v2.1c0,2,1.6,3.6,3.5,3.6h2.9c0,0.9,0.5,1.7,1.2,2.1V41c0,0.5,0.4,0.9,0.9,0.9H30
		c0.5,0,0.9-0.4,0.9-0.9v-1.8h7.1V41c0,0.5,0.4,0.9,0.9,0.9h1.6c0.5,0,0.9-0.4,0.9-0.9v-8.5c0.7-0.4,1.2-1.2,1.2-2.1v-1.3
		c0-1.2-0.9-2.3-2.1-2.4v-1.5h3.2c1.3,0,2.3-1,2.3-2.3c0,0,0,0,0,0v-1.8C46.1,19.9,45,18.9,43.8,18.9C43.8,18.9,43.8,18.9,43.8,18.9
		z M28.8,13.8c0-1.8,1.5-3.3,3.3-3.3l0,0h4.8c1.8,0,3.3,1.5,3.3,3.3c0,0,0,0,0,0v5.1H28.8V13.8z M26.3,29h-2.8
		c-1.1-0.1-2.1-1-2.1-2.1v-2.1c0-0.9,0.5-1.6,1.3-1.9v0.1c0,1.3,1,2.3,2.3,2.3c0,0,0,0,0,0h3.8v1.4h-0.1
		C27.5,26.7,26.4,27.7,26.3,29z M38.1,37.7h-7.2v-1.3h7.2V37.7z M38.1,34.9h-7.2v-2h7.2V34.9z M41.2,29.1v1.3c0,0.5-0.4,0.9-0.9,0.9
		H28.7c-0.5,0-0.9-0.4-0.9-0.9v-1.3c0-0.5,0.4-0.9,0.9-0.9h11.5C40.8,28.2,41.2,28.6,41.2,29.1L41.2,29.1z M32.1,26.7v-1.4h5.1v1.4
		H32.1z M44.5,22.9c0,0.4-0.4,0.8-0.8,0.8l0,0H25.1c-0.4,0-0.8-0.4-0.8-0.8v-1.8c0-0.4,0.4-0.8,0.8-0.8c0,0,0,0,0,0h18.7
		c0.4,0,0.8,0.3,0.8,0.8c0,0,0,0,0,0L44.5,22.9z"/>
	<path class="st4" d="M36.9,11.3c-0.3,0-0.5,0.2-0.5,0.5c0,0,0,0,0,0c0,0.3,0.2,0.5,0.5,0.5c0.9,0,1.5,0.7,1.5,1.5v0
		c0,0.3,0.2,0.5,0.5,0.5c0.3,0,0.5-0.2,0.5-0.5C39.4,12.4,38.3,11.3,36.9,11.3z"/>
</g>
</svg>
