<svg xmlns="http://www.w3.org/2000/svg" viewBox="0 0 70.46 55.63"><defs><style>.cls-1{fill:#193340;}</style></defs><title>Web_icons-22.2</title><g id="EPS_ICON" data-name="EPS ICON"><path class="cls-1" d="M36.29,19.91a.78.78,0,0,0,1,.11l2.58-1.57,1.5-.33-2.72,2.73a7.45,7.45,0,0,1,2.1,1.49,7.36,7.36,0,0,1,1.48,2.1l2.73-2.73-.33,1.5L43,25.8a.79.79,0,0,0,.12,1l.14.11a.78.78,0,0,0,1.08-.26L46,23.91a.85.85,0,0,0,.09-.24l.89-4a.79.79,0,0,0-.17-.67A3.48,3.48,0,0,1,45,18a3.43,3.43,0,0,1-.94-1.79.82.82,0,0,0-.68-.17l-4,.89a.64.64,0,0,0-.24.1l-2.7,1.63a.78.78,0,0,0-.14,1.23Z"/><path class="cls-1" d="M49.37,16.94a2.42,2.42,0,0,0,.16-3.43,2.55,2.55,0,1,0-.16,3.43Z"/><path class="cls-1" d="M34.17,35.72a.78.78,0,0,0-1-.11l-2.58,1.57-1.51.33,2.73-2.73a7.66,7.66,0,0,1-2.1-1.49,7.75,7.75,0,0,1-1.49-2.1l-2.72,2.73.33-1.5,1.57-2.59a.79.79,0,0,0-.12-1,.58.58,0,0,0-.15-.11A.77.77,0,0,0,26.1,29l-1.64,2.7a.94.94,0,0,0-.1.23l-.88,4a.76.76,0,0,0,.17.67,3.43,3.43,0,0,1,2.73,2.73.73.73,0,0,0,.67.17l4-.88a.82.82,0,0,0,.24-.1L34,37a.79.79,0,0,0,.27-1.08Z"/><path class="cls-1" d="M21.08,38.69a2.33,2.33,0,1,0,3.43-.16A2.44,2.44,0,0,0,21.08,38.69Z"/><path class="cls-1" d="M47,36l-.89-4a.92.92,0,0,0-.09-.23L44.36,29a.78.78,0,0,0-1.08-.26l-.14.11a.79.79,0,0,0-.12,1l1.57,2.59.33,1.5-2.73-2.73a7.36,7.36,0,0,1-1.48,2.1,7.66,7.66,0,0,1-2.1,1.49l2.72,2.73-1.5-.33-2.58-1.57a.79.79,0,0,0-1.08.26A.79.79,0,0,0,36.43,37l2.7,1.63a.64.64,0,0,0,.24.1l4,.88a.75.75,0,0,0,.68-.17,3.43,3.43,0,0,1,2.73-2.73A.79.79,0,0,0,47,36Z"/><path class="cls-1" d="M45.94,38.53a2.55,2.55,0,1,0,3.43.16A2.44,2.44,0,0,0,45.94,38.53Z"/><path class="cls-1" d="M23.48,19.64l.88,4a.87.87,0,0,0,.1.24l1.64,2.7a.77.77,0,0,0,1.07.26.58.58,0,0,0,.15-.11.79.79,0,0,0,.12-1l-1.57-2.59-.33-1.5,2.72,2.73a7.6,7.6,0,0,1,1.49-2.1,7.45,7.45,0,0,1,2.1-1.49l-2.73-2.73,1.51.33L33.21,20a.78.78,0,0,0,1-.11l.12-.15A.79.79,0,0,0,34,18.68l-2.69-1.63a.82.82,0,0,0-.24-.1l-4-.89a.77.77,0,0,0-.67.18A3.44,3.44,0,0,1,25.44,18a3.48,3.48,0,0,1-1.79.95A.76.76,0,0,0,23.48,19.64Z"/><path class="cls-1" d="M24.51,17.1a2.55,2.55,0,0,0-3.59-3.59,2.55,2.55,0,0,0,3.59,3.59Z"/><path class="cls-1" d="M39.77,32.36a6.39,6.39,0,0,0,1.4-2.1,6.47,6.47,0,0,0,0-4.89,6.39,6.39,0,0,0-1.4-2.1,6.55,6.55,0,0,0-2.1-1.4,6.43,6.43,0,1,0,0,11.89A6.55,6.55,0,0,0,39.77,32.36Z"/></g></svg>