<?xml version="1.0" encoding="utf-8"?>
<!-- Generator: Adobe Illustrator 23.0.2, SVG Export Plug-In . SVG Version: 6.00 Build 0)  -->
<svg version="1.1" id="Layer_1" xmlns="http://www.w3.org/2000/svg" xmlns:xlink="http://www.w3.org/1999/xlink" x="0px" y="0px"
	 viewBox="0 0 29.8 30.5" style="enable-background:new 0 0 29.8 30.5;" xml:space="preserve">
<title>Web_icons-22.2</title>
<g id="EPS_ICON">
	<path d="M16,7.3c0.3,0.3,0.7,0.3,1,0.1l2.6-1.6L21,5.5l-2.7,2.7c0.8,0.4,1.5,0.9,2.1,1.5c0.6,0.6,1.1,1.3,1.5,2.1l2.7-2.7l-0.3,1.5
		l-1.6,2.6c-0.2,0.3-0.2,0.7,0.1,1l0.1,0.1c0.4,0.2,0.8,0.1,1.1-0.3c0,0,0,0,0,0l1.7-2.7c0-0.1,0.1-0.2,0.1-0.2l0.9-4
		c0-0.2,0-0.5-0.2-0.7c-0.7-0.1-1.3-0.5-1.8-1c-0.5-0.5-0.8-1.1-0.9-1.8c-0.2-0.2-0.4-0.2-0.7-0.2l-4,0.9c-0.1,0-0.2,0.1-0.2,0.1
		l-2.7,1.6c-0.4,0.2-0.5,0.7-0.3,1.1C15.9,7.2,15.9,7.3,16,7.3L16,7.3z"/>
	<path d="M29,4.4c1-0.9,1.1-2.4,0.2-3.4c0,0,0,0,0,0c-0.9-1.1-2.5-1.2-3.6-0.3c-1.1,0.9-1.2,2.5-0.3,3.6c0.9,1.1,2.5,1.2,3.6,0.3
		C28.9,4.5,29,4.4,29,4.4z"/>
	<path d="M13.8,23.1c-0.3-0.3-0.7-0.3-1-0.1l-2.6,1.6l-1.5,0.3l2.7-2.7c-0.8-0.4-1.5-0.9-2.1-1.5c-0.6-0.6-1.1-1.3-1.5-2.1l-2.7,2.7
		l0.3-1.5l1.6-2.6c0.2-0.3,0.2-0.7-0.1-1c0,0-0.1-0.1-0.1-0.1c-0.4-0.2-0.8-0.1-1,0.3l-1.6,2.7c0,0.1-0.1,0.1-0.1,0.2l-0.9,4
		c-0.1,0.2,0,0.5,0.2,0.7c1.4,0.3,2.5,1.3,2.7,2.7c0.2,0.2,0.4,0.2,0.7,0.2l4-0.9c0.1,0,0.2-0.1,0.2-0.1l2.7-1.5
		c0.4-0.2,0.5-0.7,0.3-1.1L13.8,23.1z"/>
	<path d="M0.7,26.1c-0.8,1-0.7,2.5,0.3,3.3c1,0.8,2.5,0.7,3.3-0.3c0.8-0.9,0.7-2.3-0.1-3.1C3.2,25,1.7,25.1,0.7,26.1z"/>
	<path d="M26.7,23.4l-0.9-4c0-0.1,0-0.2-0.1-0.2L24,16.4c-0.2-0.4-0.7-0.5-1.1-0.3c0,0,0,0,0,0l-0.1,0.1c-0.3,0.3-0.3,0.7-0.1,1
		l1.6,2.6l0.3,1.5l-2.7-2.7c-0.4,0.8-0.9,1.5-1.5,2.1c-0.6,0.6-1.3,1.1-2.1,1.5l2.7,2.7l-1.5-0.3L16.9,23c-0.4-0.2-0.9-0.1-1.1,0.3
		c-0.2,0.4-0.1,0.9,0.2,1.1c0,0,0,0,0,0l2.7,1.6c0.1,0,0.2,0.1,0.2,0.1l4,0.9c0.2,0.1,0.5,0,0.7-0.2c0.3-1.4,1.3-2.5,2.7-2.7
		C26.6,23.9,26.7,23.7,26.7,23.4z"/>
	<path d="M25.6,25.9c-1.1,0.9-1.2,2.5-0.3,3.6s2.5,1.2,3.6,0.3c1.1-0.9,1.2-2.5,0.3-3.6c-0.1-0.1-0.1-0.1-0.2-0.2
		C28.1,25.1,26.6,25,25.6,25.9z"/>
	<path d="M3.1,7.1l0.9,4c0,0.1,0.1,0.2,0.1,0.2L5.8,14c0.2,0.4,0.7,0.5,1.1,0.3c0,0,0,0,0,0c0.1,0,0.1-0.1,0.1-0.1
		c0.3-0.3,0.3-0.7,0.1-1l-1.6-2.6L5.2,9.1l2.7,2.7c0.4-0.8,0.9-1.5,1.5-2.1c0.6-0.6,1.3-1.1,2.1-1.5L8.8,5.5l1.5,0.3l2.6,1.6
		c0.3,0.2,0.7,0.2,1-0.1L14,7.2c0.2-0.4,0.1-0.9-0.3-1.1L11,4.5c-0.1,0-0.2-0.1-0.2-0.1l-4-0.9c-0.2,0-0.5,0-0.7,0.2
		c-0.1,0.7-0.5,1.3-1,1.8C4.6,5.9,4,6.2,3.3,6.4C3.1,6.6,3.1,6.8,3.1,7.1z"/>
	<path d="M4.2,4.5c0.9-1.1,0.7-2.7-0.3-3.6c-0.9-0.8-2.3-0.8-3.2,0C-0.3,2-0.2,3.6,0.9,4.5C1.9,5.3,3.2,5.3,4.2,4.5z"/>
	<path d="M19.4,19.8c0.6-0.6,1.1-1.3,1.4-2.1c0.6-1.6,0.6-3.3,0-4.9c-0.3-0.8-0.8-1.5-1.4-2.1c-0.6-0.6-1.3-1.1-2.1-1.4
		c-3.3-1.4-7,0.2-8.4,3.5c-1.4,3.3,0.2,7,3.5,8.4c1.6,0.6,3.3,0.6,4.9,0C18.1,20.8,18.8,20.4,19.4,19.8z"/>
</g>
</svg>
