<?xml version="1.0" encoding="utf-8"?>
<!-- Generator: Adobe Illustrator 23.0.2, SVG Export Plug-In . SVG Version: 6.00 Build 0)  -->
<svg version="1.1" id="Layer_1" xmlns="http://www.w3.org/2000/svg" xmlns:xlink="http://www.w3.org/1999/xlink" x="0px" y="0px"
	 viewBox="0 0 68.6 50.2" style="enable-background:new 0 0 68.6 50.2;" xml:space="preserve">
<style type="text/css">
	.st0{fill:#FFFFFF;}
	.st1{fill:#F58256;}
	.st2{fill:#7C8C8E;}
	.st3{display:none;fill:#B0B0B0;}
	.st4{fill:none;}
	.st5{fill:#193340;}
</style>
<title>Web_icons</title>
<g id="EPS_BACK">
	<circle class="st0" cx="34.3" cy="25.1" r="23.7"/>
	<path class="st1" d="M9.5,9.3H5.3C2.4,9.3,0,11.7,0,14.6v20.9c0,2.9,2.4,5.3,5.3,5.3h4.2C3.4,31.2,3.4,18.9,9.5,9.3L9.5,9.3z"/>
	<path class="st1" d="M63.3,9.3h-4.2c6.1,9.6,6.1,21.9,0,31.6h4.2c2.9,0,5.3-2.4,5.3-5.3v-21C68.5,11.7,66.2,9.4,63.3,9.3z"/>
	<path class="st2" d="M34.3,50.2c-13.9,0-25.1-11.2-25.1-25.1C9.2,11.2,20.4,0,34.3,0c13.9,0,25.1,11.2,25.1,25.1c0,0,0,0,0,0
		C59.4,38.9,48.1,50.1,34.3,50.2z M34.3,3c-12.2,0-22.1,9.9-22.1,22.1s9.9,22.1,22.1,22.1c12.2,0,22.1-9.9,22.1-22.1c0,0,0,0,0,0
		C56.4,12.9,46.5,3,34.3,3z"/>
	<circle class="st3" cx="30.5" cy="53.4" r="0.9"/>
	<circle class="st3" cx="34.3" cy="53.4" r="0.9"/>
	<circle class="st3" cx="38.1" cy="53.4" r="0.9"/>
</g>
<g id="EPS_ICON">
	<path class="st4" d="M43.2,13.5H28v-1.8h-1.4c-0.3,0-0.5,0.2-0.5,0.5v24.7h19.1V12.2c0-0.3-0.2-0.5-0.5-0.5h-1.5V13.5z"/>
	<rect x="26" y="38.4" class="st4" width="19.1" height="1.9"/>
	<path class="st5" d="M44.6,10.2h-1.5c0-0.8-0.7-1.5-1.6-1.5h-2.5c-0.1-0.8-0.9-1.4-1.7-1.4h-3.6c-0.8,0-1.6,0.6-1.7,1.4h-2.5
		c-0.8,0-1.5,0.7-1.6,1.5h-1.5c-1.1,0-2,0.9-2,2v29.7h22.1V12.2C46.6,11.1,45.7,10.2,44.6,10.2z M29.6,10.2h4V9
		c0-0.1,0.1-0.3,0.3-0.3h3.6c0.1,0,0.2,0.1,0.2,0.2v1.2h4c0,0,0.1,0,0.1,0.1c0,0,0,0.1,0,0.1V12H29.4v-1.7c0,0,0-0.1,0-0.1
		C29.5,10.2,29.5,10.2,29.6,10.2L29.6,10.2z M45.1,40.4h-19v-1.9h19V40.4z M45.1,36.9h-19V12.2c0-0.3,0.2-0.5,0.5-0.5H28v1.8h15.1
		v-1.8h1.5c0.3,0,0.5,0.2,0.5,0.5V36.9z"/>
	<path class="st5" d="M22.5,14.4c-0.3,0-0.5,0.2-0.5,0.5v15.3h1V14.9C23,14.6,22.8,14.4,22.5,14.4z"/>
	<rect x="22" y="34.9" class="st5" width="1" height="7"/>
	<path class="st5" d="M44.6,7.7c-0.3,0-0.5,0.2-0.5,0.5s0.2,0.5,0.5,0.5c1.9,0,3.5,1.6,3.5,3.5l0,0v8.6h1v-8.6
		C49.1,9.7,47.1,7.7,44.6,7.7z"/>
	<rect x="22" y="31.9" class="st5" width="1" height="1.2"/>
	<rect x="48.1" y="22.6" class="st5" width="1" height="1.2"/>
	<path class="st5" d="M35.6,30.1c-1.5,0-2.7,1.2-2.7,2.7c0,1.5,1.2,2.7,2.7,2.7c1.5,0,2.7-1.2,2.7-2.7
		C38.3,31.4,37.1,30.1,35.6,30.1z M35.6,34.1c-0.7,0-1.2-0.5-1.2-1.2c0-0.7,0.5-1.2,1.2-1.2c0.7,0,1.2,0.5,1.2,1.2c0,0,0,0,0,0
		C36.8,33.5,36.3,34.1,35.6,34.1z"/>
	<rect x="35.1" y="27.9" class="st5" width="1" height="1.4"/>
	<rect x="35.1" y="23.1" class="st5" width="1" height="1.4"/>
	<rect x="35.1" y="20.7" class="st5" width="1" height="1.4"/>
	<rect x="35.1" y="25.5" class="st5" width="1" height="1.4"/>
	<path class="st5" d="M41.3,22.4l-3.5-3.5c0.9-1.2,0.6-2.9-0.6-3.8s-2.9-0.6-3.8,0.6c-0.7,1-0.7,2.3,0,3.2l-3.5,3.5
		c-1.5,0-2.7,1.2-2.7,2.7s1.2,2.7,2.7,2.7s2.7-1.2,2.7-2.7c0-1.1-0.6-2-1.6-2.5l3.1-3.1c0.4,0.3,0.9,0.4,1.5,0.4
		c0.5,0,1-0.1,1.5-0.4l3.1,3.1c-1.4,0.6-2,2.2-1.4,3.6c0.6,1.4,2.2,2,3.6,1.4c1.4-0.6,2-2.2,1.4-3.6C43.3,23.1,42.4,22.4,41.3,22.4z
		 M31.1,25.1c0,0.7-0.5,1.2-1.2,1.2s-1.2-0.5-1.2-1.2s0.5-1.2,1.2-1.2l0,0C30.6,23.9,31.1,24.4,31.1,25.1z M41.2,26.3
		c-0.7,0-1.2-0.5-1.2-1.2c0-0.7,0.5-1.2,1.2-1.2c0.7,0,1.2,0.5,1.2,1.2S41.9,26.3,41.2,26.3L41.2,26.3z"/>
</g>
</svg>
