<?xml version="1.0" encoding="utf-8"?>
<!-- Generator: Adobe Illustrator 23.0.2, SVG Export Plug-In . SVG Version: 6.00 Build 0)  -->
<svg version="1.1" id="Layer_1" xmlns="http://www.w3.org/2000/svg" xmlns:xlink="http://www.w3.org/1999/xlink" x="0px" y="0px"
	 viewBox="0 0 36.1 36.1" style="enable-background:new 0 0 36.1 36.1;" xml:space="preserve">
<style type="text/css">
	.st0{display:none;}
	.st1{display:inline;fill:#B0B0B0;}
	.st2{fill:none;}
</style>
<title>Web_icons</title>
<g id="EPS_BACK" class="st0">
	<circle class="st1" cx="13" cy="46.9" r="0.9"/>
	<circle class="st1" cx="16.8" cy="46.9" r="0.9"/>
	<circle class="st1" cx="20.6" cy="46.9" r="0.9"/>
</g>
<g id="EPS_ICON">
	<path class="st2" d="M25.7,7H10.5V5.2H9.1c-0.3,0-0.5,0.2-0.5,0.5v24.7h19.1V5.7c0-0.3-0.2-0.5-0.5-0.5h-1.5V7z"/>
	<rect x="8.5" y="31.9" class="st2" width="19.1" height="1.9"/>
	<path d="M27.1,3.7h-1.5c0-0.8-0.7-1.5-1.6-1.5h-2.5c-0.1-0.8-0.9-1.4-1.7-1.4h-3.6c-0.8,0-1.6,0.6-1.7,1.4H12
		c-0.8,0-1.5,0.7-1.6,1.5H8.9c-1.1,0-2,0.9-2,2v29.7H29V5.7C29.1,4.6,28.2,3.7,27.1,3.7z M12.1,3.7h4V2.5c0-0.1,0.1-0.3,0.3-0.3H20
		c0.1,0,0.2,0.1,0.2,0.2v1.2h4c0,0,0.1,0,0.1,0.1v0.1v1.7H11.9V3.8V3.7C12,3.7,12,3.7,12.1,3.7L12.1,3.7z M27.6,33.9h-19V32h19V33.9
		z M27.6,30.4h-19V5.7c0-0.3,0.2-0.5,0.5-0.5h1.4V7h15.1V5.2h1.5c0.3,0,0.5,0.2,0.5,0.5V30.4z"/>
	<path d="M5,7.9c-0.3,0-0.5,0.2-0.5,0.5v15.3h1V8.4C5.5,8.1,5.3,7.9,5,7.9z"/>
	<rect x="4.5" y="28.4" width="1" height="7"/>
	<path d="M27.1,1.2c-0.3,0-0.5,0.2-0.5,0.5s0.2,0.5,0.5,0.5c1.9,0,3.5,1.6,3.5,3.5l0,0v8.6h1V5.7C31.6,3.2,29.6,1.2,27.1,1.2z"/>
	<rect x="4.5" y="25.4" width="1" height="1.2"/>
	<rect x="30.6" y="16.1" width="1" height="1.2"/>
	<path d="M18.1,23.6c-1.5,0-2.7,1.2-2.7,2.7s1.2,2.7,2.7,2.7s2.7-1.2,2.7-2.7C20.8,24.9,19.6,23.6,18.1,23.6z M18.1,27.6
		c-0.7,0-1.2-0.5-1.2-1.2s0.5-1.2,1.2-1.2s1.2,0.5,1.2,1.2l0,0C19.3,27,18.8,27.6,18.1,27.6z"/>
	<rect x="17.6" y="21.4" width="1" height="1.4"/>
	<rect x="17.6" y="16.6" width="1" height="1.4"/>
	<rect x="17.6" y="14.2" width="1" height="1.4"/>
	<rect x="17.6" y="19" width="1" height="1.4"/>
	<path d="M23.8,15.9l-3.5-3.5c0.9-1.2,0.6-2.9-0.6-3.8S16.8,8,15.9,9.2c-0.7,1-0.7,2.3,0,3.2l-3.5,3.5c-1.5,0-2.7,1.2-2.7,2.7
		s1.2,2.7,2.7,2.7s2.7-1.2,2.7-2.7c0-1.1-0.6-2-1.6-2.5l3.1-3.1c0.4,0.3,0.9,0.4,1.5,0.4c0.5,0,1-0.1,1.5-0.4l3.1,3.1
		c-1.4,0.6-2,2.2-1.4,3.6s2.2,2,3.6,1.4s2-2.2,1.4-3.6C25.8,16.6,24.9,15.9,23.8,15.9z M13.6,18.6c0,0.7-0.5,1.2-1.2,1.2
		s-1.2-0.5-1.2-1.2s0.5-1.2,1.2-1.2l0,0C13.1,17.4,13.6,17.9,13.6,18.6z M23.7,19.8c-0.7,0-1.2-0.5-1.2-1.2s0.5-1.2,1.2-1.2
		s1.2,0.5,1.2,1.2S24.4,19.8,23.7,19.8L23.7,19.8z"/>
</g>
</svg>
