<?xml version="1.0" encoding="utf-8"?>
<!-- Generator: Adobe Illustrator 23.0.2, SVG Export Plug-In . SVG Version: 6.00 Build 0)  -->
<svg version="1.1" id="Layer_1" xmlns="http://www.w3.org/2000/svg" xmlns:xlink="http://www.w3.org/1999/xlink" x="0px" y="0px"
	 viewBox="0 0 36.1 36.1" style="enable-background:new 0 0 36.1 36.1;" xml:space="preserve">
<style type="text/css">
	.st0{display:none;}
	.st1{display:inline;fill:#B0B0B0;}
</style>
<title>Web_icons</title>
<g id="EPS_BACK" class="st0">
	<circle class="st1" cx="13.3" cy="47.1" r="0.9"/>
	<circle class="st1" cx="17.1" cy="47.1" r="0.9"/>
	<circle class="st1" cx="20.9" cy="47.1" r="0.9"/>
</g>
<g id="EPS_ICON">
	<path d="M18.2,12.5h-0.6c-0.1-0.3-0.2-0.6-0.3-0.8l0.4-0.4c0.1-0.1,0.1-0.2,0-0.3l0,0l-0.9-1c-0.1-0.1-0.2-0.1-0.3,0l0,0l-0.4,0.4
		c-0.3-0.1-0.5-0.3-0.8-0.3V9.5c0-0.1-0.1-0.2-0.2-0.2h-1.3c-0.1,0-0.2,0.1-0.2,0.2l0,0V10c-0.3,0.1-0.6,0.2-0.8,0.3l-0.4-0.4
		c-0.1-0.1-0.2-0.1-0.3,0l0,0l-0.9,0.9c-0.1,0.1-0.1,0.2,0,0.3l0.4,0.4c-0.2,0.3-0.3,0.5-0.4,0.8h-0.6c-0.1,0-0.2,0.1-0.2,0.2v1.4
		c0,0.1,0.1,0.2,0.2,0.2h0.6c0.1,0.3,0.2,0.6,0.3,0.8l-0.4,0.4c-0.1,0.1-0.1,0.2,0,0.3l0,0l0.9,0.9c0.1,0.1,0.2,0.1,0.3,0l0,0
		l0.4-0.4c0.3,0.2,0.5,0.3,0.8,0.4v0.6c0,0.1,0.1,0.2,0.2,0.2l0,0H15c0.1,0,0.2-0.1,0.2-0.2v-0.6c0.3-0.1,0.6-0.2,0.8-0.3l0.4,0.4
		c0.1,0.1,0.2,0.1,0.3,0l0,0l0.9-0.9c0.1-0.1,0.1-0.2,0-0.3l-0.4-0.5c0.2-0.3,0.3-0.5,0.3-0.8h0.6c0.1,0,0.2-0.1,0.2-0.2l0,0v-1.2
		C18.4,12.6,18.3,12.5,18.2,12.5L18.2,12.5z M14.3,15.2c-1,0-1.9-0.8-1.9-1.9s0.8-1.9,1.9-1.9s1.9,0.8,1.9,1.9l0,0
		C16.2,14.4,15.4,15.2,14.3,15.2z"/>
	<path d="M23.6,9.6h-0.4c0-0.2-0.1-0.4-0.2-0.6l0.3-0.2c0.1-0.1,0.1-0.2,0-0.2l-0.5-0.8c-0.1-0.1-0.2-0.1-0.2,0l0,0l-0.3,0.3
		c-0.2-0.1-0.4-0.2-0.6-0.3V7.4c0-0.1-0.1-0.2-0.1-0.2l-0.9-0.1c-0.1,0-0.2,0-0.2,0.1l0,0v0.4c-0.2,0-0.4,0.1-0.6,0.2l-0.2-0.3
		c-0.1-0.1-0.2-0.1-0.2,0l-0.7,0.6c-0.1,0.1-0.1,0.2,0,0.2L19,8.6c-0.1,0.2-0.2,0.4-0.3,0.6l-0.4-0.1c-0.1,0-0.2,0.1-0.2,0.1
		L18,10.1c0,0.1,0,0.2,0.1,0.2l0,0h0.4c0,0.2,0.1,0.4,0.2,0.6l-0.3,0.3c-0.1,0.1-0.1,0.2,0,0.2l0.5,0.7c0.1,0.1,0.2,0.1,0.2,0
		l0.3-0.3c0.2,0.1,0.4,0.2,0.6,0.3v0.4c0,0.1,0.1,0.2,0.1,0.2l0.9,0.1c0.1,0,0.1,0,0.2-0.1l0,0v-0.4c0.2,0,0.4-0.1,0.6-0.2l0.3,0.3
		c0.1,0.1,0.2,0.1,0.2,0l0,0l0.7-0.6c0.1-0.1,0.1-0.1,0-0.2l-0.3-0.3c0.1-0.2,0.2-0.4,0.3-0.5h0.4c0.1,0,0.2,0,0.2-0.1l0,0l0.1-0.9
		C23.7,9.7,23.7,9.6,23.6,9.6z M22.2,10c-0.1,0.7-0.7,1.3-1.5,1.2c-0.7-0.1-1.3-0.7-1.2-1.5C19.6,9,20.2,8.4,21,8.5l0,0
		C21.7,8.7,22.2,9.3,22.2,10z"/>
	<path d="M31.3,15.2c-0.5-1.3-0.8-2.6-1.1-3.9l-1.1,0.2c0.3,1.4,0.6,2.8,1.1,4.1L31.3,15.2z"/>
	<path d="M27.5,11.6C27,6.1,22.1,2.2,16.6,2.7c-5.1,0.5-8.9,4.8-8.9,9.9c0,0.5,0.1,1.1,0.1,1.6l0,0c0,0,0,0,0,0.1
		C8,15.4,9,25.3,6.3,31.8c-0.2,0.5-0.4,1-0.7,1.5C6,33.6,6.5,33.9,7,34.2c4.5,2.5,9.9,2.5,14.4,0.1c0.5-0.3,1-0.5,1.4-0.9
		c-0.2-0.5-0.5-1-0.7-1.5c-0.6-1.7-1.1-3.4-1.3-5.1c2.3,0.3,4.6,0,6.7-0.7l0.7-0.3L28,25.1c-0.3-1.6-0.5-3.1-0.6-4.7l3.2-0.1
		L30,19.2C28.9,16.8,28,14.2,27.5,11.6z M14.4,34.5c-2.3,0-4.6-0.6-6.6-1.7c0.2-0.5,0.4-1,0.6-1.6c3.8,1.7,8.1,1.8,11.9,0.1
		c0.2,0.5,0.3,1.1,0.6,1.6C18.8,33.9,16.6,34.5,14.4,34.5z M25.7,18.8l0.1,0.8c0,0.4,0.2,3.4,0.6,5.1c-2,0.6-4.2,0.7-6.2,0.2
		l-1.1-0.3l0.1,1.1c0.2,1.5,0.4,2.9,0.8,4.3c-3.6,1.6-7.7,1.6-11.3-0.1c0.9-3.7,1.3-7.5,1.2-11.4c-0.1-2.2-0.3-3.8-0.4-4.5
		c0-0.1,0-0.2,0-0.3c-0.1-0.5-0.1-0.9-0.1-1.4c0-4.6,3.7-8.3,8.3-8.3c4.3,0,7.9,3.2,8.3,7.5v0.1c0.3,1.4,0.6,2.8,1.1,4.1
		c0.3,1,0.7,1.9,1.1,2.8L25.7,18.8z"/>
	<path d="M10.5,3.5L9.9,2.7C9.5,3,9.2,3.2,8.9,3.5l0.8,0.8C9.9,4,10.2,3.7,10.5,3.5z"/>
	<path d="M16,1.2c0.7-0.1,1.5-0.2,2.3-0.1l0.1-1c-0.8,0-1.7,0-2.5,0.1l0,0c-1.6,0.2-3.1,0.8-4.5,1.6l0.5,0.9
		C13.2,1.9,14.6,1.4,16,1.2z"/>
	<path d="M6.3,14.6v-0.1c-0.1-0.6-0.2-1.2-0.2-1.9c0-1,0.1-2.1,0.4-3.1c0.4-1.4,1.1-2.8,2-4L7.6,4.9c-1,1.3-1.8,2.8-2.2,4.4l0,0
		c-0.3,1.1-0.5,2.2-0.5,3.4c0,0.7,0.1,1.3,0.2,2l0,0c0,0.2,0.1,1.2,0.2,2.7l1.1-0.1C6.4,15.8,6.3,14.8,6.3,14.6z"/>
	<path d="M26.9,28c0.1,0.4,0.2,0.7,0.3,1c0.5-0.2,1-0.3,1.2-0.4l-0.4-1C27.8,27.7,27.4,27.8,26.9,28z"/>
	<path d="M25.3,28.3c-0.6,0.1-1.2,0.2-1.8,0.2h-0.7l0.2,0.6c0.2,0.7,0.4,1.5,0.7,2.2c0.2,0.5,0.4,0.9,0.6,1.4l1-0.5
		c-0.2-0.4-0.4-0.9-0.5-1.3s-0.3-0.9-0.5-1.4c0.4,0,0.8-0.1,1.2-0.2C25.4,29,25.3,28.7,25.3,28.3z"/>
</g>
</svg>
