<?xml version="1.0" encoding="utf-8"?>
<!-- Generator: Adobe Illustrator 23.0.2, SVG Export Plug-In . SVG Version: 6.00 Build 0)  -->
<svg version="1.1" id="Layer_1" xmlns="http://www.w3.org/2000/svg" xmlns:xlink="http://www.w3.org/1999/xlink" x="0px" y="0px"
	 viewBox="0 0 68.6 50.2" style="enable-background:new 0 0 68.6 50.2;" xml:space="preserve">
<style type="text/css">
	.st0{fill:#FFFFFF;}
	.st1{fill:#F58256;}
	.st2{fill:#7C8C8E;}
	.st3{display:none;fill:#B0B0B0;}
	.st4{fill:#193340;}
</style>
<title>Web_icons</title>
<g id="EPS_BACK">
	<circle class="st0" cx="34.3" cy="25.1" r="23.7"/>
	<path class="st1" d="M9.5,9.3H5.3C2.4,9.3,0,11.7,0,14.6v20.9c0,2.9,2.4,5.3,5.3,5.3h4.2C3.4,31.2,3.4,18.9,9.5,9.3L9.5,9.3z"/>
	<path class="st1" d="M63.3,9.3h-4.2c6.1,9.6,6.1,21.9,0,31.6h4.2c2.9,0,5.3-2.4,5.3-5.3v-21C68.5,11.7,66.2,9.4,63.3,9.3z"/>
	<path class="st2" d="M34.3,50.2c-13.9,0-25.1-11.2-25.1-25.1C9.2,11.2,20.4,0,34.3,0c13.9,0,25.1,11.2,25.1,25.1c0,0,0,0,0,0
		C59.4,38.9,48.1,50.1,34.3,50.2z M34.3,3c-12.2,0-22.1,9.9-22.1,22.1s9.9,22.1,22.1,22.1c12.2,0,22.1-9.9,22.1-22.1c0,0,0,0,0,0
		C56.4,12.9,46.5,3,34.3,3z"/>
	<circle class="st3" cx="30.5" cy="53.4" r="0.9"/>
	<circle class="st3" cx="34.3" cy="53.4" r="0.9"/>
	<circle class="st3" cx="38.1" cy="53.4" r="0.9"/>
</g>
<g id="EPS_ICON">
	<path class="st4" d="M35.4,18.8h-0.6c-0.1-0.3-0.2-0.6-0.3-0.8l0.4-0.4c0.1-0.1,0.1-0.2,0-0.3c0,0,0,0,0,0L34,16.3
		c-0.1-0.1-0.2-0.1-0.3,0c0,0,0,0,0,0l-0.4,0.4c-0.3-0.1-0.5-0.3-0.8-0.3v-0.6c0-0.1-0.1-0.2-0.2-0.2h-1.3c-0.1,0-0.2,0.1-0.2,0.2
		c0,0,0,0,0,0v0.5c-0.3,0.1-0.6,0.2-0.8,0.3l-0.4-0.4c-0.1-0.1-0.2-0.1-0.3,0c0,0,0,0,0,0l-0.9,0.9c-0.1,0.1-0.1,0.2,0,0.3l0.4,0.4
		c-0.2,0.3-0.3,0.5-0.4,0.8h-0.6c-0.1,0-0.2,0.1-0.2,0.2v1.4c0,0.1,0.1,0.2,0.2,0.2h0.6c0.1,0.3,0.2,0.6,0.3,0.8l-0.4,0.4
		c-0.1,0.1-0.1,0.2,0,0.3c0,0,0,0,0,0l0.9,0.9c0.1,0.1,0.2,0.1,0.3,0c0,0,0,0,0,0l0.4-0.4c0.3,0.2,0.5,0.3,0.8,0.4v0.6
		c0,0.1,0.1,0.2,0.2,0.2c0,0,0,0,0,0h1.3c0.1,0,0.2-0.1,0.2-0.2v-0.6c0.3-0.1,0.6-0.2,0.8-0.3l0.4,0.4c0.1,0.1,0.2,0.1,0.3,0
		c0,0,0,0,0,0l0.9-0.9c0.1-0.1,0.1-0.2,0-0.3l-0.4-0.5c0.2-0.3,0.3-0.5,0.3-0.8h0.6c0.1,0,0.2-0.1,0.2-0.2c0,0,0,0,0,0V19
		C35.6,18.9,35.5,18.8,35.4,18.8C35.4,18.8,35.4,18.8,35.4,18.8z M31.5,21.5c-1,0-1.9-0.8-1.9-1.9s0.8-1.9,1.9-1.9s1.9,0.8,1.9,1.9
		c0,0,0,0,0,0C33.4,20.7,32.6,21.5,31.5,21.5z"/>
	<path class="st4" d="M40.8,15.9h-0.4c0-0.2-0.1-0.4-0.2-0.6l0.3-0.2c0.1-0.1,0.1-0.2,0-0.2L40,14.1c-0.1-0.1-0.2-0.1-0.2,0
		c0,0,0,0,0,0l-0.3,0.3c-0.2-0.1-0.4-0.2-0.6-0.3l0-0.4c0-0.1-0.1-0.2-0.1-0.2l-0.9-0.1c-0.1,0-0.2,0-0.2,0.1c0,0,0,0,0,0l0,0.4
		c-0.2,0-0.4,0.1-0.6,0.2l-0.2-0.3c-0.1-0.1-0.2-0.1-0.2,0l-0.7,0.6c-0.1,0.1-0.1,0.2,0,0.2l0.2,0.3c-0.1,0.2-0.2,0.4-0.3,0.6
		l-0.4-0.1c-0.1,0-0.2,0.1-0.2,0.1l-0.1,0.9c0,0.1,0,0.2,0.1,0.2c0,0,0,0,0,0h0.4c0,0.2,0.1,0.4,0.2,0.6l-0.3,0.3
		c-0.1,0.1-0.1,0.2,0,0.2l0.5,0.7c0.1,0.1,0.2,0.1,0.2,0l0.3-0.3c0.2,0.1,0.4,0.2,0.6,0.3v0.4c0,0.1,0.1,0.2,0.1,0.2l0.9,0.1
		c0.1,0,0.1,0,0.2-0.1c0,0,0,0,0,0v-0.4c0.2,0,0.4-0.1,0.6-0.2l0.3,0.3c0.1,0.1,0.2,0.1,0.2,0c0,0,0,0,0,0l0.7-0.6
		c0.1-0.1,0.1-0.1,0-0.2l-0.3-0.3c0.1-0.2,0.2-0.4,0.3-0.5l0.4,0c0.1,0,0.2,0,0.2-0.1c0,0,0,0,0,0l0.1-0.9
		C40.9,16,40.9,15.9,40.8,15.9z M39.4,16.3c-0.1,0.7-0.7,1.3-1.5,1.2c-0.7-0.1-1.3-0.7-1.2-1.5c0.1-0.7,0.7-1.3,1.5-1.2c0,0,0,0,0,0
		C38.9,15,39.4,15.6,39.4,16.3z"/>
	<path class="st4" d="M48.5,21.5c-0.5-1.3-0.8-2.6-1.1-3.9l-1.1,0.2c0.3,1.4,0.6,2.8,1.1,4.1L48.5,21.5z"/>
	<path class="st4" d="M44.7,17.9c-0.5-5.5-5.4-9.4-10.9-8.9c-5.1,0.5-8.9,4.8-8.9,9.9c0,0.5,0.1,1.1,0.1,1.6l0,0c0,0,0,0,0,0.1
		c0.2,1.1,1.2,11-1.5,17.5c-0.2,0.5-0.4,1-0.7,1.5c0.4,0.3,0.9,0.6,1.4,0.9c4.5,2.5,9.9,2.5,14.4,0.1c0.5-0.3,1-0.5,1.4-0.9
		c-0.2-0.5-0.5-1-0.7-1.5c-0.6-1.7-1.1-3.4-1.3-5.1c2.3,0.3,4.6,0,6.7-0.7l0.7-0.3l-0.2-0.7c-0.3-1.6-0.5-3.1-0.6-4.7l3.2-0.1
		l-0.6-1.1C46.1,23.1,45.2,20.5,44.7,17.9z M31.6,40.8c-2.3,0-4.6-0.6-6.6-1.7c0.2-0.5,0.4-1,0.6-1.6c3.8,1.7,8.1,1.8,11.9,0.1
		c0.2,0.5,0.3,1.1,0.6,1.6C36,40.2,33.8,40.8,31.6,40.8z M42.9,25.1l0.1,0.8c0,0.4,0.2,3.4,0.6,5.1c-2,0.6-4.2,0.7-6.2,0.2l-1.1-0.3
		l0.1,1.1c0.2,1.5,0.4,2.9,0.8,4.3c-3.6,1.6-7.7,1.6-11.3-0.1c0.9-3.7,1.3-7.5,1.2-11.4c-0.1-2.2-0.3-3.8-0.4-4.5c0-0.1,0-0.2,0-0.3
		c-0.1-0.5-0.1-0.9-0.1-1.4c0-4.6,3.7-8.3,8.3-8.3c4.3,0,7.9,3.2,8.3,7.5v0.1c0.3,1.4,0.6,2.8,1.1,4.1c0.3,1,0.7,1.9,1.1,2.8
		L42.9,25.1z"/>
	<path class="st4" d="M27.7,9.8L27.1,9c-0.4,0.3-0.7,0.5-1,0.8l0.8,0.8C27.1,10.3,27.4,10,27.7,9.8z"/>
	<path class="st4" d="M33.2,7.5c0.7-0.1,1.5-0.2,2.3-0.1l0.1-1c-0.8,0-1.7,0-2.5,0.1l0,0c-1.6,0.2-3.1,0.8-4.5,1.6l0.5,0.9
		C30.4,8.2,31.8,7.7,33.2,7.5z"/>
	<path class="st4" d="M23.5,20.9v-0.1c-0.1-0.6-0.2-1.2-0.2-1.9c0-1,0.1-2.1,0.4-3.1c0.4-1.4,1.1-2.8,2-4l-0.9-0.6
		c-1,1.3-1.8,2.8-2.2,4.4l0,0c-0.3,1.1-0.5,2.2-0.5,3.4c0,0.7,0.1,1.3,0.2,2V21c0,0.2,0.1,1.2,0.2,2.7l1.1-0.1
		C23.6,22.1,23.5,21.1,23.5,20.9z"/>
	<path class="st4" d="M44.1,34.3c0.1,0.4,0.2,0.7,0.3,1c0.5-0.2,1-0.3,1.2-0.4l-0.4-1C45,34,44.6,34.1,44.1,34.3z"/>
	<path class="st4" d="M42.5,34.6c-0.6,0.1-1.2,0.2-1.8,0.2H40l0.2,0.6c0.2,0.7,0.4,1.5,0.7,2.2c0.2,0.5,0.4,0.9,0.6,1.4l1-0.5
		c-0.2-0.4-0.4-0.9-0.5-1.3s-0.3-0.9-0.5-1.4c0.4,0,0.8-0.1,1.2-0.2C42.6,35.3,42.5,35,42.5,34.6z"/>
</g>
</svg>
