<svg xmlns="http://www.w3.org/2000/svg" viewBox="0 0 70.46 55.63"><defs><style>.cls-1{fill:none;}.cls-2{fill:#193340;}</style></defs><title>Web_icons-21</title><g id="EPS_ICON" data-name="EPS ICON"><path class="cls-1" d="M22.42,17.89A2.92,2.92,0,1,1,25.34,15,2.92,2.92,0,0,1,22.42,17.89Zm8.25,10H27.4V24.08A2.3,2.3,0,0,0,29.15,24v1.12h2a4.48,4.48,0,0,0,.66,1.68A2.55,2.55,0,0,0,30.67,27.9Zm7.64-2.77a2.95,2.95,0,0,1-2.81,2.18,2.91,2.91,0,0,1-2-.77,2.81,2.81,0,0,1-.85-1.41,2.55,2.55,0,0,1-.11-.74,2.92,2.92,0,1,1,5.73.74ZM43,27.56l-.2.34H39.73a2.39,2.39,0,0,0-.76-.82,4.38,4.38,0,0,0,.87-1.95h3.79Zm6.2-5.48a2.92,2.92,0,1,1,2.91-2.92A2.92,2.92,0,0,1,49.19,22.08Z"/><path class="cls-1" d="M48.91,33.34l-.34,7.76c.44-.37.87-.75,1.27-1.16l-.3-6.6Z"/><path class="cls-1" d="M35.22,38.57,34.9,46l.38,0c.31,0,.6,0,.91,0l-.34-7.38Z"/><path class="cls-1" d="M45.57,23.64a1,1,0,0,1,.16-.34A1,1,0,0,0,45.57,23.64Z"/><path class="cls-1" d="M46.54,22.89h-.08a.92.92,0,0,1,.33,0A1.07,1.07,0,0,0,46.54,22.89Z"/><path class="cls-1" d="M46.11,23a.86.86,0,0,1,.21-.07A.86.86,0,0,0,46.11,23Z"/><path class="cls-1" d="M45.81,23.22l.18-.16Z"/><circle class="cls-2" cx="49.19" cy="19.16" r="2.92"/><path class="cls-2" d="M45.73,23.3l.08-.08Z"/><path class="cls-2" d="M46,23.06l.12-.06Z"/><path class="cls-2" d="M46.32,22.93l.14,0Z"/><path class="cls-2" d="M54.45,27.08a1,1,0,0,0-.17-.5l-2.21-3.26a1,1,0,0,0-.59-.4h0a4.37,4.37,0,0,1-2.29.66A4.44,4.44,0,0,1,47,23l-.05,0a.45.45,0,0,0-.12-.06.92.92,0,0,0-.33,0l-.14,0a.86.86,0,0,0-.21.07l-.12.06-.18.16-.08.08a1,1,0,0,0-.16.34l-.39,1.49-.36,1.38-.43,1.62-1.84,3.23a1,1,0,0,0,.38,1.36,1,1,0,0,0,.49.13,1,1,0,0,0,.87-.5L46.19,29a.64.64,0,0,0,.1-.24l.19-.7v3.68h0L46,43a20.6,20.6,0,0,0,2.58-1.86l.34-7.76h.63l.3,6.6a21,21,0,0,0,2.38-2.86L52,32.4h0v-5.6l.47.69,0,.42.25,3.77a1,1,0,0,0,1,.94h.07a1,1,0,0,0,.93-1.06Z"/><path class="cls-2" d="M22.42,12.05A2.92,2.92,0,1,0,25.34,15,2.92,2.92,0,0,0,22.42,12.05Z"/><path class="cls-2" d="M22.14,29.15h.64l.5,11.11a1.25,1.25,0,0,0,1.25,1.2h0a1.27,1.27,0,0,0,1.2-1.31l-.54-11.93v-7l2.16,1.18.29.16a1,1,0,0,0,.48.13,1,1,0,0,0,.58-.19l.4-.28,3.4-2.4a1,1,0,1,0-1.16-1.63L28.1,20.54l-.7-.39L25,18.82a.94.94,0,0,0-.22-.07l0,0a4.27,4.27,0,0,1-4.51,0l0,0a1,1,0,0,0-1.23.38l-2.33,3.75a1.07,1.07,0,0,0-.14.35l-.78,4.21a1,1,0,0,0,.8,1.16l.18,0a1,1,0,0,0,1-.82l.75-4,1.32-2.13v5.86l-.47,10.73a20.68,20.68,0,0,0,2.28,2.4,1.2,1.2,0,0,0,.14-.5Z"/><path class="cls-2" d="M39,27.08a2.39,2.39,0,0,1,.76.82h3.06l.2-.34.64-2.43H39.84A4.38,4.38,0,0,1,39,27.08Z"/><path class="cls-2" d="M27.4,18.44l.6.33L29.15,18V10.21H49.07a20.37,20.37,0,0,0-2.18-1.75H27.4Z"/><path class="cls-2" d="M29.15,25.13V24a2.3,2.3,0,0,1-1.75.07V27.9h3.27a2.55,2.55,0,0,1,1.14-1.09,4.48,4.48,0,0,1-.66-1.68Z"/><path class="cls-1" d="M33.07,28.08a.58.58,0,0,0-.19,0H32.8a.86.86,0,0,1,.28,0Z"/><path class="cls-2" d="M35.5,21.47a2.92,2.92,0,0,0-2.92,2.92,2.55,2.55,0,0,0,.11.74,2.81,2.81,0,0,0,.85,1.41,2.91,2.91,0,0,0,2,.77,2.95,2.95,0,0,0,2.81-2.18,2.9,2.9,0,0,0-2.81-3.66Z"/><path class="cls-2" d="M38.32,37.62V34.11l.77,3a1,1,0,0,0,1,.75,1.15,1.15,0,0,0,.26,0A1,1,0,0,0,41,36.58l-1.17-4.51a.5.5,0,0,0,0-.13l-1.33-3.21a1,1,0,0,0-.67-.57h0a4.32,4.32,0,0,1-4.7-.07.86.86,0,0,0-.28,0l-.13,0a1,1,0,0,0-.22.08.41.41,0,0,0-.11.07,1,1,0,0,0-.19.16l-.08.09a1.06,1.06,0,0,0-.18.33l-1.25,4.09a.83.83,0,0,0,0,.15L30,37.19a1,1,0,0,0,.86,1.13H31a1,1,0,0,0,1-.86l.57-4,.21-.69V37l-.38,8.8a20.56,20.56,0,0,0,2.5.21l.32-7.41h.63L36.19,46a18.76,18.76,0,0,0,2.49-.26l-.37-8Z"/><polygon class="cls-2" points="39.62 12.6 37.86 12.49 37.91 14.03 39.72 14.13 39.62 12.6"/><polygon class="cls-2" points="43.05 14.87 42.95 13.34 41.19 13.23 41.24 14.77 43.05 14.87"/><polygon class="cls-2" points="46.22 13.54 44.46 13.43 44.52 14.97 46.32 15.06 46.22 13.54"/><polygon class="cls-2" points="40.58 15.27 38.82 15.16 38.88 16.7 40.68 16.8 40.58 15.27"/><polygon class="cls-2" points="36.81 13.26 35.05 13.15 35.1 14.69 36.91 14.79 36.81 13.26"/><polygon class="cls-2" points="35.82 15.68 35.88 17.22 37.68 17.32 37.58 15.79 35.82 15.68"/><polygon class="cls-2" points="32.33 12.46 32.38 14 34.18 14.1 34.09 12.57 32.33 12.46"/><polygon class="cls-2" points="42.12 16.26 42.18 17.8 43.98 17.9 43.88 16.37 42.12 16.26"/><polygon class="cls-2" points="39.65 19.07 39.7 20.61 41.5 20.7 41.41 19.18 39.65 19.07"/></g></svg>