<?xml version="1.0" encoding="utf-8"?>
<!-- Generator: Adobe Illustrator 23.0.2, SVG Export Plug-In . SVG Version: 6.00 Build 0)  -->
<svg version="1.1" id="Layer_1" xmlns="http://www.w3.org/2000/svg" xmlns:xlink="http://www.w3.org/1999/xlink" x="0px" y="0px"
	 viewBox="0 0 38.9 37.5" style="enable-background:new 0 0 38.9 37.5;" xml:space="preserve">
<style type="text/css">
	.st0{fill:none;}
	.st1{fill:#193340;}
</style>
<title>Web_icons-21</title>
<g id="EPS_ICON">
	<path class="st0" d="M6.6,9.4C5,9.4,3.7,8.1,3.7,6.5c0-1.6,1.3-2.9,2.9-2.9c1.6,0,2.9,1.3,2.9,2.9c0,0,0,0,0,0
		C9.5,8.1,8.2,9.4,6.6,9.4z M14.9,19.4h-3.3v-3.8c0.6,0.2,1.2,0.2,1.8-0.1v1.1h2c0.1,0.6,0.3,1.2,0.7,1.7
		C15.5,18.6,15.1,19,14.9,19.4L14.9,19.4z M22.5,16.7c-0.3,1.3-1.5,2.2-2.8,2.2c-0.7,0-1.5-0.3-2-0.8c-0.4-0.4-0.7-0.9-0.8-1.4
		c-0.1-0.2-0.1-0.5-0.1-0.7c0-1.6,1.3-2.9,2.9-3c1.6,0,2.9,1.3,3,2.9C22.6,16.1,22.6,16.4,22.5,16.7L22.5,16.7z M27.2,19.1L27,19.4
		H24c-0.2-0.3-0.4-0.6-0.8-0.8c0.4-0.6,0.7-1.2,0.9-2h3.8L27.2,19.1z M33.4,13.6c-1.6,0-2.9-1.3-2.9-2.9c0-1.6,1.3-2.9,2.9-2.9
		s2.9,1.3,2.9,2.9c0,0,0,0,0,0C36.3,12.3,35,13.6,33.4,13.6L33.4,13.6L33.4,13.6z"/>
	<path class="st0" d="M33.1,24.9l-0.3,7.8c0.4-0.4,0.9-0.8,1.3-1.2l-0.3-6.6H33.1z"/>
	<path class="st0" d="M19.4,30.1l-0.3,7.4h0.4c0.3,0,0.6,0,0.9,0l-0.3-7.4L19.4,30.1z"/>
	<path class="st0" d="M29.8,15.2c0-0.1,0.1-0.2,0.2-0.3C29.9,14.9,29.8,15.1,29.8,15.2z"/>
	<path class="st0" d="M30.8,14.4L30.8,14.4c0,0,0.1,0,0.2,0C30.9,14.4,30.8,14.4,30.8,14.4z"/>
	<path class="st0" d="M30.3,14.5c0.1,0,0.1-0.1,0.2-0.1C30.5,14.5,30.4,14.5,30.3,14.5z"/>
	<path class="st0" d="M30,14.8l0.2-0.2L30,14.8z"/>
	<circle cx="33.4" cy="10.7" r="2.9"/>
	<path class="st1" d="M30,14.8L30,14.8L30,14.8z"/>
	<path class="st1" d="M30.2,14.6l0.1-0.1L30.2,14.6z"/>
	<path class="st1" d="M30.5,14.5h0.1H30.5z"/>
	<path d="M38.7,18.6c0-0.2-0.1-0.4-0.2-0.5l-2.2-3.3c-0.1-0.2-0.4-0.3-0.6-0.4l0,0c-0.7,0.4-1.5,0.7-2.3,0.7c-0.8,0-1.5-0.2-2.2-0.6
		h0c0,0-0.1,0-0.1-0.1c-0.1,0-0.2,0-0.3,0h-0.1c-0.1,0-0.1,0-0.2,0.1l-0.1,0.1l-0.2,0.2L30,14.8c-0.1,0.1-0.1,0.2-0.2,0.3l-0.4,1.5
		l-0.4,1.4l-0.4,1.6l-1.8,3.2c-0.3,0.5-0.1,1.1,0.4,1.4c0.1,0.1,0.3,0.1,0.5,0.1c0.4,0,0.7-0.2,0.9-0.5l1.9-3.4
		c0-0.1,0.1-0.2,0.1-0.2l0.2-0.7v3.7l0,0l-0.5,11.3c0.9-0.6,1.8-1.2,2.6-1.9l0.3-7.8h0.6l0.3,6.6c0.9-0.9,1.7-1.8,2.4-2.9l-0.2-4.7
		l0,0v-5.6l0.5,0.7v0.4l0.2,3.8c0,0.5,0.5,0.9,1,0.9H38c0.5,0,1-0.5,0.9-1.1L38.7,18.6z"/>
	<path d="M6.6,3.6C5,3.6,3.7,4.9,3.7,6.5c0,1.6,1.3,2.9,2.9,2.9c1.6,0,2.9-1.3,2.9-2.9C9.6,4.9,8.3,3.6,6.6,3.6
		C6.7,3.6,6.7,3.6,6.6,3.6z"/>
	<path d="M6.4,20.7H7l0.5,11.1c0,0.7,0.6,1.2,1.2,1.2l0,0c0.7,0,1.2-0.6,1.2-1.3L9.4,19.8v-7l2.2,1.2l0.3,0.2
		c0.1,0.1,0.3,0.1,0.5,0.1c0.2,0,0.4-0.1,0.6-0.2l0.4-0.3l3.4-2.4c0.5-0.3,0.6-0.9,0.2-1.4c-0.3-0.5-0.9-0.6-1.4-0.2l-3.2,2.4
		l-0.7-0.4l-2.4-1.3c-0.1,0-0.1-0.1-0.2-0.1l0,0c-1.4,0.9-3.1,0.9-4.5,0l0,0c-0.4-0.2-1,0-1.2,0.4l-2.3,3.8
		c-0.1,0.1-0.1,0.2-0.1,0.4L0,19c-0.1,0.5,0.3,1.1,0.8,1.2H1c0.5,0,0.9-0.3,1-0.8l0.7-4l1.3-2.1V19L3.6,29.8
		c0.7,0.9,1.5,1.7,2.3,2.4C6,32,6,31.9,6,31.7L6.4,20.7z"/>
	<path d="M23.2,18.6c0.3,0.2,0.6,0.5,0.8,0.8H27l0.2-0.3l0.6-2.4h-3.8C24,17.4,23.7,18,23.2,18.6z"/>
	<path d="M11.6,10l0.6,0.3l1.1-0.8V1.8h19.9c-0.7-0.6-1.4-1.2-2.2-1.8H11.6V10z"/>
	<path d="M13.4,16.7v-1.1c-0.6,0.3-1.2,0.3-1.8,0.1v3.8h3.3c0.3-0.5,0.7-0.9,1.1-1.1c-0.3-0.5-0.6-1.1-0.7-1.7H13.4z"/>
	<path class="st0" d="M17.3,19.6c-0.1,0-0.1,0-0.2,0H17C17.1,19.6,17.2,19.6,17.3,19.6L17.3,19.6z"/>
	<path d="M19.7,13c-1.6,0-2.9,1.3-2.9,2.9c0,0.3,0,0.5,0.1,0.7c0.1,0.5,0.4,1,0.8,1.4c0.5,0.5,1.3,0.8,2,0.8c1.3,0,2.5-0.9,2.8-2.2
		c0.4-1.5-0.5-3.1-2-3.6C20.3,13,20,13,19.7,13L19.7,13z"/>
	<path d="M22.5,29.2v-3.5l0.8,3c0.1,0.5,0.5,0.8,1,0.8c0.1,0,0.2,0,0.3,0c0.5-0.2,0.8-0.7,0.7-1.3c0,0,0,0,0,0l-1.2-4.5
		c0,0,0-0.1,0-0.1l-1.3-3.2c-0.1-0.3-0.4-0.5-0.7-0.6l0,0c-1.4,0.9-3.3,0.9-4.7-0.1c-0.1,0-0.2,0-0.3,0h-0.1c-0.1,0-0.2,0-0.2,0.1
		c0,0-0.1,0-0.1,0.1c-0.1,0-0.1,0.1-0.2,0.2L16.3,20c-0.1,0.1-0.1,0.2-0.2,0.3l-1.3,4.1c0,0,0,0.1,0,0.2l-0.7,4.1
		c-0.1,0.5,0.3,1.1,0.9,1.1c0,0,0,0,0,0h0.1c0.5,0,0.9-0.4,1-0.9l0.6-4l0.2-0.7v4.2l-0.4,8.8c0.8,0.1,1.7,0.2,2.5,0.2l0.3-7.4h0.6
		l0.3,7.4c0.8,0,1.7-0.1,2.5-0.3l-0.4-8L22.5,29.2z"/>
	<polygon points="23.8,4.1 22.1,4 22.1,5.6 23.9,5.7 	"/>
	<polygon points="27.3,6.4 27.2,4.9 25.4,4.8 25.5,6.3 	"/>
	<polygon points="30.4,5.1 28.7,5 28.7,6.5 30.5,6.6 	"/>
	<polygon points="24.8,6.8 23,6.7 23.1,8.2 24.9,8.3 	"/>
	<polygon points="21,4.8 19.3,4.7 19.3,6.2 21.1,6.3 	"/>
	<polygon points="20,7.2 20.1,8.8 21.9,8.9 21.8,7.3 	"/>
	<polygon points="16.6,4 16.6,5.5 18.4,5.6 18.3,4.1 	"/>
	<polygon points="26.3,7.8 26.4,9.3 28.2,9.4 28.1,7.9 	"/>
	<polygon points="23.9,10.6 23.9,12.2 25.7,12.2 25.6,10.7 	"/>
</g>
</svg>
