<svg id="Dal_Edxx_Image" data-name="Dal Edxx Image" xmlns="http://www.w3.org/2000/svg" viewBox="0 0 347.04 106.56"><defs><style>.cls-1{fill:#231f20;fill-rule:evenodd;}</style></defs><title>Daniel C. Edelson 4c_100K</title><path class="cls-1" d="M104.17,75.29c-6.62-.23-3.82-11-2.87-14.8C96.61,64.21,90.81,66.32,85.51,69c-1.82.92-4.11,2.31-6.24,1.85A3.94,3.94,0,0,1,76.84,69c-1.23.67-2.74,1.64-4.09.7-3.56-2.49.83-5.84,3.23-7.06a6,6,0,0,1,4.53-.73c3,1.06.86,3.16.35,5,5.28-2.25,10.66-4.39,15.55-7.43a33.35,33.35,0,0,0,6.38-5c.86-2.54,1.57-5.13,2.24-7.73,1.35-5.25,2.49-10.57,4.18-15.73.63-1.94,3.67-12.7,6.44-7.95,4.09,7,.18,19.16-3.34,25.39a35.4,35.4,0,0,1-4.14,5.88A26.75,26.75,0,0,1,106,56.5a31.22,31.22,0,0,1-.75,3.83,61.93,61.93,0,0,0-1.82,8.07c-.23,2,1.57,5.26.76,6.89m4.88-28c2.48-4.57,5.19-10.34,4.27-16.7C112,36.07,109.78,42,109.05,47.28Z"/><path class="cls-1" d="M185.11,60.71c-1.15,3.15-6.07,3.54-8.77,4.52-4,1.45-8,3-11.82,4.76-1.6.72-3.19,1.49-4.73,2.33a20.84,20.84,0,0,1-1.89,7.08c-1.44,3.4-3,7.8-6.25,9.93-5.38,3.52-6.49-6.65-5.84-9.55.76-3.42,3.58-5.34,6.3-7.21,1.74-1.2,4.2-1.88,4.31-4.11a30.8,30.8,0,0,1,.67-5.66c-4.17,3.63-14.74,18.84-18.73,6.67-1.2-3.63,1.19-9.33,2.67-12.64a59,59,0,0,1,7.69-12.18c1.85-2.38,4.08-6.07,7-7.32a1.94,1.94,0,0,1,2.72,1.27c.83,2-2.32,3.09-3.5,4.49-5.57,6.64-15.13,17.94-12.47,27.38,5.2-1.4,9.53-7.79,12.84-11.69,1.35-1.59,3.49-5.6,6-3.4,2,1.75-.76,9.65-1.13,12.37a155,155,0,0,1,22.59-7c.17,0,1.34-.9,2.4-.08m-36.4,25.65a11.19,11.19,0,0,0,4-5c.37-.79,2.29-6.49,2.36-6.51-4.58,2.29-8.28,6-6.36,11.49"/><path class="cls-1" d="M69.72,48.77c4.81-.91,9.56-3.73,14.53-3.58.41,3.08-7,4.47-9,5.23S70.81,52,68.65,52.88A53,53,0,0,1,65,61c-1.84,3.36-5.42,10.21-9.8,10.49-5.49.35-10.42-3.76-12.43-8.69-1.73,1.84-6.95,14.13-10,7.49-2.1-4.61-.67-14.65,4.64-16.68-5.07-6.74-6.71-12.06-1.59-19.38a50.38,50.38,0,0,1,7.68-8.19c1.73-1.57,3.71-2.82,5.37-4.46,1.43-1.42,3.36-2.08,5.08-3.21,7.32-4.79,14.43,0,16.13,7.89,1.59,7.35.38,15.11-.4,22.48m-2.6-21.29c-.46-3.29-1.3-7.46-5.33-7.77s-8.19,2.61-11.23,5C44.35,29.53,33.08,38.06,36.4,47.23a8.43,8.43,0,0,0,2.9,4.19c3.09,2,4,.51,5.21-2.33A65.67,65.67,0,0,0,49,34.65c.32-2,1.64-1.92,3-.78,1.66,1.41.8,3.37.22,5.14-1.57,4.8-3.83,9.31-5.42,14.09a107.45,107.45,0,0,0,10.75-1.22c3-.51,7.37-.53,8.3-3.62a50.08,50.08,0,0,0,1.27-20.78m-21.89,29c-.14,1.8-1.23,1.94-.22,3.69.87,1.5,1.5,3.12,2.43,4.58,1.6,2.52,4.48,4.83,7.5,3.13,4.73-2.67,6.83-9.46,8.94-13.91-2.77.08-5.78,1.31-8.56,1.71a77.52,77.52,0,0,1-10.09.8M35.48,67.14c1.56-2.16,6-7.11,3.9-9.52-1.84-2.17-4.08,8.14-3.9,9.52"/><path class="cls-1" d="M250.1,65.61c3.55-1.49,20.35-9.35,17.09,1.14,9.48,2.4,21-.36,30.53-1.66,5.59-.76,11.17-1.57,16.79-2.07,2.33-.21,5.25-.86,7.57-.47,3.43.58-2,2.46-2.67,2.67-10.47,3.13-22.31,3.74-33.14,5-5.14.61-23.44,4.76-22.74-5.06a34.11,34.11,0,0,0-9.23,2.92c-2.16,1-5.64,3.36-8,1.77-5.35-3.56,2-7.51,3.89-10.27-2.72.07-5.43,2.24-7.66,3.58-2.61,1.57-5.39,2.75-7.79,4.64-1.77,1.41-5.07,2.35-5.45-1.08-.34-3,2.71-4.32,3.62-6.83-4.73,2-8.79,5.33-13.53,7.37-3.58,1.55-9.49,7.8-11.88,1.6C204.29,70.55,193,72,195,65c1.14-4,7.13-5.84,10.47-7.37-3.41.15-8.48-2.41-6.39-6.58,1.68-3.34,6.47-3.21,8.88-5.75-1.53.33-3.72-.16-4.5-1.66s-.27-1.74,1.14-1.83a30.53,30.53,0,0,0,5.46-.92c4.81-1.19,9.53-2.8,14.25-4.13,2-.56,3.32.09,3.85,2.14-2.14,2-5,3.13-7.63,4.45-5.69,2.88-13.42,5.55-17.83,10.28,4.39.3,8.16-1.29,12.26-2.56,1.56-.48,3.45-1.22,4.86-.35,1.57,1,2.51,2.09.74,3.46-6.29,4.86-17.57,5.38-22,12.55,4.83,1.37,9.49-2,13.45-4.31,1.67-1,7.68-3.73,7.8.51,6.32-3.27,13-6.68,18.37-11.39,2.34-2,3.73-4.91,5.61-7.34A24.35,24.35,0,0,1,251.62,38c1.08,1.39,3.52,2.22.92,4-2.32,1.59-3.55,4-5.61,5.87C242,52.3,239.47,57.89,235.37,63c3.13-1.59,6.1-3.45,9.24-5,2.42-1.19,6.18-3.34,9-3,7.79.89-2.56,8.87-3.5,10.68"/></svg>