<svg id="RC_Signiture_Image" data-name="RC Signiture Image" xmlns="http://www.w3.org/2000/svg" viewBox="0 0 212.4 45.96"><title>Rich Cardullo sig</title><path d="M195.4,11.34c-.31.13-.57.42-.88.48a5.36,5.36,0,0,0-2.1,1.32c-.48.35-.92.75-1.42,1.07-.77.49-1.61.86-2.33,1.4-1.24.91-2.42,1.9-3.62,2.87q-2.16,1.75-4.31,3.54c-1.29,1.08-2.6,2.14-3.84,3.28s-2.26,2.23-3.39,3.36c-.43.43-.82,1.2-1.29,1.26-.81.09-1.13.76-1.75,1a17.89,17.89,0,0,0-2.35,1.29,6,6,0,0,1-1.52.58,10.36,10.36,0,0,0-1.74.77c-.19.1-.29.35-.47.59,0,0-.15-.11-.26-.07-.65.2-1.29.45-1.94.67s-1.56.53-2.35.74a1.07,1.07,0,0,1-.79-.07,1,1,0,0,1-.27-.68,3.8,3.8,0,0,1,.17-.88,1.68,1.68,0,0,1,1.35-1.36c.53-.15,1-.36,1.57-.56s.88-.37,1.32-.56l1.61-.71c.09,0,.17-.11.26-.15.93-.4,1.88-.76,2.79-1.21s1.88-1,2.81-1.57c1.33-.77,2.66-1.55,4-2.38.82-.52,1.56-1.17,2.37-1.72s1.92-1.18,2.82-1.85c1.48-1.09,2.95-2.2,4.35-3.39s2.75-2.43,4.05-3.72a6.35,6.35,0,0,0,1.2-1.81,1.35,1.35,0,0,0-.87-1.89,2.11,2.11,0,0,1-.57-.31c-.7-.54-.83-.51-1.11.13-1,.19-1.9.31-2.78.56a12.89,12.89,0,0,0-2,.82c-1.11.52-2.24,1-3.29,1.62-1.2.72-2.32,1.58-3.47,2.39-.86.61-1.71,1.25-2.56,1.87S171,19.33,170.19,20c-.6.46-1.16,1-1.74,1.45-.76.64-1.57,1.22-2.28,1.91-1.27,1.26-2.48,2.58-3.72,3.86-.53.55-1.14,1-1.61,1.62-.71.9-1.31,1.89-2,2.81-.33.44-.64,1-1.37.88-.16,0-.34.11-.52.12s-.67,0-1,0a7.85,7.85,0,0,1,.09-1.19c0-.24.26-.45.35-.69s-.06-.48-.37-.38a9.62,9.62,0,0,0-1.5.56c-.7.37-1.36.81-2.05,1.21a.64.64,0,0,1-.45.06c-.23-.07-.22-.1-.35.23a.22.22,0,0,0,.05.08c.4.22.7.07,1.08-.16a18,18,0,0,1,2.21-1c-.11.26-.15.34-.18.43a1.69,1.69,0,0,0,.7,1.72c.65.45,1.24.1,1.86,0a6.55,6.55,0,0,1,.7-.05,10.65,10.65,0,0,1-.34,1.22,1.31,1.31,0,0,0,1.42,1.77,6.35,6.35,0,0,0,2-.41c.86-.31,1.69-.72,2.53-1.09l3-1.39c.15-.07.25-.29.4-.33a4,4,0,0,0,2.08-1.15.4.4,0,0,1,.22-.06A2,2,0,0,0,171,31.4l.3-.25a17.28,17.28,0,0,0-1,1.45,1.43,1.43,0,0,0,0,1.13c.25.42.67.18,1.05,0a8,8,0,0,1,3.1-1.41c.11,0,.22-.16.33-.23a2.85,2.85,0,0,1,.41-.26c.28-.12.58-.22.88-.32l.5-.12a1.74,1.74,0,0,1-.18.43c-1,1-.8,2.22-.78,3.41,0,.66,1.07,1.28,1.68,1.14a20.64,20.64,0,0,0,2.07-.87,5.53,5.53,0,0,0,1.58-.86c.23-.17.84-.36.36-.89,1.69-.6,1.42-2,1.37-3.33a5.75,5.75,0,0,0,2.86-.2c1.09-.29,2.16-.62,3.23-1a8.27,8.27,0,0,0,1.38-.55c.09,0,.1-.28.12-.43s-.12-.08-.2-.13l-.22.27a1.71,1.71,0,0,0-.49-.09c-.59.1-1.19.21-1.77.33-1.3.28-2.59.58-3.89.85a1,1,0,0,1-.53-.05,2,2,0,0,1-1.26-1.08.79.79,0,0,0-.54-.37c-.12,0-.38.2-.41.35a2.36,2.36,0,0,0,.06,2l.35-.44c.65.74.73,2.74.08,3.29-.29.24-.16.37-.15.58l-.35-.1a9.21,9.21,0,0,1-.92.64c-.84.43-1.68.86-2.55,1.22a.94.94,0,0,1-.77-.2,1.58,1.58,0,0,1-.26-1.82,4.62,4.62,0,0,1,2.9-2.87.93.93,0,0,0,.76-1,4.9,4.9,0,0,0-2.71.71,7.38,7.38,0,0,1-1.67.81c-1,.38-2,.69-2.93,1-.45.16-.87.35-1.31.53a3.26,3.26,0,0,1,.73-.86c.94-.69,1.23-2,2.5-2.41a9.4,9.4,0,0,0,2.11-1.27c.8-.53,1.61-1.07,2.39-1.63,1.09-.8,2.16-1.63,3.25-2.43.84-.61,1.67-1.23,2.55-1.77s1.58-1.21,2.42-1.76c1.19-.79,2.28-1.72,3.4-2.61.31-.24.55-.57.85-.83A27,27,0,0,0,194,15.15a25.3,25.3,0,0,0,2-2.57,1.3,1.3,0,0,0,.22-.66C196.26,11.36,195.91,11.13,195.4,11.34Zm-10.83.14a1.84,1.84,0,0,1,.56-.14c.11,0,.22.11.49.26l-.54.07a4,4,0,0,1-.49,0S184.55,11.48,184.57,11.48ZM160.32,31.35A27.62,27.62,0,0,1,164,27.19c.59-.56,1.1-1.2,1.66-1.8.35-.38.69-.78,1.08-1.13.89-.78,1.81-1.53,2.72-2.3.73-.62,1.43-1.28,2.18-1.87s1.82-1.34,2.74-2c1.15-.83,2.3-1.67,3.46-2.49a9.77,9.77,0,0,1,1.27-.86c1.79-.91,3.56-1.91,5.43-2.64a11.39,11.39,0,0,1,3.33-.4c.52,0,.75.46.65,1-.17.85-1,1.14-1.38,1.81-.43.84-1.34,1.11-1.89,1.84A11.37,11.37,0,0,1,183,17.94c-.68.52-1.28,1.14-2,1.66s-1.42,1-2.13,1.53c-.21.15-.36.39-.58.51-.84.44-1.42,1.26-2.38,1.55-.4.13-.91.37-.93.83a4.75,4.75,0,0,0-.87.36c-1,.65-2,1.34-3,2-.55.34-1.15.6-1.7.94-.22.13-.34.45-.56.56a31,31,0,0,1-5.22,2.36,17.86,17.86,0,0,0-2.11,1,9.7,9.7,0,0,1-1.22.39C160.31,31.55,160.27,31.42,160.32,31.35Zm33.31-17.08c-.72.65-1.46,1.29-2.21,1.91-.58.47-1.19.9-1.79,1.35-1.06.81-2.12,1.62-3.17,2.46a2.9,2.9,0,0,0-.48.64c-.16,0-.4,0-.53.07-.61.49-1.18,1-1.78,1.51-.32.26-.68.44-1,.69a9.06,9.06,0,0,1-.87.69,6.79,6.79,0,0,0-1.36.89,8.16,8.16,0,0,1-1.77,1.21,14.41,14.41,0,0,1-1.38.83c1.08-1,2.14-2,3.25-3s2.29-1.84,3.43-2.77,2.3-1.91,3.47-2.86a42.66,42.66,0,0,1,3.44-2.71c1.2-.78,2.41-1.55,3.61-2.48,0,.31.08.51.09.58C194.23,13.65,194,14,193.63,14.27Z"/><path d="M151.05,32.56c-.81.32-1.6.67-2.4,1a10.53,10.53,0,0,1,1.23-1.26c.33-.3.43-.73.9-1a35.28,35.28,0,0,0,3.29-2.3c.16-.12.22-.36.33-.55l-.17-.19a23.78,23.78,0,0,1-9.62,3.05,8.29,8.29,0,0,1,.74-.47c1.18-.59,2.4-1.1,3.55-1.74s2.32-1.41,3.46-2.14c.77-.49,1.53-1,2.28-1.52a11.76,11.76,0,0,1,1.76-1.18c1.11-.49,1.89-1.43,3-2a15.88,15.88,0,0,0,2.36-1.87c.92-.72,1.86-1.42,2.79-2.13s2.16-1.6,3.22-2.42c.62-.49,1.22-1,1.82-1.54a28.22,28.22,0,0,0,2.54-2.2,27.23,27.23,0,0,0,2.1-2.77,2.11,2.11,0,0,0-.36-2.46,11.08,11.08,0,0,0-1.48-1,1,1,0,0,0-.59,0,11.82,11.82,0,0,0-1.55.42c-1.41.53-2.8,1.08-4.19,1.65a11.13,11.13,0,0,0-1.29.65c-.32.19-.6.46-.92.65a15.19,15.19,0,0,0-1.57.9c-.68.54-1.4,1-2.12,1.51-1.22.82-2.43,1.64-3.6,2.52-1.77,1.31-3.5,2.68-5.24,4-.45.35-.92.69-1.36,1.05-.23.19-.42.43-.63.64l-2.61,2.57a1,1,0,0,1-.24.17,6.56,6.56,0,0,0-.89.65c-.66.73-1.31,1.49-1.92,2.27a10.12,10.12,0,0,0-2.11,3.16c-.13.43-.56.77-.67,1.2a16.42,16.42,0,0,0-.27,2.18,8.22,8.22,0,0,0-1.37.74,3.54,3.54,0,0,1-2,.79,1.56,1.56,0,0,0-1.32.7,6.77,6.77,0,0,0-.8,0c-.53,0-1.06.19-1.6.19-.74,0-1-.42-.62-1.05A2.48,2.48,0,0,1,134,32.25a18.93,18.93,0,0,1,2.33-1.07,1.67,1.67,0,0,0,.7-.44.52.52,0,0,0,.09-.5.61.61,0,0,0-.53-.14c-.64.27-1.27.6-1.89.91L131,32.79c.16.4-.23.48-.6.53s-.68,0-1,0c-.63.14-1.25.34-1.88.51l-.13-.15a6,6,0,0,1,.82-.92c.78-.58,1.61-1.09,2.41-1.64.34-.24.65-.52,1-.79l1.14-.93-.13-.17a5.65,5.65,0,0,0-2.78,1.25,2.24,2.24,0,0,1-1.34.62c.3-.33.5-.56.71-.77.4-.41.79-.82,1.23-1.19s.76-1.48.37-1.77a2.58,2.58,0,0,0-1.6-.66,13.46,13.46,0,0,0-2.77.87c-.12,0-.15.31-.22.47.2-.36.47-.3.77-.14a1.19,1.19,0,0,0,1.22,0,3.79,3.79,0,0,1,1.52-.19c.09,0,.25.26.25.39s-.23.32-.3.3c-.62-.19-.83.17-.89.44-.72.33-1.32.55-1.87.86A33.52,33.52,0,0,0,123.35,32a22.84,22.84,0,0,1-2.87,1.38c-.24.14-.62,0-1-.09,1.9-2.56,4.82-3.51,7.38-5.05h-.55a2,2,0,0,1-.28.09c-.24-.45-.59-.26-.88-.13-.68.33-1.36.67-2,1.06a25.42,25.42,0,0,0-2.41,1.56,20.21,20.21,0,0,0-2,1.89.79.79,0,0,0-.06,1c.23.35.52.64,1,.54.73-.16,1.46-.34,2.18-.55.26-.08.62-.22.7-.43.26-.71,1-.38,1.42-.79a1,1,0,0,1-.31.49c-.37.34-.76.66-1.1,1s-.6.75-.27,1.11c.16.18.73.15,1,0,.83-.36,1.61-.81,2.4-1.25.26-.15.5-.36.82-.59,0,.23,0,.34,0,.46,0,.79.34,1.14,1.1.94,1-.26,1.91-.66,2.85-1l1.27-.45a1.21,1.21,0,0,1,0,.33A1.69,1.69,0,0,0,134,35.47c1.46-.42,2.89-.91,4.32-1.42,1-.35,1.88-.9,2.87-1.16,1.49-.39,3-.6,4.54-.89l2.69-.52,1.13-.23.05.18c-.49.41-1,.84-1.47,1.23a1.48,1.48,0,0,0-.44,1.32.67.67,0,0,0,.92.44c1-.42,1.94-.94,2.9-1.45.13-.07.17-.28.26-.43a.22.22,0,0,1-.05-.08A2.51,2.51,0,0,0,151.05,32.56ZM127.91,31l.52.55-.74.5-.11-.09C127.68,31.65,127.78,31.35,127.91,31Zm13.92.64a3.22,3.22,0,0,1,0-1,10,10,0,0,1,2.31-4c.49-.52.87-1.13,1.35-1.66.66-.72,1.35-1.43,2.06-2.1s1.6-1.43,2.4-2.13c0,0,.11-.07.14-.11,1-1.4,2.5-2.21,3.78-3.28s2.57-1.89,3.86-2.83c1.65-1.2,3.24-2.49,5-3.57,1.88-1.18,3.88-2.18,5.85-3.21a6.76,6.76,0,0,1,1.76-.59c.37-.07.82-.31,1.14.17,0,0,.14,0,.22.06l1.85.2A4,4,0,0,1,172,10.79c-.44.43-.81.93-1.22,1.4a.3.3,0,0,1-.08.08l-2.09,1.66c-.93.74-1.86,1.47-2.8,2.19q-1.8,1.41-3.62,2.8l-1.75,1.32a13.65,13.65,0,0,0-1.75,1.33c-.58.61-1.42.72-2,1.24l-.1.06c-1,.75-2,1.53-3,2.25-.76.53-1.56,1-2.35,1.49-.49.29-1,.49-1.51.79-.31.19-.52.52-.83.72a18.58,18.58,0,0,1-1.75,1c-1.61.8-3.23,1.58-4.85,2.36Z"/><path d="M22.1,30A16.68,16.68,0,0,1,24,29.38c.61-.15,1.12-.53,1.77-.65a14.26,14.26,0,0,0,2.28-.84c1.58-.57,3.17-1.11,4.75-1.7,1.25-.45,2.47-1,3.72-1.42,1-.36,2.08-.6,3.08-1,2.06-.8,4.11-1.65,6.15-2.5.68-.29,1.32-.68,2-1a45.24,45.24,0,0,0,6.86-3.51l2.49-1.54c1-.6,2.11-.93,2.81-1.92,0,0,.1-.06.15-.1.57-.46,1.18-.89,1.7-1.4a2.94,2.94,0,0,0,.58-2.93,3.3,3.3,0,0,0-3-1.62c-1,.17-2,.29-3,.54-1.47.37-2.92.83-4.37,1.27-.17.05-.32.2-.49.26-.54.16-1.11.25-1.63.46-1.33.54-2.65,1.12-4,1.69-.72.32-1.43.64-2.14,1-.23.1-.42.28-.65.38-1.17.54-2.37,1-3.52,1.59s-2.27,1.25-3.41,1.87c-.78.42-1.57.8-2.33,1.25-1.55.91-3.06,1.86-4.6,2.77-1.27.75-2.57,1.46-3.85,2.18-.08.05-.19,0-.29.05A9.36,9.36,0,0,0,22,23.72c-.42.29-.44.55-.08.85.57.46.54.55-.05,1-1.54,1.23-3.06,2.49-4.6,3.74a4,4,0,0,1-.9.63,1.64,1.64,0,0,0-1.25,2c-1.4-.1-1.44,1.51-2.36,1.93a.75.75,0,0,1,.09.52c-.18.49-.43.9-1.13.47-.09.62-.42.82-1,1.07s-.85,1.18-1.19,1.84c-.07.13.1.48.25.61a.62.62,0,0,0,.59,0c.4-.31.73-.71,1.13-1,1.15-.9,2.29-1.8,3.47-2.66.94-.69,1.93-1.31,2.89-2a5.75,5.75,0,0,0,.56-.48l2.43-1.42c-.08.6-.16,1.23-.26,1.85a2.47,2.47,0,0,1-.2.91,3.66,3.66,0,0,0-.3,3.2,1.63,1.63,0,0,0,1.88,1c.1,0,.17-.15.39-.35-.83-.08-1.24-.43-1.34-1a5.81,5.81,0,0,1,.12-2.62,8.09,8.09,0,0,0,.67-3.37C21.77,30.28,22,30.08,22.1,30Zm-8,4c.19-.54.06-1.25.92-1.32.28,0,.54-.43.79-.67s.72-.83,1.4-.72a2.88,2.88,0,0,0,.9-.13l.07.15ZM32.56,19.51a5.83,5.83,0,0,0,.69-.39c1.17-.73,2.3-1.52,3.5-2.18,1.38-.75,2.82-1.39,4.23-2.09.3-.15.6-.31.9-.45l3.53-1.59c.63-.29,1.24-.6,1.87-.87,1-.46,2.07-.93,3.13-1.32A43.16,43.16,0,0,1,54.8,9.2a18.84,18.84,0,0,1,5-.93,1.7,1.7,0,0,1,1.45,1,1.43,1.43,0,0,1-.18,1.66,13.27,13.27,0,0,1-3.61,3.11c-.24.17-.54.26-.79.43a3.77,3.77,0,0,0-.52.49,2.13,2.13,0,0,0-.64.15c-1.21.68-2.42,1.37-3.59,2.11a6.94,6.94,0,0,1-2.12,1,.41.41,0,0,0-.21.1c-.62.71-1.56.79-2.36,1.15s-1.73.69-2.59,1.07c-.46.2-.87.55-1.34.75-1.18.52-2.37,1-3.58,1.47-.67.25-1.39.35-2.06.6-.84.3-1.64.71-2.46,1-.49.19-1,.31-1.5.49-.75.28-1.5.58-2.23.9a1.93,1.93,0,0,0-.47.42c-.15,0-.38-.16-.55-.1-1.31.43-2.61.9-3.91,1.37-.43.15-.84.34-1.26.5-.05,0-.14,0-.31-.13.49-.33.92-.6,1.33-.9s.72-.55,1.1-.86A.48.48,0,0,0,27.7,26c1.05-.75,2.11-1.48,3.12-2.26A7.63,7.63,0,0,0,33.49,21a.8.8,0,0,0-.1-.69.87.87,0,0,0-.65-.24,8.55,8.55,0,0,0-1.11.18l-.09-.27C31.88,19.8,32.23,19.67,32.56,19.51Zm-14,10.58-.08-.2,1.16-.4.09.22Zm2.82-1a4.79,4.79,0,0,1-.66,0c-.43-.1-.86-.23-1.38-.38,1.14-.89,2.34-1.85,3.56-2.79s2.2-1.7,3.34-2.49A6.63,6.63,0,0,1,29,22a9,9,0,0,0,1.55-.6,9.63,9.63,0,0,1,1.2-.32c.09,0,.3.06.3.11a.58.58,0,0,1-.1.41c-.32.32-.69.6-1,.92s-.59.74-.93,1.06c-.14.14-.25.68-.62.19a1.25,1.25,0,0,0-.28.17,6.12,6.12,0,0,0-1,.79c-.64.76-1.68.92-2.35,1.56-.88.82-2.08,1.12-2.93,2A2.07,2.07,0,0,1,21.4,29.05Z"/><path d="M89.73,27.23c.65-.42,1.37-.73,2-1.2,1.37-1.09,2.69-2.24,4-3.39.66-.58,1.28-1.19,1.88-1.82,1.43-1.54,2.84-3.09,4.25-4.65a6.31,6.31,0,0,0,.81-1.11c.68-1.19,1.61-2.3,1.37-3.81-.11-.68-.24-1.39-1-1.68-.29-.12-.68-.12-.86-.32a3.59,3.59,0,0,0-2.42-1A27.54,27.54,0,0,0,96.33,8c-1.38,0-2.77,0-4.16.13a14.23,14.23,0,0,0-2.33.34,26.4,26.4,0,0,0-3.17.84,13.23,13.23,0,0,0-4,2.28c-.7.57-1.43,1.11-2.07,1.73s-1,1.15-1.47,1.72c-1,1.12-2,2.22-2.88,3.36-.55.68-1,1.44-1.51,2.15S73.62,22,73.14,22.76c-.6,1-1,2.13-1.65,3.09a4.27,4.27,0,0,0-.64,3.09c0,.15.17.29.26.43l.22,0c0-.6.1-1.2.17-1.79a1.21,1.21,0,0,1,.19-.5c.15-.23.45-.41.49-.64.13-.92.86-1.49,1.27-2.25a32.15,32.15,0,0,1,2.1-3c.58-.82,1.12-1.69,1.76-2.48s1.35-1.46,2-2.21c.46-.51.83-1.11,1.32-1.59a24.93,24.93,0,0,1,2.78-2.47,20.48,20.48,0,0,1,3.71-2.2,11.33,11.33,0,0,1,4.19-1c.39,0,.78,0,1.24.05a.41.41,0,0,1,.21-.12c.53-.08,1.06-.15,1.59-.19a1.38,1.38,0,0,1,.8.09,1.94,1.94,0,0,0,2.14.07l-.85-.15V8.86h2.71v.19l-1.07.09v.18a2.3,2.3,0,0,0,.45,0c.34,0,.74-.32.89.28,0,0,.17.09.26.12l2.52.72.31-.43a3.11,3.11,0,0,1,.51,2.58,14.37,14.37,0,0,1-1.23,2q-1.53,2-3.17,3.83a54.42,54.42,0,0,1-6.5,5.92c-1.06.88-2.23,1.63-3.36,2.42-.73.51-1.48,1-2.23,1.48s-1.4.93-2.13,1.32q-2.28,1.17-4.59,2.27c-1.27.6-2.55,1.17-3.85,1.7-1.13.47-2.29.88-3.44,1.29-.8.29-1.61.57-2.43.82-.24.08-.56,0-.76.11a5.55,5.55,0,0,1-3.3.68,3.43,3.43,0,0,1-1.57-.63c-.18-.11-.12-.56-.22-.85s-.14-.46-.29-.53a2,2,0,0,0-1.82.14,4.92,4.92,0,0,1-.92.29,4.13,4.13,0,0,1-.58.07,2.33,2.33,0,0,1,.34-.65,4.29,4.29,0,0,1,.68-.33,7.85,7.85,0,0,1,1.2-.73c.7-.27.75-.34.25-1-.63.21-1.28.38-1.9.64-.3.12-.51.46-.81.61s-1.09.1-1.3.76c0,0-.1,0-.15,0-.35,0-.59.5-1.06.13-.22-.17-1,.58-1.06.84-.44.1-.82.16-1.18.28a12.29,12.29,0,0,0-1.18.46c.6-1.26,1.95-1.22,2.8-1.94a19.53,19.53,0,0,1,2.07-1.24,2,2,0,0,0,.57-.68c.22-.41-.07-1.18-.4-1.15a9.45,9.45,0,0,0-2,.39c-.8.25-1.4,1-2.38.82a1.18,1.18,0,0,0-.94.4c-.59.79-1.67.73-2.31,1.51-.35.44-1.23.44-1.87.65l-3,1-1,.33a6.67,6.67,0,0,1,2.46-2.56l0,0c-.22-.16-.35-.33-.71-.1a6.33,6.33,0,0,0-2.47,2.37,3.72,3.72,0,0,0-.22.89l.53.16a1.06,1.06,0,0,0,.45.07,18.25,18.25,0,0,0,2.2-.86c.62-.33,1.43-.27,1.89-.92,0,0,.22,0,.31.07l-.7,1a.82.82,0,0,0,.21,1.12c.18.16.66.09,1,0a18,18,0,0,0,1.83-.87c.27-.14.45-.15.55.18a.64.64,0,0,0,.93.46c.62-.22,1.23-.49,1.83-.77s1.25-.62,1.87-.94a1.56,1.56,0,0,1-.28.72c-.08.14-.16.29-.23.44.18.09.36.25.55.25s.36-.14.55-.21c1.36-.45,2.57-1.3,4.06-1.44.58,0,.77,0,.9.55a2.17,2.17,0,0,0,2.26,1.85,15,15,0,0,0,4.81-.9c1.52-.53,3-1.07,4.54-1.64,1.09-.41,2.17-.85,3.25-1.29s2.08-.84,3.08-1.34,1.78-1.11,2.73-1.51a19.53,19.53,0,0,0,4.18-2.48C88.77,27.93,89.24,27.55,89.73,27.23Zm-36.46,8a3.31,3.31,0,0,0-.45.39V35.5l-1.5.62L51.2,36c.34-.8,1.13-1.11,1.83-1.48s1.43-.63,2.15-.95c.2.23.22.43-.12.62C54.45,34.48,53.85,34.84,53.27,35.2Zm5.51-.2,1.1-.72A.91.91,0,0,1,58.78,35Z"/><path d="M114.87,22.42a15.86,15.86,0,0,0,1.82-.22c.58-.05,1.16,0,1.72-.11s1.19-.29,1.79-.44l0-.29c-.72,0-1.43-.13-2.14-.1-1,.06-2.06.21-3.09.31a2.59,2.59,0,0,1-.57-.08c.38-.57.73-1,1-1.55q2.17-3.48,4.33-7c.12-.18.25-.48.4-.49.62-.07.67-.63.82-1a6,6,0,0,1,1.06-2,.67.67,0,0,0,0-.63.57.57,0,0,0-.57-.13,2.76,2.76,0,0,0-.65.5c-.2.19-.37.41-.58.59l-1.63,1.46c-.63.58-1.23,1.19-1.88,1.74-.82.68-1.69,1.3-2.53,2s-1.59,1.32-2.39,2c-1,.77-1.92,1.52-2.85,2.31-.69.6-1.33,1.26-2,1.87-.39.36-.8.69-1.22,1a.91.91,0,0,1-.43.23c-.63.05-1.27,0-1.9.09a34.39,34.39,0,0,0-3.78.68c-.54.15-1.08.15-1.59.27a29.26,29.26,0,0,0-3.53,1.07c-.74.27-1.46.69-1.46,1.63a12.23,12.23,0,0,0,.21,2c0,.3.28.56.34.85.12.53.14,1.09.24,1.62.19.93.18.91-.65,1.37-.42.23-1.1.34-.91,1.09a13.59,13.59,0,0,0-1.94.86c-1,.58-1.85,1.25-2.76,1.91a4.42,4.42,0,0,0-.6.7c-.21-.06-1.09.59-1.37,1.19-.14.31-.12.62.27.76a5,5,0,0,0,1.33-.9c1-1.35,2.6-1.94,3.84-3,.65-.54,1.49-.86,2.11-1.43s1.47-.68,2.06-1.32A12.24,12.24,0,0,1,97,30.51c1.46-1.08,2.91-2.16,4.35-3.27.47-.36.86-.81,1.31-1.2.3-.26.66-.44.94-.72a6.58,6.58,0,0,1,4.57-2.27c.88,0,1.75-.15,2.62-.22l1.26-.12a4.53,4.53,0,0,1-.24.56c-.7,1.1-1.39,2.2-2.13,3.27-.47.68-1,1.29-1.51,2-.71,1-1.32,2-2.07,3-1.3,1.66-2.6,3.33-4,4.87-.54.58-.83,1.58-2,1.47a4.87,4.87,0,0,1-1.37,0,2.6,2.6,0,0,1-1-.56c-.5-.54-.93-1.15-1.39-1.73l-.27.38h0a7.27,7.27,0,0,0,.25.83,3.59,3.59,0,0,0,1.43,1.54,3.5,3.5,0,0,0,4.09-.2c1-.91,1.9-1.86,2.78-2.85.56-.64,1-1.41,1.48-2.09,1.33-1.76,2.69-3.48,4-5.26,1.06-1.44,2.1-2.9,3-4.42A1.88,1.88,0,0,1,114.87,22.42ZM94.74,30.91c-.63-.84-.83-3.12-.53-4.84,1-.49,2-1,3-1.4a.86.86,0,0,1,.61,0,1.46,1.46,0,0,0,1.62-.2c.21-.18.64-.08.92-.22,1.09-.54,2.31-.37,3.44-.69.08,0,.19.07.3.11C100.92,26.09,98,28.7,94.74,30.91Zm17.94-9.29c-1.1.13-2.2.24-3.3.32-.63,0-1.27,0-2.11,0l11.12-9,.1.09a.79.79,0,0,1-.08.26c-.76,1.25-1.52,2.51-2.31,3.75-.68,1.07-1.39,2.12-2.09,3.18a10.64,10.64,0,0,1-.7,1.05A1.06,1.06,0,0,1,112.68,21.62Z"/><path d="M49.35,32.55a.8.8,0,0,1,.19-.13c.71-.36,1.45-.69,2.13-1.1.17-.1.17-.47.25-.72a5.73,5.73,0,0,0-.56-.14,2.47,2.47,0,0,0-.44,0c.11-.21.15-.39.26-.46,1-.65,2-1.29,3.07-1.92s1.8-1.05,2.69-1.58c.72-.43,1.42-.87,2.13-1.31l1.85-1.13c.9-.57,1.76-1.21,2.7-1.7.75-.4,1.46-.86,2.18-1.29,1.1-.64,2.15-1.36,3.25-2s2-1.3,3-1.95c.52-.33,1.07-.61,1.56-1,1.15-.83,2.28-1.68,3.41-2.54.84-.65,1.7-1.28,2.47-2,.32-.3.77-.74.43-1.31s-.76-.54-1.52-.18c-.14.06-.31.07-.46.12l-2.24.84.26.21A19.28,19.28,0,0,0,72.91,13a28.81,28.81,0,0,1-2.69,1.52c-.66.41-1.33.79-2,1.22a1.65,1.65,0,0,0-.34.48,2,2,0,0,0-.56.07c-.44.27-.84.62-1.29.86-1.12.62-2.07,1.48-3.23,2.06a24.46,24.46,0,0,0-2.47,1.68c-1,.68-2.11,1.31-3.15,2a3.26,3.26,0,0,0-.62.75,1.36,1.36,0,0,0-.58.06,10.67,10.67,0,0,0-1.46.85c-1.19.85-2.35,1.74-3.52,2.62-.48.35-.93.74-1.41,1.08-.66.48-1.36.92-2,1.41-.87.65-1.71,1.34-2.56,2-.55.43-1.08.89-1.64,1.3-.74.55-1.25,1.36-2.28,1.58a21.6,21.6,0,0,0-2.57,1,22.19,22.19,0,0,1-2.75.81,1.32,1.32,0,0,1-1.31-.19,8.37,8.37,0,0,1,4.23-2.46,7.05,7.05,0,0,0,1.47-.49c.17-.08.25-.35.37-.53-.17-.12-.36-.35-.52-.33a29.57,29.57,0,0,0-3,.46,12.91,12.91,0,0,1-1.61.57,8.33,8.33,0,0,0-2.93,1c-.17.07-.51.06-.53.15-.19.72-.92.39-1.35.71a8.12,8.12,0,0,1-1.8.62,4.3,4.3,0,0,1-2,.37c-.15,0-.41-.22-.4-.29a2.38,2.38,0,0,1,.35-1.09,19.49,19.49,0,0,1,1.73-1.67c.28-.26.6-.69.88-.67.75.06,1-.43,1.3-.91.11-.18,0-.46,0-.7a2.28,2.28,0,0,0-.76.14c-.77.51-1.52,1.06-2.25,1.62a4.69,4.69,0,0,0-.63.7c-.07.08-.11.19-.18.27a17.89,17.89,0,0,0-1.47,1.81,1.29,1.29,0,0,0,.79,1.67A5.3,5.3,0,0,0,29,36.89c1.12-.4,2.19-1,3.28-1.45L35.54,34l.07.13-.54.38v.62l-.54-.32c-.23.34-.43.6-.59.89s-.41.6-.34.79.47.47.75.65a2,2,0,0,0,1.88,0,15,15,0,0,0,4-1.5c0,.18-.19.3-.22.44a5.85,5.85,0,0,0-.11.84c.22,0,.48.08.66,0a4,4,0,0,0,.73-.58,6,6,0,0,1,.66-.58c.46-.28.95-.52,1.41-.79s1-.6,1.5-.9a4.21,4.21,0,0,0,.64-.43c.24-.24.37-.64.84-.45.16-.46.52,0,.77-.17.48-.31,1-.58,1.49-.86.17-.09.36-.17.49-.23l-.64,1.56,0,0C48.78,33.18,49.07,32.87,49.35,32.55Zm-2.22-1c-.25.15-.49.32-.74.48l-.1-.13c.73-.56,1.46-1.11,2.17-1.68s1.43-1.24,2.19-1.8c.93-.67,1.91-1.27,2.85-1.91s1.62-1.13,2.42-1.69c.63-.45,1.26-.9,1.9-1.34,1.56-1.05,3.12-2.1,4.69-3.12,1-.62,2-1.11,2.92-1.82a22.45,22.45,0,0,1,3-1.75c1.46-.85,2.86-1.8,4.29-2.71,1-.61,1.88-1.26,2.86-1.83.7-.4,1.47-.68,2.21-1,.31-.15.61-.32.91-.47l.14.25c-1.32,1.08-2.6,2.22-4,3.24-.85.63-1.89,1-2.73,1.67s-2,1.31-3,2c-1.17.85-2.45,1.53-3.67,2.32a12.72,12.72,0,0,0-2.35,1.61A10.22,10.22,0,0,1,61,23.06c-.45.27-.85.62-1.29.91-.93.63-1.84,1.28-2.8,1.84s-2.1,1.07-3.11,1.67a11.7,11.7,0,0,0-1.33,1.13c-.14.11-.36.11-.52.2-.49.27-1,.57-1.44.84Z"/><path d="M115.93,36.8c-.13-.06-.34,0-.53.07a.57.57,0,0,0-.11-.16,3.51,3.51,0,0,1-1-2.59A4.73,4.73,0,0,1,115,31.9c.52-1.09,1.19-2.11,1.8-3.15a6.49,6.49,0,0,0,.36-.55,9.12,9.12,0,0,1,2.4-2.87c.89-.83,1.87-1.57,2.82-2.34s1.82-1.48,2.77-2.16,1.74-1.12,2.59-1.71,1.44-1.11,2.2-1.62c1-.66,2.05-1.25,3.06-1.9a2.33,2.33,0,0,0,.46-.6l-.12-.13.57.25c.18-.62.7-.71,1.18-.94.8-.39,1.53-.92,2.3-1.36.47-.27,1-.45,1.44-.73a21.73,21.73,0,0,1,1.93-1.3,14.28,14.28,0,0,1,3-1.14c1-.24,1.85-.93,2.9-1.12.61-.11,1.16-.55,1.77-.68.79-.17,1.61-.16,2.42-.28.2,0,.38-.24.59-.38a2.4,2.4,0,0,0,1.91.4,1.3,1.3,0,0,1,1.25.75,4.94,4.94,0,0,1-.35,2.87,6.69,6.69,0,0,1-1.75,2.94c-1.05,1-1.91,2.14-2.92,3.16a11.16,11.16,0,0,0-2.27,2.53c-.06.13,0,.34.05.51.15,0,.35,0,.43-.11a1.18,1.18,0,0,0,.35-.62c0-.4.31-.47.59-.64a11.74,11.74,0,0,0,1.55-1.18c.31-.27.54-.63.83-.92.67-.65,1.37-1.26,2-1.93a6.59,6.59,0,0,0,1-1.34,15.9,15.9,0,0,0,.85-1.93c.27-.69.5-1.4.72-2.1a1.23,1.23,0,0,0,0-.54c-.16-1.15-.43-2.22-1.82-2.48a4.17,4.17,0,0,0-2.19,0,5.27,5.27,0,0,1-.75.14l0,.5c-.39-.7-.92-.49-1.35-.39-1,.24-2,.51-3,.84A29.89,29.89,0,0,0,142.91,9c-.78.39-1.8.33-2.33,1.21-.69-.13-1.08.46-1.59.73-1.49.78-2.94,1.65-4.39,2.51s-2.72,1.68-4.06,2.55c-.8.52-1.55,1.12-2.34,1.65-1.25.85-2.54,1.66-3.79,2.52-.55.37-1,.87-1.55,1.27a16.9,16.9,0,0,0-3,2.33c-.48.57-1.19.93-1.69,1.48a29.76,29.76,0,0,0-2,2.57,19.23,19.23,0,0,0-1.7,2.68,7.36,7.36,0,0,0-1.08,4.08c.11.93,0,2,1.12,2.52a5.25,5.25,0,0,0,1.73.53,2.73,2.73,0,0,0,2.24-.71,2.8,2.8,0,0,0-.68-.11A3.29,3.29,0,0,1,115.93,36.8Z"/><path d="M94.57,32.6,95,33.9A.81.81,0,0,0,94.57,32.6Z"/><path d="M95.91,34.83c0-.12-.23-.21-.36-.32-.06.14-.21.33-.17.41a9.8,9.8,0,0,0,.62,1h0A7.32,7.32,0,0,0,95.91,34.83Z"/><path d="M190.74,28.2l.2.33.7-.42-.14-.27Z"/></svg>