<svg xmlns="http://www.w3.org/2000/svg" viewBox="0 0 70.46 55.63"><defs><style>.cls-1{fill:#fff;}.cls-2{fill:#3286b5;}.cls-3{fill:#b0b0b0;}.cls-4{fill:#193340;}.cls-5{fill:none;}</style></defs><title>Web_icons</title><g id="EPS_BACK" data-name="EPS BACK"><circle class="cls-1" cx="35.23" cy="25.75" r="23.72"/><path class="cls-2" d="M10.44,10H6.25A5.33,5.33,0,0,0,.93,15.28V36.22a5.34,5.34,0,0,0,5.32,5.32h4.19a29.33,29.33,0,0,1,0-31.57Z"/><path class="cls-2" d="M64.21,10H60a29.38,29.38,0,0,1,0,31.57h4.19a5.33,5.33,0,0,0,5.31-5.32V15.28A5.33,5.33,0,0,0,64.21,10Z"/><path class="cls-3" d="M35.23,50.83A25.08,25.08,0,1,1,60.3,25.75,25.11,25.11,0,0,1,35.23,50.83Zm0-47.15A22.08,22.08,0,1,0,57.3,25.75,22.1,22.1,0,0,0,35.23,3.68Z"/><circle class="cls-3" cx="31.43" cy="54.08" r="0.87"/><circle class="cls-3" cx="35.23" cy="54.08" r="0.87"/><circle class="cls-3" cx="39.03" cy="54.08" r="0.87"/></g><g id="EPS_ICON" data-name="EPS ICON"><path class="cls-4" d="M35.5,20.58V19.26a.25.25,0,0,0-.5,0v1.33a.44.44,0,0,0-.13.14h-.78a.25.25,0,0,0,0,.5h.78a.48.48,0,0,0,.39.22.47.47,0,0,0,.47-.47A.46.46,0,0,0,35.5,20.58Z"/><path class="cls-4" d="M47.56,38.15V25.38H23V38.15H33V34.47a2.27,2.27,0,0,1,4.54,0v3.68Zm-20.7-2.31h-2V32.2h2Zm0-5.26h-2V27.93a1,1,0,1,1,2,0Zm3.76,5.26h-2V32.2h2Zm0-5.26h-2V27.93a1,1,0,1,1,2,0Zm3.76,0h-2V27.93a1,1,0,0,1,2,0Zm9.28-2.65a1,1,0,1,1,2,0v2.65h-2Zm0,4.27h2v3.64h-2ZM39.9,27.93a1,1,0,1,1,2,0v2.65h-2Zm0,4.27h2v3.64h-2Zm-3.76-1.62V27.93a1,1,0,1,1,2,0v2.65Z"/><rect class="cls-4" x="22.96" y="39.39" width="9.94" height="1"/><rect class="cls-4" x="34.64" y="39.39" width="1.25" height="1"/><rect class="cls-4" x="37.62" y="39.39" width="9.94" height="1"/><circle class="cls-5" cx="35.26" cy="20.98" r="2.43"/><path class="cls-4" d="M44.76,13.16l-.91-1.76.93-1.81c-3,2-4.58-2.47-7.66-.13V13C40.19,10.69,41.77,15.13,44.76,13.16Z"/><polygon class="cls-4" points="23.56 18.25 21.4 24.42 26.47 24.42 31.28 18.25 23.56 18.25"/><polygon class="cls-4" points="46.96 18.25 39.24 18.25 44.05 24.42 49.12 24.42 46.96 18.25"/><path class="cls-4" d="M25.54,17h3.7a.51.51,0,0,0,.5-.5.5.5,0,0,0-.5-.5h-3.7a.5.5,0,0,0-.5.5A.51.51,0,0,0,25.54,17Z"/><path class="cls-4" d="M41.25,16a.5.5,0,0,0-.5.5.51.51,0,0,0,.5.5H45a.5.5,0,0,0,.5-.5A.5.5,0,0,0,45,16Z"/><path class="cls-4" d="M38,18.25l-1.34-1.72a1.62,1.62,0,0,0,.07-.44A1.46,1.46,0,0,0,36,14.86V8.47a.45.45,0,0,0,.3-.43V7.51a.45.45,0,0,0-.45-.46h-1.2a.45.45,0,0,0-.45.46V8a.45.45,0,0,0,.3.43v6.39a1.46,1.46,0,0,0-.69,1.23,1.32,1.32,0,0,0,.08.44l-1.35,1.72-.26.34-4.56,5.83H42.79l-.75-1Zm-2.71,5.16A2.44,2.44,0,1,1,37.69,21,2.43,2.43,0,0,1,35.26,23.41Z"/></g></svg>