<?xml version="1.0" encoding="utf-8"?>
<!-- Generator: Adobe Illustrator 23.0.2, SVG Export Plug-In . SVG Version: 6.00 Build 0)  -->
<svg version="1.1" id="Layer_1" xmlns="http://www.w3.org/2000/svg" xmlns:xlink="http://www.w3.org/1999/xlink" x="0px" y="0px"
	 viewBox="0 0 68.6 50.2" style="enable-background:new 0 0 68.6 50.2;" xml:space="preserve">
<style type="text/css">
	.st0{fill:#FFFFFF;}
	.st1{fill:#3286B5;}
	.st2{fill:#7C8C8E;}
	.st3{display:none;fill:#B0B0B0;}
	.st4{fill:#193340;}
	.st5{fill:none;}
</style>
<title>Web_icons</title>
<g id="EPS_BACK">
	<circle class="st0" cx="34.3" cy="25.1" r="23.7"/>
	<path class="st1" d="M9.5,9.3H5.3C2.4,9.3,0,11.7,0,14.6v20.9c0,2.9,2.4,5.3,5.3,5.3h4.2C3.4,31.2,3.4,18.9,9.5,9.3L9.5,9.3z"/>
	<path class="st1" d="M63.3,9.3h-4.2c6.1,9.6,6.1,21.9,0,31.6h4.2c2.9,0,5.3-2.4,5.3-5.3v-21C68.5,11.7,66.2,9.4,63.3,9.3z"/>
	<path class="st2" d="M34.3,50.2c-13.9,0-25.1-11.2-25.1-25.1C9.2,11.2,20.4,0,34.3,0c13.9,0,25.1,11.2,25.1,25.1c0,0,0,0,0,0
		C59.4,38.9,48.1,50.1,34.3,50.2z M34.3,3c-12.2,0-22.1,9.9-22.1,22.1s9.9,22.1,22.1,22.1c12.2,0,22.1-9.9,22.1-22.1c0,0,0,0,0,0
		C56.4,12.9,46.5,3,34.3,3z"/>
	<circle class="st3" cx="30.5" cy="53.4" r="0.9"/>
	<circle class="st3" cx="34.3" cy="53.4" r="0.9"/>
	<circle class="st3" cx="38.1" cy="53.4" r="0.9"/>
</g>
<g id="EPS_ICON">
	<path class="st4" d="M34.6,19.9v-1.3c0-0.1-0.1-0.2-0.2-0.2s-0.2,0.1-0.2,0.2v1.3C34,20,34,20,33.9,20.1h-0.8
		c-0.1,0-0.2,0.1-0.2,0.2s0.1,0.2,0.2,0.2h0.8c0.1,0.1,0.2,0.2,0.4,0.2c0.3,0,0.5-0.2,0.5-0.5l0,0C34.8,20.1,34.7,20,34.6,19.9z"/>
	<path class="st4" d="M46.6,37.5V24.7H22.1v12.8h10v-3.7c0-1.3,1-2.3,2.3-2.3s2.3,1,2.3,2.3l0,0v3.7H46.6z M25.9,35.2h-2v-3.6h2
		V35.2z M25.9,29.9h-2v-2.6c0-0.6,0.4-1,1-1s1,0.4,1,1V29.9z M29.7,35.2h-2v-3.6h2V35.2z M29.7,29.9h-2v-2.6c0-0.6,0.4-1,1-1
		s1,0.4,1,1V29.9z M33.5,29.9h-2v-2.6c0-0.6,0.4-1,1-1s1,0.4,1,1V29.9z M42.7,27.3c0-0.6,0.4-1,1-1s1,0.4,1,1v2.6h-2V27.3z
		 M42.7,31.5h2v3.6h-2V31.5z M39,27.3c0-0.6,0.4-1,1-1s1,0.4,1,1v2.6h-2V27.3z M39,31.5h2v3.6h-2V31.5z M35.2,29.9v-2.6
		c0-0.6,0.4-1,1-1s1,0.4,1,1v2.6H35.2z"/>
	<rect x="22" y="38.7" class="st4" width="9.9" height="1"/>
	<rect x="33.7" y="38.7" class="st4" width="1.2" height="1"/>
	<rect x="36.7" y="38.7" class="st4" width="9.9" height="1"/>
	<circle class="st5" cx="34.3" cy="20.3" r="2.4"/>
	<path class="st4" d="M43.8,12.5l-0.9-1.8l0.9-1.8c-3,2-4.6-2.5-7.7-0.1v3.5C39.3,10,40.8,14.5,43.8,12.5z"/>
	<polygon class="st4" points="22.6,17.6 20.5,23.7 25.5,23.7 30.4,17.6 	"/>
	<polygon class="st4" points="46,17.6 38.3,17.6 43.1,23.7 48.2,23.7 	"/>
	<path class="st4" d="M24.6,16.3h3.7c0.3,0,0.5-0.2,0.5-0.5c0-0.3-0.2-0.5-0.5-0.5h-3.7c-0.3,0-0.5,0.2-0.5,0.5
		C24.1,16.1,24.3,16.3,24.6,16.3z"/>
	<path class="st4" d="M40.3,15.3c-0.3,0-0.5,0.2-0.5,0.5c0,0.3,0.2,0.5,0.5,0.5h3.8c0.3,0,0.5-0.2,0.5-0.5s-0.2-0.5-0.5-0.5H40.3z"
		/>
	<path class="st4" d="M37.1,17.6l-1.3-1.7c0-0.1,0.1-0.3,0.1-0.4c0-0.5-0.3-1-0.7-1.2V7.8c0.2-0.1,0.3-0.2,0.3-0.4V6.8
		c0-0.2-0.2-0.5-0.4-0.5c0,0,0,0,0,0h-1.2c-0.2,0-0.5,0.2-0.5,0.4c0,0,0,0,0,0v0.5c0,0.2,0.1,0.4,0.3,0.4v6.4
		c-0.4,0.3-0.7,0.7-0.7,1.2c0,0.2,0,0.3,0.1,0.4l-1.3,1.7l-0.3,0.3l-4.6,5.8h15.1l-0.8-1L37.1,17.6z M34.4,22.7
		c-1.3,0-2.5-1.1-2.5-2.4c0-1.3,1.1-2.5,2.4-2.5c1.3,0,2.5,1.1,2.5,2.4c0,0,0,0,0,0.1C36.7,21.7,35.7,22.7,34.4,22.7L34.4,22.7z"/>
</g>
</svg>
