<?xml version="1.0" encoding="utf-8"?>
<!-- Generator: Adobe Illustrator 23.0.2, SVG Export Plug-In . SVG Version: 6.00 Build 0)  -->
<svg version="1.1" id="Layer_1" xmlns="http://www.w3.org/2000/svg" xmlns:xlink="http://www.w3.org/1999/xlink" x="0px" y="0px"
	 viewBox="0 0 36.1 36.1" style="enable-background:new 0 0 36.1 36.1;" xml:space="preserve">
<style type="text/css">
	.st0{display:none;fill:#B0B0B0;}
	.st1{fill:none;}
</style>
<title>Web_icons</title>
<g id="EPS_BACK">
	<circle class="st0" cx="14.2" cy="48.5" r="0.9"/>
	<circle class="st0" cx="18" cy="48.5" r="0.9"/>
	<circle class="st0" cx="21.8" cy="48.5" r="0.9"/>
</g>
<g id="EPS_ICON">
	<path d="M18.3,15v-1.3c0-0.1-0.1-0.2-0.2-0.2s-0.2,0.1-0.2,0.2V15c-0.2,0.1-0.2,0.1-0.3,0.2h-0.8c-0.1,0-0.2,0.1-0.2,0.2
		s0.1,0.2,0.2,0.2h0.8c0.1,0.1,0.2,0.2,0.4,0.2c0.3,0,0.5-0.2,0.5-0.5l0,0C18.5,15.2,18.4,15.1,18.3,15z"/>
	<path d="M30.3,32.6V19.8H5.8v12.8h10v-3.7c0-1.3,1-2.3,2.3-2.3s2.3,1,2.3,2.3l0,0v3.7H30.3z M9.6,30.3h-2v-3.6h2V30.3z M9.6,25h-2
		v-2.6c0-0.6,0.4-1,1-1s1,0.4,1,1V25z M13.4,30.3h-2v-3.6h2V30.3z M13.4,25h-2v-2.6c0-0.6,0.4-1,1-1s1,0.4,1,1V25z M17.2,25h-2v-2.6
		c0-0.6,0.4-1,1-1c0.6,0,1,0.4,1,1V25z M26.4,22.4c0-0.6,0.4-1,1-1s1,0.4,1,1V25h-2V22.4z M26.4,26.6h2v3.6h-2V26.6z M22.7,22.4
		c0-0.6,0.4-1,1-1s1,0.4,1,1V25h-2V22.4z M22.7,26.6h2v3.6h-2V26.6z M18.9,25v-2.6c0-0.6,0.4-1,1-1s1,0.4,1,1V25H18.9z"/>
	<rect x="5.7" y="33.8" width="9.9" height="1"/>
	<rect x="17.4" y="33.8" width="1.2" height="1"/>
	<rect x="20.4" y="33.8" width="9.9" height="1"/>
	<circle class="st1" cx="18" cy="15.4" r="2.4"/>
	<path d="M27.5,7.6l-0.9-1.8L27.5,4c-3,2-4.6-2.5-7.7-0.1v3.5C23,5.1,24.5,9.6,27.5,7.6z"/>
	<polygon points="6.3,12.7 4.2,18.8 9.2,18.8 14.1,12.7 	"/>
	<polygon points="29.7,12.7 22,12.7 26.8,18.8 31.9,18.8 	"/>
	<path d="M8.3,11.4H12c0.3,0,0.5-0.2,0.5-0.5c0-0.3-0.2-0.5-0.5-0.5H8.3c-0.3,0-0.5,0.2-0.5,0.5C7.8,11.2,8,11.4,8.3,11.4z"/>
	<path d="M24,10.4c-0.3,0-0.5,0.2-0.5,0.5s0.2,0.5,0.5,0.5h3.8c0.3,0,0.5-0.2,0.5-0.5s-0.2-0.5-0.5-0.5C27.8,10.4,24,10.4,24,10.4z"
		/>
	<path d="M20.8,12.7L19.5,11c0-0.1,0.1-0.3,0.1-0.4c0-0.5-0.3-1-0.7-1.2V2.9c0.2-0.1,0.3-0.2,0.3-0.4V1.9c0-0.2-0.2-0.5-0.4-0.5l0,0
		h-1.2c-0.2,0-0.5,0.2-0.5,0.4l0,0v0.5c0,0.2,0.1,0.4,0.3,0.4v6.4c-0.4,0.3-0.7,0.7-0.7,1.2c0,0.2,0,0.3,0.1,0.4l-1.3,1.7l-0.3,0.3
		l-4.6,5.8h15.1l-0.8-1L20.8,12.7z M18.1,17.8c-1.3,0-2.5-1.1-2.5-2.4s1.1-2.5,2.4-2.5c1.3,0,2.5,1.1,2.5,2.4c0,0,0,0,0,0.1
		C20.4,16.8,19.4,17.8,18.1,17.8L18.1,17.8z"/>
</g>
</svg>
