<?xml version="1.0" encoding="utf-8"?>
<!-- Generator: Adobe Illustrator 23.0.2, SVG Export Plug-In . SVG Version: 6.00 Build 0)  -->
<svg version="1.1" id="Layer_1" xmlns="http://www.w3.org/2000/svg" xmlns:xlink="http://www.w3.org/1999/xlink" x="0px" y="0px"
	 viewBox="0 0 70.5 55.6" style="enable-background:new 0 0 70.5 55.6;" xml:space="preserve">
<style type="text/css">
	.st0{fill:#FFFFFF;}
	.st1{fill:#3286B5;}
	.st2{fill:#B0B0B0;}
	.st3{fill:#193340;}
	.st4{fill:none;}
</style>
<title>Web_icons</title>
<g id="EPS_BACK">
	<circle class="st0" cx="35.2" cy="25.7" r="23.7"/>
	<path class="st1" d="M10.4,10H6.2c-2.9,0-5.3,2.4-5.3,5.3v20.9c0,2.9,2.4,5.3,5.3,5.3h4.2C4.3,31.9,4.3,19.6,10.4,10L10.4,10z"/>
	<path class="st1" d="M64.2,10H60c6.1,9.6,6.1,21.9,0,31.6h4.2c2.9,0,5.3-2.4,5.3-5.3v-21C69.5,12.4,67.1,10,64.2,10z"/>
	<path class="st2" d="M35.2,50.8c-13.9,0-25.1-11.2-25.1-25.1S21.3,0.6,35.2,0.6s25.1,11.2,25.1,25.1l0,0
		C60.3,39.6,49.1,50.8,35.2,50.8z M35.2,3.7c-12.2,0-22.1,9.9-22.1,22.1s9.9,22,22.1,22s22.1-9.9,22.1-22.1l0,0
		C57.3,13.6,47.4,3.7,35.2,3.7z"/>
	<circle class="st2" cx="31.4" cy="54.1" r="0.9"/>
	<circle class="st2" cx="35.2" cy="54.1" r="0.9"/>
	<circle class="st2" cx="39" cy="54.1" r="0.9"/>
</g>
<g id="EPS_ICON">
	<path class="st3" d="M29.1,33.8h-2v-2c0-0.3-0.2-0.5-0.5-0.5s-0.5,0.2-0.5,0.5v2.5c0,0.3,0.2,0.5,0.5,0.5H29c0.3,0,0.5-0.2,0.5-0.5
		S29.3,33.8,29.1,33.8z"/>
	<path class="st3" d="M43.8,14.2H42c-0.3,0-0.5,0.2-0.5,0.5s0.2,0.5,0.5,0.5h1.2v1.2c0,0.3,0.2,0.5,0.5,0.5s0.5-0.2,0.5-0.5v-1.7
		C44.2,14.4,44,14.2,43.8,14.2z"/>
	<rect x="39.1" y="41.6" class="st3" width="1.2" height="1"/>
	<path class="st3" d="M48.5,37.4c0,2.3-1.8,4.1-4.1,4.1h-2.3v1h2.3c2.8,0,5.1-2.3,5.1-5.1V19.9h-1V37.4z"/>
	<rect x="48.5" y="17" class="st3" width="1" height="1.2"/>
	<rect x="20.9" y="31.4" class="st3" width="1" height="1.2"/>
	<path class="st3" d="M29.7,9.9v-1H26c-2.8,0-5.1,2.3-5.1,5.1v15.7h1V14c0-2.3,1.9-4.1,4.1-4.1H29.7z"/>
	<rect x="31.4" y="8.9" class="st3" width="1.2" height="1"/>
	<path class="st4" d="M44.4,12.9H26c-0.6,0-1.1,0.5-1.1,1.1v22h20.6V14C45.5,13.4,45,12.9,44.4,12.9L44.4,12.9z"/>
	<path class="st3" d="M44.4,11.4H26c-1.5,0-2.6,1.2-2.6,2.6l0,0v23.4c0,1.5,1.2,2.6,2.6,2.6l0,0h18.4c1.4,0,2.6-1.2,2.6-2.6V14
		C47,12.6,45.8,11.4,44.4,11.4z M35.2,38.9c-0.6,0-1.1-0.5-1.1-1.1s0.5-1.1,1.1-1.1s1.1,0.5,1.1,1.1c0,0,0,0,0,0.1
		C36.2,38.5,35.8,38.9,35.2,38.9L35.2,38.9z M45.5,36.1H24.9v-22c0-0.6,0.5-1.1,1.1-1.1l0,0h18.4c0.6,0,1.1,0.5,1.1,1.1l0,0V36.1z"
		/>
</g>
</svg>
