<?xml version="1.0" encoding="utf-8"?>
<!-- Generator: Adobe Illustrator 23.0.2, SVG Export Plug-In . SVG Version: 6.00 Build 0)  -->
<svg version="1.1" id="Layer_1" xmlns="http://www.w3.org/2000/svg" xmlns:xlink="http://www.w3.org/1999/xlink" x="0px" y="0px"
	 viewBox="0 0 68.6 50.2" style="enable-background:new 0 0 68.6 50.2;" xml:space="preserve">
<style type="text/css">
	.st0{fill:#FFFFFF;}
	.st1{fill:#3286B5;}
	.st2{fill:#7C8C8E;}
	.st3{display:none;fill:#B0B0B0;}
	.st4{fill:#193340;}
	.st5{fill:none;}
</style>
<title>Web_icons</title>
<g id="EPS_BACK">
	<circle class="st0" cx="34.3" cy="25.1" r="23.7"/>
	<path class="st1" d="M9.5,9.4H5.3C2.4,9.4,0,11.8,0,14.7v20.9c0,2.9,2.4,5.3,5.3,5.3h4.2C3.4,31.3,3.4,19,9.5,9.4L9.5,9.4z"/>
	<path class="st1" d="M63.3,9.4h-4.2c6.1,9.6,6.1,21.9,0,31.6h4.2c2.9,0,5.3-2.4,5.3-5.3v-21C68.6,11.8,66.2,9.4,63.3,9.4z"/>
	<path class="st2" d="M34.3,50.2C20.4,50.2,9.2,39,9.2,25.1S20.4,0,34.3,0s25.1,11.2,25.1,25.1l0,0C59.4,39,48.2,50.2,34.3,50.2z
		 M34.3,3.1c-12.2,0-22.1,9.9-22.1,22.1s9.9,22,22.1,22s22.1-9.9,22.1-22.1l0,0C56.4,13,46.5,3.1,34.3,3.1z"/>
	<circle class="st3" cx="30.5" cy="53.5" r="0.9"/>
	<circle class="st3" cx="34.3" cy="53.5" r="0.9"/>
	<circle class="st3" cx="38.1" cy="53.5" r="0.9"/>
</g>
<g id="EPS_ICON">
	<path class="st4" d="M28.2,33.2h-2v-2c0-0.3-0.2-0.5-0.5-0.5s-0.5,0.2-0.5,0.5v2.5c0,0.3,0.2,0.5,0.5,0.5h2.4
		c0.3,0,0.5-0.2,0.5-0.5S28.4,33.2,28.2,33.2z"/>
	<path class="st4" d="M42.9,13.6h-1.8c-0.3,0-0.5,0.2-0.5,0.5s0.2,0.5,0.5,0.5h1.2v1.2c0,0.3,0.2,0.5,0.5,0.5c0.3,0,0.5-0.2,0.5-0.5
		v-1.7C43.3,13.8,43.1,13.6,42.9,13.6z"/>
	<rect x="38.2" y="41" class="st4" width="1.2" height="1"/>
	<path class="st4" d="M47.6,36.8c0,2.3-1.8,4.1-4.1,4.1h-2.3v1h2.3c2.8,0,5.1-2.3,5.1-5.1V19.3h-1V36.8z"/>
	<rect x="47.6" y="16.4" class="st4" width="1" height="1.2"/>
	<rect x="20" y="30.8" class="st4" width="1" height="1.2"/>
	<path class="st4" d="M28.8,9.3v-1h-3.7c-2.8,0-5.1,2.3-5.1,5.1v15.7h1V13.4c0-2.3,1.9-4.1,4.1-4.1H28.8z"/>
	<rect x="30.5" y="8.3" class="st4" width="1.2" height="1"/>
	<path class="st5" d="M43.5,12.3H25.1c-0.6,0-1.1,0.5-1.1,1.1v22h20.6v-22C44.6,12.8,44.1,12.3,43.5,12.3L43.5,12.3z"/>
	<path class="st4" d="M43.5,10.8H25.1c-1.5,0-2.6,1.2-2.6,2.6l0,0v23.4c0,1.5,1.2,2.6,2.6,2.6l0,0h18.4c1.4,0,2.6-1.2,2.6-2.6V13.4
		C46.1,12,44.9,10.8,43.5,10.8z M34.3,38.3c-0.6,0-1.1-0.5-1.1-1.1s0.5-1.1,1.1-1.1s1.1,0.5,1.1,1.1c0,0,0,0,0,0.1
		C35.3,37.9,34.9,38.3,34.3,38.3L34.3,38.3z M44.6,35.5H24v-22c0-0.6,0.5-1.1,1.1-1.1l0,0h18.4c0.6,0,1.1,0.5,1.1,1.1l0,0V35.5z"/>
</g>
</svg>
