<?xml version="1.0" encoding="utf-8"?>
<!-- Generator: Adobe Illustrator 23.0.2, SVG Export Plug-In . SVG Version: 6.00 Build 0)  -->
<svg version="1.1" id="Layer_1" xmlns="http://www.w3.org/2000/svg" xmlns:xlink="http://www.w3.org/1999/xlink" x="0px" y="0px"
	 viewBox="0 0 36.1 36.1" style="enable-background:new 0 0 36.1 36.1;" xml:space="preserve">
<style type="text/css">
	.st0{display:none;fill:#B0B0B0;}
	.st1{fill:none;}
</style>
<title>Web_icons</title>
<g id="EPS_BACK">
	<circle class="st0" cx="14.3" cy="46.5" r="0.9"/>
	<circle class="st0" cx="18.1" cy="46.5" r="0.9"/>
	<circle class="st0" cx="21.9" cy="46.5" r="0.9"/>
</g>
<g id="EPS_ICON">
	<path d="M12,26.2h-2v-2c0-0.3-0.2-0.5-0.5-0.5S9,23.9,9,24.2v2.5c0,0.3,0.2,0.5,0.5,0.5h2.4c0.3,0,0.5-0.2,0.5-0.5
		S12.2,26.2,12,26.2z"/>
	<path d="M26.7,6.6h-1.8c-0.3,0-0.5,0.2-0.5,0.5s0.2,0.5,0.5,0.5h1.2v1.2c0,0.3,0.2,0.5,0.5,0.5s0.5-0.2,0.5-0.5V7.1
		C27.1,6.8,26.9,6.6,26.7,6.6z"/>
	<rect x="22" y="33.9" width="1.2" height="1"/>
	<path d="M31.4,29.8c0,2.3-1.8,4.1-4.1,4.1H25v1h2.3c2.8,0,5.1-2.3,5.1-5.1V12.3h-1V29.8z"/>
	<rect x="31.4" y="9.4" width="1" height="1.2"/>
	<rect x="3.8" y="23.8" width="1" height="1.2"/>
	<path d="M12.6,2.3v-1H8.9c-2.8,0-5.1,2.3-5.1,5.1v15.7h1V6.4c0-2.3,1.9-4.1,4.1-4.1C8.9,2.3,12.6,2.3,12.6,2.3z"/>
	<rect x="14.3" y="1.3" width="1.2" height="1"/>
	<path class="st1" d="M27.3,5.3H8.9c-0.6,0-1.1,0.5-1.1,1.1v22h20.6v-22C28.4,5.8,27.9,5.3,27.3,5.3L27.3,5.3z"/>
	<path d="M27.3,3.8H8.9C7.4,3.8,6.3,5,6.3,6.4l0,0v23.4c0,1.5,1.2,2.6,2.6,2.6l0,0h18.4c1.4,0,2.6-1.2,2.6-2.6V6.4
		C29.9,5,28.7,3.8,27.3,3.8z M18.1,31.3c-0.6,0-1.1-0.5-1.1-1.1s0.5-1.1,1.1-1.1s1.1,0.5,1.1,1.1c0,0,0,0,0,0.1
		C19.1,30.9,18.7,31.3,18.1,31.3L18.1,31.3z M28.4,28.5H7.8v-22c0-0.6,0.5-1.1,1.1-1.1l0,0h18.4c0.6,0,1.1,0.5,1.1,1.1l0,0V28.5z"/>
</g>
</svg>
