<?xml version="1.0" encoding="utf-8"?>
<!-- Generator: Adobe Illustrator 23.0.2, SVG Export Plug-In . SVG Version: 6.00 Build 0)  -->
<svg version="1.1" id="Layer_1" xmlns="http://www.w3.org/2000/svg" xmlns:xlink="http://www.w3.org/1999/xlink" x="0px" y="0px"
	 viewBox="0 0 68.6 50.2" style="enable-background:new 0 0 68.6 50.2;" xml:space="preserve">
<style type="text/css">
	.st0{fill:#FFFFFF;}
	.st1{fill:#3286B5;}
	.st2{fill:#7C8C8E;}
	.st3{display:none;fill:#B0B0B0;}
	.st4{fill:#193340;}
</style>
<title>Web_icons</title>
<g id="EPS_BACK">
	<circle class="st0" cx="34.3" cy="25.1" r="23.7"/>
	<path class="st1" d="M9.5,9.3H5.3C2.4,9.3,0,11.7,0,14.6v20.9c0,2.9,2.4,5.3,5.3,5.3h4.2C3.4,31.2,3.4,18.9,9.5,9.3L9.5,9.3z"/>
	<path class="st1" d="M63.3,9.3h-4.2c6.1,9.6,6.1,21.9,0,31.6h4.2c2.9,0,5.3-2.4,5.3-5.3v-21C68.5,11.7,66.2,9.4,63.3,9.3z"/>
	<path class="st2" d="M34.3,50.2c-13.9,0-25.1-11.2-25.1-25.1C9.2,11.2,20.4,0,34.3,0c13.9,0,25.1,11.2,25.1,25.1c0,0,0,0,0,0
		C59.4,38.9,48.1,50.1,34.3,50.2z M34.3,3c-12.2,0-22.1,9.9-22.1,22.1s9.9,22.1,22.1,22.1c12.2,0,22.1-9.9,22.1-22.1c0,0,0,0,0,0
		C56.4,12.9,46.5,3,34.3,3z"/>
	<circle class="st3" cx="30.5" cy="53.4" r="0.9"/>
	<circle class="st3" cx="34.3" cy="53.4" r="0.9"/>
	<circle class="st3" cx="38.1" cy="53.4" r="0.9"/>
</g>
<g id="EPS_ICON">
	<rect x="20.9" y="20.8" class="st4" width="3.9" height="1.9"/>
	<rect x="26.6" y="20.8" class="st4" width="3.9" height="1.9"/>
	<rect x="32.3" y="20.8" class="st4" width="3.9" height="1.9"/>
	<rect x="38.1" y="20.8" class="st4" width="3.9" height="1.9"/>
	<rect x="43.8" y="20.8" class="st4" width="3.9" height="1.9"/>
	<rect x="20.9" y="24.1" class="st4" width="3.9" height="1.9"/>
	<rect x="26.6" y="24.1" class="st4" width="3.9" height="1.9"/>
	<rect x="32.3" y="24.1" class="st4" width="3.9" height="1.9"/>
	<rect x="38.1" y="24.1" class="st4" width="3.9" height="1.9"/>
	<rect x="43.8" y="24.1" class="st4" width="3.9" height="1.9"/>
	<rect x="20.9" y="27.5" class="st4" width="3.9" height="1.9"/>
	<rect x="26.6" y="27.5" class="st4" width="15.4" height="1.9"/>
	<rect x="43.8" y="27.5" class="st4" width="3.9" height="1.9"/>
	<path class="st4" d="M16.6,28.5h-1v1.2h1V28.5z"/>
	<path class="st4" d="M20.1,15.6c-2.5,0.2-4.5,2.3-4.5,4.8v6.4h1v-6.4c0-2,1.5-3.6,3.5-3.8V15.6z"/>
	<rect x="21.9" y="15.5" class="st4" width="1.2" height="1"/>
	<rect x="52" y="20.5" class="st4" width="1" height="1.2"/>
	<path class="st4" d="M52,29.8c0,2.1-1.7,3.8-3.8,3.9v1c2.7,0,4.8-2.2,4.8-4.9v-6.3h-1V29.8z"/>
	<rect x="45.2" y="33.6" class="st4" width="1.2" height="1"/>
	<path class="st4" d="M50.5,29.8v-9.4c0-1.3-1.1-2.4-2.4-2.4l0,0H33.6c-0.2-0.1-0.4-0.3-0.6-0.5c-0.2-0.5-0.2-1.1,0-1.6
		c0.6-1.2,1.5-2.3,2.5-3.2c0.8-0.7,1.5-1.4,2.1-2.2c0.9-1.4,1.1-3.1,0.6-4.6c-0.4-0.1-0.8-0.1-1.1-0.2c0.6,1.4,0.5,3-0.3,4.2
		c-0.6,0.8-1.2,1.5-1.9,2.1c-1.2,0.9-2.2,2.1-2.8,3.5c-0.3,0.8-0.3,1.7,0.1,2.4l0,0H20.5c-1.3,0-2.4,1-2.4,2.3c0,0,0,0,0,0.1v9.4
		c0,1.3,1.1,2.4,2.4,2.4h27.7C49.4,32.1,50.5,31.1,50.5,29.8z M49,29.8c0,0.5-0.4,0.9-0.9,0.9H20.5c-0.5,0-0.9-0.4-0.9-0.8
		c0,0,0,0,0,0v-9.4c0-0.5,0.4-0.9,0.9-0.9c0,0,0,0,0,0h27.7c0.5,0,0.9,0.4,0.9,0.9L49,29.8z"/>
</g>
</svg>
