<svg xmlns="http://www.w3.org/2000/svg" viewBox="0 0 70.46 55.63"><defs><style>.cls-1{fill:#fff;}.cls-2{fill:#3286b5;}.cls-3{fill:#b0b0b0;}.cls-4{fill:#193340;}</style></defs><title>Web_icons</title><g id="EPS_BACK" data-name="EPS BACK"><circle class="cls-1" cx="35.23" cy="25.75" r="23.72"/><path class="cls-2" d="M10.44,10H6.25A5.33,5.33,0,0,0,.93,15.28V36.22a5.34,5.34,0,0,0,5.32,5.32h4.19a29.33,29.33,0,0,1,0-31.57Z"/><path class="cls-2" d="M64.21,10H60a29.38,29.38,0,0,1,0,31.57h4.19a5.33,5.33,0,0,0,5.31-5.32V15.28A5.33,5.33,0,0,0,64.21,10Z"/><path class="cls-3" d="M35.23,50.83A25.08,25.08,0,1,1,60.3,25.75,25.11,25.11,0,0,1,35.23,50.83Zm0-47.15A22.08,22.08,0,1,0,57.3,25.75,22.1,22.1,0,0,0,35.23,3.68Z"/><circle class="cls-3" cx="31.43" cy="54.08" r="0.87"/><circle class="cls-3" cx="35.23" cy="54.08" r="0.87"/><circle class="cls-3" cx="39.03" cy="54.08" r="0.87"/></g><g id="EPS_ICON" data-name="EPS ICON"><rect class="cls-4" x="21.79" y="21.47" width="3.94" height="1.91"/><rect class="cls-4" x="27.52" y="21.47" width="3.94" height="1.91"/><rect class="cls-4" x="33.26" y="21.47" width="3.94" height="1.91"/><rect class="cls-4" x="38.99" y="21.47" width="3.94" height="1.91"/><rect class="cls-4" x="44.73" y="21.47" width="3.94" height="1.91"/><rect class="cls-4" x="21.79" y="24.82" width="3.94" height="1.91"/><rect class="cls-4" x="27.52" y="24.82" width="3.94" height="1.91"/><rect class="cls-4" x="33.26" y="24.82" width="3.94" height="1.91"/><rect class="cls-4" x="38.99" y="24.82" width="3.94" height="1.91"/><rect class="cls-4" x="44.73" y="24.82" width="3.94" height="1.91"/><rect class="cls-4" x="21.79" y="28.16" width="3.94" height="1.91"/><rect class="cls-4" x="27.52" y="28.16" width="15.41" height="1.91"/><rect class="cls-4" x="44.73" y="28.16" width="3.94" height="1.91"/><path class="cls-4" d="M17.54,29.22h-1v1.24h1Z"/><path class="cls-4" d="M21,16.26a4.84,4.84,0,0,0-4.5,4.82v6.4h1v-6.4A3.84,3.84,0,0,1,21,17.26Z"/><rect class="cls-4" x="22.78" y="16.22" width="1.25" height="1"/><rect class="cls-4" x="52.92" y="21.16" width="1" height="1.25"/><path class="cls-4" d="M52.92,30.46a3.87,3.87,0,0,1-3.79,3.85v1a4.87,4.87,0,0,0,4.79-4.85V24.14h-1Z"/><rect class="cls-4" x="46.14" y="34.31" width="1.25" height="1"/><path class="cls-4" d="M51.42,30.46V21.08a2.36,2.36,0,0,0-2.36-2.36H34.56a1.06,1.06,0,0,1-.57-.49,2,2,0,0,1,0-1.6,9,9,0,0,1,2.52-3.16,14.41,14.41,0,0,0,2.09-2.25,5.31,5.31,0,0,0,.6-4.62c-.37-.08-.75-.12-1.13-.18a4.36,4.36,0,0,1-.3,4.23,13,13,0,0,1-1.94,2.09A9.62,9.62,0,0,0,33,16.27a3,3,0,0,0,.06,2.42l0,0H21.4A2.36,2.36,0,0,0,19,21.08v9.38a2.36,2.36,0,0,0,2.36,2.35H49.06A2.36,2.36,0,0,0,51.42,30.46Zm-1.5,0a.86.86,0,0,1-.86.85H21.4a.85.85,0,0,1-.86-.85V21.08a.86.86,0,0,1,.86-.86H49.06a.87.87,0,0,1,.86.86Z"/></g></svg>