<?xml version="1.0" encoding="utf-8"?>
<!-- Generator: Adobe Illustrator 23.0.2, SVG Export Plug-In . SVG Version: 6.00 Build 0)  -->
<svg version="1.1" id="Layer_1" xmlns="http://www.w3.org/2000/svg" xmlns:xlink="http://www.w3.org/1999/xlink" x="0px" y="0px"
	 viewBox="0 0 37.4 37.4" style="enable-background:new 0 0 37.4 37.4;" xml:space="preserve">
<style type="text/css">
	.st0{display:none;fill:#B0B0B0;}
</style>
<title>Web_icons</title>
<g id="EPS_BACK">
	<circle class="st0" cx="14.9" cy="51.9" r="0.9"/>
	<circle class="st0" cx="18.7" cy="51.9" r="0.9"/>
	<circle class="st0" cx="22.5" cy="51.9" r="0.9"/>
</g>
<g id="EPS_ICON">
	<rect x="5.3" y="19.3" width="3.9" height="1.9"/>
	<rect x="11" y="19.3" width="3.9" height="1.9"/>
	<rect x="16.7" y="19.3" width="3.9" height="1.9"/>
	<rect x="22.5" y="19.3" width="3.9" height="1.9"/>
	<rect x="28.2" y="19.3" width="3.9" height="1.9"/>
	<rect x="5.3" y="22.6" width="3.9" height="1.9"/>
	<rect x="11" y="22.6" width="3.9" height="1.9"/>
	<rect x="16.7" y="22.6" width="3.9" height="1.9"/>
	<rect x="22.5" y="22.6" width="3.9" height="1.9"/>
	<rect x="28.2" y="22.6" width="3.9" height="1.9"/>
	<rect x="5.3" y="26" width="3.9" height="1.9"/>
	<rect x="11" y="26" width="15.4" height="1.9"/>
	<rect x="28.2" y="26" width="3.9" height="1.9"/>
	<path d="M1,27H0v1.2h1V27z"/>
	<path d="M4.5,14.1C2,14.3,0,16.4,0,18.9v6.4h1v-6.4c0-2,1.5-3.6,3.5-3.8V14.1z"/>
	<rect x="6.3" y="14" width="1.2" height="1"/>
	<rect x="36.4" y="19" width="1" height="1.2"/>
	<path d="M36.4,28.3c0,2.1-1.7,3.8-3.8,3.9v1c2.7,0,4.8-2.2,4.8-4.9V22h-1V28.3z"/>
	<rect x="29.6" y="32.1" width="1.2" height="1"/>
	<path d="M34.9,28.3v-9.4c0-1.3-1.1-2.4-2.4-2.4l0,0H18c-0.2-0.1-0.4-0.3-0.6-0.5c-0.2-0.5-0.2-1.1,0-1.6c0.6-1.2,1.5-2.3,2.5-3.2
		c0.8-0.7,1.5-1.4,2.1-2.2c0.9-1.4,1.1-3.1,0.6-4.6c-0.4-0.1-0.8-0.1-1.1-0.2c0.6,1.4,0.5,3-0.3,4.2c-0.6,0.8-1.2,1.5-1.9,2.1
		c-1.2,0.9-2.2,2.1-2.8,3.5c-0.3,0.8-0.3,1.7,0.1,2.4l0,0H4.9c-1.3,0-2.4,1-2.4,2.3c0,0,0,0,0,0.1v9.4c0,1.3,1.1,2.4,2.4,2.4h27.7
		C33.8,30.6,34.9,29.6,34.9,28.3z M33.4,28.3c0,0.5-0.4,0.9-0.9,0.9H4.9c-0.5,0-0.9-0.4-0.9-0.8l0,0V19c0-0.5,0.4-0.9,0.9-0.9l0,0
		h27.7c0.5,0,0.9,0.4,0.9,0.9L33.4,28.3z"/>
</g>
</svg>
