<?xml version="1.0" encoding="utf-8"?>
<!-- Generator: Adobe Illustrator 23.0.2, SVG Export Plug-In . SVG Version: 6.00 Build 0)  -->
<svg version="1.1" id="Layer_1" xmlns="http://www.w3.org/2000/svg" xmlns:xlink="http://www.w3.org/1999/xlink" x="0px" y="0px"
	 viewBox="0 0 36.1 36.1" style="enable-background:new 0 0 36.1 36.1;" xml:space="preserve">
<style type="text/css">
	.st0{display:none;fill:#B0B0B0;}
</style>
<title>Web_icons</title>
<g id="EPS_BACK">
	<circle class="st0" cx="14.3" cy="46.5" r="0.9"/>
	<circle class="st0" cx="18.1" cy="46.5" r="0.9"/>
	<circle class="st0" cx="21.9" cy="46.5" r="0.9"/>
</g>
<g id="EPS_ICON">
	<path d="M28.8,5.1H7.4V31h21.4V5.1z M12.6,29.5H8.9v-7.7h3.7V29.5z M12.6,20.8H8.9v-3.2h3.7V20.8z M12.6,16.7H8.9v-3.2h3.7V16.7z
		 M12.6,12.5H8.9V9.3h3.7V12.5z M27.3,29.5H13.6v-7.7h13.7V29.5z M27.3,20.8H13.6v-3.2h13.7V20.8z M27.3,16.7H13.6v-3.2h13.7V16.7z
		 M27.3,12.5H13.6V9.3h13.7V12.5z"/>
	<rect x="4.9" y="24.7" width="1" height="1.2"/>
	<polygon points="12.4,2.6 4.9,2.6 4.9,22.9 5.9,22.9 5.9,3.6 12.4,3.6 	"/>
	<rect x="14.2" y="2.6" width="1.2" height="1"/>
	<polygon points="30.3,32.5 24.4,32.5 24.4,33.5 31.3,33.5 31.3,11.5 30.3,11.5 	"/>
	<rect x="21.4" y="32.5" width="1.2" height="1"/>
	<rect x="30.3" y="8.5" width="1" height="1.2"/>
</g>
</svg>
