<?xml version="1.0" encoding="utf-8"?>
<!-- Generator: Adobe Illustrator 23.0.2, SVG Export Plug-In . SVG Version: 6.00 Build 0)  -->
<svg version="1.1" id="Layer_1" xmlns="http://www.w3.org/2000/svg" xmlns:xlink="http://www.w3.org/1999/xlink" x="0px" y="0px"
	 viewBox="0 0 68.6 50.2" style="enable-background:new 0 0 68.6 50.2;" xml:space="preserve">
<style type="text/css">
	.st0{fill:#FFFFFF;}
	.st1{fill:#3286B5;}
	.st2{fill:#7C8C8E;}
	.st3{display:none;fill:#B0B0B0;}
	.st4{fill:#193340;}
</style>
<title>Web_icons</title>
<g id="EPS_BACK">
	<circle class="st0" cx="34.3" cy="25.1" r="23.7"/>
	<path class="st1" d="M9.5,9.3H5.3C2.4,9.3,0,11.7,0,14.6v20.9c0,2.9,2.4,5.3,5.3,5.3h4.2C3.4,31.2,3.4,18.9,9.5,9.3L9.5,9.3z"/>
	<path class="st1" d="M63.3,9.3h-4.2c6.1,9.6,6.1,21.9,0,31.6h4.2c2.9,0,5.3-2.4,5.3-5.3v-21C68.5,11.7,66.2,9.4,63.3,9.3z"/>
	<path class="st2" d="M34.3,50.2c-13.9,0-25.1-11.2-25.1-25.1C9.2,11.2,20.4,0,34.3,0c13.9,0,25.1,11.2,25.1,25.1c0,0,0,0,0,0
		C59.4,38.9,48.1,50.1,34.3,50.2z M34.3,3c-12.2,0-22.1,9.9-22.1,22.1s9.9,22.1,22.1,22.1c12.2,0,22.1-9.9,22.1-22.1c0,0,0,0,0,0
		C56.4,12.9,46.5,3,34.3,3z"/>
	<circle class="st3" cx="30.5" cy="53.4" r="0.9"/>
	<circle class="st3" cx="34.3" cy="53.4" r="0.9"/>
	<circle class="st3" cx="38.1" cy="53.4" r="0.9"/>
</g>
<g id="EPS_ICON">
	<path class="st4" d="M45,12H23.6v25.9H45V12z M28.8,36.4h-3.7v-7.7h3.7V36.4z M28.8,27.7h-3.7v-3.2h3.7V27.7z M28.8,23.6h-3.7v-3.2
		h3.7V23.6z M28.8,19.4h-3.7v-3.2h3.7V19.4z M43.5,36.4H29.8v-7.7h13.7V36.4z M43.5,27.7H29.8v-3.2h13.7V27.7z M43.5,23.6H29.8v-3.2
		h13.7V23.6z M43.5,19.4H29.8v-3.2h13.7V19.4z"/>
	<rect x="21.1" y="31.6" class="st4" width="1" height="1.2"/>
	<polygon class="st4" points="28.6,9.5 21.1,9.5 21.1,29.8 22.1,29.8 22.1,10.5 28.6,10.5 	"/>
	<rect x="30.4" y="9.5" class="st4" width="1.2" height="1"/>
	<polygon class="st4" points="46.5,39.4 40.6,39.4 40.6,40.4 47.5,40.4 47.5,18.4 46.5,18.4 	"/>
	<rect x="37.6" y="39.4" class="st4" width="1.2" height="1"/>
	<rect x="46.5" y="15.4" class="st4" width="1" height="1.2"/>
</g>
</svg>
