<svg xmlns="http://www.w3.org/2000/svg" viewBox="0 0 70.46 55.63"><defs><style>.cls-1{fill:#fff;}.cls-2{fill:#3286b5;}.cls-3{fill:#b0b0b0;}.cls-4{fill:#193340;}</style></defs><title>Web_icons</title><g id="EPS_BACK" data-name="EPS BACK"><circle class="cls-1" cx="35.23" cy="25.75" r="23.72"/><path class="cls-2" d="M10.44,10H6.25A5.33,5.33,0,0,0,.93,15.28V36.22a5.34,5.34,0,0,0,5.32,5.32h4.19a29.33,29.33,0,0,1,0-31.57Z"/><path class="cls-2" d="M64.21,10H60a29.38,29.38,0,0,1,0,31.57h4.19a5.33,5.33,0,0,0,5.31-5.32V15.28A5.33,5.33,0,0,0,64.21,10Z"/><path class="cls-3" d="M35.23,50.83A25.08,25.08,0,1,1,60.3,25.75,25.11,25.11,0,0,1,35.23,50.83Zm0-47.15A22.08,22.08,0,1,0,57.3,25.75,22.1,22.1,0,0,0,35.23,3.68Z"/><circle class="cls-3" cx="31.43" cy="54.08" r="0.87"/><circle class="cls-3" cx="35.23" cy="54.08" r="0.87"/><circle class="cls-3" cx="39.03" cy="54.08" r="0.87"/></g><g id="EPS_ICON" data-name="EPS ICON"><path class="cls-4" d="M45.88,12.68H24.49V38.61H45.88ZM29.7,37.11H26V29.4H29.7Zm0-8.71H26V25.23H29.7Zm0-4.17H26V21.06H29.7Zm0-4.17H26V16.89H29.7ZM44.38,37.11H30.7V29.4H44.38Zm0-8.71H30.7V25.23H44.38Zm0-4.17H30.7V21.06H44.38Zm0-4.17H30.7V16.89H44.38Z"/><rect class="cls-4" x="21.99" y="32.24" width="1" height="1.25"/><polygon class="cls-4" points="29.57 10.18 21.99 10.18 21.99 30.5 22.99 30.5 22.99 11.18 29.57 11.18 29.57 10.18"/><rect class="cls-4" x="31.31" y="10.18" width="1.25" height="1"/><polygon class="cls-4" points="47.38 40.11 41.5 40.11 41.5 41.11 48.38 41.11 48.38 19.1 47.38 19.1 47.38 40.11"/><rect class="cls-4" x="38.52" y="40.11" width="1.25" height="1"/><rect class="cls-4" x="47.38" y="16.12" width="1" height="1.25"/></g></svg>