<svg xmlns="http://www.w3.org/2000/svg" viewBox="0 0 70.46 55.63"><defs><style>.cls-1{fill:#fff;}.cls-2{fill:#3286b5;}.cls-3{fill:#b0b0b0;}.cls-4{fill:#193340;}</style></defs><title>Web_icons</title><g id="EPS_BACK" data-name="EPS BACK"><circle class="cls-1" cx="35.23" cy="25.75" r="23.72"/><path class="cls-2" d="M10.44,10H6.25A5.33,5.33,0,0,0,.93,15.28V36.22a5.34,5.34,0,0,0,5.32,5.32h4.19a29.33,29.33,0,0,1,0-31.57Z"/><path class="cls-2" d="M64.21,10H60a29.38,29.38,0,0,1,0,31.57h4.19a5.33,5.33,0,0,0,5.31-5.32V15.28A5.33,5.33,0,0,0,64.21,10Z"/><path class="cls-3" d="M35.23,50.83A25.08,25.08,0,1,1,60.3,25.75,25.11,25.11,0,0,1,35.23,50.83Zm0-47.15A22.08,22.08,0,1,0,57.3,25.75,22.1,22.1,0,0,0,35.23,3.68Z"/><circle class="cls-3" cx="31.43" cy="54.08" r="0.87"/><circle class="cls-3" cx="35.23" cy="54.08" r="0.87"/><circle class="cls-3" cx="39.03" cy="54.08" r="0.87"/></g><g id="EPS_ICON" data-name="EPS ICON"><path class="cls-4" d="M42.89,42.61H27.37a.5.5,0,0,0-.5.5.5.5,0,0,0,.5.5H42.89a.51.51,0,0,0,.5-.5A.5.5,0,0,0,42.89,42.61Z"/><path class="cls-4" d="M25.51,10.72h13.8a.5.5,0,0,0,.5-.5.5.5,0,0,0-.5-.5H25.51a.5.5,0,0,0-.5.5A.5.5,0,0,0,25.51,10.72Z"/><path class="cls-4" d="M42.05,10.72h1.33a.5.5,0,0,0,.5-.5.5.5,0,0,0-.5-.5H42.05a.51.51,0,0,0-.5.5A.5.5,0,0,0,42.05,10.72Z"/><path class="cls-4" d="M44.83,18.56a6.15,6.15,0,0,1,.88,1l.8-.61a8.46,8.46,0,0,0-1-1.08Z"/><path class="cls-4" d="M48,22.52a7.39,7.39,0,0,0-.45-1.81l-.92.41A5.94,5.94,0,0,1,47,22.64l1.55,12.82,1-.13Z"/><path class="cls-4" d="M27.73,17.23c-.1-.35-.18-.62-.28-.95a7.5,7.5,0,0,0-5.13,6.24l-1,8,1,.13,1-8A6.54,6.54,0,0,1,27.73,17.23Z"/><polygon class="cls-4" points="21 33.46 21.99 33.59 22.14 32.35 21.15 32.22 21 33.46"/><path class="cls-4" d="M35.52,25.87a.36.36,0,0,0-.35-.28h0a.38.38,0,0,0-.36.28l-1.2,6.5a.25.25,0,0,0,0,.08,1.55,1.55,0,1,0,3.09,0,.25.25,0,0,0,0-.08Z"/><path class="cls-4" d="M45.48,22.82a5,5,0,0,0-5-4.44H37V14.89h7.2c2.41,0,4.36-1.11,4.36-2.48v-.26H21.76v.26c0,1.37,1.95,2.48,4.36,2.48h7.19v3.49h-3.5a5.05,5.05,0,0,0-5,4.44L23.1,36.89a3.77,3.77,0,0,0,3.74,4.22H43.45a3.77,3.77,0,0,0,3.74-4.22Zm-3,7.35H43a7.84,7.84,0,0,1-2,4.94l-.43-.42a.37.37,0,0,0-.53.53l.43.42a7.85,7.85,0,0,1-4.95,2V37.1a.38.38,0,1,0-.75,0v.59a7.83,7.83,0,0,1-5-2l.42-.42a.37.37,0,0,0,0-.53.39.39,0,0,0-.53,0l-.42.42a7.88,7.88,0,0,1-2.05-4.94h.6a.38.38,0,1,0,0-.75h-.6a7.88,7.88,0,0,1,2.05-4.94l.42.42A.4.4,0,0,0,30,25a.38.38,0,0,0,.26-.11.37.37,0,0,0,0-.53L29.82,24a7.83,7.83,0,0,1,5-2.05v.59a.38.38,0,1,0,.75,0V21.9A7.85,7.85,0,0,1,40.47,24l-.43.42a.39.39,0,0,0,0,.53.4.4,0,0,0,.27.11.38.38,0,0,0,.26-.11l.43-.42a7.87,7.87,0,0,1,2,4.94h-.59a.38.38,0,1,0,0,.75Z"/></g></svg>