<?xml version="1.0" encoding="utf-8"?>
<!-- Generator: Adobe Illustrator 23.0.2, SVG Export Plug-In . SVG Version: 6.00 Build 0)  -->
<svg version="1.1" id="Layer_1" xmlns="http://www.w3.org/2000/svg" xmlns:xlink="http://www.w3.org/1999/xlink" x="0px" y="0px"
	 viewBox="0 0 68.6 50.2" style="enable-background:new 0 0 68.6 50.2;" xml:space="preserve">
<style type="text/css">
	.st0{fill:#FFFFFF;}
	.st1{fill:#3286B5;}
	.st2{fill:#7C8C8E;}
	.st3{display:none;fill:#B0B0B0;}
	.st4{fill:#193340;}
</style>
<title>Web_icons</title>
<g id="EPS_BACK">
	<circle class="st0" cx="34.3" cy="25.1" r="23.7"/>
	<path class="st1" d="M9.5,9.3H5.3C2.4,9.3,0,11.7,0,14.6v20.9c0,2.9,2.4,5.3,5.3,5.3h4.2C3.4,31.2,3.4,18.9,9.5,9.3L9.5,9.3z"/>
	<path class="st1" d="M63.3,9.3h-4.2c6.1,9.6,6.1,21.9,0,31.6h4.2c2.9,0,5.3-2.4,5.3-5.3v-21C68.5,11.7,66.2,9.4,63.3,9.3z"/>
	<path class="st2" d="M34.3,50.2c-13.9,0-25.1-11.2-25.1-25.1C9.2,11.2,20.4,0,34.3,0c13.9,0,25.1,11.2,25.1,25.1c0,0,0,0,0,0
		C59.4,38.9,48.1,50.1,34.3,50.2z M34.3,3c-12.2,0-22.1,9.9-22.1,22.1s9.9,22.1,22.1,22.1c12.2,0,22.1-9.9,22.1-22.1c0,0,0,0,0,0
		C56.4,12.9,46.5,3,34.3,3z"/>
	<circle class="st3" cx="30.5" cy="53.4" r="0.9"/>
	<circle class="st3" cx="34.3" cy="53.4" r="0.9"/>
	<circle class="st3" cx="38.1" cy="53.4" r="0.9"/>
</g>
<g id="EPS_ICON">
	<path class="st4" d="M42,41.9H26.4c-0.3,0-0.5,0.2-0.5,0.5s0.2,0.5,0.5,0.5H42c0.3,0,0.5-0.2,0.5-0.5C42.5,42.2,42.2,41.9,42,41.9z
		"/>
	<path class="st4" d="M24.6,10h13.8c0.3,0,0.5-0.2,0.5-0.5S38.7,9,38.4,9H24.6c-0.3,0-0.5,0.2-0.5,0.5S24.3,10,24.6,10z"/>
	<path class="st4" d="M41.1,10h1.3c0.3,0,0.5-0.2,0.5-0.5S42.7,9,42.5,9h-1.3c-0.3,0-0.5,0.2-0.5,0.5C40.6,9.8,40.8,10,41.1,10z"/>
	<path class="st4" d="M43.9,17.9c0.3,0.3,0.6,0.6,0.9,1l0.8-0.6c-0.3-0.4-0.6-0.7-1-1.1L43.9,17.9z"/>
	<path class="st4" d="M47.1,21.8c-0.1-0.6-0.2-1.2-0.5-1.8l-0.9,0.4c0.2,0.5,0.3,1,0.4,1.5l1.5,12.8l1-0.1L47.1,21.8z"/>
	<path class="st4" d="M26.8,16.6c-0.1-0.4-0.2-0.6-0.3-1c-2.8,0.9-4.8,3.3-5.1,6.2l-1,8l1,0.1l1-8C22.7,19.5,24.4,17.4,26.8,16.6z"
		/>
	<polygon class="st4" points="20.1,32.8 21.1,32.9 21.2,31.7 20.2,31.5 	"/>
	<path class="st4" d="M34.6,25.2c0-0.2-0.2-0.3-0.3-0.3l0,0c-0.2,0-0.3,0.1-0.4,0.3l-1.2,6.5c0,0,0,0.1,0,0.1
		c-0.1,0.9,0.6,1.6,1.4,1.7c0.9,0.1,1.6-0.6,1.7-1.4c0-0.1,0-0.2,0-0.2c0,0,0-0.1,0-0.1L34.6,25.2z"/>
	<path class="st4" d="M44.5,22.1c-0.3-2.5-2.4-4.5-5-4.4h-3.5v-3.5h7.2c2.4,0,4.4-1.1,4.4-2.5v-0.3H20.8v0.3c0,1.4,2,2.5,4.4,2.5
		h7.2v3.5h-3.5c-2.5,0-4.7,1.9-5,4.4l-1.7,14.1c-0.2,2.1,1.2,3.9,3.3,4.2c0.1,0,0.3,0,0.4,0h16.6c2.1,0,3.8-1.7,3.8-3.8
		c0-0.1,0-0.3,0-0.4L44.5,22.1z M41.5,29.5h0.5c-0.1,1.8-0.8,3.6-2,4.9L39.6,34c-0.1-0.1-0.4-0.1-0.5,0s-0.1,0.4,0,0.5l0.4,0.4
		c-1.4,1.2-3.1,1.9-5,2v-0.5c0-0.2-0.1-0.4-0.3-0.4c-0.2,0-0.4,0.1-0.4,0.3c0,0,0,0.1,0,0.1V37c-1.9-0.1-3.6-0.8-5-2l0.4-0.4
		c0.1-0.1,0.1-0.4,0-0.5c0,0,0,0,0,0c-0.1-0.1-0.4-0.1-0.5,0l-0.4,0.4c-1.2-1.4-2-3.1-2-4.9h0.6c0.2,0,0.4-0.1,0.4-0.3
		c0-0.2-0.1-0.4-0.3-0.4c0,0-0.1,0-0.1,0h-0.6c0.1-1.8,0.8-3.6,2-4.9l0.4,0.4c0.1,0.1,0.2,0.1,0.3,0.1c0.1,0,0.2,0,0.3-0.1
		c0.1-0.1,0.1-0.4,0-0.5c0,0,0,0,0,0l-0.4-0.4c1.4-1.3,3.1-2,5-2v0.6c0,0.2,0.1,0.4,0.3,0.4c0.2,0,0.4-0.1,0.4-0.3c0,0,0-0.1,0-0.1
		v-0.6c1.8,0.1,3.6,0.8,4.9,2.1l-0.4,0.4c-0.1,0.1-0.1,0.4,0,0.5c0.1,0.1,0.2,0.1,0.3,0.1c0.1,0,0.2,0,0.3-0.1l0.4-0.4
		c1.2,1.4,1.9,3.1,2,4.9h-0.6c-0.2,0-0.4,0.1-0.4,0.3c0,0.2,0.1,0.4,0.3,0.4C41.4,29.6,41.4,29.6,41.5,29.5L41.5,29.5z"/>
</g>
</svg>
