<?xml version="1.0" encoding="utf-8"?>
<!-- Generator: Adobe Illustrator 23.0.2, SVG Export Plug-In . SVG Version: 6.00 Build 0)  -->
<svg version="1.1" id="Layer_1" xmlns="http://www.w3.org/2000/svg" xmlns:xlink="http://www.w3.org/1999/xlink" x="0px" y="0px"
	 viewBox="0 0 36.1 36.1" style="enable-background:new 0 0 36.1 36.1;" xml:space="preserve">
<style type="text/css">
	.st0{display:none;fill:#B0B0B0;}
</style>
<title>Web_icons</title>
<g id="EPS_BACK">
	<circle class="st0" cx="14.2" cy="45.5" r="0.9"/>
	<circle class="st0" cx="18" cy="45.5" r="0.9"/>
	<circle class="st0" cx="21.8" cy="45.5" r="0.9"/>
</g>
<g id="EPS_ICON">
	<path d="M25.7,34H10.1c-0.3,0-0.5,0.2-0.5,0.5S9.8,35,10.1,35h15.6c0.3,0,0.5-0.2,0.5-0.5C26.2,34.3,25.9,34,25.7,34z"/>
	<path d="M8.3,2.1h13.8c0.3,0,0.5-0.2,0.5-0.5s-0.2-0.5-0.5-0.5H8.3C8,1.1,7.8,1.3,7.8,1.6S8,2.1,8.3,2.1z"/>
	<path d="M24.8,2.1h1.3c0.3,0,0.5-0.2,0.5-0.5s-0.2-0.5-0.4-0.5h-1.3c-0.3,0-0.5,0.2-0.5,0.5C24.3,1.9,24.5,2.1,24.8,2.1z"/>
	<path d="M27.6,10c0.3,0.3,0.6,0.6,0.9,1l0.8-0.6c-0.3-0.4-0.6-0.7-1-1.1L27.6,10z"/>
	<path d="M30.8,13.9c-0.1-0.6-0.2-1.2-0.5-1.8l-0.9,0.4c0.2,0.5,0.3,1,0.4,1.5l1.5,12.8l1-0.1L30.8,13.9z"/>
	<path d="M10.5,8.7c-0.1-0.4-0.2-0.6-0.3-1C7.4,8.6,5.4,11,5.1,13.9l-1,8l1,0.1l1-8C6.4,11.6,8.1,9.5,10.5,8.7z"/>
	<polygon points="3.8,24.9 4.8,25 4.9,23.8 3.9,23.6 	"/>
	<path d="M18.3,17.3c0-0.2-0.2-0.3-0.3-0.3l0,0c-0.2,0-0.3,0.1-0.4,0.3l-1.2,6.5v0.1c-0.1,0.9,0.6,1.6,1.4,1.7
		c0.9,0.1,1.6-0.6,1.7-1.4c0-0.1,0-0.2,0-0.2v-0.1L18.3,17.3z"/>
	<path d="M28.2,14.2c-0.3-2.5-2.4-4.5-5-4.4h-3.5V6.3h7.2c2.4,0,4.4-1.1,4.4-2.5V3.5H4.5v0.3c0,1.4,2,2.5,4.4,2.5h7.2v3.5h-3.5
		c-2.5,0-4.7,1.9-5,4.4L5.9,28.3c-0.2,2.1,1.2,3.9,3.3,4.2c0.1,0,0.3,0,0.4,0h16.6c2.1,0,3.8-1.7,3.8-3.8c0-0.1,0-0.3,0-0.4
		L28.2,14.2z M25.2,21.6h0.5c-0.1,1.8-0.8,3.6-2,4.9l-0.4-0.4c-0.1-0.1-0.4-0.1-0.5,0s-0.1,0.4,0,0.5l0.4,0.4c-1.4,1.2-3.1,1.9-5,2
		v-0.5c0-0.2-0.1-0.4-0.3-0.4s-0.4,0.1-0.4,0.3v0.1v0.6c-1.9-0.1-3.6-0.8-5-2l0.4-0.4c0.1-0.1,0.1-0.4,0-0.5l0,0
		c-0.1-0.1-0.4-0.1-0.5,0L12,26.6c-1.2-1.4-2-3.1-2-4.9h0.6c0.2,0,0.4-0.1,0.4-0.3c0-0.2-0.1-0.4-0.3-0.4h-0.1H10
		c0.1-1.8,0.8-3.6,2-4.9l0.4,0.4c0.1,0.1,0.2,0.1,0.3,0.1c0.1,0,0.2,0,0.3-0.1c0.1-0.1,0.1-0.4,0-0.5l0,0l-0.4-0.4
		c1.4-1.3,3.1-2,5-2v0.6c0,0.2,0.1,0.4,0.3,0.4s0.4-0.1,0.4-0.3v-0.1v-0.6c1.8,0.1,3.6,0.8,4.9,2.1l-0.4,0.4c-0.1,0.1-0.1,0.4,0,0.5
		s0.2,0.1,0.3,0.1s0.2,0,0.3-0.1l0.4-0.4c1.2,1.4,1.9,3.1,2,4.9h-0.6c-0.2,0-0.4,0.1-0.4,0.3c0,0.2,0.1,0.4,0.3,0.4
		C25.1,21.7,25.1,21.7,25.2,21.6L25.2,21.6z"/>
</g>
</svg>
