<?xml version="1.0" encoding="utf-8"?>
<!-- Generator: Adobe Illustrator 23.0.2, SVG Export Plug-In . SVG Version: 6.00 Build 0)  -->
<svg version="1.1" id="Layer_1" xmlns="http://www.w3.org/2000/svg" xmlns:xlink="http://www.w3.org/1999/xlink" x="0px" y="0px"
	 viewBox="0 0 36.1 36.1" style="enable-background:new 0 0 36.1 36.1;" xml:space="preserve">
<style type="text/css">
	.st0{display:none;fill:#B0B0B0;}
</style>
<title>Web_icons</title>
<g id="EPS_BACK">
	<circle class="st0" cx="14.3" cy="46.7" r="0.9"/>
	<circle class="st0" cx="18.1" cy="46.7" r="0.9"/>
	<circle class="st0" cx="21.9" cy="46.7" r="0.9"/>
</g>
<g id="EPS_ICON">
	<path d="M14.4,31.9c0.9-1.3,1.6-2.7,2-4.2c-1-0.1-2-0.5-2.9-1c-0.1,0.5-0.2,1-0.5,1.5l0,0c-0.3,0.6-0.6,1.2-1,1.8l0,0
		c-0.4,0.5-0.8,1-1.2,1.5l0,0l-0.6,0.7l0.1,0.1c-0.2,0.2-0.4,0.4-0.6,0.6l0,0L9.6,33l-0.4,0.4l-0.1,0.1c-0.2,0.2-0.3,0.3-0.5,0.4
		l2.1,2.1l0.2-0.2l0.1-0.1l0.3-0.3l0.1-0.1c0.1-0.1,0.3-0.3,0.4-0.4l0,0l0.6-0.6l0.1-0.1l0.6-0.7c0,0,0-0.1,0.1-0.1
		C13.6,33,14.1,32.5,14.4,31.9L14.4,31.9z"/>
	<path d="M34,8.4c-1.2,1.3-4.7,4.8-7.3,5.1l0,0c-0.2,0-0.4,0-0.6,0c-0.2,0-0.3-0.1-0.5-0.1l-0.2-0.1c-0.1-0.1-0.3-0.1-0.4-0.2h-0.1
		c-0.4-0.2-0.8-0.5-1.1-0.8l0,0c-0.3-0.2-0.5-0.4-0.8-0.7c-0.2-0.2-0.4-0.4-0.7-0.6l-0.1-0.1c-0.2-0.2-0.5-0.3-0.7-0.4h-0.1
		c-0.6-0.2-1.1-0.4-1.7-0.5h-0.1c-0.2,0-0.5,0-0.7-0.1l0,0c-0.2,0-0.5,0-0.7,0l0,0c-2.1,0.1-4.1,0.9-5.7,2.3l-0.1,0.1l0,0
		c-0.2,0.2-0.3,0.4-0.5,0.5l-0.1,0.4c-0.1,0.1-0.2,0.3-0.3,0.4l-0.1,0.2c-0.1,0.2-0.2,0.3-0.3,0.5L11,14.5c-0.1,0.2-0.2,0.4-0.3,0.6
		l-0.1,0.1c-0.1,0.2-0.2,0.4-0.2,0.6v0.1c-0.1,0.2-0.1,0.5-0.2,0.7v0.1c0,0.2-0.1,0.5-0.1,0.8l0,0c0,0.3-0.1,0.5-0.1,0.8l0,0
		c0.1,0,0.3,0,0.4,0c0.9,0.1,1.8,0.4,2.6,0.8c0-0.6,0-1.2,0.2-1.8l0,0c0-0.2,0.1-0.4,0.2-0.5l0,0c0.1-0.2,0.1-0.4,0.2-0.6l0,0
		c0.1-0.2,0.2-0.3,0.2-0.5s0-0.1,0.1-0.1s0.1-0.2,0.2-0.3l0.1-0.1c0.1-0.1,0.2-0.3,0.3-0.4l0,0c0,0,0-0.1,0.1-0.1
		c1.2-1,2.8-1.5,4.3-1.5l0,0c0.4,0,0.8,0.1,1.1,0.2l0,0l0.4,0.2l0.1,0.1c0.1,0.1,0.3,0.2,0.4,0.3l0.1,0.1l0,0l0.1,0.1l0,0l0.2,0.2
		l0,0l0.3,0.2l0,0h0.1l0.1,0.1l0.3,0.2l0.2,0.1l0.3,0.2l0.2,0.1l0.3,0.2l0.2,0.1l0.3,0.2l0.3,0.1l0.4,0.1l0.3,0.1l0.4,0.1
		c0.1,0,0.2,0,0.2,0.1c0.2,0.1,0.4,0.1,0.7,0.1h0.4c0.2,0,0.4,0,0.6,0H27c4-0.5,8.1-4.8,9.1-6L34,8.4z"/>
	<path d="M12.4,23.9l0.4,0.4l0,0c0.1,0.1,0.2,0.2,0.3,0.3l0,0c0.2,0.2,0.4,0.4,0.7,0.6l0.2,0.1c0.2,0.1,0.4,0.3,0.6,0.4l0.1,0.1
		c0.6,0.3,1.2,0.4,1.8,0.5c0.5,0.1,1,0.1,1.5,0.1l0.8-0.1l0,0c0.2,0,0.5-0.1,0.7-0.1h0.1c0.2,0,0.5-0.1,0.7-0.2h0.2
		c0.2-0.1,0.4-0.1,0.6-0.2l0.2-0.1l0.5-0.2l0.2-0.1l0.5-0.3c0.1,0,0.1-0.1,0.2-0.1c0.2-0.1,0.3-0.2,0.4-0.3l0.2-0.1
		c0.2-0.1,0.4-0.3,0.5-0.5l0,0l0.1-0.1c1.4-1.6,2.3-3.7,2.3-5.8c-0.2,0-0.3,0-0.5,0c-0.9-0.1-1.7-0.3-2.5-0.7c0,0.6,0,1.2-0.1,1.8
		c-0.2,0.9-0.6,1.8-1.2,2.5c0,0,0,0.1-0.1,0.1l0,0c-0.1,0.1-0.2,0.2-0.4,0.3l-0.1,0.1c-0.1,0.1-0.2,0.1-0.3,0.2l-0.1,0.1
		c-0.3,0.2-0.7,0.3-1,0.5h-0.1c-0.2,0.1-0.4,0.1-0.5,0.1l0,0c-0.7,0.1-1.3,0.1-1.9,0.1c-0.4,0-0.8-0.1-1.1-0.2h-0.1
		c-0.1-0.1-0.3-0.1-0.4-0.2l-0.1-0.1c-0.1-0.1-0.3-0.2-0.4-0.3l0,0l-0.1-0.1l0,0l-0.1-0.1l0,0l-0.2-0.2l0,0l-0.3-0.2l0,0l-0.3-0.3
		l-0.1-0.1l-0.3-0.2l-0.1-0.1l-0.4-0.3h-0.1l-0.4-0.2l-0.1-0.1l-0.4-0.2h-0.1l-0.5-0.2h-0.1l-0.4-0.1h-0.2c-0.2,0-0.4-0.1-0.6-0.1
		H9.9c-0.4,0-0.9,0-1.3,0.1c-0.7,0.2-1.4,0.4-2.1,0.7l-0.1,0.1c-0.3,0.1-0.6,0.3-0.9,0.5l-0.2-0.1c-0.3,0.2-0.6,0.4-0.9,0.6l0,0
		c-0.6,0.4-1.2,0.9-1.8,1.4c-0.1,0-0.1,0.1-0.2,0.2L1.9,24l-0.2,0.2l-0.4,0.4l-0.2,0.2L1,24.9l-0.3,0.3l-0.2,0.1l-0.2,0.3L0,25.9
		L2.1,28c0.1-0.2,0.3-0.3,0.5-0.5l0.1-0.1l0.5-0.5c0,0,0,0,0.1-0.1l0,0l0.6-0.6L4,26.1c1.7-1.5,3.8-3,5.5-3.2c0.2,0,0.4,0,0.6,0
		s0.3,0.1,0.5,0.1l0.1,0.1c0.1,0.1,0.3,0.1,0.5,0.2h0.1c0.2,0.1,0.4,0.2,0.6,0.4l0,0c0.2,0.1,0.4,0.3,0.6,0.4"/>
	<path d="M20.3,6.8C20.2,7,20.1,7.2,20,7.5v0.1c-0.1,0.3-0.2,0.5-0.2,0.8v0.1c1,0.1,2,0.4,2.9,0.9V9.3V9.2c0-0.3,0.1-0.5,0.2-0.7
		L23,8.4c0.1-0.2,0.2-0.5,0.3-0.7V7.6c0.1-0.3,0.3-0.5,0.5-0.8c0-0.1,0.1-0.1,0.1-0.2c0.2-0.3,0.3-0.5,0.5-0.8l0.1-0.1
		c0.2-0.2,0.4-0.5,0.6-0.7l0.1-0.1c0.2-0.2,0.4-0.5,0.6-0.7l0.1-0.1c0.2-0.2,0.4-0.5,0.6-0.7l0,0l0.1-0.1l0.5-0.4l0.2-0.1l0.5-0.4
		l-2.1-2.2l0,0l-0.2,0.2l-0.2-0.1L25,0.6l-0.2,0.2l-0.3,0.3c-0.1,0.1-0.3,0.3-0.4,0.5l0,0l-0.5,0.5l-0.2,0.2L23,2.7
		c0,0.1-0.1,0.1-0.1,0.2c-0.2,0.2-0.3,0.4-0.5,0.6c0,0,0,0.1-0.1,0.1l-0.4,0.6l-0.2,0.1l-0.4,0.6l-0.1,0.2c-0.2,0.2-0.3,0.5-0.4,0.7
		c0,0.1-0.1,0.1-0.1,0.2s-0.2,0.4-0.3,0.6S20.3,6.8,20.3,6.8z"/>
	<path d="M24.2,9.2L27,12c0.7-0.2,1.3-0.5,1.9-1l-3.7-3.7C24.8,7.9,24.5,8.5,24.2,9.2z"/>
	<path d="M26.5,5.5l4.1,4.1c0.4-0.4,0.8-0.8,1.3-1.2l0.2-0.2L27.9,4l-0.3,0.3C27.2,4.7,26.9,5.1,26.5,5.5z"/>
	<path d="M21.8,17.4l-2.9-2.9c-0.8,0-1.6,0.1-2.4,0.5l4.8,4.8C21.7,19,21.8,18.2,21.8,17.4z"/>
	<path d="M9.7,30.7l-4.2-4.2c-0.4,0.3-0.8,0.7-1.2,1.1c-0.1,0.1-0.2,0.2-0.2,0.2l4.3,4.3l0.2-0.2C8.9,31.6,9.3,31.2,9.7,30.7z"/>
	<path d="M11.9,27.1l-2.8-2.8c-0.7,0.2-1.3,0.6-1.9,0.9L11,29C11.4,28.4,11.7,27.8,11.9,27.1z"/>
	<path d="M14.5,18.8l3,3c0.8,0,1.7-0.1,2.4-0.5L15,16.4C14.6,17.2,14.4,18,14.5,18.8z"/>
	<path d="M11.3,11.4L11.3,11.4L11.3,11.4c2-1.8,4.4-2.8,7-2.8c0.4-1.9,1.2-3.7,2.4-5.2c-0.3-0.2-0.5-0.4-0.8-0.6
		c-1.1,1.5-1.9,3.1-2.4,4.9c-2.5,0.2-4.9,1.3-6.8,3l-0.1,0.1c-0.2,0.2-0.3,0.3-0.4,0.5l0.7,0.7C11,11.7,11.2,11.5,11.3,11.4z"/>
	<path d="M22.6,0.9l-0.8-0.6l-0.9,1l0.8,0.6C22,1.6,22.3,1.2,22.6,0.9z"/>
	<path d="M9.9,13.4L9,12.9c-0.2,0.4-0.4,0.9-0.6,1.4l0.9,0.3C9.5,14.2,9.7,13.8,9.9,13.4z"/>
	<path d="M25,24.9L25,24.9c-2,1.9-4.5,2.9-7.2,2.9c-0.4,1.8-1.2,3.6-2.3,5.1l0.8,0.6c1.1-1.4,1.8-3,2.3-4.7c2.6-0.2,5.1-1.3,7-3.1
		l0.1-0.1c0.1-0.1,0.3-0.3,0.4-0.5l-0.7-0.7C25.3,24.6,25.2,24.8,25,24.9z"/>
	<path d="M26.5,22.9l0.9,0.5c0.2-0.4,0.4-0.9,0.6-1.4l-1-0.3C26.9,22.1,26.7,22.5,26.5,22.9z"/>
	<path d="M13.7,35.3l0.7,0.7c0.3-0.3,0.6-0.6,0.9-1l-0.8-0.7C14.2,34.6,14,35,13.7,35.3z"/>
</g>
</svg>
