<?xml version="1.0" encoding="utf-8"?>
<!-- Generator: Adobe Illustrator 23.0.2, SVG Export Plug-In . SVG Version: 6.00 Build 0)  -->
<svg version="1.1" id="Layer_1" xmlns="http://www.w3.org/2000/svg" xmlns:xlink="http://www.w3.org/1999/xlink" x="0px" y="0px"
	 viewBox="0 0 68.6 50.2" style="enable-background:new 0 0 68.6 50.2;" xml:space="preserve">
<style type="text/css">
	.st0{fill:#FFFFFF;}
	.st1{fill:#3286B5;}
	.st2{fill:#7C8C8E;}
	.st3{display:none;fill:#B0B0B0;}
	.st4{fill:#193340;}
</style>
<title>Web_icons</title>
<g id="EPS_BACK">
	<circle class="st0" cx="34.3" cy="25.1" r="23.7"/>
	<path class="st1" d="M9.5,9.3H5.3C2.4,9.3,0,11.7,0,14.6v20.9c0,2.9,2.4,5.3,5.3,5.3h4.2C3.4,31.2,3.4,18.9,9.5,9.3L9.5,9.3z"/>
	<path class="st1" d="M63.3,9.3h-4.2c6.1,9.6,6.1,21.9,0,31.6h4.2c2.9,0,5.3-2.4,5.3-5.3v-21C68.5,11.7,66.2,9.4,63.3,9.3z"/>
	<path class="st2" d="M34.3,50.2c-13.9,0-25.1-11.2-25.1-25.1C9.2,11.2,20.4,0,34.3,0c13.9,0,25.1,11.2,25.1,25.1c0,0,0,0,0,0
		C59.4,38.9,48.1,50.1,34.3,50.2z M34.3,3c-12.2,0-22.1,9.9-22.1,22.1s9.9,22.1,22.1,22.1c12.2,0,22.1-9.9,22.1-22.1c0,0,0,0,0,0
		C56.4,12.9,46.5,3,34.3,3z"/>
	<circle class="st3" cx="30.5" cy="53.4" r="0.9"/>
	<circle class="st3" cx="34.3" cy="53.4" r="0.9"/>
	<circle class="st3" cx="38.1" cy="53.4" r="0.9"/>
</g>
<g id="EPS_ICON">
	<path class="st4" d="M30.6,38.6c0.9-1.3,1.6-2.7,2-4.2c-1-0.1-2-0.5-2.9-1c-0.1,0.5-0.2,1-0.5,1.5l0,0c-0.3,0.6-0.6,1.2-1,1.8l0,0
		c-0.4,0.5-0.8,1-1.2,1.5l0,0l-0.6,0.7L26.5,39c-0.2,0.2-0.4,0.4-0.6,0.6l0,0l-0.1,0.1l-0.4,0.4l-0.1,0.1c-0.2,0.2-0.3,0.3-0.5,0.4
		l2.1,2.1l0.2-0.2l0.1-0.1l0.3-0.3l0.1-0.1c0.1-0.1,0.3-0.3,0.4-0.4l0,0l0.6-0.6c0,0,0.1-0.1,0.1-0.1l0.6-0.7c0,0,0-0.1,0.1-0.1
		C29.8,39.7,30.3,39.2,30.6,38.6L30.6,38.6z"/>
	<path class="st4" d="M50.2,15.1c-1.2,1.3-4.7,4.8-7.3,5.1l0,0c-0.2,0-0.4,0-0.6,0c-0.2,0-0.3-0.1-0.5-0.1l-0.2-0.1
		c-0.1-0.1-0.3-0.1-0.4-0.2c0,0-0.1,0-0.1,0c-0.4-0.2-0.8-0.5-1.1-0.8l0,0c-0.3-0.2-0.5-0.4-0.8-0.7c-0.2-0.2-0.4-0.4-0.7-0.6
		l-0.1-0.1c-0.2-0.2-0.5-0.3-0.7-0.4h-0.1c-0.6-0.2-1.1-0.4-1.7-0.5h-0.1c-0.2,0-0.5,0-0.7-0.1l0,0c-0.2,0-0.5,0-0.7,0l0,0
		c-2.1,0.1-4.1,0.9-5.7,2.3l-0.1,0.1l0,0c-0.2,0.2-0.3,0.4-0.5,0.5L28,19.9c-0.1,0.1-0.2,0.3-0.3,0.4l-0.1,0.2
		c-0.1,0.2-0.2,0.3-0.3,0.5l-0.1,0.2c-0.1,0.2-0.2,0.4-0.3,0.6l-0.1,0.1c-0.1,0.2-0.2,0.4-0.2,0.6v0.1c-0.1,0.2-0.1,0.5-0.2,0.7v0.1
		c0,0.2-0.1,0.5-0.1,0.8l0,0c0,0.3-0.1,0.5-0.1,0.8l0,0c0.1,0,0.3,0,0.4,0c0.9,0.1,1.8,0.4,2.6,0.8c0-0.6,0-1.2,0.2-1.8v0
		c0-0.2,0.1-0.4,0.2-0.5l0,0c0.1-0.2,0.1-0.4,0.2-0.6l0,0c0.1-0.2,0.2-0.3,0.2-0.5s0-0.1,0.1-0.1s0.1-0.2,0.2-0.3l0.1-0.1
		c0.1-0.1,0.2-0.3,0.3-0.4l0,0c0,0,0-0.1,0.1-0.1c1.2-1,2.8-1.5,4.3-1.5l0,0c0.4,0,0.8,0.1,1.1,0.2l0,0l0.4,0.2l0.1,0.1
		c0.1,0.1,0.3,0.2,0.4,0.3l0.1,0.1l0,0l0.1,0.1l0,0l0.2,0.2h0l0.3,0.2l0,0l0.1,0l0.1,0.1l0.3,0.2l0.2,0.1l0.3,0.2L39,22l0.3,0.2
		l0.2,0.1l0.3,0.2l0.3,0.1l0.4,0.1l0.3,0.1l0.4,0.1c0.1,0,0.2,0,0.2,0.1c0.2,0.1,0.4,0.1,0.7,0.1h0.4c0.2,0,0.4,0,0.6,0h0.1
		c4-0.5,8.1-4.8,9.1-6L50.2,15.1z"/>
	<path class="st4" d="M28.6,30.6L29,31l0,0c0.1,0.1,0.2,0.2,0.3,0.3l0,0c0.2,0.2,0.4,0.4,0.7,0.6l0.2,0.1c0.2,0.1,0.4,0.3,0.6,0.4
		l0.1,0.1c0.6,0.3,1.2,0.4,1.8,0.5c0.5,0.1,1,0.1,1.5,0.1L35,33h0c0.2,0,0.5-0.1,0.7-0.1h0.1c0.2,0,0.5-0.1,0.7-0.2h0.2
		c0.2-0.1,0.4-0.1,0.6-0.2l0.2-0.1l0.5-0.2l0.2-0.1l0.5-0.3c0.1,0,0.1-0.1,0.2-0.1c0.2-0.1,0.3-0.2,0.4-0.3l0.2-0.1
		c0.2-0.1,0.4-0.3,0.5-0.5l0,0c0,0,0.1-0.1,0.1-0.1c1.4-1.6,2.3-3.7,2.3-5.8c-0.2,0-0.3,0-0.5,0c-0.9-0.1-1.7-0.3-2.5-0.7
		c0,0.6,0,1.2-0.1,1.8c-0.2,0.9-0.6,1.8-1.2,2.5c0,0,0,0.1-0.1,0.1l0,0c-0.1,0.1-0.2,0.2-0.4,0.3l-0.1,0.1c-0.1,0.1-0.2,0.1-0.3,0.2
		l-0.1,0.1c-0.3,0.2-0.7,0.3-1,0.5H36c-0.2,0.1-0.4,0.1-0.5,0.1h0C34.8,30,34.2,30,33.6,30c-0.4,0-0.8-0.1-1.1-0.2h-0.1
		c-0.1-0.1-0.3-0.1-0.4-0.2l-0.1-0.1c-0.1-0.1-0.3-0.2-0.4-0.3l0,0l-0.1-0.1l0,0L31.3,29l0,0l-0.2-0.2h0l-0.3-0.2l0,0l-0.3-0.3
		l-0.1-0.1L30.1,28L30,27.9l-0.4-0.3h-0.1l-0.4-0.2l-0.1-0.1l-0.4-0.2l-0.1,0l-0.5-0.2h-0.1l-0.4-0.1h-0.2c-0.2,0-0.4-0.1-0.6-0.1
		h-0.6c-0.4,0-0.9,0-1.3,0.1c-0.7,0.2-1.4,0.4-2.1,0.7l-0.1,0.1c-0.3,0.1-0.6,0.3-0.9,0.5L21.5,28c-0.3,0.2-0.6,0.4-0.9,0.6l0,0
		C20,29,19.4,29.5,18.8,30c-0.1,0-0.1,0.1-0.2,0.2l-0.5,0.5l-0.2,0.2l-0.4,0.4l-0.2,0.2c0,0-0.1,0.1-0.1,0.1l-0.3,0.3L16.7,32
		l-0.2,0.3l-0.3,0.3l2.1,2.1c0.1-0.2,0.3-0.3,0.5-0.5l0.1-0.1l0.5-0.5c0,0,0,0,0.1-0.1l0,0l0.6-0.6l0.1-0.1c1.7-1.5,3.8-3,5.5-3.2
		c0.2,0,0.4,0,0.6,0c0.2,0,0.3,0.1,0.5,0.1l0.1,0.1c0.1,0.1,0.3,0.1,0.5,0.2l0.1,0c0.2,0.1,0.4,0.2,0.6,0.4l0,0
		c0.2,0.1,0.4,0.3,0.6,0.4"/>
	<path class="st4" d="M36.5,13.5c-0.1,0.2-0.2,0.4-0.3,0.7c0,0,0,0.1,0,0.1c-0.1,0.3-0.2,0.5-0.2,0.8v0.1c1,0.1,2,0.4,2.9,0.9
		c0,0,0-0.1,0-0.1c0,0,0-0.1,0-0.1c0-0.3,0.1-0.5,0.2-0.7l0.1-0.1c0.1-0.2,0.2-0.5,0.3-0.7v-0.1c0.1-0.3,0.3-0.5,0.5-0.8
		c0-0.1,0.1-0.1,0.1-0.2c0.2-0.3,0.3-0.5,0.5-0.8c0,0,0.1-0.1,0.1-0.1c0.2-0.2,0.4-0.5,0.6-0.7c0,0,0.1-0.1,0.1-0.1
		c0.2-0.2,0.4-0.5,0.6-0.7l0.1-0.1c0.2-0.2,0.4-0.5,0.6-0.7l0,0l0.1-0.1l0.5-0.4l0.2-0.1l0.5-0.4l-2.1-2.2l0,0l-0.2,0.2L41.5,7
		l-0.3,0.3L41,7.5l-0.3,0.3c-0.1,0.1-0.3,0.3-0.4,0.5l0,0l-0.5,0.5l-0.2,0.2l-0.4,0.4c0,0.1-0.1,0.1-0.1,0.2
		c-0.2,0.2-0.3,0.4-0.5,0.6c0,0,0,0.1-0.1,0.1l-0.4,0.6L37.9,11l-0.4,0.6l-0.1,0.2c-0.2,0.2-0.3,0.5-0.4,0.7c0,0.1-0.1,0.1-0.1,0.2
		s-0.2,0.4-0.3,0.6S36.5,13.5,36.5,13.5z"/>
	<path class="st4" d="M40.4,15.9l2.8,2.8c0.7-0.2,1.3-0.5,1.9-1L41.4,14C41,14.6,40.7,15.2,40.4,15.9z"/>
	<path class="st4" d="M42.7,12.2l4.1,4.1c0.4-0.4,0.8-0.8,1.3-1.2l0.2-0.2l-4.2-4.2L43.8,11C43.4,11.4,43.1,11.8,42.7,12.2z"/>
	<path class="st4" d="M38,24.1l-2.9-2.9c-0.8,0-1.6,0.1-2.4,0.5l4.8,4.8C37.9,25.7,38,24.9,38,24.1z"/>
	<path class="st4" d="M25.9,37.4l-4.2-4.2c-0.4,0.3-0.8,0.7-1.2,1.1c-0.1,0.1-0.2,0.2-0.2,0.2l4.3,4.3l0.2-0.2
		C25.1,38.3,25.5,37.9,25.9,37.4z"/>
	<path class="st4" d="M28.1,33.8L25.3,31c-0.7,0.2-1.3,0.6-1.9,0.9l3.8,3.8C27.6,35.1,27.9,34.5,28.1,33.8z"/>
	<path class="st4" d="M30.7,25.5l3,3c0.8,0,1.7-0.1,2.4-0.5l-4.9-4.9C30.8,23.9,30.6,24.7,30.7,25.5z"/>
	<path class="st4" d="M27.5,18.1L27.5,18.1L27.5,18.1c2-1.8,4.4-2.8,7-2.8c0.4-1.9,1.2-3.7,2.4-5.2c-0.3-0.2-0.5-0.4-0.8-0.6
		c-1.1,1.5-1.9,3.1-2.4,4.9c-2.5,0.2-4.9,1.3-6.8,3l-0.1,0.1c-0.2,0.2-0.3,0.3-0.4,0.5l0.7,0.7C27.2,18.4,27.4,18.2,27.5,18.1z"/>
	<path class="st4" d="M38.8,7.6L38,7l-0.9,1l0.8,0.6C38.2,8.3,38.5,7.9,38.8,7.6z"/>
	<path class="st4" d="M26.1,20.1l-0.9-0.5c-0.2,0.4-0.4,0.9-0.6,1.4l0.9,0.3C25.7,20.9,25.9,20.5,26.1,20.1z"/>
	<path class="st4" d="M41.2,31.6L41.2,31.6c-2,1.9-4.5,2.9-7.2,2.9c-0.4,1.8-1.2,3.6-2.3,5.1l0.8,0.6c1.1-1.4,1.8-3,2.3-4.7
		c2.6-0.2,5.1-1.3,7-3.1l0.1-0.1c0.1-0.1,0.3-0.3,0.4-0.5l-0.7-0.7C41.5,31.3,41.4,31.5,41.2,31.6z"/>
	<path class="st4" d="M42.7,29.6l0.9,0.5c0.2-0.4,0.4-0.9,0.6-1.4l-1-0.3C43.1,28.8,42.9,29.2,42.7,29.6z"/>
	<path class="st4" d="M29.9,42l0.7,0.7c0.3-0.3,0.6-0.6,0.9-1L30.7,41C30.4,41.3,30.2,41.7,29.9,42z"/>
</g>
</svg>
