<?xml version="1.0" encoding="utf-8"?>
<!-- Generator: Adobe Illustrator 23.0.2, SVG Export Plug-In . SVG Version: 6.00 Build 0)  -->
<svg version="1.1" id="Layer_1" xmlns="http://www.w3.org/2000/svg" xmlns:xlink="http://www.w3.org/1999/xlink" x="0px" y="0px"
	 viewBox="0 0 36.1 36.1" style="enable-background:new 0 0 36.1 36.1;" xml:space="preserve">
<style type="text/css">
	.st0{display:none;fill:#B0B0B0;}
	.st1{fill:none;}
	.st2{fill:#193340;}
</style>
<title>Web_icons</title>
<g id="EPS_BACK">
	<circle class="st0" cx="14.3" cy="44.4" r="0.9"/>
	<circle class="st0" cx="18.1" cy="44.4" r="0.9"/>
	<circle class="st0" cx="21.9" cy="44.4" r="0.9"/>
</g>
<g id="EPS_ICON">
	<path class="st1" d="M30.7,8.2H5.6c-0.5,0-0.9,0.4-0.9,0.9v13h26.9v-13C31.6,8.6,31.2,8.2,30.7,8.2L30.7,8.2z M9.8,20.6H6.7
		c-0.3,0-0.5-0.2-0.5-0.5v-2.7c0-0.3,0.2-0.5,0.5-0.5s0.5,0.2,0.5,0.5v2.2h2.6c0.3,0,0.5,0.2,0.5,0.5S10.1,20.6,9.8,20.6z
		 M30.1,12.1c0,0.3-0.2,0.5-0.5,0.5s-0.5-0.2-0.5-0.5v-1.4h-1.6c-0.3,0-0.5-0.2-0.5-0.5s0.2-0.5,0.5-0.5h2.1c0.3,0,0.5,0.2,0.5,0.5
		V12.1z"/>
	<path d="M9.8,19.6H7.2v-2.2c0-0.3-0.2-0.5-0.5-0.5s-0.5,0.2-0.5,0.5v2.7c0,0.3,0.2,0.5,0.5,0.5h3.1c0.3,0,0.5-0.2,0.5-0.5
		C10.3,19.8,10.1,19.6,9.8,19.6z"/>
	<path d="M29.6,9.7h-2.1c-0.3,0-0.5,0.2-0.5,0.5s0.2,0.5,0.5,0.5h1.6v1.4c0,0.3,0.2,0.5,0.5,0.5s0.5-0.2,0.5-0.5v-1.9
		C30.1,9.9,29.9,9.7,29.6,9.7z"/>
	<path d="M33.1,23.6V9.1c0-1.3-1.1-2.4-2.4-2.4H5.6c-1.3,0-2.4,1.1-2.4,2.4v14.5c0,1.3,1.1,2.4,2.4,2.4h25.2
		C32,26,33.1,24.9,33.1,23.6z M18.1,24.5c-0.4,0-0.8-0.3-0.8-0.7S17.6,23,18,23s0.8,0.3,0.8,0.7l0,0C18.9,24.1,18.6,24.4,18.1,24.5
		L18.1,24.5z M31.6,22.1H4.7v-13c0-0.5,0.4-0.9,0.9-0.9h25.2c0.5,0,0.9,0.4,0.9,0.9l0,0L31.6,22.1z"/>
	<path d="M21.6,30.5h-1.3v-2.9h-4.2v2.9h-1.3c-0.6,0-1.1,0.5-1.1,1.1V32h8.9v-0.5C22.6,30.9,22.1,30.5,21.6,30.5z"/>
	<rect x="9" y="4.2" width="1.2" height="1"/>
	<path d="M7.2,5.2v-1H5.5c-2.7,0-4.9,2.2-4.9,4.9l0,0v7h1v-7c0-2.1,1.7-3.9,3.9-3.9C5.5,5.2,7.2,5.2,7.2,5.2z"/>
	<rect x="0.7" y="17.9" width="1" height="1.2"/>
	<rect x="28.5" y="27.5" class="st2" width="1.2" height="1"/>
	<path d="M34.6,23.6c0,1.9-1.3,3.5-3.2,3.8v1c2.4-0.4,4.1-2.4,4.2-4.8V15h-1V23.6z"/>
	<rect x="34.6" y="12" width="1" height="1.2"/>
</g>
</svg>
