<?xml version="1.0" encoding="utf-8"?>
<!-- Generator: Adobe Illustrator 23.0.2, SVG Export Plug-In . SVG Version: 6.00 Build 0)  -->
<svg version="1.1" id="Layer_1" xmlns="http://www.w3.org/2000/svg" xmlns:xlink="http://www.w3.org/1999/xlink" x="0px" y="0px"
	 viewBox="0 0 68.6 50.2" style="enable-background:new 0 0 68.6 50.2;" xml:space="preserve">
<style type="text/css">
	.st0{fill:#FFFFFF;}
	.st1{fill:#3286B5;}
	.st2{fill:#7C8C8E;}
	.st3{display:none;fill:#B0B0B0;}
	.st4{fill:none;}
	.st5{fill:#193340;}
</style>
<title>Web_icons</title>
<g id="EPS_BACK">
	<circle class="st0" cx="34.3" cy="25.1" r="23.7"/>
	<path class="st1" d="M9.5,9.3H5.3C2.4,9.3,0,11.7,0,14.6v20.9c0,2.9,2.4,5.3,5.3,5.3h4.2C3.4,31.2,3.4,18.9,9.5,9.3L9.5,9.3z"/>
	<path class="st1" d="M63.3,9.3h-4.2c6.1,9.6,6.1,21.9,0,31.6h4.2c2.9,0,5.3-2.4,5.3-5.3v-21C68.5,11.7,66.2,9.4,63.3,9.3z"/>
	<path class="st2" d="M34.3,50.2c-13.9,0-25.1-11.2-25.1-25.1C9.2,11.2,20.4,0,34.3,0c13.9,0,25.1,11.2,25.1,25.1c0,0,0,0,0,0
		C59.4,38.9,48.1,50.1,34.3,50.2z M34.3,3c-12.2,0-22.1,9.9-22.1,22.1s9.9,22.1,22.1,22.1c12.2,0,22.1-9.9,22.1-22.1c0,0,0,0,0,0
		C56.4,12.9,46.5,3,34.3,3z"/>
	<circle class="st3" cx="30.5" cy="53.4" r="0.9"/>
	<circle class="st3" cx="34.3" cy="53.4" r="0.9"/>
	<circle class="st3" cx="38.1" cy="53.4" r="0.9"/>
</g>
<g id="EPS_ICON">
	<path class="st4" d="M46.9,17.2H21.8c-0.5,0-0.9,0.4-0.9,0.9v13h26.9v-13C47.8,17.6,47.4,17.2,46.9,17.2L46.9,17.2z M26,29.6h-3.1
		c-0.3,0-0.5-0.2-0.5-0.5v-2.7c0-0.3,0.2-0.5,0.5-0.5s0.5,0.2,0.5,0.5v2.2H26c0.3,0,0.5,0.2,0.5,0.5C26.5,29.4,26.3,29.6,26,29.6z
		 M46.3,21.1c0,0.3-0.2,0.5-0.5,0.5s-0.5-0.2-0.5-0.5v-1.4h-1.6c-0.3,0-0.5-0.2-0.5-0.5s0.2-0.5,0.5-0.5h2.1c0.3,0,0.5,0.2,0.5,0.5
		L46.3,21.1z"/>
	<path class="st5" d="M26,28.6h-2.6v-2.2c0-0.3-0.2-0.5-0.5-0.5s-0.5,0.2-0.5,0.5v2.7c0,0.3,0.2,0.5,0.5,0.5H26
		c0.3,0,0.5-0.2,0.5-0.5C26.5,28.8,26.3,28.6,26,28.6z"/>
	<path class="st5" d="M45.8,18.7h-2.1c-0.3,0-0.5,0.2-0.5,0.5s0.2,0.5,0.5,0.5h1.6v1.4c0,0.3,0.2,0.5,0.5,0.5s0.5-0.2,0.5-0.5v-1.9
		C46.3,18.9,46.1,18.7,45.8,18.7z"/>
	<path class="st5" d="M49.3,32.6V18.1c0-1.3-1.1-2.4-2.4-2.4H21.8c-1.3,0-2.4,1.1-2.4,2.4v14.5c0,1.3,1.1,2.4,2.4,2.4h25.2
		C48.2,35,49.3,33.9,49.3,32.6z M34.3,33.5c-0.4,0-0.8-0.3-0.8-0.7c0-0.4,0.3-0.8,0.7-0.8c0.4,0,0.8,0.3,0.8,0.7c0,0,0,0,0,0
		C35.1,33.1,34.8,33.4,34.3,33.5L34.3,33.5z M47.8,31.1H20.9v-13c0-0.5,0.4-0.9,0.9-0.9h25.2c0.5,0,0.9,0.4,0.9,0.9l0,0L47.8,31.1z"
		/>
	<path class="st5" d="M37.8,39.5h-1.3v-2.9h-4.2v2.9H31c-0.6,0-1.1,0.5-1.1,1.1V41h8.9v-0.5C38.8,39.9,38.3,39.5,37.8,39.5z"/>
	<rect x="25.2" y="13.2" class="st5" width="1.2" height="1"/>
	<path class="st5" d="M23.4,14.2v-1h-1.7c-2.7,0-4.9,2.2-4.9,4.9l0,0v7h1v-7c0-2.1,1.7-3.9,3.9-3.9H23.4z"/>
	<rect x="16.9" y="26.9" class="st5" width="1" height="1.2"/>
	<rect x="44.7" y="36.5" class="st5" width="1.2" height="1"/>
	<path class="st5" d="M50.8,32.6c0,1.9-1.3,3.5-3.2,3.8v1c2.4-0.4,4.1-2.4,4.2-4.8V24h-1V32.6z"/>
	<rect x="50.8" y="21" class="st5" width="1" height="1.2"/>
</g>
</svg>
