<svg xmlns="http://www.w3.org/2000/svg" viewBox="0 0 70.46 55.63"><defs><style>.cls-1{fill:#fff;}.cls-2{fill:#3286b5;}.cls-3{fill:#b0b0b0;}.cls-4{fill:#193340;}</style></defs><title>Web_icons</title><g id="EPS_BACK" data-name="EPS BACK"><circle class="cls-1" cx="35.23" cy="25.75" r="23.72"/><path class="cls-2" d="M10.44,10H6.25A5.33,5.33,0,0,0,.93,15.28V36.22a5.34,5.34,0,0,0,5.32,5.32h4.19a29.33,29.33,0,0,1,0-31.57Z"/><path class="cls-2" d="M64.21,10H60a29.38,29.38,0,0,1,0,31.57h4.19a5.33,5.33,0,0,0,5.31-5.32V15.28A5.33,5.33,0,0,0,64.21,10Z"/><path class="cls-3" d="M35.23,50.83A25.08,25.08,0,1,1,60.3,25.75,25.11,25.11,0,0,1,35.23,50.83Zm0-47.15A22.08,22.08,0,1,0,57.3,25.75,22.1,22.1,0,0,0,35.23,3.68Z"/><circle class="cls-3" cx="31.43" cy="54.08" r="0.87"/><circle class="cls-3" cx="35.23" cy="54.08" r="0.87"/><circle class="cls-3" cx="39.03" cy="54.08" r="0.87"/></g><g id="EPS_ICON" data-name="EPS ICON"><path class="cls-4" d="M40.29,25.17l1,.79c1,.82,1.95,1.62,2.77,2.38.36.33.69.65,1,1l.9.89c.83.86,1.46,1.58,1.9,2.08s.65.8.65.8l0-1.56-.13-8.15C46.69,16.83,38.72,13,35.59,11.78a42.37,42.37,0,0,0-2.3,9A45.35,45.35,0,0,1,40.29,25.17Z"/><path class="cls-4" d="M31.71,21.11a46.77,46.77,0,0,1,2.51-9.75l-1.31.79-7,4.24c-3.21,3.13-4,8.08-4,12q0,.7,0,1.35c0,.43.05.84.08,1.23.06.84.15,1.57.23,2.15a45.11,45.11,0,0,0,9-2.43A46,46,0,0,1,31.71,21.11Z"/><path class="cls-4" d="M39.34,38.64c.37-.14.74-.28,1.11-.44l.19-.08,1-.48.17-.09c.35-.17.69-.35,1-.53L43,37c.33-.18.64-.36.95-.55l.07,0,.88-.55.13-.09.78-.52.12-.09.68-.49.07,0,.6-.45v0l.1-.07a48.31,48.31,0,0,0-6.5-6.58,45.65,45.65,0,0,1-8.51,4.41l-1,.37v0s-.63.23-1.62.55a43.87,43.87,0,0,1-7.21,1.81l1.38.76,2.47,1.35L31,39.31a11.2,11.2,0,0,0,1.38.27l.1,0a11.73,11.73,0,0,0,1.33.08H34c.4,0,.79,0,1.19-.07l.22,0,1.17-.18.19,0c.4-.09.8-.18,1.2-.3H38l1.16-.38Z"/><polygon class="cls-4" points="31.7 10.53 31.15 9.7 30.1 10.38 30.66 11.21 31.7 10.53"/><rect class="cls-4" x="50.14" y="25.55" width="1" height="1.25" transform="translate(-0.44 0.87) rotate(-0.98)"/><path class="cls-4" d="M19.19,28.29c0,.45,0,.88,0,1.3l1,0c0-.41,0-.83,0-1.26Z"/><path class="cls-4" d="M24.84,15l4.35-2.82-.55-.84L24.21,14.2l-.23.22c-3.33,3.27-4.47,8-4.73,12.06l1,.07c.25-3.91,1.31-8.35,4.44-11.41Z"/><path class="cls-4" d="M51.25,32.27l-.07-3.74-1,0,.07,3.72v1.59l-3,2.44a29.8,29.8,0,0,1-8.91,4.48c.07.39.13.66.19,1a30.48,30.48,0,0,0,9.33-4.68l3.38-2.75Z"/><path class="cls-4" d="M35.4,41.35c0,.37.06.65.1,1q.64-.06,1.29-.18c0-.34-.09-.62-.14-1C36.23,41.25,35.82,41.31,35.4,41.35Z"/></g></svg>