<?xml version="1.0" encoding="utf-8"?>
<!-- Generator: Adobe Illustrator 23.0.2, SVG Export Plug-In . SVG Version: 6.00 Build 0)  -->
<svg version="1.1" id="Layer_1" xmlns="http://www.w3.org/2000/svg" xmlns:xlink="http://www.w3.org/1999/xlink" x="0px" y="0px"
	 viewBox="0 0 36.1 36.1" style="enable-background:new 0 0 36.1 36.1;" xml:space="preserve">
<style type="text/css">
	.st0{display:none;fill:#B0B0B0;}
</style>
<title>Web_icons</title>
<g id="EPS_BACK">
	<circle class="st0" cx="14.3" cy="46.1" r="0.9"/>
	<circle class="st0" cx="18.1" cy="46.1" r="0.9"/>
	<circle class="st0" cx="21.9" cy="46.1" r="0.9"/>
</g>
<g id="EPS_ICON">
	<path d="M23.2,17.2l1,0.8c1,0.8,2,1.6,2.8,2.4c0.4,0.3,0.7,0.6,1,1l0.9,0.9c0.8,0.9,1.5,1.6,1.9,2.1c0.4,0.5,0.7,0.8,0.7,0.8v-1.6
		l-0.1-8.1C29.7,8.9,21.7,5.1,18.6,3.9c-1.1,2.9-1.9,5.9-2.3,9C18.6,14.1,21,15.5,23.2,17.2z"/>
	<path d="M14.6,13.1c0.5-3.3,1.3-6.6,2.5-9.8l-1.3,0.9l-7,4.2c-3.2,3.1-4,8.1-4,12c0,0.5,0,0.9,0,1.4c0,0.4,0,0.8,0.1,1.2
		C5,23.8,5,24.6,5.1,25.2c3.1-0.5,6.1-1.3,9-2.4C13.9,19.5,14.1,16.3,14.6,13.1z"/>
	<path d="M22.2,30.7c0.4-0.1,0.7-0.3,1.1-0.4l0.2-0.1l1-0.5l0.2-0.1c0.3-0.2,0.7-0.3,1-0.5h0.2c0.3-0.2,0.6-0.4,1-0.5H27l0.9-0.5
		L28,28l0.8-0.5l0.1-0.1l0.7-0.5h0.1l0.6-0.5l0,0l0.1-0.1c-2-2.4-4.1-4.6-6.5-6.6c-2.7,1.8-5.5,3.2-8.5,4.4l-1,0.4l0,0
		c0,0-0.6,0.2-1.6,0.6c-2.3,0.8-4.8,1.4-7.2,1.8L7,27.7L9.5,29l4.6,2.5c0.5,0.1,0.9,0.2,1.4,0.3h0.1c0.2-0.1,0.6-0.1,1.1-0.1h0.2
		c0.4,0,0.8,0,1.2-0.1h0.2l1.2-0.2h0.2c0.4-0.1,0.8-0.2,1.2-0.3l0,0L22.2,30.7L22.2,30.7z"/>
	<polygon points="14.6,2.6 14,1.7 13,2.4 13.5,3.2 	"/>
	<rect x="33" y="17.6" transform="matrix(0.9999 -1.710260e-02 1.710260e-02 0.9999 -0.3065 0.5749)" width="1" height="1.2"/>
	<path d="M2.1,20.3c0,0.5,0,0.9,0,1.3h1c0-0.4,0-0.8,0-1.3H2.1z"/>
	<path d="M7.7,7l4.4-2.8l-0.5-0.8L7.2,6.3L6.8,6.4c-3.3,3.3-4.5,8-4.7,12.1l1,0.1c0.2-3.9,1.3-8.4,4.4-11.4L7.7,7z"/>
	<path d="M34.1,24.3L34,20.6h-1l0.1,3.7v1.6l-3,2.4c-2.7,2-5.7,3.5-8.9,4.5c0.1,0.4,0.1,0.7,0.2,1c3.4-1,6.5-2.6,9.3-4.7l3.4-2.8
		L34.1,24.3z"/>
	<path d="M18.3,33.4c0,0.4,0.1,0.7,0.1,1c0.4,0,0.9-0.1,1.3-0.2c0-0.3-0.1-0.6-0.1-1C19.1,33.3,18.7,33.3,18.3,33.4z"/>
</g>
</svg>
