<?xml version="1.0" encoding="utf-8"?>
<!-- Generator: Adobe Illustrator 23.0.2, SVG Export Plug-In . SVG Version: 6.00 Build 0)  -->
<svg version="1.1" id="Layer_1" xmlns="http://www.w3.org/2000/svg" xmlns:xlink="http://www.w3.org/1999/xlink" x="0px" y="0px"
	 viewBox="0 0 68.6 50.2" style="enable-background:new 0 0 68.6 50.2;" xml:space="preserve">
<style type="text/css">
	.st0{fill:#FFFFFF;}
	.st1{fill:#3286B5;}
	.st2{fill:#7C8C8E;}
	.st3{display:none;fill:#B0B0B0;}
	.st4{fill:#193340;}
</style>
<title>Web_icons</title>
<g id="EPS_BACK">
	<circle class="st0" cx="34.3" cy="25.1" r="23.7"/>
	<path class="st1" d="M9.5,9.3H5.3C2.4,9.3,0,11.7,0,14.6v20.9c0,2.9,2.4,5.3,5.3,5.3h4.2C3.4,31.2,3.4,18.9,9.5,9.3L9.5,9.3z"/>
	<path class="st1" d="M63.3,9.3h-4.2c6.1,9.6,6.1,21.9,0,31.6h4.2c2.9,0,5.3-2.4,5.3-5.3v-21C68.5,11.7,66.2,9.4,63.3,9.3z"/>
	<path class="st2" d="M34.3,50.2c-13.9,0-25.1-11.2-25.1-25.1C9.2,11.2,20.4,0,34.3,0c13.9,0,25.1,11.2,25.1,25.1c0,0,0,0,0,0
		C59.4,38.9,48.1,50.1,34.3,50.2z M34.3,3c-12.2,0-22.1,9.9-22.1,22.1s9.9,22.1,22.1,22.1c12.2,0,22.1-9.9,22.1-22.1c0,0,0,0,0,0
		C56.4,12.9,46.5,3,34.3,3z"/>
	<circle class="st3" cx="30.5" cy="53.4" r="0.9"/>
	<circle class="st3" cx="34.3" cy="53.4" r="0.9"/>
	<circle class="st3" cx="38.1" cy="53.4" r="0.9"/>
</g>
<g id="EPS_ICON">
	<path class="st4" d="M39.4,24.5l1,0.8c1,0.8,2,1.6,2.8,2.4c0.4,0.3,0.7,0.6,1,1l0.9,0.9c0.8,0.9,1.5,1.6,1.9,2.1
		c0.4,0.5,0.7,0.8,0.7,0.8v-1.6l-0.1-8.1c-1.7-6.6-9.7-10.4-12.8-11.6c-1.1,2.9-1.9,5.9-2.3,9C34.8,21.4,37.2,22.8,39.4,24.5z"/>
	<path class="st4" d="M30.8,20.4c0.5-3.3,1.3-6.6,2.5-9.8L32,11.5l-7,4.2c-3.2,3.1-4,8.1-4,12c0,0.5,0,0.9,0,1.4
		c0,0.4,0,0.8,0.1,1.2c0.1,0.8,0.1,1.6,0.2,2.2c3.1-0.5,6.1-1.3,9-2.4C30.1,26.8,30.3,23.6,30.8,20.4z"/>
	<path class="st4" d="M38.4,38c0.4-0.1,0.7-0.3,1.1-0.4l0.2-0.1l1-0.5l0.2-0.1c0.3-0.2,0.7-0.3,1-0.5l0.2,0c0.3-0.2,0.6-0.4,1-0.5
		h0.1l0.9-0.5l0.1-0.1l0.8-0.5l0.1-0.1l0.7-0.5h0.1l0.6-0.5l0,0l0.1-0.1c-2-2.4-4.1-4.6-6.5-6.6c-2.7,1.8-5.5,3.2-8.5,4.4l-1,0.4
		l0,0c0,0-0.6,0.2-1.6,0.6c-2.3,0.8-4.8,1.4-7.2,1.8l1.4,0.8l2.5,1.3l4.6,2.5c0.5,0.1,0.9,0.2,1.4,0.3h0.1C32,39,32.4,39,32.9,39
		h0.2c0.4,0,0.8,0,1.2-0.1h0.2l1.2-0.2h0.2c0.4-0.1,0.8-0.2,1.2-0.3h0l1.2-0.4L38.4,38z"/>
	<polygon class="st4" points="30.8,9.9 30.2,9 29.2,9.7 29.7,10.5 	"/>
	
		<rect x="49.2" y="24.9" transform="matrix(0.9999 -1.710339e-02 1.710339e-02 0.9999 -0.429 0.8539)" class="st4" width="1" height="1.2"/>
	<path class="st4" d="M18.3,27.6c0,0.5,0,0.9,0,1.3h1c0-0.4,0-0.8,0-1.3L18.3,27.6z"/>
	<path class="st4" d="M23.9,14.3l4.4-2.8l-0.5-0.8l-4.4,2.9L23,13.7c-3.3,3.3-4.5,8-4.7,12.1l1,0.1c0.2-3.9,1.3-8.4,4.4-11.4
		L23.9,14.3z"/>
	<path class="st4" d="M50.3,31.6l-0.1-3.7h-1l0.1,3.7v1.6l-3,2.4c-2.7,2-5.7,3.5-8.9,4.5c0.1,0.4,0.1,0.7,0.2,1
		c3.4-1,6.5-2.6,9.3-4.7l3.4-2.8L50.3,31.6z"/>
	<path class="st4" d="M34.5,40.7c0,0.4,0.1,0.7,0.1,1c0.4,0,0.9-0.1,1.3-0.2c0-0.3-0.1-0.6-0.1-1C35.3,40.6,34.9,40.6,34.5,40.7z"/>
</g>
</svg>
