<?xml version="1.0" encoding="utf-8"?>
<!-- Generator: Adobe Illustrator 23.0.2, SVG Export Plug-In . SVG Version: 6.00 Build 0)  -->
<svg version="1.1" id="Layer_1" xmlns="http://www.w3.org/2000/svg" xmlns:xlink="http://www.w3.org/1999/xlink" x="0px" y="0px"
	 viewBox="0 0 68.6 50.2" style="enable-background:new 0 0 68.6 50.2;" xml:space="preserve">
<style type="text/css">
	.st0{fill:#FFFFFF;}
	.st1{fill:#3286B5;}
	.st2{fill:#7C8C8E;}
	.st3{display:none;fill:#B0B0B0;}
	.st4{fill:#193340;}
</style>
<title>Web_icons</title>
<g id="EPS_BACK">
	<circle class="st0" cx="34.3" cy="25.1" r="23.7"/>
	<path class="st1" d="M9.5,9.3H5.3C2.4,9.3,0,11.7,0,14.6v20.9c0,2.9,2.4,5.3,5.3,5.3h4.2C3.4,31.2,3.4,18.9,9.5,9.3L9.5,9.3z"/>
	<path class="st1" d="M63.3,9.3h-4.2c6.1,9.6,6.1,21.9,0,31.6h4.2c2.9,0,5.3-2.4,5.3-5.3v-21C68.5,11.7,66.2,9.4,63.3,9.3z"/>
	<path class="st2" d="M34.3,50.2c-13.9,0-25.1-11.2-25.1-25.1C9.2,11.2,20.4,0,34.3,0c13.9,0,25.1,11.2,25.1,25.1c0,0,0,0,0,0
		C59.4,38.9,48.1,50.1,34.3,50.2z M34.3,3c-12.2,0-22.1,9.9-22.1,22.1s9.9,22.1,22.1,22.1c12.2,0,22.1-9.9,22.1-22.1c0,0,0,0,0,0
		C56.4,12.9,46.5,3,34.3,3z"/>
	<circle class="st3" cx="30.5" cy="53.4" r="0.9"/>
	<circle class="st3" cx="34.3" cy="53.4" r="0.9"/>
	<circle class="st3" cx="38.1" cy="53.4" r="0.9"/>
</g>
<g id="EPS_ICON">
	<path class="st4" d="M41.5,10.5H24.6c-0.3,0-0.5,0.2-0.5,0.5v26.3c0,0.3,0.2,0.5,0.5,0.5h16.9c1.7,0,3-1.3,3-3V13.6
		C44.5,11.9,43.2,10.5,41.5,10.5z M28.2,34.2c0,0.4-0.3,0.8-0.8,0.8s-0.8-0.3-0.8-0.8v-2.3c0-0.4,0.3-0.8,0.8-0.8s0.8,0.3,0.8,0.8
		V34.2z M28.2,28.3c0,0.4-0.3,0.8-0.8,0.8s-0.8-0.3-0.8-0.8V14.2c0-0.4,0.3-0.8,0.8-0.8s0.8,0.3,0.8,0.8V28.3z M41.8,19.3
		c0,0.9-0.7,1.6-1.6,1.6h-7.9c-0.9,0-1.6-0.7-1.6-1.6c0,0,0,0,0,0v-2.1c0-0.9,0.7-1.6,1.6-1.6h7.9c0.9,0,1.6,0.7,1.6,1.6V19.3z"/>
	<path class="st4" d="M39.9,16.8h-7.3c-0.3,0-0.5,0.2-0.5,0.5s0.2,0.5,0.5,0.5h7.3c0.3,0,0.5-0.2,0.5-0.5S40.2,16.8,39.9,16.8z"/>
	<path class="st4" d="M37,18.8h-4.5c-0.3,0-0.5,0.2-0.5,0.5c0,0.3,0.2,0.5,0.5,0.5H37c0.3,0,0.5-0.2,0.5-0.5S37.3,18.8,37,18.8z"/>
	<path class="st4" d="M41.8,8v1c2.4,0.1,4.3,2.1,4.3,4.5v14.3h1V13.6C47.1,10.6,44.7,8.2,41.8,8z"/>
	<rect x="21.6" y="15.9" class="st4" width="1" height="1.2"/>
	<path class="st4" d="M22.6,37.3V18.9h-1v18.4c0,1.7,1.3,3,3,3h2.6v-1h-2.6C23.5,39.3,22.6,38.5,22.6,37.3
		C22.6,37.4,22.6,37.3,22.6,37.3z"/>
	<rect x="38.8" y="8" class="st4" width="1.2" height="1"/>
	<rect x="46" y="29.6" class="st4" width="1" height="1.2"/>
	<rect x="29" y="39.4" class="st4" width="1.2" height="1"/>
</g>
</svg>
