<?xml version="1.0" encoding="utf-8"?>
<!-- Generator: Adobe Illustrator 23.0.2, SVG Export Plug-In . SVG Version: 6.00 Build 0)  -->
<svg version="1.1" id="Layer_1" xmlns="http://www.w3.org/2000/svg" xmlns:xlink="http://www.w3.org/1999/xlink" x="0px" y="0px"
	 viewBox="0 0 36.1 36.1" style="enable-background:new 0 0 36.1 36.1;" xml:space="preserve">
<style type="text/css">
	.st0{display:none;fill:#B0B0B0;}
</style>
<title>Web_icons</title>
<g id="EPS_BACK">
	<circle class="st0" cx="14.2" cy="47.3" r="0.9"/>
	<circle class="st0" cx="18" cy="47.3" r="0.9"/>
	<circle class="st0" cx="21.8" cy="47.3" r="0.9"/>
</g>
<g id="EPS_ICON">
	<path d="M25.2,4.4H8.3C8,4.4,7.8,4.6,7.8,4.9v26.3c0,0.3,0.2,0.5,0.5,0.5h16.9c1.7,0,3-1.3,3-3V7.5C28.2,5.8,26.9,4.4,25.2,4.4z
		 M11.9,28.1c0,0.4-0.3,0.8-0.8,0.8s-0.8-0.3-0.8-0.8v-2.3c0-0.4,0.3-0.8,0.8-0.8s0.8,0.3,0.8,0.8V28.1z M11.9,22.2
		c0,0.4-0.3,0.8-0.8,0.8s-0.8-0.3-0.8-0.8V8.1c0-0.4,0.3-0.8,0.8-0.8s0.8,0.3,0.8,0.8V22.2z M25.5,13.2c0,0.9-0.7,1.6-1.6,1.6H16
		c-0.9,0-1.6-0.7-1.6-1.6l0,0v-2.1c0-0.9,0.7-1.6,1.6-1.6h7.9c0.9,0,1.6,0.7,1.6,1.6V13.2z"/>
	<path d="M23.6,10.7h-7.3c-0.3,0-0.5,0.2-0.5,0.5s0.2,0.5,0.5,0.5h7.3c0.3,0,0.5-0.2,0.5-0.5S23.9,10.7,23.6,10.7z"/>
	<path d="M20.7,12.7h-4.5c-0.3,0-0.5,0.2-0.5,0.5s0.2,0.5,0.5,0.5h4.5c0.3,0,0.5-0.2,0.5-0.5S21,12.7,20.7,12.7z"/>
	<path d="M25.5,1.9v1C27.9,3,29.8,5,29.8,7.4v14.3h1V7.5C30.8,4.5,28.4,2.1,25.5,1.9z"/>
	<rect x="5.3" y="9.8" width="1" height="1.2"/>
	<path d="M6.3,31.2V12.8h-1v18.4c0,1.7,1.3,3,3,3h2.6v-1H8.3C7.2,33.2,6.3,32.4,6.3,31.2C6.3,31.3,6.3,31.2,6.3,31.2z"/>
	<rect x="22.5" y="1.9" width="1.2" height="1"/>
	<rect x="29.7" y="23.5" width="1" height="1.2"/>
	<rect x="12.7" y="33.3" width="1.2" height="1"/>
</g>
</svg>
