<?xml version="1.0" encoding="utf-8"?>
<!-- Generator: Adobe Illustrator 23.0.2, SVG Export Plug-In . SVG Version: 6.00 Build 0)  -->
<svg version="1.1" id="Layer_1" xmlns="http://www.w3.org/2000/svg" xmlns:xlink="http://www.w3.org/1999/xlink" x="0px" y="0px"
	 viewBox="0 0 36.1 36.1" style="enable-background:new 0 0 36.1 36.1;" xml:space="preserve">
<style type="text/css">
	.st0{display:none;fill:#B0B0B0;}
	.st1{fill:none;}
</style>
<title>Web_icons</title>
<g id="EPS_BACK">
	<circle class="st0" cx="14.4" cy="47.7" r="0.9"/>
	<circle class="st0" cx="18.2" cy="47.7" r="0.9"/>
	<circle class="st0" cx="22" cy="47.7" r="0.9"/>
</g>
<g id="EPS_ICON">
	<path class="st1" d="M17.7,25.6V23l-3.5,0.7c-1.5-2.4-2.4-5-2.9-7.7l-6.1,1.3l0.5,2.3l2.1,10L20.1,27l-0.3-1.3h-2.1V25.6z"/>
	<path class="st1" d="M19.2,24.1l12.6-0.2l-0.1-10.2v-2.4l-5.2,0.1c0.2,3.3,1.3,6.4,3,9.2l-10.3,2L19.2,24.1z"/>
	<path d="M21.3,25.6l12-0.2l-0.2-11.7V9.8l-6.7,0.1V7H11v3.3c0,0.6,0,1.2,0,1.9s0.1,1.5,0.1,2.2L3.3,16l0.8,3.7l2.5,11.6l15.2-3.2
		L21.3,25.6z M26.5,11.5l5.2-0.1v2.4L31.8,24l-12.6,0.2v-1.4l10.3-2C27.7,17.9,26.7,14.8,26.5,11.5L26.5,11.5z M14.9,18.1L14.9,18.1
		c-0.3,0-0.5-0.2-0.5-0.5s0.2-0.5,0.5-0.5l5.3-0.3c0.3,0,0.5,0.2,0.5,0.4l0,0c0,0.3-0.2,0.5-0.5,0.5l0,0L14.9,18.1z M24.2,15
		l-9.7,0.6l0,0c-0.3,0-0.5-0.2-0.5-0.5s0.2-0.5,0.4-0.5l0,0l9.7-0.6c0.3,0,0.5,0.2,0.5,0.5S24.5,14.9,24.2,15L24.2,15z M14.3,11.9
		l9.7-0.6c0.3,0,0.5,0.2,0.5,0.4l0,0c0,0.3-0.2,0.5-0.5,0.5l-9.7,0.6l0,0c-0.3,0-0.5-0.2-0.5-0.5S14.1,11.9,14.3,11.9L14.3,11.9z
		 M7.7,29.6l-2.1-10l-0.5-2.3l6.2-1.3c0.4,2.7,1.4,5.4,2.9,7.7l3.5-0.7v2.6h2L20,27L7.7,29.6z"/>
	<rect x="13.7" y="4.5" width="1.2" height="1"/>
	<path d="M1.6,14.9l7.1-1.5l0.8-0.2v-0.8c0-0.8,0-1.4,0-2V5.6h2.4v-1H8.5v5.7c0,0.6,0,1.2,0,2.1v0.1l-8.1,1.7L2,21.9l1-0.2L1.6,14.9
		z"/>
	<polygon points="35.8,27.9 35.6,15 34.6,15 34.8,26.9 24.3,27.1 23.1,27.1 23.4,28.3 23.6,29.3 20.8,29.9 21,30.9 24.8,30.1 
		24.4,28.1 	"/>
	<rect x="34.6" y="12" transform="matrix(0.9999 -1.291529e-02 1.291529e-02 0.9999 -0.1604 0.4538)" width="1" height="1.2"/>
	<rect x="18" y="30.5" transform="matrix(0.9787 -0.2055 0.2055 0.9787 -5.9643 4.4758)" width="1.2" height="1"/>
	<polygon points="2.4,23.6 2.7,24.8 3.6,24.6 3.4,23.4 	"/>
</g>
</svg>
