<?xml version="1.0" encoding="utf-8"?>
<!-- Generator: Adobe Illustrator 23.0.2, SVG Export Plug-In . SVG Version: 6.00 Build 0)  -->
<svg version="1.1" id="Layer_1" xmlns="http://www.w3.org/2000/svg" xmlns:xlink="http://www.w3.org/1999/xlink" x="0px" y="0px"
	 viewBox="0 0 68.6 50.2" style="enable-background:new 0 0 68.6 50.2;" xml:space="preserve">
<style type="text/css">
	.st0{fill:#FFFFFF;}
	.st1{fill:#3286B5;}
	.st2{fill:#7C8C8E;}
	.st3{display:none;fill:#B0B0B0;}
	.st4{fill:none;}
	.st5{fill:#193340;}
</style>
<title>Web_icons</title>
<g id="EPS_BACK">
	<circle class="st0" cx="34.3" cy="25.1" r="23.7"/>
	<path class="st1" d="M9.5,9.3H5.3C2.4,9.3,0,11.7,0,14.6v20.9c0,2.9,2.4,5.3,5.3,5.3h4.2C3.4,31.2,3.4,18.9,9.5,9.3L9.5,9.3z"/>
	<path class="st1" d="M63.3,9.3h-4.2c6.1,9.6,6.1,21.9,0,31.6h4.2c2.9,0,5.3-2.4,5.3-5.3v-21C68.5,11.7,66.2,9.4,63.3,9.3z"/>
	<path class="st2" d="M34.3,50.2c-13.9,0-25.1-11.2-25.1-25.1C9.2,11.2,20.4,0,34.3,0c13.9,0,25.1,11.2,25.1,25.1c0,0,0,0,0,0
		C59.4,38.9,48.1,50.1,34.3,50.2z M34.3,3c-12.2,0-22.1,9.9-22.1,22.1s9.9,22.1,22.1,22.1c12.2,0,22.1-9.9,22.1-22.1c0,0,0,0,0,0
		C56.4,12.9,46.5,3,34.3,3z"/>
	<circle class="st3" cx="30.5" cy="53.4" r="0.9"/>
	<circle class="st3" cx="34.3" cy="53.4" r="0.9"/>
	<circle class="st3" cx="38.1" cy="53.4" r="0.9"/>
</g>
<g id="EPS_ICON">
	<path class="st4" d="M33.8,31.3v-2.6l-3.5,0.7c-1.5-2.4-2.4-5-2.9-7.7L21.3,23l0.5,2.3l2.1,10l12.3-2.6l-0.3-1.3H33.8z"/>
	<path class="st4" d="M35.3,29.8l12.6-0.2l-0.1-10.2v-2.4l-5.2,0.1c0.2,3.3,1.3,6.4,3,9.2l-10.3,2L35.3,29.8z"/>
	<path class="st5" d="M37.4,31.3l12-0.2l-0.2-11.7v-3.9l-6.7,0.1v-2.9H27.1v3.3c0,0.6,0,1.2,0,1.9s0.1,1.5,0.1,2.2l-7.8,1.6l0.8,3.7
		L22.7,37l15.2-3.2L37.4,31.3z M42.6,17.2l5.2-0.1v2.4l0.1,10.2l-12.6,0.2v-1.4l10.3-2C43.8,23.6,42.8,20.5,42.6,17.2L42.6,17.2z
		 M31,23.8L31,23.8c-0.3,0-0.5-0.2-0.5-0.5s0.2-0.5,0.5-0.5l5.3-0.3c0.3,0,0.5,0.2,0.5,0.4c0,0,0,0,0,0c0,0.3-0.2,0.5-0.5,0.5
		c0,0,0,0,0,0L31,23.8z M40.3,20.7l-9.7,0.6l0,0c-0.3,0-0.5-0.2-0.5-0.5c0-0.3,0.2-0.5,0.4-0.5c0,0,0,0,0,0l9.7-0.6
		c0.3,0,0.5,0.2,0.5,0.5S40.6,20.6,40.3,20.7L40.3,20.7z M30.4,17.6l9.7-0.6c0.3,0,0.5,0.2,0.5,0.4c0,0,0,0,0,0
		c0,0.3-0.2,0.5-0.5,0.5l-9.7,0.6l0,0c-0.3,0-0.5-0.2-0.5-0.5S30.2,17.6,30.4,17.6L30.4,17.6z M23.8,35.3l-2.1-10L21.2,23l6.2-1.3
		c0.4,2.7,1.4,5.4,2.9,7.7l3.5-0.7v2.6h2l0.3,1.4L23.8,35.3z"/>
	<rect x="29.8" y="10.2" class="st5" width="1.2" height="1"/>
	<path class="st5" d="M17.7,20.6l7.1-1.5l0.8-0.2v-0.8c0-0.8,0-1.4,0-2v-4.8h2.4v-1h-3.4V16c0,0.6,0,1.2,0,2.1v0.1l-8.1,1.7l1.6,7.7
		l1-0.2L17.7,20.6z"/>
	<polygon class="st5" points="51.9,33.6 51.7,20.7 50.7,20.7 50.9,32.6 40.4,32.8 39.2,32.8 39.5,34 39.7,35 36.9,35.6 37.1,36.6 
		40.9,35.8 40.5,33.8 	"/>
	
		<rect x="50.7" y="17.7" transform="matrix(0.9999 -1.291508e-02 1.291508e-02 0.9999 -0.2326 0.6629)" class="st5" width="1" height="1.2"/>
	<rect x="34.1" y="36.1" transform="matrix(0.9787 -0.2055 0.2055 0.9787 -6.7726 7.9152)" class="st5" width="1.2" height="1"/>
	<polygon class="st5" points="18.5,29.3 18.8,30.5 19.7,30.3 19.5,29.1 	"/>
</g>
</svg>
