<?xml version="1.0" encoding="utf-8"?>
<!-- Generator: Adobe Illustrator 23.0.2, SVG Export Plug-In . SVG Version: 6.00 Build 0)  -->
<svg version="1.1" id="Layer_1" xmlns="http://www.w3.org/2000/svg" xmlns:xlink="http://www.w3.org/1999/xlink" x="0px" y="0px"
	 viewBox="0 0 68.6 50.2" style="enable-background:new 0 0 68.6 50.2;" xml:space="preserve">
<style type="text/css">
	.st0{fill:#FFFFFF;}
	.st1{fill:#3286B5;}
	.st2{fill:#7C8C8E;}
	.st3{display:none;fill:#B0B0B0;}
	.st4{fill:#193340;}
	.st5{fill:none;}
</style>
<title>Web_icons</title>
<g id="EPS_BACK">
	<circle class="st0" cx="34.3" cy="25.1" r="23.7"/>
	<path class="st1" d="M9.5,9.3H5.3C2.4,9.3,0,11.7,0,14.6v20.9c0,2.9,2.4,5.3,5.3,5.3h4.2C3.4,31.2,3.4,18.9,9.5,9.3L9.5,9.3z"/>
	<path class="st1" d="M63.3,9.3h-4.2c6.1,9.6,6.1,21.9,0,31.6h4.2c2.9,0,5.3-2.4,5.3-5.3v-21C68.5,11.7,66.2,9.4,63.3,9.3z"/>
	<path class="st2" d="M34.3,50.2c-13.9,0-25.1-11.2-25.1-25.1C9.2,11.2,20.4,0,34.3,0c13.9,0,25.1,11.2,25.1,25.1c0,0,0,0,0,0
		C59.4,38.9,48.1,50.1,34.3,50.2z M34.3,3c-12.2,0-22.1,9.9-22.1,22.1s9.9,22.1,22.1,22.1c12.2,0,22.1-9.9,22.1-22.1c0,0,0,0,0,0
		C56.4,12.9,46.5,3,34.3,3z"/>
	<circle class="st3" cx="30.5" cy="53.4" r="0.9"/>
	<circle class="st3" cx="34.3" cy="53.4" r="0.9"/>
	<circle class="st3" cx="38.1" cy="53.4" r="0.9"/>
</g>
<g id="EPS_ICON">
	<rect x="23.1" y="16.6" class="st4" width="1" height="1.2"/>
	<rect x="31.9" y="39.4" class="st4" width="1.2" height="1"/>
	<path class="st4" d="M27.9,39.4c-2.1,0-3.8-1.7-3.8-3.8v-16h-1v16c0,2.6,2.1,4.8,4.8,4.8h2.3v-1L27.9,39.4z"/>
	<rect x="35.1" y="9.1" class="st4" width="1.2" height="1"/>
	<rect x="44.5" y="31.3" class="st4" width="1" height="1.2"/>
	<path class="st4" d="M45.5,13.9c0-2.6-2.1-4.8-4.8-4.8h-2.7v1h2.7c2.1,0,3.8,1.7,3.8,3.8l0,0v15.6h1L45.5,13.9z"/>
	<path class="st5" d="M28.3,13.9h12c0.3,0,0.5,0.2,0.5,0.5v2.1c0,0.3-0.2,0.5-0.5,0.5h-12c-0.3,0-0.5-0.2-0.5-0.5v-2.1
		C27.8,14.1,28,13.9,28.3,13.9z"/>
	<path class="st4" d="M40.7,11.6H27.9c-1.3,0-2.3,1-2.3,2.3v21.8c0,1.3,1,2.3,2.3,2.3h12.9c1.3,0,2.3-1,2.3-2.2c0,0,0,0,0-0.1V13.9
		C43.1,12.6,42,11.6,40.7,11.6C40.8,11.6,40.7,11.6,40.7,11.6z M30.2,35.2h-1.9v-2h1.9V35.2z M30.2,31.8h-1.9v-2h1.9V31.8z
		 M30.2,28.3h-1.9v-2h1.9V28.3z M30.2,24.9h-1.9v-2h1.9V24.9z M30.2,21.5h-1.9v-2h1.9V21.5z M33.6,35.2h-1.9v-2h1.9V35.2z
		 M33.6,31.8h-1.9v-2h1.9V31.8z M33.6,28.3h-1.9v-2h1.9V28.3z M33.6,24.9h-1.9v-2h1.9V24.9z M33.6,21.5h-1.9v-2h1.9V21.5z
		 M36.9,35.2H35v-2h1.9V35.2z M36.9,31.8H35v-2h1.9V31.8z M36.9,28.3H35v-2h1.9V28.3z M36.9,24.9H35v-2h1.9V24.9z M36.9,21.5H35v-2
		h1.9V21.5z M40.3,35.2h-1.9v-2h1.9V35.2z M40.3,31.8h-1.9v-2h1.9V31.8z M40.3,28.3h-1.9v-2h1.9V28.3z M40.3,24.9h-1.9v-2h1.9V24.9z
		 M40.3,21.5h-1.9v-2h1.9V21.5z M40.8,16.5c0,0.3-0.2,0.5-0.5,0.5h-12c-0.3,0-0.5-0.2-0.5-0.5v-2.2c0-0.3,0.2-0.5,0.5-0.5h12
		c0.3,0,0.5,0.2,0.5,0.5V16.5z"/>
</g>
</svg>
