<?xml version="1.0" encoding="utf-8"?>
<!-- Generator: Adobe Illustrator 23.0.2, SVG Export Plug-In . SVG Version: 6.00 Build 0)  -->
<svg version="1.1" id="Layer_1" xmlns="http://www.w3.org/2000/svg" xmlns:xlink="http://www.w3.org/1999/xlink" x="0px" y="0px"
	 viewBox="0 0 36.1 36.1" style="enable-background:new 0 0 36.1 36.1;" xml:space="preserve">
<style type="text/css">
	.st0{display:none;fill:#B0B0B0;}
	.st1{fill:none;}
</style>
<title>Web_icons</title>
<g id="EPS_BACK">
	<circle class="st0" cx="14.3" cy="46.7" r="0.9"/>
	<circle class="st0" cx="18.1" cy="46.7" r="0.9"/>
	<circle class="st0" cx="21.9" cy="46.7" r="0.9"/>
</g>
<g id="EPS_ICON">
	<rect x="6.9" y="9.9" width="1" height="1.2"/>
	<rect x="15.7" y="32.7" width="1.2" height="1"/>
	<path d="M11.7,32.7c-2.1,0-3.8-1.7-3.8-3.8v-16h-1v16c0,2.6,2.1,4.8,4.8,4.8H14v-1H11.7z"/>
	<rect x="18.9" y="2.4" width="1.2" height="1"/>
	<rect x="28.3" y="24.6" width="1" height="1.2"/>
	<path d="M29.3,7.2c0-2.6-2.1-4.8-4.8-4.8h-2.7v1h2.7c2.1,0,3.8,1.7,3.8,3.8l0,0v15.6h1V7.2z"/>
	<path class="st1" d="M12.1,7.2h12c0.3,0,0.5,0.2,0.5,0.5v2.1c0,0.3-0.2,0.5-0.5,0.5h-12c-0.3,0-0.5-0.2-0.5-0.5V7.7
		C11.6,7.4,11.8,7.2,12.1,7.2z"/>
	<path d="M24.5,4.9H11.7c-1.3,0-2.3,1-2.3,2.3V29c0,1.3,1,2.3,2.3,2.3h12.9c1.3,0,2.3-1,2.3-2.2c0,0,0,0,0-0.1V7.2
		C26.9,5.9,25.8,4.9,24.5,4.9C24.6,4.9,24.5,4.9,24.5,4.9z M14,28.5h-1.9v-2H14V28.5z M14,25.1h-1.9v-2H14V25.1z M14,21.6h-1.9v-2
		H14V21.6z M14,18.2h-1.9v-2H14V18.2z M14,14.8h-1.9v-2H14V14.8z M17.4,28.5h-1.9v-2h1.9V28.5z M17.4,25.1h-1.9v-2h1.9V25.1z
		 M17.4,21.6h-1.9v-2h1.9V21.6z M17.4,18.2h-1.9v-2h1.9V18.2z M17.4,14.8h-1.9v-2h1.9V14.8z M20.7,28.5h-1.9v-2h1.9V28.5z
		 M20.7,25.1h-1.9v-2h1.9V25.1z M20.7,21.6h-1.9v-2h1.9V21.6z M20.7,18.2h-1.9v-2h1.9V18.2z M20.7,14.8h-1.9v-2h1.9V14.8z
		 M24.1,28.5h-1.9v-2h1.9V28.5z M24.1,25.1h-1.9v-2h1.9V25.1z M24.1,21.6h-1.9v-2h1.9V21.6z M24.1,18.2h-1.9v-2h1.9V18.2z
		 M24.1,14.8h-1.9v-2h1.9V14.8z M24.6,9.8c0,0.3-0.2,0.5-0.5,0.5h-12c-0.3,0-0.5-0.2-0.5-0.5V7.6c0-0.3,0.2-0.5,0.5-0.5h12
		c0.3,0,0.5,0.2,0.5,0.5V9.8z"/>
</g>
</svg>
