<?xml version="1.0" encoding="utf-8"?>
<!-- Generator: Adobe Illustrator 23.0.2, SVG Export Plug-In . SVG Version: 6.00 Build 0)  -->
<svg version="1.1" id="Layer_1" xmlns="http://www.w3.org/2000/svg" xmlns:xlink="http://www.w3.org/1999/xlink" x="0px" y="0px"
	 viewBox="0 0 36.5 36.5" style="enable-background:new 0 0 36.5 36.5;" xml:space="preserve">
<style type="text/css">
	.st0{display:none;fill:#B0B0B0;}
	.st1{fill:none;}
</style>
<title>Web_icons</title>
<g id="EPS_BACK">
	<circle class="st0" cx="14.3" cy="47.7" r="0.9"/>
	<circle class="st0" cx="18.1" cy="47.7" r="0.9"/>
	<circle class="st0" cx="21.9" cy="47.7" r="0.9"/>
</g>
<g id="EPS_ICON">
	<path class="st1" d="M26.6,10.2H9.7c-1.4,0-2.5,1.1-2.5,2.5l0,0v16.2h21.9V12.7C29.1,11.3,28,10.2,26.6,10.2z M10.7,12.4H9.4v1.2
		c0,0.3-0.2,0.5-0.5,0.5s-0.5-0.2-0.5-0.5v-1.3c0-0.6,0.4-1,1-1h1.3c0.3,0,0.5,0.2,0.5,0.5C11.2,12.2,11,12.4,10.7,12.4L10.7,12.4z
		 M27.9,26.6c0,0.6-0.4,1-1,1h-2.7c-0.3,0-0.5-0.2-0.5-0.5s0.2-0.5,0.5-0.5h2.7v-2.7c0-0.3,0.2-0.5,0.5-0.5s0.5,0.2,0.5,0.5V26.6z"
		/>
	<path d="M31.1,29.6V12.7c0-2.5-2-4.5-4.5-4.5l0,0H9.7c-2.5,0-4.5,2-4.5,4.5v16.9c0,2.5,2,4.5,4.5,4.5l0,0h16.9
		C29.1,34.2,31.1,32.1,31.1,29.6z M25,33c-0.8,0-1.5-0.7-1.5-1.5S24.2,30,25,30s1.5,0.7,1.5,1.5l0,0C26.5,32.3,25.8,33,25,33L25,33z
		 M29.1,28.9H7.2V12.7c0-1.4,1.1-2.5,2.5-2.5l0,0h16.9c1.4,0,2.5,1.1,2.5,2.5V28.9z"/>
	<path d="M27.4,23.4c-0.3,0-0.5,0.2-0.5,0.5v2.7h-2.7c-0.3,0-0.5,0.2-0.5,0.5s0.2,0.5,0.5,0.5h2.7c0.6,0,1-0.4,1-1v-2.7
		C27.9,23.6,27.7,23.4,27.4,23.4L27.4,23.4z"/>
	<path d="M10.7,11.4H9.4c-0.6,0-1,0.4-1,1v1.2c0,0.3,0.2,0.5,0.5,0.5s0.5-0.2,0.5-0.5v-1.2h1.3c0.3,0,0.5-0.2,0.5-0.5
		C11.2,11.6,10.9,11.4,10.7,11.4z"/>
	<path d="M32.6,31.4c-0.2-0.1-0.5,0-0.7,0.2l0,0c-0.6,1.3-1.6,2.4-2.9,3.1c-0.2,0.1-0.4,0.4-0.2,0.7l0,0c0.1,0.2,0.3,0.3,0.5,0.3
		c0.1,0,0.1,0,0.2,0c1.6-0.7,2.8-2,3.5-3.6C33,31.8,32.8,31.5,32.6,31.4L32.6,31.4z"/>
	<path d="M3.5,11.9h0.1c0.2,0,0.4-0.2,0.5-0.4C4.7,8.8,7.2,6.9,10,6.9c0.3,0,0.5-0.2,0.5-0.5S10.3,5.9,10,5.9
		c-3.2,0-6.1,2.2-6.8,5.4C3.1,11.5,3.2,11.8,3.5,11.9L3.5,11.9z"/>
	<path d="M4,17.2H3v12.1c0,0.9,0.2,1.8,0.5,2.6l0.9-0.4C4.1,30.8,4,30.1,4,29.3V17.2z"/>
	<path d="M4.4,33.6c0.3,0.4,0.6,0.7,0.9,1L6,33.9c-0.3-0.3-0.6-0.5-0.8-0.9L4.4,33.6z"/>
	<path d="M7.4,34.7l-0.5,0.9c1,0.5,2.1,0.7,3.1,0.8h8.3v-1H10C9.1,35.4,8.2,35.1,7.4,34.7z"/>
	<path d="M15.2,2.3L18.9,6h-1.6v1h9.1c0.8,0,1.5,0.2,2.3,0.4c0.1-0.3,0.2-0.6,0.4-0.9C28.3,6.2,27.4,6,26.4,6h-4.8l3.6-3.7
		c0.5,0.3,1.1,0.1,1.4-0.4s0.1-1.1-0.4-1.4c-0.4-0.4-1.1-0.4-1.5,0l0,0c-0.3,0.3-0.4,0.6-0.2,1l-4.3,4.3l-4.3-4.3
		C16.2,1,16,0.4,15.5,0.1C15-0.2,14.4,0,14.1,0.5c-0.4,0.4-0.4,1.1,0,1.5C14.4,2.3,14.8,2.4,15.2,2.3z"/>
	<path d="M32.6,9.9l-0.8,0.5c0.4,0.8,0.6,1.7,0.6,2.6v12.1h1V13C33.4,11.9,33.1,10.9,32.6,9.9z"/>
	<path d="M31.6,8.3c-0.3-0.3-0.6-0.6-1-0.9c-0.2,0.3-0.4,0.5-0.6,0.8c0.3,0.2,0.6,0.5,0.9,0.8L31.6,8.3z"/>
</g>
</svg>
