<?xml version="1.0" encoding="utf-8"?>
<!-- Generator: Adobe Illustrator 23.0.2, SVG Export Plug-In . SVG Version: 6.00 Build 0)  -->
<svg version="1.1" id="Layer_1" xmlns="http://www.w3.org/2000/svg" xmlns:xlink="http://www.w3.org/1999/xlink" x="0px" y="0px"
	 viewBox="0 0 68.6 50.2" style="enable-background:new 0 0 68.6 50.2;" xml:space="preserve">
<style type="text/css">
	.st0{fill:#FFFFFF;}
	.st1{fill:#3286B5;}
	.st2{fill:#7C8C8E;}
	.st3{display:none;fill:#B0B0B0;}
	.st4{fill:none;}
	.st5{fill:#193340;}
</style>
<title>Web_icons</title>
<g id="EPS_BACK">
	<circle class="st0" cx="34.3" cy="25.1" r="23.7"/>
	<path class="st1" d="M9.5,9.3H5.3C2.4,9.3,0,11.7,0,14.6v20.9c0,2.9,2.4,5.3,5.3,5.3h4.2C3.4,31.2,3.4,18.9,9.5,9.3L9.5,9.3z"/>
	<path class="st1" d="M63.3,9.3h-4.2c6.1,9.6,6.1,21.9,0,31.6h4.2c2.9,0,5.3-2.4,5.3-5.3v-21C68.5,11.7,66.2,9.4,63.3,9.3z"/>
	<path class="st2" d="M34.3,50.2c-13.9,0-25.1-11.2-25.1-25.1C9.2,11.2,20.4,0,34.3,0c13.9,0,25.1,11.2,25.1,25.1c0,0,0,0,0,0
		C59.4,38.9,48.1,50.1,34.3,50.2z M34.3,3c-12.2,0-22.1,9.9-22.1,22.1s9.9,22.1,22.1,22.1c12.2,0,22.1-9.9,22.1-22.1c0,0,0,0,0,0
		C56.4,12.9,46.5,3,34.3,3z"/>
	<circle class="st3" cx="30.5" cy="53.4" r="0.9"/>
	<circle class="st3" cx="34.3" cy="53.4" r="0.9"/>
	<circle class="st3" cx="38.1" cy="53.4" r="0.9"/>
</g>
<g id="EPS_ICON">
	<path class="st4" d="M42.8,15.9H25.9c-1.4,0-2.5,1.1-2.5,2.5l0,0v16.2h21.9V18.4C45.3,17,44.2,15.9,42.8,15.9z M26.9,18.1h-1.3v1.2
		c0,0.3-0.2,0.5-0.5,0.5s-0.5-0.2-0.5-0.5v-1.3c0-0.6,0.4-1,1-1h1.3c0.3,0,0.5,0.2,0.5,0.5C27.4,17.9,27.2,18.1,26.9,18.1
		C26.9,18.1,26.9,18.1,26.9,18.1z M44.1,32.3c0,0.6-0.4,1-1,1h-2.7c-0.3,0-0.5-0.2-0.5-0.5s0.2-0.5,0.5-0.5h2.7v-2.7
		c0-0.3,0.2-0.5,0.5-0.5s0.5,0.2,0.5,0.5L44.1,32.3z"/>
	<path class="st5" d="M47.3,35.3V18.4c0-2.5-2-4.5-4.5-4.5c0,0,0,0,0,0H25.9c-2.5,0-4.5,2-4.5,4.5v16.9c0,2.5,2,4.5,4.5,4.5
		c0,0,0,0,0,0h16.9C45.3,39.9,47.3,37.8,47.3,35.3z M41.2,38.7c-0.8,0-1.5-0.7-1.5-1.5s0.7-1.5,1.5-1.5c0.8,0,1.5,0.7,1.5,1.5
		c0,0,0,0,0,0C42.7,38,42,38.7,41.2,38.7L41.2,38.7z M45.3,34.6H23.4V18.4c0-1.4,1.1-2.5,2.5-2.5l0,0h16.9c1.4,0,2.5,1.1,2.5,2.5
		V34.6z"/>
	<path class="st5" d="M43.6,29.1c-0.3,0-0.5,0.2-0.5,0.5v2.7h-2.7c-0.3,0-0.5,0.2-0.5,0.5s0.2,0.5,0.5,0.5h2.7c0.6,0,1-0.4,1-1v-2.7
		C44.1,29.3,43.9,29.1,43.6,29.1C43.6,29.1,43.6,29.1,43.6,29.1z"/>
	<path class="st5" d="M26.9,17.1h-1.3c-0.6,0-1,0.4-1,1v1.2c0,0.3,0.2,0.5,0.5,0.5s0.5-0.2,0.5-0.5v-1.2h1.3c0.3,0,0.5-0.2,0.5-0.5
		C27.4,17.3,27.1,17.1,26.9,17.1z"/>
	<path class="st5" d="M48.8,37.1c-0.2-0.1-0.5,0-0.7,0.2c0,0,0,0,0,0c-0.6,1.3-1.6,2.4-2.9,3.1c-0.2,0.1-0.4,0.4-0.2,0.7
		c0,0,0,0,0,0c0.1,0.2,0.3,0.3,0.5,0.3c0.1,0,0.1,0,0.2,0c1.6-0.7,2.8-2,3.5-3.6C49.2,37.5,49,37.2,48.8,37.1
		C48.8,37.1,48.8,37.1,48.8,37.1z"/>
	<path class="st5" d="M19.7,17.6h0.1c0.2,0,0.4-0.2,0.5-0.4c0.6-2.7,3.1-4.6,5.9-4.6c0.3,0,0.5-0.2,0.5-0.5c0-0.3-0.2-0.5-0.5-0.5
		c-3.2,0-6.1,2.2-6.8,5.4C19.3,17.2,19.4,17.5,19.7,17.6C19.7,17.6,19.7,17.6,19.7,17.6z"/>
	<path class="st5" d="M20.2,22.9h-1V35c0,0.9,0.2,1.8,0.5,2.6l0.9-0.4c-0.3-0.7-0.4-1.4-0.4-2.2V22.9z"/>
	<path class="st5" d="M20.6,39.3c0.3,0.4,0.6,0.7,0.9,1l0.7-0.7c-0.3-0.3-0.6-0.5-0.8-0.9L20.6,39.3z"/>
	<path class="st5" d="M23.6,40.4l-0.5,0.9c1,0.5,2.1,0.7,3.1,0.8h8.3v-1h-8.3C25.3,41.1,24.4,40.8,23.6,40.4z"/>
	<path class="st5" d="M31.4,8l3.7,3.7h-1.6v1h9.1c0.8,0,1.5,0.2,2.3,0.4c0.1-0.3,0.2-0.6,0.4-0.9c-0.8-0.3-1.7-0.5-2.7-0.5h-4.8
		L41.4,8c0.5,0.3,1.1,0.1,1.4-0.4s0.1-1.1-0.4-1.4c-0.4-0.4-1.1-0.4-1.5,0c0,0,0,0,0,0c-0.3,0.3-0.4,0.6-0.2,1l-4.3,4.3l-4.3-4.3
		c0.3-0.5,0.1-1.1-0.4-1.4s-1.1-0.1-1.4,0.4c-0.4,0.4-0.4,1.1,0,1.5C30.6,8,31,8.1,31.4,8z"/>
	<path class="st5" d="M48.8,15.6L48,16.1c0.4,0.8,0.6,1.7,0.6,2.6v12.1h1V18.7C49.6,17.6,49.3,16.6,48.8,15.6z"/>
	<path class="st5" d="M47.8,14c-0.3-0.3-0.6-0.6-1-0.9c-0.2,0.3-0.4,0.5-0.6,0.8c0.3,0.2,0.6,0.5,0.9,0.8L47.8,14z"/>
</g>
</svg>
