<svg xmlns="http://www.w3.org/2000/svg" viewBox="0 0 70.46 55.63"><defs><style>.cls-1{fill:#fff;}.cls-2{fill:#3286b5;}.cls-3{fill:#b0b0b0;}.cls-4{fill:none;}.cls-5{fill:#193340;}</style></defs><title>Web_icons</title><g id="EPS_BACK" data-name="EPS BACK"><circle class="cls-1" cx="35.23" cy="25.75" r="23.72"/><path class="cls-2" d="M10.44,10H6.25A5.33,5.33,0,0,0,.93,15.28V36.22a5.34,5.34,0,0,0,5.32,5.32h4.19a29.33,29.33,0,0,1,0-31.57Z"/><path class="cls-2" d="M64.21,10H60a29.38,29.38,0,0,1,0,31.57h4.19a5.33,5.33,0,0,0,5.31-5.32V15.28A5.33,5.33,0,0,0,64.21,10Z"/><path class="cls-3" d="M35.23,50.83A25.08,25.08,0,1,1,60.3,25.75,25.11,25.11,0,0,1,35.23,50.83Zm0-47.15A22.08,22.08,0,1,0,57.3,25.75,22.1,22.1,0,0,0,35.23,3.68Z"/><circle class="cls-3" cx="31.43" cy="54.08" r="0.87"/><circle class="cls-3" cx="35.23" cy="54.08" r="0.87"/><circle class="cls-3" cx="39.03" cy="54.08" r="0.87"/></g><g id="EPS_ICON" data-name="EPS ICON"><path class="cls-4" d="M43.74,16.55H26.87a2.54,2.54,0,0,0-2.54,2.54V35.24H46.27V19.09A2.54,2.54,0,0,0,43.74,16.55ZM27.81,18.78H26.54l0,1.25a.5.5,0,0,1-.5.5.5.5,0,0,1-.5-.5V18.76a1,1,0,0,1,1-1h1.27a.5.5,0,0,1,.5.5A.5.5,0,0,1,27.81,18.78ZM45.05,32.94a1,1,0,0,1-1,1H41.35a.5.5,0,0,1,0-1h2.71v-2.7a.5.5,0,0,1,.5-.5.5.5,0,0,1,.5.5Z"/><path class="cls-5" d="M48.27,36V19.09a4.53,4.53,0,0,0-4.53-4.54H26.87a4.54,4.54,0,0,0-4.54,4.54V36a4.53,4.53,0,0,0,4.54,4.53H43.74A4.53,4.53,0,0,0,48.27,36Zm-6.18,3.36a1.53,1.53,0,1,1,1.52-1.52A1.52,1.52,0,0,1,42.09,39.32Zm4.18-4.08H24.33V19.09a2.54,2.54,0,0,1,2.54-2.54H43.74a2.54,2.54,0,0,1,2.53,2.54Z"/><path class="cls-5" d="M44.55,29.73a.5.5,0,0,0-.5.5v2.7H41.35a.5.5,0,0,0,0,1h2.71a1,1,0,0,0,1-1V30.23A.5.5,0,0,0,44.55,29.73Z"/><path class="cls-5" d="M27.81,17.78H26.54a1,1,0,0,0-1,1V20a.5.5,0,0,0,.5.5.5.5,0,0,0,.5-.5l0-1.25h1.27a.5.5,0,0,0,.5-.5A.5.5,0,0,0,27.81,17.78Z"/><path class="cls-5" d="M49.68,37.76A.5.5,0,0,0,49,38a6,6,0,0,1-2.92,3.08.5.5,0,0,0-.23.67.48.48,0,0,0,.45.28.41.41,0,0,0,.21-.05A7,7,0,0,0,50,38.42.5.5,0,0,0,49.68,37.76Z"/><path class="cls-5" d="M20.67,18.28l.12,0a.51.51,0,0,0,.49-.38,6,6,0,0,1,5.86-4.6.5.5,0,0,0,.5-.5.51.51,0,0,0-.5-.5,7,7,0,0,0-6.83,5.36A.48.48,0,0,0,20.67,18.28Z"/><path class="cls-5" d="M21.1,23.61h-1V35.68a7.11,7.11,0,0,0,.51,2.62l.91-.42a6.15,6.15,0,0,1-.42-2.2Z"/><path class="cls-5" d="M21.54,39.93a7,7,0,0,0,.91,1l.68-.73a5.91,5.91,0,0,1-.8-.86Z"/><path class="cls-5" d="M24.49,41.1,24,42a7.1,7.1,0,0,0,3.15.75h8.3v-1h-8.3A6,6,0,0,1,24.49,41.1Z"/><path class="cls-5" d="M32.34,8.65,36,12.32H34.38v1h9.08a5.88,5.88,0,0,1,2.26.45c.14-.34.25-.58.4-.92a6.94,6.94,0,0,0-2.66-.53H38.69l3.67-3.67a1,1,0,0,0,1-1.75,1.05,1.05,0,0,0-1.5,0,1,1,0,0,0-.25,1l-4.31,4.31-4.3-4.31a1,1,0,0,0-1.75-1,1.07,1.07,0,0,0,0,1.5A1.06,1.06,0,0,0,32.34,8.65Z"/><path class="cls-5" d="M49.77,16.26l-.86.51a6.07,6.07,0,0,1,.59,2.59V31.47h1V19.36A7,7,0,0,0,49.77,16.26Z"/><path class="cls-5" d="M48.73,14.71a7.12,7.12,0,0,0-1-.92c-.22.3-.38.52-.6.8a6,6,0,0,1,.86.81Z"/></g></svg>