<?xml version="1.0" encoding="utf-8"?>
<!-- Generator: Adobe Illustrator 23.0.2, SVG Export Plug-In . SVG Version: 6.00 Build 0)  -->
<svg version="1.1" id="Layer_1" xmlns="http://www.w3.org/2000/svg" xmlns:xlink="http://www.w3.org/1999/xlink" x="0px" y="0px"
	 viewBox="0 0 36.1 36.1" style="enable-background:new 0 0 36.1 36.1;" xml:space="preserve">
<style type="text/css">
	.st0{display:none;fill:#B0B0B0;}
</style>
<title>Web_icons</title>
<g id="EPS_BACK">
	<circle class="st0" cx="13.7" cy="46.9" r="0.9"/>
	<circle class="st0" cx="17.5" cy="46.9" r="0.9"/>
	<circle class="st0" cx="21.3" cy="46.9" r="0.9"/>
</g>
<g id="EPS_ICON">
	<polygon points="10.2,34.3 11.9,34.2 12.5,32.8 11,32.2 	"/>
	<path d="M10.7,22.6l8.6,3.5l7.1-17.8l-8.6-3.5L10.7,22.6z M19.3,8.9c0.2-0.4,0.6-0.6,1-0.4l2,0.8c0.4,0.2,0.6,0.6,0.4,1L18,21.9
		c-0.1,0.4-0.6,0.6-1,0.4l0,0l-2-0.8c-0.4-0.2-0.6-0.6-0.4-1L19.3,8.9z"/>
	<path d="M9.4,26c-0.3,0.7,0.1,1.4,0.7,1.7l1.6,0.7l-0.8,2c-0.1,0.4,0,0.8,0.4,0.9l1.6,0.7c0.4,0.1,0.8,0,0.9-0.4l0,0l0.8-2l1.6,0.7
		c0.7,0.3,1.4-0.1,1.7-0.7l0.6-1.5l-8.6-3.5L9.4,26z"/>
	<path d="M25.7,5.3l-0.5-0.2l0.4-1c0.2-0.5,0-1.2-0.6-1.4l0,0l-2.1-0.9c-0.6-0.2-1.2,0-1.4,0.6l0,0l-0.4,1l-0.5-0.2
		c-0.8-0.3-1.7-0.1-2.2,0.6l8.5,3.4C26.9,6.5,26.5,5.6,25.7,5.3z"/>
	<path d="M15,8.1l-0.9-0.4L7.2,24.6L8.1,25L15,8.1z"/>
	<path d="M7.8,27l-1,0.2c0.1,0.6,0.3,1.1,0.7,1.6l0.9-0.5C8.1,27.9,7.9,27.4,7.8,27z"/>
	<path d="M28.9,5.2L28,5.7c0.2,0.5,0.3,1,0.3,1.4l1-0.1C29.3,6.4,29.2,5.8,28.9,5.2z"/>
	<path d="M27.8,9.1L22,23.5l0.9,0.4l5.8-14.4L27.8,9.1z"/>
	<rect x="14.8" y="5.3" transform="matrix(0.373 -0.9278 0.9278 0.373 4.2472 17.8859)" width="1.2" height="1"/>
	<rect x="21" y="25.4" transform="matrix(0.373 -0.9278 0.9278 0.373 -10.4956 36.2386)" width="1.2" height="1"/>
</g>
</svg>
