<?xml version="1.0" encoding="utf-8"?>
<!-- Generator: Adobe Illustrator 23.0.2, SVG Export Plug-In . SVG Version: 6.00 Build 0)  -->
<svg version="1.1" id="Layer_1" xmlns="http://www.w3.org/2000/svg" xmlns:xlink="http://www.w3.org/1999/xlink" x="0px" y="0px"
	 viewBox="0 0 68.6 50.2" style="enable-background:new 0 0 68.6 50.2;" xml:space="preserve">
<style type="text/css">
	.st0{fill:#FFFFFF;}
	.st1{fill:#3286B5;}
	.st2{fill:#7C8C8E;}
	.st3{display:none;fill:#B0B0B0;}
	.st4{fill:#193340;}
</style>
<title>Web_icons</title>
<g id="EPS_BACK">
	<circle class="st0" cx="34.3" cy="25.1" r="23.7"/>
	<path class="st1" d="M9.5,9.3H5.3C2.4,9.3,0,11.7,0,14.6v20.9c0,2.9,2.4,5.3,5.3,5.3h4.2C3.4,31.2,3.4,18.9,9.5,9.3L9.5,9.3z"/>
	<path class="st1" d="M63.3,9.3h-4.2c6.1,9.6,6.1,21.9,0,31.6h4.2c2.9,0,5.3-2.4,5.3-5.3v-21C68.5,11.7,66.2,9.4,63.3,9.3z"/>
	<path class="st2" d="M34.3,50.2c-13.9,0-25.1-11.2-25.1-25.1C9.2,11.2,20.4,0,34.3,0c13.9,0,25.1,11.2,25.1,25.1c0,0,0,0,0,0
		C59.4,38.9,48.1,50.1,34.3,50.2z M34.3,3c-12.2,0-22.1,9.9-22.1,22.1s9.9,22.1,22.1,22.1c12.2,0,22.1-9.9,22.1-22.1c0,0,0,0,0,0
		C56.4,12.9,46.5,3,34.3,3z"/>
	<circle class="st3" cx="30.5" cy="53.4" r="0.9"/>
	<circle class="st3" cx="34.3" cy="53.4" r="0.9"/>
	<circle class="st3" cx="38.1" cy="53.4" r="0.9"/>
</g>
<g id="EPS_ICON">
	<polygon class="st4" points="27,40.8 28.7,40.7 29.3,39.3 27.8,38.7 	"/>
	<path class="st4" d="M27.5,29.1l8.6,3.5l7.1-17.8l-8.6-3.5L27.5,29.1z M36.1,15.4c0.2-0.4,0.6-0.6,1-0.4l2,0.8
		c0.4,0.2,0.6,0.6,0.4,1l-4.7,11.6c-0.1,0.4-0.6,0.6-1,0.4c0,0,0,0,0,0l-2-0.8c-0.4-0.2-0.6-0.6-0.4-1L36.1,15.4z"/>
	<path class="st4" d="M26.2,32.5c-0.3,0.7,0.1,1.4,0.7,1.7l1.6,0.7l-0.8,2c-0.1,0.4,0,0.8,0.4,0.9l1.6,0.7c0.4,0.1,0.8,0,0.9-0.4
		c0,0,0,0,0,0l0.8-2l1.6,0.7c0.7,0.3,1.4-0.1,1.7-0.7l0.6-1.5l-8.6-3.5L26.2,32.5z"/>
	<path class="st4" d="M42.5,11.8L42,11.6l0.4-1c0.2-0.5,0-1.2-0.6-1.4c0,0,0,0,0,0l-2.1-0.9c-0.6-0.2-1.2,0-1.4,0.6c0,0,0,0,0,0
		l-0.4,1l-0.5-0.2c-0.8-0.3-1.7-0.1-2.2,0.6l8.5,3.4C43.7,13,43.3,12.1,42.5,11.8z"/>
	<path class="st4" d="M31.8,14.6l-0.9-0.4L24,31.1l0.9,0.4L31.8,14.6z"/>
	<path class="st4" d="M24.6,33.5l-1,0.2c0.1,0.6,0.3,1.1,0.7,1.6l0.9-0.5C24.9,34.4,24.7,33.9,24.6,33.5z"/>
	<path class="st4" d="M45.7,11.7l-0.9,0.5c0.2,0.5,0.3,1,0.3,1.4l1-0.1C46.1,12.9,46,12.3,45.7,11.7z"/>
	<path class="st4" d="M44.6,15.6L38.8,30l0.9,0.4L45.5,16L44.6,15.6z"/>
	<rect x="31.5" y="11.7" transform="matrix(0.373 -0.9278 0.9278 0.373 8.8583 37.488)" class="st4" width="1.2" height="1"/>
	<rect x="37.8" y="31.8" transform="matrix(0.373 -0.9278 0.9278 0.373 -5.9325 55.9205)" class="st4" width="1.2" height="1"/>
</g>
</svg>
