<svg xmlns="http://www.w3.org/2000/svg" xmlns:xlink="http://www.w3.org/1999/xlink" viewBox="0 0 657.5 423"><defs><style>.cls-1{fill:none;}.cls-2{isolation:isolate;}.cls-3{fill:#ad2426;}.cls-4{clip-path:url(#clip-path);}.cls-5{fill:#283576;}.cls-6{fill:#fff;}.cls-7{opacity:0.38;}.cls-7,.cls-9{mix-blend-mode:multiply;}.cls-8{fill:#3087b5;}.cls-9{opacity:0.19;}.cls-10{fill:#273675;}.cls-11{fill:#3087b6;}.cls-12{fill:#f58256;}</style><clipPath id="clip-path"><rect class="cls-1" x="368.84" y="25.44" width="259.57" height="356.15"/></clipPath></defs><title>comm_graphic_final</title><g class="cls-2"><g id="Layer_1_copy_2" data-name="Layer 1 copy 2"><path class="cls-3" d="M300,98.68a28.94,28.94,0,0,1-3.1,7l2.23,1.36a31.2,31.2,0,0,0,3.38-7.63q.27-.95.48-1.89L300.44,97C300.32,97.53,300.17,98.1,300,98.68Z"/><path class="cls-3" d="M212,80.47a28.37,28.37,0,0,1,3.64-7.78l-2.17-1.43a30.8,30.8,0,0,0-4,8.49c-.08.28-.16.55-.23.83l2.52.65C211.84,81,211.9,80.72,212,80.47Z"/><path class="cls-3" d="M291.33,66.77l1.79-1.9a43.9,43.9,0,0,0-5.46-4.34l-1.17,2.34A39.3,39.3,0,0,1,291.33,66.77Z"/><path class="cls-3" d="M225.73,62.73l-1.14-2.36A41,41,0,0,0,216,67.91l2,1.68A38.36,38.36,0,0,1,225.73,62.73Z"/><path class="cls-3" d="M292.68,73l1.5,4.54,7.13,3.58L304.88,74l-1.5-4.54-2.76,5.5a33.54,33.54,0,0,0-4.6-7l-2,1.68a31.5,31.5,0,0,1,4.07,6.08Z"/><path class="cls-3" d="M219.45,106.3l-1.51-4.53-7.12-3.58-3.58,7.12,1.51,4.54,2.7-5.39a34.13,34.13,0,0,0,3.85,6.06l2-1.63a31.59,31.59,0,0,1-3.44-5.36Z"/><path class="cls-3" d="M220,111.89l-1.85,1.84c.57.58,1.17,1.13,1.78,1.67l1.64-2C221.06,112.88,220.53,112.39,220,111.89Z"/><path class="cls-3" d="M296.67,110.55l-2-1.62a36.19,36.19,0,0,1-4.61,4.76l1.5,2.14A38.23,38.23,0,0,0,296.67,110.55Z"/><g class="cls-4"><circle class="cls-5" cx="368.86" cy="285.43" r="256.26"/><path class="cls-6" d="M368.86,82.33c112,0,203.1,91.11,203.1,203.1s-91.11,203.11-203.1,203.11S165.75,397.43,165.75,285.43s91.11-203.1,203.11-203.1m0-2.7c-113.48,0-205.81,92.32-205.81,205.8s92.33,205.81,205.81,205.81,205.8-92.33,205.8-205.81-92.32-205.8-205.8-205.8Z"/><g class="cls-7"><path class="cls-5" d="M368.86,79.63c113.48,0,205.8,92.32,205.8,205.8s-92.32,205.81-205.8,205.81S163.05,398.91,163.05,285.43s92.33-205.8,205.81-205.8m0-7.44c-117.59,0-213.25,95.66-213.25,213.24s95.66,213.25,213.25,213.25S582.1,403,582.1,285.43,486.44,72.19,368.86,72.19Z"/></g><g class="cls-7"><path class="cls-5" d="M368.86,189.29a96.14,96.14,0,1,1-96.14,96.14,96.25,96.25,0,0,1,96.14-96.14m0-10.62A106.77,106.77,0,1,0,475.62,285.43,106.89,106.89,0,0,0,368.86,178.67Z"/></g><path class="cls-6" d="M368.86,134.2c83.39,0,151.23,67.84,151.23,151.23S452.25,436.67,368.86,436.67,217.62,368.83,217.62,285.43,285.46,134.2,368.86,134.2m0-2.42c-84.73,0-153.65,68.93-153.65,153.65s68.92,153.65,153.65,153.65,153.65-68.92,153.65-153.65S453.58,131.78,368.86,131.78Z"/><path class="cls-8" d="M368.86,383.45a98,98,0,1,1,98-98A98.13,98.13,0,0,1,368.86,383.45Z"/><path class="cls-6" d="M368.86,189.29a96.14,96.14,0,1,1-96.14,96.14,96.25,96.25,0,0,1,96.14-96.14m0-3.75a99.9,99.9,0,1,0,99.89,99.89,100,100,0,0,0-99.89-99.89Z"/><g class="cls-9"><path class="cls-8" d="M368.86,204.17a81.27,81.27,0,1,1-81.26,81.26,81.35,81.35,0,0,1,81.26-81.26m0-14.88A96.14,96.14,0,1,0,465,285.43a96.24,96.24,0,0,0-96.14-96.14Z"/></g><g class="cls-7"><path class="cls-5" d="M368.86,131.78c84.72,0,153.65,68.93,153.65,153.65S453.58,439.08,368.86,439.08,215.21,370.16,215.21,285.43s68.92-153.65,153.65-153.65m0-7.44c-88.83,0-161.09,72.27-161.09,161.09S280,446.52,368.86,446.52,530,374.26,530,285.43,457.68,124.34,368.86,124.34Z"/></g></g><path class="cls-6" d="M384.69,284a7.16,7.16,0,0,1-2.76.46c-3.72,0-5.65-2.33-5.65-5.41,0-3.68,2.63-5.71,5.89-5.71a6.1,6.1,0,0,1,2.66.48l-.51,1.92a5.12,5.12,0,0,0-2.05-.4,3.55,3.55,0,0,0,0,7.09,5.8,5.8,0,0,0,2-.35Z"/><path class="cls-6" d="M386.17,272.89h2.43v11.37h-2.43Z"/><path class="cls-6" d="M397.09,282.37a9.77,9.77,0,0,0,.13,1.89H395l-.14-.79h-.05a2.79,2.79,0,0,1-2.24,1,2.4,2.4,0,0,1-2.53-2.4c0-2,1.83-3,4.59-3v-.1c0-.43-.22-1-1.42-1a4.39,4.39,0,0,0-2.16.59l-.45-1.57a6.48,6.48,0,0,1,3-.7c2.61,0,3.43,1.54,3.43,3.39Zm-2.36-1.81c-1.28,0-2.27.3-2.27,1.23a.87.87,0,0,0,1,.93,1.36,1.36,0,0,0,1.27-.89,1.93,1.93,0,0,0,0-.42Z"/><path class="cls-6" d="M399,282.15a4.81,4.81,0,0,0,2.1.57c.74,0,1-.24,1-.64s-.24-.61-1.13-.91c-1.64-.55-2.26-1.43-2.25-2.35,0-1.48,1.25-2.58,3.19-2.58a5.15,5.15,0,0,1,2.19.46l-.41,1.68a4,4,0,0,0-1.7-.44c-.59,0-.93.24-.93.62s.31.58,1.27.91c1.48.51,2.09,1.28,2.11,2.42,0,1.47-1.14,2.54-3.38,2.54a5.54,5.54,0,0,1-2.53-.56Z"/><path class="cls-6" d="M406,282.15a4.81,4.81,0,0,0,2.1.57c.73,0,1-.24,1-.64s-.24-.61-1.14-.91c-1.63-.55-2.26-1.43-2.24-2.35,0-1.48,1.25-2.58,3.18-2.58a5.16,5.16,0,0,1,2.2.46l-.42,1.68a3.93,3.93,0,0,0-1.7-.44c-.59,0-.92.24-.92.62s.3.58,1.26.91c1.49.51,2.1,1.28,2.11,2.42,0,1.47-1.13,2.54-3.37,2.54a5.51,5.51,0,0,1-2.53-.56Z"/><path class="cls-6" d="M412.91,279c0-1.15,0-1.91-.07-2.58h2.09l.09,1.44h.07a2.28,2.28,0,0,1,2.11-1.63,2.59,2.59,0,0,1,.51.05v2.29a3,3,0,0,0-.66-.07,1.56,1.56,0,0,0-1.66,1.23,3.12,3.12,0,0,0-.05.55v4h-2.43Z"/><path class="cls-6" d="M426.59,280.26a3.92,3.92,0,0,1-4.13,4.17,3.83,3.83,0,0,1-4-4,3.92,3.92,0,0,1,4.2-4.16A3.81,3.81,0,0,1,426.59,280.26Zm-5.66.08c0,1.34.56,2.35,1.6,2.35s1.55-.94,1.55-2.37c0-1.15-.45-2.34-1.55-2.34S420.93,279.18,420.93,280.34Z"/><path class="cls-6" d="M435.87,280.26a3.92,3.92,0,0,1-4.13,4.17,3.83,3.83,0,0,1-4.05-4,3.92,3.92,0,0,1,4.2-4.16A3.81,3.81,0,0,1,435.87,280.26Zm-5.66.08c0,1.34.56,2.35,1.6,2.35s1.55-.94,1.55-2.37c0-1.15-.45-2.34-1.55-2.34S430.21,279.18,430.21,280.34Z"/><path class="cls-6" d="M437.37,278.93c0-1,0-1.79-.06-2.5h2.06l.1,1.06h0a2.71,2.71,0,0,1,2.37-1.25,2.21,2.21,0,0,1,2.14,1.34h0a3.58,3.58,0,0,1,1-1,3,3,0,0,1,1.49-.38c1.5,0,2.64,1.06,2.64,3.41v4.61h-2.37V280c0-1.14-.37-1.79-1.15-1.79a1.21,1.21,0,0,0-1.14.85,2.39,2.39,0,0,0-.08.62v4.58h-2.37v-4.4c0-1-.35-1.65-1.14-1.65a1.24,1.24,0,0,0-1.13.86,1.67,1.67,0,0,0-.1.63v4.56h-2.37Z"/><path class="cls-6" d="M433.59,66.45A6.18,6.18,0,0,0,435.91,68c1,.38,1.77.14,2-.52s-.12-1.17-1.19-2c-1.48-1.2-2.26-2.54-1.73-4,.62-1.74,2.55-2.53,4.93-1.68a6.4,6.4,0,0,1,2.41,1.44l-1.17,1.66a5,5,0,0,0-1.94-1.24c-1-.35-1.64-.06-1.83.45s.23,1.14,1.38,2.11c1.56,1.3,2.05,2.53,1.54,4-.61,1.7-2.42,2.68-5.21,1.69a7.11,7.11,0,0,1-2.65-1.66Z"/><path class="cls-6" d="M446.56,63.19l-.71,2,1.64.59-.6,1.68-1.65-.58-.95,2.67c-.31.89-.23,1.37.45,1.62a3.07,3.07,0,0,0,.69.18l-.6,1.74a5.5,5.5,0,0,1-1.55-.33,2.6,2.6,0,0,1-1.5-1.26,3.22,3.22,0,0,1,.14-2.41l1.08-3-1-.35.6-1.69,1,.35.49-1.37Z"/><path class="cls-6" d="M453,74a10.36,10.36,0,0,0-.52,1.82l-2.06-.73.12-.79,0,0a2.77,2.77,0,0,1-2.43.15,2.39,2.39,0,0,1-1.58-3.11c.68-1.91,2.72-2.2,5.33-1.27l0-.09c.15-.41.14-1-1-1.45a4.41,4.41,0,0,0-2.24-.17l.11-1.62a6.34,6.34,0,0,1,3.1.36c2.46.87,2.71,2.59,2.09,4.34Zm-1.61-2.49c-1.21-.43-2.25-.48-2.56.39a.87.87,0,0,0,.6,1.2,1.35,1.35,0,0,0,1.49-.42,1.91,1.91,0,0,0,.18-.38Z"/><path class="cls-6" d="M459.92,68l-.71,2,1.65.58-.6,1.69-1.65-.58-.95,2.66c-.32.89-.24,1.38.44,1.62a2.77,2.77,0,0,0,.7.18l-.6,1.74a4.87,4.87,0,0,1-1.55-.33,2.61,2.61,0,0,1-1.51-1.25,3.28,3.28,0,0,1,.15-2.41l1.08-3-1-.35.6-1.68,1,.35.49-1.38Z"/><path class="cls-6" d="M462.3,76c-.28,1,.51,1.76,1.58,2.14a6.41,6.41,0,0,0,2.14.41l-.25,1.66a7.25,7.25,0,0,1-2.83-.49c-2.51-.89-3.42-2.85-2.6-5.15A3.93,3.93,0,0,1,465.47,72c2.38.85,2.62,3,2,4.85a7.79,7.79,0,0,1-.39.88Zm3.25-.61a1.42,1.42,0,0,0-.76-2,1.62,1.62,0,0,0-2,1Z"/><path class="cls-6" d="M411.81,106.67a20.83,20.83,0,0,1,3.17.87,7,7,0,0,1,3.79,2.58,4.79,4.79,0,0,1,.35,4.44,5.53,5.53,0,0,1-3.14,3.52,7.78,7.78,0,0,1-5.17-.37,18.7,18.7,0,0,1-2.55-1.08Zm-.66,9.09a4.46,4.46,0,0,0,.78.33c2.09.76,3.87.11,4.74-2.32a3.12,3.12,0,0,0-2.08-4.38,5.44,5.44,0,0,0-1.07-.28Z"/><path class="cls-6" d="M418.71,120.41l2.63-7.37,2.29.82L421,121.23Zm5.73-8.58a1.22,1.22,0,0,1-1.65.71,1.22,1.22,0,1,1,1.65-.71Z"/><path class="cls-6" d="M423.54,119.89a4.79,4.79,0,0,0,1.78,1.25c.69.24,1.06.12,1.19-.26s0-.65-.76-1.24c-1.36-1.06-1.65-2.1-1.32-3,.49-1.38,2-2,3.86-1.36a5.14,5.14,0,0,1,1.91,1.18l-.95,1.44a3.91,3.91,0,0,0-1.45-1c-.56-.2-.95-.09-1.08.28s.09.64.88,1.28c1.23,1,1.55,1.91,1.18,3-.5,1.39-1.93,2-4,1.27a5.62,5.62,0,0,1-2.19-1.38Z"/><path class="cls-6" d="M435.28,115.77l-.71,2,1.65.58-.6,1.69-1.65-.58-1,2.66c-.32.89-.24,1.38.44,1.62a2.4,2.4,0,0,0,.7.18l-.6,1.74a4.87,4.87,0,0,1-1.55-.33,2.61,2.61,0,0,1-1.51-1.25,3.28,3.28,0,0,1,.15-2.41l1.07-3-1-.35.6-1.69,1,.35.49-1.38Z"/><path class="cls-6" d="M436.68,121.24c.38-1.08.62-1.8.8-2.45l2,.7-.39,1.39.06,0a2.29,2.29,0,0,1,2.54-.83,2.48,2.48,0,0,1,.46.22l-.77,2.16a3.27,3.27,0,0,0-.59-.28,1.57,1.57,0,0,0-2,.6,2.59,2.59,0,0,0-.22.5L437.2,127l-2.29-.81Z"/><path class="cls-6" d="M440.64,128.23l2.63-7.37,2.29.81-2.63,7.38Zm5.73-8.58a1.23,1.23,0,0,1-1.65.71,1.2,1.2,0,0,1-.78-1.57,1.29,1.29,0,0,1,2.43.86Z"/><path class="cls-6" d="M450.37,131.48a5.58,5.58,0,0,1-2.17-.38,3.81,3.81,0,0,1-2.56-5.17c.77-2.15,2.87-3.39,5.62-2.41a5.5,5.5,0,0,1,1.64.91l-1,1.57a3.47,3.47,0,0,0-1.2-.68,2,2,0,0,0-2.71,1.36,2,2,0,0,0,1.29,2.79,3.39,3.39,0,0,0,1.39.22Z"/><path class="cls-6" d="M457.71,123.76l-.71,2,1.64.59L458,128l-1.65-.59-.95,2.67c-.31.89-.23,1.38.45,1.62a3,3,0,0,0,.7.18l-.61,1.74a5.06,5.06,0,0,1-1.54-.33,2.58,2.58,0,0,1-1.51-1.25,3.22,3.22,0,0,1,.14-2.41l1.08-3-1-.35.6-1.69,1,.35.49-1.37Z"/><path class="cls-6" d="M392.21,165.4a6.32,6.32,0,0,0,2.28,1.61c1,.41,1.76.19,2-.47s-.09-1.17-1.14-2.06c-1.44-1.25-2.18-2.6-1.61-4.06.67-1.72,2.62-2.45,5-1.53a6.32,6.32,0,0,1,2.37,1.51L399.89,162a5,5,0,0,0-1.9-1.29c-1-.39-1.64-.11-1.84.4s.19,1.14,1.31,2.14c1.52,1.35,2,2.59,1.42,4-.65,1.69-2.5,2.62-5.25,1.54a7.06,7.06,0,0,1-2.61-1.74Z"/><path class="cls-6" d="M404.85,172.81a5.82,5.82,0,0,1-2.16-.45,3.81,3.81,0,0,1-2.41-5.24c.83-2.13,3-3.3,5.69-2.25a5.93,5.93,0,0,1,1.62,1l-1,1.55a3.16,3.16,0,0,0-1.18-.72,2,2,0,0,0-2.75,1.28,2,2,0,0,0,1.2,2.82,3.36,3.36,0,0,0,1.39.27Z"/><path class="cls-6" d="M410.16,162.9l2.26.88L410.79,168h0a2.75,2.75,0,0,1,2.48-.23c1.45.56,2.16,2,1.3,4.2l-1.66,4.25-2.26-.89,1.56-4c.37-.95.3-1.74-.55-2.07a1.3,1.3,0,0,0-1.45.36,1.43,1.43,0,0,0-.26.47l-1.69,4.32-2.27-.88Z"/><path class="cls-6" d="M423.41,176a3.92,3.92,0,0,1-5.36,2.39,3.84,3.84,0,0,1-2.31-5.23,3.92,3.92,0,0,1,5.42-2.35A3.8,3.8,0,0,1,423.41,176Zm-5.3-2c-.49,1.26-.34,2.4.63,2.78s1.79-.32,2.31-1.64c.42-1.08.43-2.34-.6-2.75S418.53,172.92,418.11,174Z"/><path class="cls-6" d="M432.06,179.36a3.92,3.92,0,0,1-5.37,2.38,3.83,3.83,0,0,1-2.3-5.23,3.91,3.91,0,0,1,5.42-2.35A3.82,3.82,0,0,1,432.06,179.36Zm-5.31-2c-.49,1.25-.33,2.39.64,2.77s1.79-.31,2.3-1.64c.42-1.07.44-2.34-.59-2.74S427.17,176.3,426.75,177.37Z"/><path class="cls-6" d="M436.14,173l2.26.89-4.13,10.58-2.27-.88Z"/><path class="cls-3" d="M300,237.68a28.94,28.94,0,0,1-3.1,7l2.23,1.36a31.2,31.2,0,0,0,3.38-7.63q.27-.94.48-1.89l-2.56-.55C300.32,236.53,300.17,237.1,300,237.68Z"/><path class="cls-3" d="M212,219.47a28.37,28.37,0,0,1,3.64-7.78l-2.17-1.43a30.8,30.8,0,0,0-4,8.49c-.08.28-.16.55-.23.83l2.52.65C211.84,220,211.9,219.72,212,219.47Z"/><path class="cls-3" d="M291.33,205.77l1.79-1.9a43.9,43.9,0,0,0-5.46-4.34l-1.17,2.34A39.3,39.3,0,0,1,291.33,205.77Z"/><path class="cls-3" d="M225.73,201.73l-1.14-2.36a41,41,0,0,0-8.61,7.54l2,1.68A38.36,38.36,0,0,1,225.73,201.73Z"/><path class="cls-3" d="M292.68,212l1.5,4.54,7.13,3.58,3.57-7.13-1.5-4.54-2.76,5.5a33.54,33.54,0,0,0-4.6-7l-2,1.68a31.5,31.5,0,0,1,4.07,6.08Z"/><path class="cls-3" d="M219.45,245.3l-1.51-4.53-7.12-3.58-3.58,7.12,1.51,4.54,2.7-5.39a34.13,34.13,0,0,0,3.85,6.06l2-1.63a31.59,31.59,0,0,1-3.44-5.36Z"/><path class="cls-3" d="M220,250.89l-1.85,1.84c.57.58,1.17,1.13,1.78,1.67l1.64-2C221.06,251.88,220.53,251.39,220,250.89Z"/><path class="cls-3" d="M296.67,249.55l-2-1.62a36.19,36.19,0,0,1-4.61,4.76l1.5,2.14A38.23,38.23,0,0,0,296.67,249.55Z"/><path class="cls-3" d="M300,351.68a28.94,28.94,0,0,1-3.1,7l2.23,1.36a31.2,31.2,0,0,0,3.38-7.63q.27-.94.48-1.89l-2.56-.55C300.32,350.53,300.17,351.1,300,351.68Z"/><path class="cls-3" d="M212,333.47a28.37,28.37,0,0,1,3.64-7.78l-2.17-1.43a30.8,30.8,0,0,0-4,8.49c-.08.28-.16.55-.23.83l2.52.65C211.84,334,211.9,333.72,212,333.47Z"/><path class="cls-3" d="M291.33,319.77l1.79-1.9a43.9,43.9,0,0,0-5.46-4.34l-1.17,2.34A39.3,39.3,0,0,1,291.33,319.77Z"/><path class="cls-3" d="M225.73,315.73l-1.14-2.36a41,41,0,0,0-8.61,7.54l2,1.68A38.36,38.36,0,0,1,225.73,315.73Z"/><path class="cls-3" d="M292.68,326l1.5,4.54,7.13,3.58,3.57-7.13-1.5-4.54-2.76,5.5a33.54,33.54,0,0,0-4.6-7l-2,1.68a31.5,31.5,0,0,1,4.07,6.08Z"/><path class="cls-3" d="M219.45,359.3l-1.51-4.53-7.12-3.58-3.58,7.12,1.51,4.54,2.7-5.39a34.13,34.13,0,0,0,3.85,6.06l2-1.63a31.59,31.59,0,0,1-3.44-5.36Z"/><path class="cls-3" d="M220,364.89l-1.85,1.84c.57.58,1.17,1.13,1.78,1.67l1.64-2C221.06,365.88,220.53,365.39,220,364.89Z"/><path class="cls-3" d="M296.67,363.55l-2-1.62a36.19,36.19,0,0,1-4.61,4.76l1.5,2.14A38.23,38.23,0,0,0,296.67,363.55Z"/><path class="cls-10" d="M356.2,89,333.4,75.84V83H176.72V74.25a12.5,12.5,0,0,0-12.48-12.48H78.7A12.5,12.5,0,0,0,66.22,74.25v29.52A12.5,12.5,0,0,0,78.7,116.25h85.54a12.5,12.5,0,0,0,12.48-12.48V95H333.4v7.16Z"/><path class="cls-6" d="M75.72,73.3H78v8.19h4v1.92h-6.3Z"/><path class="cls-6" d="M84.92,80.47c.06.94,1,1.39,2.07,1.39a6,6,0,0,0,2-.31l.3,1.54a6.81,6.81,0,0,1-2.65.47c-2.49,0-3.91-1.44-3.91-3.74a3.67,3.67,0,0,1,3.7-3.91c2.37,0,3.27,1.84,3.27,3.66a4.45,4.45,0,0,1-.08.9Zm2.68-1.56a1.32,1.32,0,0,0-1.29-1.49,1.5,1.5,0,0,0-1.4,1.49Z"/><path class="cls-6" d="M97.19,81.64a9.54,9.54,0,0,0,.12,1.77h-2l-.14-.74h0a2.63,2.63,0,0,1-2.11.9,2.25,2.25,0,0,1-2.37-2.25c0-1.9,1.71-2.8,4.31-2.8v-.09c0-.41-.21-1-1.33-1a4.14,4.14,0,0,0-2,.55l-.42-1.47A6.07,6.07,0,0,1,94,75.89c2.45,0,3.21,1.44,3.21,3.18ZM95,79.94c-1.19,0-2.13.29-2.13,1.16a.83.83,0,0,0,.91.87,1.27,1.27,0,0,0,1.18-.84,1.67,1.67,0,0,0,0-.39Z"/><path class="cls-6" d="M106.11,72.76v8.46c0,.82,0,1.69.07,2.19h-2l-.09-1.07h0a2.55,2.55,0,0,1-2.29,1.23c-1.74,0-3.13-1.48-3.13-3.76,0-2.48,1.53-3.92,3.28-3.92a2.27,2.27,0,0,1,1.94.83h0v-4Zm-2.27,6.42a2,2,0,0,0,0-.42,1.38,1.38,0,0,0-1.34-1.11c-1,0-1.58.93-1.58,2.08s.62,2,1.57,2a1.36,1.36,0,0,0,1.33-1.1,2.87,2.87,0,0,0,0-.52Z"/><path class="cls-6" d="M109.7,80.47c.06.94,1,1.39,2.07,1.39a6,6,0,0,0,2-.31l.3,1.54a6.81,6.81,0,0,1-2.65.47c-2.49,0-3.92-1.44-3.92-3.74a3.67,3.67,0,0,1,3.71-3.91c2.37,0,3.27,1.84,3.27,3.66a5.34,5.34,0,0,1-.08.9Zm2.68-1.56a1.33,1.33,0,0,0-1.29-1.49,1.51,1.51,0,0,0-1.41,1.49Z"/><path class="cls-6" d="M115.86,78.49c0-1.08,0-1.79-.06-2.42h2l.09,1.35h.06a2.14,2.14,0,0,1,2-1.53,2.21,2.21,0,0,1,.48,0v2.14a3.4,3.4,0,0,0-.61-.06,1.47,1.47,0,0,0-1.56,1.16,2.67,2.67,0,0,0,0,.51v3.72h-2.28Z"/><path class="cls-6" d="M121.55,81.43a4.52,4.52,0,0,0,2,.54c.69,0,1-.23,1-.6s-.23-.57-1.07-.86c-1.53-.51-2.11-1.33-2.1-2.2,0-1.38,1.17-2.42,3-2.42a4.73,4.73,0,0,1,2,.44L126,77.9a3.64,3.64,0,0,0-1.59-.42c-.55,0-.87.23-.87.59s.29.54,1.19.85c1.39.48,2,1.2,2,2.27,0,1.38-1.07,2.38-3.17,2.38a5.23,5.23,0,0,1-2.37-.52Z"/><path class="cls-6" d="M128.07,72.76h2.28V77h0a2.47,2.47,0,0,1,.9-.77,2.64,2.64,0,0,1,1.19-.28c1.45,0,2.56,1,2.56,3.22v4.28h-2.28v-4c0-1-.33-1.62-1.18-1.62a1.2,1.2,0,0,0-1.14.81,1.35,1.35,0,0,0-.08.5v4.35h-2.28Z"/><path class="cls-6" d="M139.22,74A1.14,1.14,0,0,1,138,75.17,1.14,1.14,0,1,1,139.22,74Zm-2.36,9.38V76.07h2.28v7.34Z"/><path class="cls-6" d="M141,78.53c0-1,0-1.77-.06-2.46h2l.11,1h0a2.86,2.86,0,0,1,2.44-1.18c1.61,0,3.05,1.39,3.05,3.73,0,2.67-1.7,3.93-3.33,3.93a2.28,2.28,0,0,1-1.91-.84h0v3.65H141Zm2.28,1.73a2.36,2.36,0,0,0,.05.48,1.38,1.38,0,0,0,1.33,1.08c1,0,1.58-.83,1.58-2.07s-.53-2.06-1.55-2.06a1.43,1.43,0,0,0-1.36,1.16,1.75,1.75,0,0,0-.05.4Z"/><path class="cls-6" d="M75.71,91.45a19.43,19.43,0,0,1,3.07-.23,6.59,6.59,0,0,1,4.16,1.08,4.48,4.48,0,0,1,1.71,3.81,5.18,5.18,0,0,1-1.67,4.1,7.31,7.31,0,0,1-4.67,1.3,18.75,18.75,0,0,1-2.6-.15ZM78,99.68a3.79,3.79,0,0,0,.79,0c2.09,0,3.45-1.13,3.45-3.54A2.92,2.92,0,0,0,79,93a4.49,4.49,0,0,0-1,.09Z"/><path class="cls-6" d="M87.83,98.47c.06.94,1,1.39,2.07,1.39a6.1,6.1,0,0,0,2-.31l.29,1.54a6.81,6.81,0,0,1-2.65.47c-2.49,0-3.91-1.44-3.91-3.74a3.67,3.67,0,0,1,3.7-3.91c2.37,0,3.27,1.84,3.27,3.66a5.6,5.6,0,0,1-.07.9Zm2.68-1.56a1.32,1.32,0,0,0-1.29-1.49,1.5,1.5,0,0,0-1.4,1.49Z"/><path class="cls-6" d="M95.6,94.07l1,3.41c.18.63.3,1.2.42,1.78h0c.12-.6.24-1.15.4-1.78l1-3.41h2.4l-2.73,7.34H95.8l-2.67-7.34Z"/><path class="cls-6" d="M103.39,98.47c.06.94,1,1.39,2.07,1.39a6,6,0,0,0,2-.31l.3,1.54a6.81,6.81,0,0,1-2.65.47c-2.49,0-3.92-1.44-3.92-3.74a3.67,3.67,0,0,1,3.71-3.91c2.37,0,3.27,1.84,3.27,3.66a5.34,5.34,0,0,1-.08.9Zm2.68-1.56a1.33,1.33,0,0,0-1.29-1.49,1.51,1.51,0,0,0-1.41,1.49Z"/><path class="cls-6" d="M109.55,90.76h2.28v10.65h-2.28Z"/><path class="cls-6" d="M120.92,97.66a3.68,3.68,0,0,1-3.87,3.91,3.59,3.59,0,0,1-3.79-3.78,3.67,3.67,0,0,1,3.93-3.9A3.57,3.57,0,0,1,120.92,97.66Zm-5.31.07c0,1.26.53,2.21,1.5,2.21s1.46-.89,1.46-2.22c0-1.08-.42-2.19-1.46-2.19S115.61,96.65,115.61,97.73Z"/><path class="cls-6" d="M122.33,96.53c0-1,0-1.77-.06-2.46h2l.1,1h0a2.84,2.84,0,0,1,2.44-1.18c1.6,0,3,1.39,3,3.73,0,2.67-1.7,3.93-3.33,3.93a2.28,2.28,0,0,1-1.91-.84h0v3.65h-2.28Zm2.28,1.73a2.36,2.36,0,0,0,0,.48A1.38,1.38,0,0,0,126,99.82c1,0,1.57-.83,1.57-2.07S127,95.69,126,95.69a1.43,1.43,0,0,0-1.36,1.16,1.75,1.75,0,0,0,0,.4Z"/><path class="cls-6" d="M131.3,96.41c0-.91,0-1.68-.06-2.34h1.94l.09,1h0a2.55,2.55,0,0,1,2.22-1.17,2.08,2.08,0,0,1,2,1.26h0a3.25,3.25,0,0,1,1-.9,2.88,2.88,0,0,1,1.4-.36c1.41,0,2.47,1,2.47,3.2v4.32h-2.22v-4c0-1.07-.34-1.68-1.08-1.68a1.13,1.13,0,0,0-1.06.79,2.21,2.21,0,0,0-.08.59v4.29h-2.22V97.28c0-.91-.33-1.54-1.06-1.54a1.17,1.17,0,0,0-1.07.81,1.64,1.64,0,0,0-.09.58v4.28H131.3Z"/><path class="cls-6" d="M146,98.47c.06.94,1,1.39,2.07,1.39a6.1,6.1,0,0,0,2-.31l.3,1.54a6.87,6.87,0,0,1-2.66.47c-2.49,0-3.91-1.44-3.91-3.74a3.67,3.67,0,0,1,3.7-3.91c2.37,0,3.27,1.84,3.27,3.66a5.6,5.6,0,0,1-.07.9Zm2.69-1.56a1.33,1.33,0,0,0-1.29-1.49,1.51,1.51,0,0,0-1.41,1.49Z"/><path class="cls-6" d="M152.12,96.41c0-.91,0-1.68-.06-2.34h2l.1,1h.05a2.62,2.62,0,0,1,2.26-1.18c1.5,0,2.63,1,2.63,3.16v4.34H156.8V97.34c0-.94-.33-1.59-1.16-1.59a1.26,1.26,0,0,0-1.17.86,1.65,1.65,0,0,0-.07.57v4.23h-2.28Z"/><path class="cls-6" d="M163.37,92.09v2H165v1.68h-1.63v2.66c0,.88.22,1.29.9,1.29a3.07,3.07,0,0,0,.67-.06l0,1.72a4.64,4.64,0,0,1-1.47.2,2.47,2.47,0,0,1-1.73-.63,3.1,3.1,0,0,1-.63-2.18v-3h-1V94.07h1V92.71Z"/><path class="cls-11" d="M334.2,336.15H176.72v-8.77a13.24,13.24,0,0,0-13.23-13.22H78a13.24,13.24,0,0,0-13.23,13.22v29.53A13.25,13.25,0,0,0,78,370.14h85.54a13.25,13.25,0,0,0,13.23-13.23v-8.76H334.2v7.16L357,342.15,334.2,329Z"/><path class="cls-11" d="M79.42,262.43H162a14.73,14.73,0,0,0,14.71-14.71V234H334.2v7.16L357,228l-22.8-13.17V222H176.72V208.23A14.72,14.72,0,0,0,162,193.53H79.42a14.72,14.72,0,0,0-14.7,14.7v39.49A14.73,14.73,0,0,0,79.42,262.43Z"/><path class="cls-6" d="M77.68,205.37H74.94v-1.92h7.78v1.92H80v8.19H77.68Z"/><path class="cls-6" d="M84.39,210.62c.06.95,1,1.4,2.08,1.4a6.07,6.07,0,0,0,2-.32l.3,1.55a7,7,0,0,1-2.65.46c-2.5,0-3.92-1.44-3.92-3.73a3.68,3.68,0,0,1,3.71-3.92c2.36,0,3.26,1.85,3.26,3.66a5.5,5.5,0,0,1-.07.9Zm2.69-1.56a1.32,1.32,0,0,0-1.29-1.48,1.5,1.5,0,0,0-1.41,1.48Z"/><path class="cls-6" d="M96.66,211.79a9.47,9.47,0,0,0,.12,1.77h-2l-.13-.73h0a2.66,2.66,0,0,1-2.1.9,2.25,2.25,0,0,1-2.37-2.25c0-1.91,1.71-2.81,4.31-2.81v-.09c0-.4-.21-1-1.34-1a4.18,4.18,0,0,0-2,.56l-.42-1.47a6,6,0,0,1,2.85-.66c2.45,0,3.21,1.44,3.21,3.18Zm-2.2-1.69c-1.2,0-2.13.28-2.13,1.15a.82.82,0,0,0,.9.87,1.25,1.25,0,0,0,1.18-.84,1.6,1.6,0,0,0,0-.39Z"/><path class="cls-6" d="M104,213.37a5.31,5.31,0,0,1-2,.34A3.56,3.56,0,0,1,98.06,210c0-2.14,1.47-3.9,4.2-3.9a5.29,5.29,0,0,1,1.74.29l-.36,1.69a3.16,3.16,0,0,0-1.28-.22,1.89,1.89,0,0,0-2,2.05,1.92,1.92,0,0,0,2,2.06,3.17,3.17,0,0,0,1.3-.24Z"/><path class="cls-6" d="M105.24,202.91h2.28v4.2h0a2.44,2.44,0,0,1,.9-.76,2.65,2.65,0,0,1,1.19-.29c1.45,0,2.56,1,2.56,3.23v4.27h-2.28v-4c0-1-.33-1.62-1.18-1.62a1.2,1.2,0,0,0-1.14.81,1.29,1.29,0,0,0-.08.49v4.35h-2.28Z"/><path class="cls-6" d="M115.79,210.62c.06.95,1,1.4,2.07,1.4a6,6,0,0,0,2-.32l.3,1.55a7,7,0,0,1-2.65.46c-2.49,0-3.92-1.44-3.92-3.73a3.68,3.68,0,0,1,3.71-3.92c2.37,0,3.27,1.85,3.27,3.66a5.23,5.23,0,0,1-.08.9Zm2.68-1.56a1.32,1.32,0,0,0-1.29-1.48,1.5,1.5,0,0,0-1.41,1.48Z"/><path class="cls-6" d="M122,208.64c0-1.08,0-1.78-.06-2.41h2l.09,1.35H124a2.14,2.14,0,0,1,2-1.53,2.27,2.27,0,0,1,.48,0v2.15a3.4,3.4,0,0,0-.61-.06,1.47,1.47,0,0,0-1.56,1.15,2.67,2.67,0,0,0,0,.51v3.72H122Z"/><path class="cls-6" d="M75.71,221.59a18.71,18.71,0,0,1,3.09-.21,4.84,4.84,0,0,1,3.09.81A2.91,2.91,0,0,1,83,224.53a3.18,3.18,0,0,1-.93,2.4A4.76,4.76,0,0,1,78.76,228a3.62,3.62,0,0,1-.79-.06v3.63H75.71ZM78,226.18a3.79,3.79,0,0,0,.77.06c1.21,0,2-.62,2-1.64s-.64-1.48-1.8-1.48a4.54,4.54,0,0,0-.93.07Z"/><path class="cls-6" d="M84.22,226.64c0-1.08,0-1.78-.07-2.41H86.1l.09,1.35h.07a2.12,2.12,0,0,1,2-1.53,2.43,2.43,0,0,1,.49,0v2.15a3.62,3.62,0,0,0-.62-.06,1.47,1.47,0,0,0-1.56,1.15,2.71,2.71,0,0,0,0,.51v3.72H84.22Z"/><path class="cls-6" d="M97,227.81a3.68,3.68,0,0,1-3.87,3.92A3.59,3.59,0,0,1,89.38,228a3.66,3.66,0,0,1,3.93-3.9A3.56,3.56,0,0,1,97,227.81Zm-5.31.08c0,1.26.53,2.2,1.5,2.2s1.45-.88,1.45-2.22c0-1.08-.42-2.19-1.45-2.19S91.73,226.81,91.73,227.89Z"/><path class="cls-6" d="M98.72,231.56v-5.65h-1v-1.68h1v-.29a3.38,3.38,0,0,1,.92-2.46,3,3,0,0,1,2-.73,4.82,4.82,0,0,1,1.2.15l-.09,1.75a2.54,2.54,0,0,0-.74-.1c-.75,0-1.06.58-1.06,1.3v.38h1.47v1.68H101v5.65Z"/><path class="cls-6" d="M105.17,228.62c.06.95,1,1.4,2.07,1.4a6.09,6.09,0,0,0,2-.32l.3,1.55a7.06,7.06,0,0,1-2.66.46c-2.49,0-3.91-1.44-3.91-3.73a3.67,3.67,0,0,1,3.7-3.92c2.37,0,3.27,1.85,3.27,3.66a5.5,5.5,0,0,1-.07.9Zm2.69-1.56a1.32,1.32,0,0,0-1.29-1.48,1.5,1.5,0,0,0-1.41,1.48Z"/><path class="cls-6" d="M111.32,229.58a4.39,4.39,0,0,0,2,.54c.69,0,1-.22,1-.6s-.22-.57-1.06-.85c-1.53-.51-2.12-1.34-2.1-2.21,0-1.38,1.17-2.41,3-2.41a4.91,4.91,0,0,1,2.06.43l-.39,1.58a3.68,3.68,0,0,0-1.59-.42c-.56,0-.87.22-.87.58s.28.54,1.18.86c1.4.48,2,1.2,2,2.26,0,1.38-1.06,2.39-3.16,2.39a5.16,5.16,0,0,1-2.37-.53Z"/><path class="cls-6" d="M117.83,229.58a4.39,4.39,0,0,0,2,.54c.69,0,1-.22,1-.6s-.22-.57-1.06-.85c-1.53-.51-2.12-1.34-2.1-2.21,0-1.38,1.17-2.41,3-2.41a4.91,4.91,0,0,1,2.06.43l-.39,1.58a3.68,3.68,0,0,0-1.59-.42c-.56,0-.87.22-.87.58s.28.54,1.18.86c1.4.48,2,1.2,2,2.26,0,1.38-1.06,2.39-3.16,2.39a5.16,5.16,0,0,1-2.37-.53Z"/><path class="cls-6" d="M126.71,222.19a1.13,1.13,0,0,1-1.23,1.14,1.14,1.14,0,1,1,1.23-1.14Zm-2.35,9.37v-7.33h2.28v7.33Z"/><path class="cls-6" d="M135.71,227.81a3.68,3.68,0,0,1-3.87,3.92,3.59,3.59,0,0,1-3.79-3.78,3.66,3.66,0,0,1,3.92-3.9A3.56,3.56,0,0,1,135.71,227.81Zm-5.31.08c0,1.26.53,2.2,1.5,2.2s1.45-.88,1.45-2.22c0-1.08-.42-2.19-1.45-2.19S130.4,226.81,130.4,227.89Z"/><path class="cls-6" d="M137.12,226.57c0-.92,0-1.68-.06-2.34h2l.1,1h.05a2.63,2.63,0,0,1,2.27-1.19c1.5,0,2.62,1,2.62,3.17v4.33H141.8V227.5c0-.95-.33-1.59-1.16-1.59a1.25,1.25,0,0,0-1.17.85,1.93,1.93,0,0,0-.07.57v4.23h-2.28Z"/><path class="cls-6" d="M152,229.79a9.35,9.35,0,0,0,.13,1.77h-2.06l-.13-.73h0a2.66,2.66,0,0,1-2.1.9,2.25,2.25,0,0,1-2.37-2.25c0-1.91,1.71-2.81,4.31-2.81v-.09c0-.4-.21-1-1.34-1a4.11,4.11,0,0,0-2,.56l-.42-1.47a6,6,0,0,1,2.85-.66c2.44,0,3.2,1.44,3.2,3.18Zm-2.2-1.69c-1.2,0-2.13.28-2.13,1.15a.82.82,0,0,0,.9.87,1.18,1.18,0,0,0,1.23-1.23Z"/><path class="cls-6" d="M153.83,220.91h2.28v10.65h-2.28Z"/><path class="cls-6" d="M75.72,239.45H78v8.19h4v1.92h-6.3Z"/><path class="cls-6" d="M84.92,246.62c.06.95,1,1.4,2.07,1.4a6,6,0,0,0,2-.32l.3,1.55a7,7,0,0,1-2.65.46c-2.49,0-3.91-1.44-3.91-3.73a3.67,3.67,0,0,1,3.7-3.92c2.37,0,3.27,1.85,3.27,3.66a4.37,4.37,0,0,1-.08.9Zm2.68-1.56a1.32,1.32,0,0,0-1.29-1.48,1.49,1.49,0,0,0-1.4,1.48Z"/><path class="cls-6" d="M97.19,247.79a9.47,9.47,0,0,0,.12,1.77h-2l-.14-.73h0a2.67,2.67,0,0,1-2.11.9,2.25,2.25,0,0,1-2.37-2.25c0-1.91,1.71-2.81,4.31-2.81v-.09c0-.4-.21-1-1.33-1a4.15,4.15,0,0,0-2,.56l-.42-1.47a6,6,0,0,1,2.85-.66c2.45,0,3.21,1.44,3.21,3.18ZM95,246.1c-1.19,0-2.13.28-2.13,1.15a.82.82,0,0,0,.91.87,1.25,1.25,0,0,0,1.18-.84,1.61,1.61,0,0,0,0-.39Z"/><path class="cls-6" d="M99,244.64c0-1.08,0-1.78-.07-2.41h2l.09,1.35h.07a2.13,2.13,0,0,1,2-1.53,2.43,2.43,0,0,1,.49,0v2.15a3.62,3.62,0,0,0-.62-.06,1.47,1.47,0,0,0-1.56,1.15,2.71,2.71,0,0,0,0,.51v3.72H99Z"/><path class="cls-6" d="M104.71,244.57c0-.92,0-1.68-.07-2.34h2l.1,1h0a2.63,2.63,0,0,1,2.26-1.19c1.5,0,2.63,1,2.63,3.17v4.33h-2.28V245.5c0-.95-.33-1.59-1.16-1.59a1.24,1.24,0,0,0-1.17.85,1.65,1.65,0,0,0-.07.57v4.23h-2.28Z"/><path class="cls-6" d="M115.85,240.19a1.21,1.21,0,1,1-1.2-1.14A1.12,1.12,0,0,1,115.85,240.19Zm-2.35,9.37v-7.33h2.28v7.33Z"/><path class="cls-6" d="M117.6,244.57c0-.92,0-1.68-.06-2.34h2l.11,1h.05a2.61,2.61,0,0,1,2.26-1.19c1.5,0,2.62,1,2.62,3.17v4.33h-2.28V245.5c0-.95-.33-1.59-1.15-1.59a1.24,1.24,0,0,0-1.17.85,1.65,1.65,0,0,0-.07.57v4.23H117.6Z"/><path class="cls-6" d="M133.34,248.5a4.18,4.18,0,0,1-1.13,3.3,4.45,4.45,0,0,1-3,.9,5.88,5.88,0,0,1-2.64-.56l.46-1.74a4.4,4.4,0,0,0,2.12.56,1.75,1.75,0,0,0,1.91-1.94v-.46h0a2.38,2.38,0,0,1-2,.94c-1.82,0-3.11-1.47-3.11-3.57,0-2.37,1.52-3.87,3.34-3.87a2.18,2.18,0,0,1,2,1.05h0l.07-.88h2c0,.48-.06,1.09-.06,2.19Zm-2.28-3.29a2.09,2.09,0,0,0-.05-.42,1.24,1.24,0,0,0-1.23-1c-.84,0-1.5.75-1.5,2.08,0,1.1.54,1.95,1.49,1.95a1.24,1.24,0,0,0,1.21-.91,2.11,2.11,0,0,0,.08-.62Z"/><path class="cls-12" d="M227.08,364.85l1.44,1-5.44,7.7-1.44-1Z"/><path class="cls-12" d="M228.42,368.84l1.53.8-.33.63a4.34,4.34,0,0,1,1.27-.12,2.66,2.66,0,0,1,1,.28,2.39,2.39,0,0,1,1.21,1.45,2.5,2.5,0,0,1-.32,1.89l-2.13,4.08-1.52-.79,1.42-2.71a7.79,7.79,0,0,0,.67-1.52,1.12,1.12,0,0,0-.06-.73,1,1,0,0,0-.5-.5,1.24,1.24,0,0,0-1-.11,1.89,1.89,0,0,0-.92.63,7.51,7.51,0,0,0-.73,1.22l-1.29,2.48-1.54-.81Z"/><path class="cls-12" d="M235.2,372.24l1.65.54-.23.68a4.12,4.12,0,0,1,1.24-.32,2.46,2.46,0,0,1,2.41,1.36,2.46,2.46,0,0,1,0,1.91l-1.45,4.38-1.63-.55,1-2.89a7.06,7.06,0,0,0,.42-1.61,1.09,1.09,0,0,0-.17-.71,1,1,0,0,0-.58-.42,1.28,1.28,0,0,0-1,.05,1.86,1.86,0,0,0-.81.77,7.72,7.72,0,0,0-.52,1.32l-.88,2.65-1.65-.55Z"/><path class="cls-12" d="M245.74,374.92a3.75,3.75,0,0,1,1.72.81,3.52,3.52,0,0,1,1.09,1.55,3.57,3.57,0,0,1,.15,1.89,3.67,3.67,0,0,1-.8,1.73,3.46,3.46,0,0,1-1.53,1.09,3.62,3.62,0,0,1-1.91.15,3.44,3.44,0,0,1-2.31-1.49,3.68,3.68,0,0,1,3.59-5.73Zm-.26,1.63a1.84,1.84,0,0,0-1.43.32,2.27,2.27,0,0,0-.51,2.88,1.72,1.72,0,0,0,1.22.79,1.79,1.79,0,0,0,1.44-.32,2.29,2.29,0,0,0,.52-2.88A1.82,1.82,0,0,0,245.48,376.55Z"/><path class="cls-12" d="M249.76,375.76l1.76.07,1.6,4.17,1.89-4,1.75.06-3.19,6.86-1.12,0Z"/><path class="cls-12" d="M262.65,375.47l1.72-.18.72,6.94-1.73.17-.07-.73a3.37,3.37,0,0,1-.94.8,2.84,2.84,0,0,1-1.08.33,3.06,3.06,0,0,1-2.41-.81,3.69,3.69,0,0,1-1.24-2.49,3.8,3.8,0,0,1,.67-2.73,3,3,0,0,1,2.18-1.26,2.9,2.9,0,0,1,1.18.12,3.22,3.22,0,0,1,1.08.6ZM261,377.08a1.73,1.73,0,0,0-1.27.71,2,2,0,0,0-.38,1.52,2.1,2.1,0,0,0,.69,1.42,1.72,1.72,0,0,0,1.38.44,1.76,1.76,0,0,0,1.29-.71,2.34,2.34,0,0,0-.3-3A1.86,1.86,0,0,0,261,377.08Z"/><path class="cls-12" d="M265.6,372.36l1.69-.37.55,2.51,1-.22.31,1.47-1,.22,1.16,5.34-1.69.37-1.16-5.34-.87.19-.32-1.48.87-.18Z"/><path class="cls-12" d="M269.51,371.09a1,1,0,0,1,.84.11,1.12,1.12,0,0,1,.54.68,1.16,1.16,0,0,1-.09.86,1.07,1.07,0,0,1-1.5.42,1.11,1.11,0,0,1-.54-.69,1.05,1.05,0,0,1,.09-.85A1.09,1.09,0,0,1,269.51,371.09Zm0,3,1.66-.48,1.92,6.7-1.66.48Z"/><path class="cls-12" d="M275.44,371.88a3.57,3.57,0,0,1,1.89-.24,3.48,3.48,0,0,1,1.75.72,3.72,3.72,0,0,1,.68,5.15,3.54,3.54,0,0,1-1.52,1.14,3.38,3.38,0,0,1-2.75,0,3.71,3.71,0,0,1-1.9-5A3.44,3.44,0,0,1,275.44,371.88Zm.65,1.51a1.77,1.77,0,0,0-1,1,2,2,0,0,0,.05,1.54,2.05,2.05,0,0,0,1.05,1.16,1.73,1.73,0,0,0,1.46,0,1.78,1.78,0,0,0,1-1,2,2,0,0,0-.06-1.56,2.06,2.06,0,0,0-1.05-1.15A1.79,1.79,0,0,0,276.09,373.39Z"/><path class="cls-12" d="M280,370.06l1.46-.93.38.61a4.44,4.44,0,0,1,.53-1.17,2.62,2.62,0,0,1,.72-.69,2.4,2.4,0,0,1,1.86-.32,2.51,2.51,0,0,1,1.49,1.22l2.47,3.89-1.45.91L285.78,371a7.12,7.12,0,0,0-1-1.34,1.14,1.14,0,0,0-.66-.32,1.06,1.06,0,0,0-.69.18,1.24,1.24,0,0,0-.57.78,1.87,1.87,0,0,0,.08,1.11,8.59,8.59,0,0,0,.7,1.24l1.5,2.36-1.47.93Z"/><path class="cls-12" d="M225.73,307.62l1.73-.73a6.06,6.06,0,0,1,2.13-.61,2.3,2.3,0,0,1,1.34.43,2.91,2.91,0,0,1,1,1.26,2.62,2.62,0,0,1,.2,1.6,2.7,2.7,0,0,1-.85,1.39l3.68,3-1.79.76-3.5-2.85-.15.06,1.57,3.68-1.63.69Zm3.08,2.7.51-.22a2.27,2.27,0,0,0,1-.67.88.88,0,0,0,0-.81,1,1,0,0,0-.36-.43,1,1,0,0,0-.52-.14,3.34,3.34,0,0,0-.93.29l-.45.2Z"/><path class="cls-12" d="M241.73,308.93l-5.37,1.48a1.86,1.86,0,0,0,.94,1,2,2,0,0,0,1.4.07,2.31,2.31,0,0,0,1.43-1.11l1.59.28a3.41,3.41,0,0,1-.95,1.46,4.09,4.09,0,0,1-1.65.85,3.53,3.53,0,0,1-4.5-2.53,3.65,3.65,0,0,1,.28-2.82,3.45,3.45,0,0,1,2.18-1.7,3.55,3.55,0,0,1,2.84.31,3.89,3.89,0,0,1,1.73,2.42Zm-2-.87a1.72,1.72,0,0,0-.9-.73,1.91,1.91,0,0,0-1.23,0,2.06,2.06,0,0,0-1.12.73,2.32,2.32,0,0,0-.37,1Z"/><path class="cls-12" d="M246.92,305.06,246,306.3a1.81,1.81,0,0,0-1.28-.46.75.75,0,0,0-.43.19.4.4,0,0,0-.11.34.38.38,0,0,0,.14.24,2.52,2.52,0,0,0,.56.24l.68.21a3.86,3.86,0,0,1,1.52.79,2.14,2.14,0,0,1,.14,2.78,2.59,2.59,0,0,1-1.69.9,2.87,2.87,0,0,1-2.57-.8l.87-1.32a2.41,2.41,0,0,0,.79.46,1.51,1.51,0,0,0,.75.1.83.83,0,0,0,.52-.25.49.49,0,0,0,.15-.41q-.06-.4-.87-.66l-.62-.2c-1.19-.39-1.86-1-2-1.84a1.83,1.83,0,0,1,.4-1.5,2.25,2.25,0,0,1,1.5-.83,2.86,2.86,0,0,1,1.3.09A3,3,0,0,1,246.92,305.06Z"/><path class="cls-12" d="M255.85,307.47l-5.56.28a1.83,1.83,0,0,0,.7,1.15,2,2,0,0,0,1.36.37,2.27,2.27,0,0,0,1.63-.77l1.5.62a3.46,3.46,0,0,1-1.25,1.22,4.08,4.08,0,0,1-1.79.47,3.58,3.58,0,0,1-2.69-.9,3.51,3.51,0,0,1-1.16-2.54,3.66,3.66,0,0,1,.88-2.69,3.41,3.41,0,0,1,2.5-1.19,3.56,3.56,0,0,1,2.71.92,3.83,3.83,0,0,1,1.16,2.73Zm-1.8-1.29a1.81,1.81,0,0,0-.73-.91,1.87,1.87,0,0,0-1.19-.3,2,2,0,0,0-1.25.47,2.22,2.22,0,0,0-.58.93Z"/><path class="cls-12" d="M262.76,303.91l1.73.13L264,311l-1.73-.13.06-.74a3.56,3.56,0,0,1-1.07.63,3,3,0,0,1-1.12.13,3.1,3.1,0,0,1-2.23-1.22,3.66,3.66,0,0,1-.78-2.67,3.78,3.78,0,0,1,1.14-2.57,3,3,0,0,1,2.37-.85,2.87,2.87,0,0,1,1.15.32,3.3,3.3,0,0,1,.95.78Zm-1.92,1.29a1.75,1.75,0,0,0-1.37.47,2,2,0,0,0-.64,1.43,2.06,2.06,0,0,0,.42,1.52,1.85,1.85,0,0,0,2.68.21,2.09,2.09,0,0,0,.65-1.45,2,2,0,0,0-.43-1.51A1.76,1.76,0,0,0,260.84,305.2Z"/><path class="cls-12" d="M266.26,304.34l1.46.25-.15.87a1.87,1.87,0,0,1,.77-.67,1.5,1.5,0,0,1,.91-.11,1.47,1.47,0,0,1,.66.29l-.79,1.39a1.18,1.18,0,0,0-.47-.23.79.79,0,0,0-.75.37,4.68,4.68,0,0,0-.61,1.89l-.05.33-.49,2.78-1.69-.3Z"/><path class="cls-12" d="M277.37,308.32l-1.6.4a2.62,2.62,0,0,0-.62-.79,2.29,2.29,0,0,0-.86-.4,2.16,2.16,0,0,0-1.67.15,2,2,0,0,0-1,1.29,1.89,1.89,0,0,0,.18,1.55,2,2,0,0,0,1.32.94,2.14,2.14,0,0,0,2-.3l1.08,1.27a3.71,3.71,0,0,1-3.41.59,3.75,3.75,0,0,1-2.47-1.8,3.58,3.58,0,0,1-.33-2.73,3.66,3.66,0,0,1,1-1.67,3.5,3.5,0,0,1,1.7-.92,4.16,4.16,0,0,1,2.07.05,4.11,4.11,0,0,1,1.67.88A3.49,3.49,0,0,1,277.37,308.32Z"/><path class="cls-12" d="M280.87,305.22l1.59.67L281.14,309a4.19,4.19,0,0,1,1.2-.22,2.75,2.75,0,0,1,1,.2,2.35,2.35,0,0,1,1.32,1.34,2.51,2.51,0,0,1-.15,1.91l-1.79,4.25-1.57-.66,1.18-2.82a7,7,0,0,0,.53-1.56,1.06,1.06,0,0,0-.11-.74,1.08,1.08,0,0,0-.54-.46,1.3,1.3,0,0,0-1,0,1.84,1.84,0,0,0-.86.68,7.51,7.51,0,0,0-.63,1.29l-1.08,2.58-1.59-.66Z"/><path class="cls-6" d="M78,327.55v10.1H75.72v-10.1Z"/><path class="cls-6" d="M80,332.66c0-.92,0-1.68-.06-2.34h2l.11,1h0a2.65,2.65,0,0,1,2.27-1.19c1.5,0,2.62,1,2.62,3.17v4.33H84.63v-4.06c0-.94-.33-1.59-1.15-1.59a1.24,1.24,0,0,0-1.17.85,1.67,1.67,0,0,0-.08.57v4.23H80Z"/><path class="cls-6" d="M88.73,335.67a4.39,4.39,0,0,0,2,.55c.69,0,1-.23,1-.61s-.23-.57-1.07-.85c-1.53-.51-2.11-1.34-2.1-2.2,0-1.39,1.17-2.42,3-2.42a4.9,4.9,0,0,1,2.05.43l-.39,1.58a3.64,3.64,0,0,0-1.59-.42c-.55,0-.87.22-.87.59s.29.53,1.19.85c1.39.48,2,1.2,2,2.26,0,1.39-1.07,2.39-3.17,2.39a5.19,5.19,0,0,1-2.37-.53Z"/><path class="cls-6" d="M97.8,328.34v2h1.64V332H97.8v2.65c0,.89.23,1.29.9,1.29a3.2,3.2,0,0,0,.68-.05v1.72a4.9,4.9,0,0,1-1.47.2,2.41,2.41,0,0,1-1.72-.64,3,3,0,0,1-.63-2.17v-3h-1v-1.68h1V329Z"/><path class="cls-6" d="M100.76,332.73c0-1.08,0-1.78-.06-2.41h2l.09,1.35h.06a2.13,2.13,0,0,1,2-1.53,2.33,2.33,0,0,1,.48,0v2.15a3.42,3.42,0,0,0-.62-.06,1.47,1.47,0,0,0-1.56,1.15,2.71,2.71,0,0,0,0,.51v3.72h-2.28Z"/><path class="cls-6" d="M113.33,335.3c0,1,0,1.74.06,2.35h-2l-.11-1h0a2.63,2.63,0,0,1-2.3,1.2c-1.5,0-2.58-.93-2.58-3.2v-4.3h2.28v3.94c0,1.07.35,1.72,1.16,1.72a1.22,1.22,0,0,0,1.14-.8,1.24,1.24,0,0,0,.09-.5v-4.36h2.28Z"/><path class="cls-6" d="M120.66,337.46a5.28,5.28,0,0,1-2,.35,3.56,3.56,0,0,1-3.88-3.75c0-2.15,1.47-3.91,4.2-3.91a5.29,5.29,0,0,1,1.74.29l-.36,1.7a3,3,0,0,0-1.28-.23,1.89,1.89,0,0,0-2,2.06,1.92,1.92,0,0,0,2,2,3.17,3.17,0,0,0,1.3-.24Z"/><path class="cls-6" d="M124.71,328.34v2h1.64V332h-1.64v2.65c0,.89.23,1.29.9,1.29a3.2,3.2,0,0,0,.68-.05v1.72a4.9,4.9,0,0,1-1.47.2,2.41,2.41,0,0,1-1.72-.64,3,3,0,0,1-.63-2.17v-3h-1v-1.68h1V329Z"/><path class="cls-6" d="M130,328.28a1.13,1.13,0,0,1-1.23,1.14,1.12,1.12,0,0,1-1.18-1.14,1.21,1.21,0,0,1,2.41,0Zm-2.35,9.37v-7.33H130v7.33Z"/><path class="cls-6" d="M139,333.9a3.68,3.68,0,0,1-3.87,3.92,3.59,3.59,0,0,1-3.79-3.78,3.67,3.67,0,0,1,3.93-3.9A3.56,3.56,0,0,1,139,333.9Zm-5.31.08c0,1.26.53,2.2,1.5,2.2s1.46-.88,1.46-2.21c0-1.08-.42-2.2-1.46-2.2S133.71,332.9,133.71,334Z"/><path class="cls-6" d="M140.43,332.66c0-.92,0-1.68-.06-2.34h2l.11,1h0a2.65,2.65,0,0,1,2.27-1.19c1.5,0,2.62,1,2.62,3.17v4.33h-2.28v-4.06c0-.94-.33-1.59-1.15-1.59a1.24,1.24,0,0,0-1.17.85,1.67,1.67,0,0,0-.08.57v4.23h-2.28Z"/><path class="cls-6" d="M155.33,335.89a9.42,9.42,0,0,0,.12,1.76h-2.06l-.13-.73h0a2.66,2.66,0,0,1-2.1.9,2.25,2.25,0,0,1-2.37-2.25c0-1.91,1.71-2.81,4.31-2.81v-.09c0-.4-.21-.95-1.34-.95a4.1,4.1,0,0,0-2,.55l-.42-1.47a6,6,0,0,1,2.85-.66c2.44,0,3.21,1.44,3.21,3.18Zm-2.21-1.7c-1.2,0-2.13.29-2.13,1.15a.82.82,0,0,0,.9.88,1.26,1.26,0,0,0,1.19-.85,1.61,1.61,0,0,0,0-.39Z"/><path class="cls-6" d="M157.14,327h2.28v10.65h-2.28Z"/><path class="cls-6" d="M84.26,351.78c-.05-1.21-.09-2.68-.09-4.15h0c-.33,1.29-.75,2.73-1.14,3.92l-1.23,3.94H80l-1.08-3.9c-.33-1.2-.66-2.64-.91-4h0c0,1.36-.11,2.93-.17,4.19l-.19,3.83H75.48l.65-10.1h3l1,3.37c.33,1.17.63,2.43.86,3.61h.06c.27-1.17.61-2.5,1-3.63l1.06-3.35h3l.54,10.1H84.42Z"/><path class="cls-6" d="M94.47,353.89a9.42,9.42,0,0,0,.12,1.76h-2l-.14-.73h0a2.66,2.66,0,0,1-2.1.9,2.25,2.25,0,0,1-2.37-2.25c0-1.91,1.71-2.81,4.3-2.81v-.09c0-.4-.21-.95-1.33-.95a4.14,4.14,0,0,0-2,.55l-.42-1.47a6,6,0,0,1,2.85-.66c2.45,0,3.21,1.44,3.21,3.18Zm-2.2-1.7c-1.2,0-2.13.29-2.13,1.15a.82.82,0,0,0,.9.88,1.26,1.26,0,0,0,1.18-.85,1.6,1.6,0,0,0,0-.39Z"/><path class="cls-6" d="M98.72,346.34v2h1.63V350H98.72v2.65c0,.89.22,1.29.9,1.29a3.15,3.15,0,0,0,.67-.05l0,1.72a5,5,0,0,1-1.47.2,2.43,2.43,0,0,1-1.73-.64,3,3,0,0,1-.63-2.17v-3h-1v-1.68h1V347Z"/><path class="cls-6" d="M103.35,352.72c.06.94,1,1.39,2.07,1.39a6.09,6.09,0,0,0,2-.32l.3,1.55a7.06,7.06,0,0,1-2.66.47c-2.49,0-3.91-1.45-3.91-3.74a3.67,3.67,0,0,1,3.7-3.92c2.37,0,3.27,1.85,3.27,3.67a5.72,5.72,0,0,1-.07.9Zm2.69-1.57a1.32,1.32,0,0,0-1.29-1.48,1.51,1.51,0,0,0-1.41,1.48Z"/><path class="cls-6" d="M109.52,350.73c0-1.08,0-1.78-.06-2.41h2l.09,1.35h.06a2.13,2.13,0,0,1,2-1.53,2.33,2.33,0,0,1,.48,0v2.15a3.42,3.42,0,0,0-.62-.06,1.47,1.47,0,0,0-1.56,1.15,2.71,2.71,0,0,0,0,.51v3.72h-2.28Z"/><path class="cls-6" d="M117.57,346.28a1.13,1.13,0,0,1-1.23,1.14,1.12,1.12,0,0,1-1.18-1.14,1.21,1.21,0,0,1,2.41,0Zm-2.35,9.37v-7.33h2.28v7.33Z"/><path class="cls-6" d="M125.43,353.89a9.42,9.42,0,0,0,.12,1.76h-2l-.14-.73h0a2.66,2.66,0,0,1-2.1.9,2.25,2.25,0,0,1-2.37-2.25c0-1.91,1.71-2.81,4.3-2.81v-.09c0-.4-.21-.95-1.33-.95a4.14,4.14,0,0,0-2,.55l-.42-1.47a6,6,0,0,1,2.85-.66c2.45,0,3.21,1.44,3.21,3.18Zm-2.2-1.7c-1.2,0-2.13.29-2.13,1.15a.82.82,0,0,0,.9.88,1.26,1.26,0,0,0,1.18-.85,1.6,1.6,0,0,0,0-.39Z"/><path class="cls-6" d="M127.25,345h2.28v10.65h-2.28Z"/><path class="cls-6" d="M131.36,353.67a4.39,4.39,0,0,0,2,.55c.69,0,1-.23,1-.61s-.23-.57-1.07-.85c-1.53-.51-2.11-1.34-2.1-2.2,0-1.39,1.17-2.42,3-2.42a4.9,4.9,0,0,1,2,.43l-.39,1.58a3.64,3.64,0,0,0-1.59-.42c-.55,0-.87.22-.87.59s.29.53,1.19.85c1.39.48,2,1.2,2,2.26,0,1.39-1.07,2.39-3.17,2.39a5.19,5.19,0,0,1-2.37-.53Z"/><path class="cls-12" d="M227.08,250.85l1.44,1-5.44,7.7-1.44-1Z"/><path class="cls-12" d="M228.42,254.84l1.53.8-.33.63a4.34,4.34,0,0,1,1.27-.12,2.66,2.66,0,0,1,1,.28,2.39,2.39,0,0,1,1.21,1.45,2.5,2.5,0,0,1-.32,1.89l-2.13,4.08-1.52-.79,1.42-2.71a7.79,7.79,0,0,0,.67-1.52,1.12,1.12,0,0,0-.06-.73,1,1,0,0,0-.5-.5,1.24,1.24,0,0,0-1-.11,1.89,1.89,0,0,0-.92.63,7.51,7.51,0,0,0-.73,1.22l-1.29,2.48-1.54-.81Z"/><path class="cls-12" d="M235.2,258.24l1.65.54-.23.68a4.12,4.12,0,0,1,1.24-.32,2.46,2.46,0,0,1,2.41,1.36,2.46,2.46,0,0,1,0,1.91l-1.45,4.38-1.63-.55,1-2.89a7.06,7.06,0,0,0,.42-1.61,1.09,1.09,0,0,0-.17-.71,1,1,0,0,0-.58-.42,1.28,1.28,0,0,0-1,.05,1.86,1.86,0,0,0-.81.77,7.72,7.72,0,0,0-.52,1.32l-.88,2.65-1.65-.55Z"/><path class="cls-12" d="M245.74,260.92a3.75,3.75,0,0,1,1.72.81,3.52,3.52,0,0,1,1.09,1.55,3.57,3.57,0,0,1,.15,1.89,3.67,3.67,0,0,1-.8,1.73,3.46,3.46,0,0,1-1.53,1.09,3.62,3.62,0,0,1-1.91.15,3.44,3.44,0,0,1-2.31-1.49,3.68,3.68,0,0,1,3.59-5.73Zm-.26,1.63a1.84,1.84,0,0,0-1.43.32,2.27,2.27,0,0,0-.51,2.88,1.72,1.72,0,0,0,1.22.79,1.79,1.79,0,0,0,1.44-.32,2.29,2.29,0,0,0,.52-2.88A1.82,1.82,0,0,0,245.48,262.55Z"/><path class="cls-12" d="M249.76,261.76l1.76.07,1.6,4.17,1.89-4,1.75.06-3.19,6.86-1.12,0Z"/><path class="cls-12" d="M262.65,261.47l1.72-.18.72,6.94-1.73.17-.07-.73a3.37,3.37,0,0,1-.94.8,2.84,2.84,0,0,1-1.08.33,3.06,3.06,0,0,1-2.41-.81,3.69,3.69,0,0,1-1.24-2.49,3.8,3.8,0,0,1,.67-2.73,3,3,0,0,1,2.18-1.26,2.9,2.9,0,0,1,1.18.12,3.22,3.22,0,0,1,1.08.6ZM261,263.08a1.73,1.73,0,0,0-1.27.71,2,2,0,0,0-.38,1.52,2.1,2.1,0,0,0,.69,1.42,1.72,1.72,0,0,0,1.38.44,1.76,1.76,0,0,0,1.29-.71,2.34,2.34,0,0,0-.3-3A1.86,1.86,0,0,0,261,263.08Z"/><path class="cls-12" d="M265.6,258.36l1.69-.37.55,2.51,1-.22.31,1.47-1,.22,1.16,5.34-1.69.37-1.16-5.34-.87.19-.32-1.48.87-.18Z"/><path class="cls-12" d="M269.51,257.09a1,1,0,0,1,.84.11,1.12,1.12,0,0,1,.54.68,1.16,1.16,0,0,1-.09.86,1.07,1.07,0,0,1-1.5.42,1.11,1.11,0,0,1-.54-.69,1.05,1.05,0,0,1,.09-.85A1.09,1.09,0,0,1,269.51,257.09Zm0,3,1.66-.48,1.92,6.7-1.66.48Z"/><path class="cls-12" d="M275.44,257.88a3.57,3.57,0,0,1,1.89-.24,3.48,3.48,0,0,1,1.75.72,3.72,3.72,0,0,1,.68,5.15,3.54,3.54,0,0,1-1.52,1.14,3.38,3.38,0,0,1-2.75,0,3.71,3.71,0,0,1-1.9-5A3.44,3.44,0,0,1,275.44,257.88Zm.65,1.51a1.77,1.77,0,0,0-1,1,2,2,0,0,0,.05,1.54,2.05,2.05,0,0,0,1.05,1.16,1.73,1.73,0,0,0,1.46,0,1.78,1.78,0,0,0,1-1,2,2,0,0,0-.06-1.56,2.06,2.06,0,0,0-1.05-1.15A1.79,1.79,0,0,0,276.09,259.39Z"/><path class="cls-12" d="M280,256.06l1.46-.93.38.61a4.44,4.44,0,0,1,.53-1.17,2.62,2.62,0,0,1,.72-.69,2.4,2.4,0,0,1,1.86-.32,2.51,2.51,0,0,1,1.49,1.22l2.47,3.89-1.45.91L285.78,257a7.12,7.12,0,0,0-1-1.34,1.14,1.14,0,0,0-.66-.32,1.06,1.06,0,0,0-.69.18,1.24,1.24,0,0,0-.57.78,1.87,1.87,0,0,0,.08,1.11,8.59,8.59,0,0,0,.7,1.24l1.5,2.36-1.47.93Z"/><path class="cls-12" d="M225.73,193.62l1.73-.73a6.06,6.06,0,0,1,2.13-.61,2.3,2.3,0,0,1,1.34.43,2.91,2.91,0,0,1,1,1.26,2.62,2.62,0,0,1,.2,1.6,2.7,2.7,0,0,1-.85,1.39l3.68,3-1.79.76-3.5-2.85-.15.06,1.57,3.68-1.63.69Zm3.08,2.7.51-.22a2.27,2.27,0,0,0,1-.67.88.88,0,0,0,0-.81,1,1,0,0,0-.36-.43,1,1,0,0,0-.52-.14,3.34,3.34,0,0,0-.93.29l-.45.2Z"/><path class="cls-12" d="M241.73,194.93l-5.37,1.48a1.86,1.86,0,0,0,.94,1,2,2,0,0,0,1.4.07,2.31,2.31,0,0,0,1.43-1.11l1.59.28a3.41,3.41,0,0,1-.95,1.46,4.09,4.09,0,0,1-1.65.85,3.53,3.53,0,0,1-4.5-2.53,3.65,3.65,0,0,1,.28-2.82,3.45,3.45,0,0,1,2.18-1.7,3.55,3.55,0,0,1,2.84.31,3.89,3.89,0,0,1,1.73,2.42Zm-2-.87a1.72,1.72,0,0,0-.9-.73,1.91,1.91,0,0,0-1.23,0,2.06,2.06,0,0,0-1.12.73,2.32,2.32,0,0,0-.37,1Z"/><path class="cls-12" d="M246.92,191.06,246,192.3a1.81,1.81,0,0,0-1.28-.46.75.75,0,0,0-.43.19.4.4,0,0,0-.11.34.38.38,0,0,0,.14.24,2.52,2.52,0,0,0,.56.24l.68.21a3.86,3.86,0,0,1,1.52.79,2.14,2.14,0,0,1,.14,2.78,2.59,2.59,0,0,1-1.69.9,2.87,2.87,0,0,1-2.57-.8l.87-1.32a2.41,2.41,0,0,0,.79.46,1.51,1.51,0,0,0,.75.1.83.83,0,0,0,.52-.25.49.49,0,0,0,.15-.41q-.06-.41-.87-.66l-.62-.2c-1.19-.39-1.86-1-2-1.84a1.83,1.83,0,0,1,.4-1.5,2.25,2.25,0,0,1,1.5-.83,2.86,2.86,0,0,1,1.3.09A3,3,0,0,1,246.92,191.06Z"/><path class="cls-12" d="M255.85,193.47l-5.56.28a1.83,1.83,0,0,0,.7,1.15,2,2,0,0,0,1.36.37,2.27,2.27,0,0,0,1.63-.77l1.5.62a3.46,3.46,0,0,1-1.25,1.22,4.08,4.08,0,0,1-1.79.47,3.58,3.58,0,0,1-2.69-.9,3.51,3.51,0,0,1-1.16-2.54,3.66,3.66,0,0,1,.88-2.69,3.41,3.41,0,0,1,2.5-1.19,3.56,3.56,0,0,1,2.71.92,3.83,3.83,0,0,1,1.16,2.73Zm-1.8-1.29a1.81,1.81,0,0,0-.73-.91,1.87,1.87,0,0,0-1.19-.3,2,2,0,0,0-1.25.47,2.22,2.22,0,0,0-.58.93Z"/><path class="cls-12" d="M262.76,189.91l1.73.13-.52,7-1.73-.13.06-.74a3.56,3.56,0,0,1-1.07.63,3,3,0,0,1-1.12.13,3.1,3.1,0,0,1-2.23-1.22,3.66,3.66,0,0,1-.78-2.67,3.78,3.78,0,0,1,1.14-2.57,3,3,0,0,1,2.37-.85,2.87,2.87,0,0,1,1.15.32,3.3,3.3,0,0,1,.95.78Zm-1.92,1.29a1.75,1.75,0,0,0-1.37.47,2,2,0,0,0-.64,1.43,2.06,2.06,0,0,0,.42,1.52,1.85,1.85,0,0,0,2.68.21,2.09,2.09,0,0,0,.65-1.45,2,2,0,0,0-.43-1.51A1.76,1.76,0,0,0,260.84,191.2Z"/><path class="cls-12" d="M266.26,190.34l1.46.25-.15.87a1.87,1.87,0,0,1,.77-.67,1.5,1.5,0,0,1,.91-.11,1.47,1.47,0,0,1,.66.29l-.79,1.39a1.18,1.18,0,0,0-.47-.23.79.79,0,0,0-.75.37,4.68,4.68,0,0,0-.61,1.89l-.05.33-.49,2.78-1.69-.3Z"/><path class="cls-12" d="M277.37,194.32l-1.6.4a2.62,2.62,0,0,0-.62-.79,2.29,2.29,0,0,0-.86-.4,2.16,2.16,0,0,0-1.67.15,2,2,0,0,0-1,1.29,1.89,1.89,0,0,0,.18,1.55,2,2,0,0,0,1.32.94,2.14,2.14,0,0,0,2-.3l1.08,1.27a3.71,3.71,0,0,1-3.41.59,3.75,3.75,0,0,1-2.47-1.8,3.58,3.58,0,0,1-.33-2.73,3.66,3.66,0,0,1,1-1.67,3.5,3.5,0,0,1,1.7-.92,4.16,4.16,0,0,1,2.07,0,4.11,4.11,0,0,1,1.67.88A3.49,3.49,0,0,1,277.37,194.32Z"/><path class="cls-12" d="M280.87,191.22l1.59.67L281.14,195a4.19,4.19,0,0,1,1.2-.22,2.75,2.75,0,0,1,1,.2,2.35,2.35,0,0,1,1.32,1.34,2.51,2.51,0,0,1-.15,1.91l-1.79,4.25-1.57-.66,1.18-2.82a7,7,0,0,0,.53-1.56,1.06,1.06,0,0,0-.11-.74,1.08,1.08,0,0,0-.54-.46,1.3,1.3,0,0,0-1,0,1.84,1.84,0,0,0-.86.68,7.51,7.51,0,0,0-.63,1.29l-1.08,2.58-1.59-.66Z"/><path class="cls-12" d="M227.08,111.85l1.44,1-5.44,7.7-1.44-1Z"/><path class="cls-12" d="M228.42,115.84l1.53.8-.33.63a4.34,4.34,0,0,1,1.27-.12,2.66,2.66,0,0,1,1,.28,2.39,2.39,0,0,1,1.21,1.45,2.5,2.5,0,0,1-.32,1.89l-2.13,4.08-1.52-.79,1.42-2.71a7.79,7.79,0,0,0,.67-1.52,1.12,1.12,0,0,0-.06-.73,1,1,0,0,0-.5-.5,1.24,1.24,0,0,0-1-.11,1.89,1.89,0,0,0-.92.63,7.51,7.51,0,0,0-.73,1.22l-1.29,2.48-1.54-.81Z"/><path class="cls-12" d="M235.2,119.24l1.65.54-.23.68a4.12,4.12,0,0,1,1.24-.32,2.46,2.46,0,0,1,2.41,1.36,2.46,2.46,0,0,1,0,1.91l-1.45,4.38-1.63-.55,1-2.89a7.06,7.06,0,0,0,.42-1.61,1.09,1.09,0,0,0-.17-.71,1,1,0,0,0-.58-.42,1.28,1.28,0,0,0-1,0,1.86,1.86,0,0,0-.81.77,7.72,7.72,0,0,0-.52,1.32l-.88,2.65-1.65-.55Z"/><path class="cls-12" d="M245.74,121.92a3.75,3.75,0,0,1,1.72.81,3.52,3.52,0,0,1,1.09,1.55,3.57,3.57,0,0,1,.15,1.89,3.67,3.67,0,0,1-.8,1.73,3.46,3.46,0,0,1-1.53,1.09,3.62,3.62,0,0,1-1.91.15,3.44,3.44,0,0,1-2.31-1.49,3.68,3.68,0,0,1,3.59-5.73Zm-.26,1.63a1.84,1.84,0,0,0-1.43.32,2.27,2.27,0,0,0-.51,2.88,1.72,1.72,0,0,0,1.22.79,1.79,1.79,0,0,0,1.44-.32,2.29,2.29,0,0,0,.52-2.88A1.82,1.82,0,0,0,245.48,123.55Z"/><path class="cls-12" d="M249.76,122.76l1.76.07,1.6,4.17,1.89-4,1.75.06-3.19,6.86-1.12,0Z"/><path class="cls-12" d="M262.65,122.47l1.72-.18.72,6.94-1.73.17-.07-.73a3.37,3.37,0,0,1-.94.8,2.84,2.84,0,0,1-1.08.33,3.06,3.06,0,0,1-2.41-.81,3.69,3.69,0,0,1-1.24-2.49,3.8,3.8,0,0,1,.67-2.73,3,3,0,0,1,2.18-1.26,2.9,2.9,0,0,1,1.18.12,3.22,3.22,0,0,1,1.08.6ZM261,124.08a1.73,1.73,0,0,0-1.27.71,2,2,0,0,0-.38,1.52,2.1,2.1,0,0,0,.69,1.42,1.72,1.72,0,0,0,1.38.44,1.76,1.76,0,0,0,1.29-.71,2.34,2.34,0,0,0-.3-3A1.86,1.86,0,0,0,261,124.08Z"/><path class="cls-12" d="M265.6,119.36l1.69-.37.55,2.51,1-.22.31,1.47-1,.22,1.16,5.34-1.69.37-1.16-5.34-.87.19-.32-1.48.87-.18Z"/><path class="cls-12" d="M269.51,118.09a1,1,0,0,1,.84.11,1.12,1.12,0,0,1,.54.68,1.16,1.16,0,0,1-.09.86,1.07,1.07,0,0,1-1.5.42,1.11,1.11,0,0,1-.54-.69,1.05,1.05,0,0,1,.09-.85A1.09,1.09,0,0,1,269.51,118.09Zm0,3,1.66-.48,1.92,6.7-1.66.48Z"/><path class="cls-12" d="M275.44,118.88a3.57,3.57,0,0,1,1.89-.24,3.48,3.48,0,0,1,1.75.72,3.72,3.72,0,0,1,.68,5.15,3.54,3.54,0,0,1-1.52,1.14,3.38,3.38,0,0,1-2.75,0,3.71,3.71,0,0,1-1.9-5A3.44,3.44,0,0,1,275.44,118.88Zm.65,1.51a1.77,1.77,0,0,0-1,1,2,2,0,0,0,.05,1.54,2.05,2.05,0,0,0,1.05,1.16,1.73,1.73,0,0,0,1.46,0,1.78,1.78,0,0,0,1-1,2,2,0,0,0-.06-1.56,2.06,2.06,0,0,0-1.05-1.15A1.79,1.79,0,0,0,276.09,120.39Z"/><path class="cls-12" d="M280,117.06l1.46-.93.38.61a4.44,4.44,0,0,1,.53-1.17,2.62,2.62,0,0,1,.72-.69,2.4,2.4,0,0,1,1.86-.32,2.51,2.51,0,0,1,1.49,1.22l2.47,3.89-1.45.91L285.78,118a7.12,7.12,0,0,0-1-1.34,1.14,1.14,0,0,0-.66-.32,1.06,1.06,0,0,0-.69.18,1.24,1.24,0,0,0-.57.78,1.87,1.87,0,0,0,.08,1.11,8.59,8.59,0,0,0,.7,1.24l1.5,2.36-1.47.93Z"/><path class="cls-12" d="M225.73,54.62l1.73-.73a6.06,6.06,0,0,1,2.13-.61,2.3,2.3,0,0,1,1.34.43,2.91,2.91,0,0,1,1,1.26,2.62,2.62,0,0,1,.2,1.6,2.7,2.7,0,0,1-.85,1.39l3.68,3-1.79.76-3.5-2.85-.15.06,1.57,3.68-1.63.69Zm3.08,2.7.51-.22a2.27,2.27,0,0,0,1-.67.88.88,0,0,0,0-.81,1,1,0,0,0-.36-.43,1,1,0,0,0-.52-.14,3.34,3.34,0,0,0-.93.29l-.45.2Z"/><path class="cls-12" d="M241.73,55.93l-5.37,1.48a1.86,1.86,0,0,0,.94,1,2,2,0,0,0,1.4.07,2.31,2.31,0,0,0,1.43-1.11l1.59.28a3.41,3.41,0,0,1-.95,1.46,4.09,4.09,0,0,1-1.65.85,3.53,3.53,0,0,1-4.5-2.53,3.65,3.65,0,0,1,.28-2.82,3.45,3.45,0,0,1,2.18-1.7,3.55,3.55,0,0,1,2.84.31,3.89,3.89,0,0,1,1.73,2.42Zm-2-.87a1.72,1.72,0,0,0-.9-.73,1.91,1.91,0,0,0-1.23,0,2.06,2.06,0,0,0-1.12.73,2.32,2.32,0,0,0-.37,1Z"/><path class="cls-12" d="M246.92,52.06,246,53.3a1.81,1.81,0,0,0-1.28-.46.75.75,0,0,0-.43.19.4.4,0,0,0-.11.34.38.38,0,0,0,.14.24,2.52,2.52,0,0,0,.56.24l.68.21a3.86,3.86,0,0,1,1.52.79,2.14,2.14,0,0,1,.14,2.78,2.59,2.59,0,0,1-1.69.9,2.87,2.87,0,0,1-2.57-.8l.87-1.32a2.41,2.41,0,0,0,.79.46,1.51,1.51,0,0,0,.75.1.83.83,0,0,0,.52-.25.49.49,0,0,0,.15-.41q-.06-.41-.87-.66l-.62-.2c-1.19-.39-1.86-1-2-1.84a1.83,1.83,0,0,1,.4-1.5,2.25,2.25,0,0,1,1.5-.83,2.86,2.86,0,0,1,1.3.09A3,3,0,0,1,246.92,52.06Z"/><path class="cls-12" d="M255.85,54.47l-5.56.28a1.83,1.83,0,0,0,.7,1.15,2,2,0,0,0,1.36.37A2.27,2.27,0,0,0,254,55.5l1.5.62a3.46,3.46,0,0,1-1.25,1.22,4.08,4.08,0,0,1-1.79.47,3.58,3.58,0,0,1-2.69-.9,3.51,3.51,0,0,1-1.16-2.54,3.66,3.66,0,0,1,.88-2.69,3.41,3.41,0,0,1,2.5-1.19,3.56,3.56,0,0,1,2.71.92,3.83,3.83,0,0,1,1.16,2.73Zm-1.8-1.29a1.81,1.81,0,0,0-.73-.91,1.87,1.87,0,0,0-1.19-.3,2,2,0,0,0-1.25.47,2.22,2.22,0,0,0-.58.93Z"/><path class="cls-12" d="M262.76,50.91l1.73.13L264,58l-1.73-.13.06-.74a3.56,3.56,0,0,1-1.07.63,3,3,0,0,1-1.12.13,3.1,3.1,0,0,1-2.23-1.22A3.66,3.66,0,0,1,257.1,54a3.78,3.78,0,0,1,1.14-2.57,3,3,0,0,1,2.37-.85,2.87,2.87,0,0,1,1.15.32,3.3,3.3,0,0,1,.95.78Zm-1.92,1.29a1.75,1.75,0,0,0-1.37.47,2,2,0,0,0-.64,1.43,2.06,2.06,0,0,0,.42,1.52,1.85,1.85,0,0,0,2.68.21,2.09,2.09,0,0,0,.65-1.45,2,2,0,0,0-.43-1.51A1.76,1.76,0,0,0,260.84,52.2Z"/><path class="cls-12" d="M266.26,51.34l1.46.25-.15.87a1.87,1.87,0,0,1,.77-.67,1.5,1.5,0,0,1,.91-.11,1.47,1.47,0,0,1,.66.29l-.79,1.39a1.18,1.18,0,0,0-.47-.23.79.79,0,0,0-.75.37,4.68,4.68,0,0,0-.61,1.89l-.05.33-.49,2.78-1.69-.3Z"/><path class="cls-12" d="M277.37,55.32l-1.6.4a2.62,2.62,0,0,0-.62-.79,2.29,2.29,0,0,0-.86-.4,2.16,2.16,0,0,0-1.67.15,2,2,0,0,0-1,1.29,1.89,1.89,0,0,0,.18,1.55,2,2,0,0,0,1.32.94,2.14,2.14,0,0,0,2-.3l1.08,1.27a3.71,3.71,0,0,1-3.41.59,3.75,3.75,0,0,1-2.47-1.8,3.58,3.58,0,0,1-.33-2.73,3.66,3.66,0,0,1,1-1.67,3.5,3.5,0,0,1,1.7-.92,4.16,4.16,0,0,1,2.07.05,4.11,4.11,0,0,1,1.67.88A3.49,3.49,0,0,1,277.37,55.32Z"/><path class="cls-12" d="M280.87,52.22l1.59.67L281.14,56a4.19,4.19,0,0,1,1.2-.22,2.75,2.75,0,0,1,1,.2,2.35,2.35,0,0,1,1.32,1.34,2.51,2.51,0,0,1-.15,1.91l-1.79,4.25-1.57-.66L282.37,60a7,7,0,0,0,.53-1.56,1.06,1.06,0,0,0-.11-.74,1.08,1.08,0,0,0-.54-.46,1.3,1.3,0,0,0-1,0,1.84,1.84,0,0,0-.86.68,7.51,7.51,0,0,0-.63,1.29l-1.08,2.58-1.59-.66Z"/></g></g></svg>