<?xml version="1.0" encoding="utf-8"?>
<!-- Generator: Adobe Illustrator 23.0.1, SVG Export Plug-In . SVG Version: 6.00 Build 0)  -->
<svg version="1.1" id="Layer_3" xmlns="http://www.w3.org/2000/svg" xmlns:xlink="http://www.w3.org/1999/xlink" x="0px" y="0px"
	 viewBox="0 0 43.8 91" style="enable-background:new 0 0 43.8 91;" xml:space="preserve">
<style type="text/css">
	.st0{fill:url(#SVGID_1_);}
	.st1{fill:url(#SVGID_2_);}
	.st2{fill:url(#SVGID_3_);}
	.st3{fill:url(#SVGID_4_);}
</style>
<g>
	<g>
		
			<linearGradient id="SVGID_1_" gradientUnits="userSpaceOnUse" x1="39.0099" y1="745.4839" x2="39.0099" y2="800.7062" gradientTransform="matrix(1 0 0 1 0 -725.9823)">
			<stop  offset="0" style="stop-color:#9BAEBD"/>
			<stop  offset="1" style="stop-color:#1E3954"/>
		</linearGradient>
		<path class="st0" d="M37.8,10.1c-0.7-1-1.5-2.1-2.2-3.1v6.3v1.4V27v1.8v9.1v1.2v49.2h6.9V35.7v-3.3v-2.6v-1.5V20v-1.5v-3.9
			C40.3,12.7,38.6,11.2,37.8,10.1z"/>
		
			<linearGradient id="SVGID_2_" gradientUnits="userSpaceOnUse" x1="27.6099" y1="745.4843" x2="27.6099" y2="800.7064" gradientTransform="matrix(1 0 0 1 0 -725.9823)">
			<stop  offset="0" style="stop-color:#9BAEBD"/>
			<stop  offset="1" style="stop-color:#1E3954"/>
		</linearGradient>
		<path class="st1" d="M24.2,6v1.5v6.7V15v13.1v1.5v58.7h6.9V34v-1.7V8.2V5.4V2c-1.3,0.2-4.2,0.6-6.9,1.5V6z"/>
		
			<linearGradient id="SVGID_3_" gradientUnits="userSpaceOnUse" x1="16.2099" y1="745.4841" x2="16.2099" y2="800.7062" gradientTransform="matrix(1 0 0 1 0 -725.9823)">
			<stop  offset="0" style="stop-color:#9BAEBD"/>
			<stop  offset="1" style="stop-color:#1E3954"/>
		</linearGradient>
		<path class="st2" d="M12.8,13.4v4.5v1.5v24v3v42.1h6.9V35.4V34V15.6v-1.2V14v-1.2v-0.3v-2V5.9C16.7,8.5,13.8,12,12.8,13.4z"/>
		
			<linearGradient id="SVGID_4_" gradientUnits="userSpaceOnUse" x1="4.8099" y1="745.4836" x2="4.8099" y2="800.7062" gradientTransform="matrix(1 0 0 1 0 -725.9823)">
			<stop  offset="0" style="stop-color:#9BAEBD"/>
			<stop  offset="1" style="stop-color:#1E3954"/>
		</linearGradient>
		<path class="st3" d="M1.4,28.3v1.8v1.8v1.3v1.4v2v51.7h6.9V34.9v-5.8v-0.5V23v-1.6V17c-1.9,1.6-4.4,3.6-6.9,6.1
			C1.4,23.1,1.4,28.3,1.4,28.3z"/>
	</g>
</g>
</svg>
