<?xml version="1.0" encoding="utf-8"?>
<!-- Generator: Adobe Illustrator 23.0.1, SVG Export Plug-In . SVG Version: 6.00 Build 0)  -->
<svg version="1.1" id="Layer_3" xmlns="http://www.w3.org/2000/svg" xmlns:xlink="http://www.w3.org/1999/xlink" x="0px" y="0px"
	 viewBox="0 0 216 91.2" style="enable-background:new 0 0 216 91.2;" xml:space="preserve">
<style type="text/css">
	.st0{fill:#1E3954;}
	.st1{fill:url(#SVGID_1_);}
	.st2{fill:url(#SVGID_2_);}
	.st3{fill:url(#SVGID_3_);}
	.st4{fill:url(#SVGID_4_);}
</style>
<g>
	<g>
		<path class="st0" d="M74.4,17.4c-1.7-0.7-4.4-1-8.2-1h-7v34.5h6.6V36.3c3.3,0,5.7-0.2,6.9-0.5c2.2-0.6,3.9-1.7,5.1-3.3
			c1.3-1.6,1.9-3.6,1.9-6c0-2.2-0.5-4-1.4-5.6C77.4,19.3,76.1,18.1,74.4,17.4z M72.9,28.4c-0.4,0.5-0.9,0.9-1.5,1.2
			s-1.8,0.3-3.4,0.3h-2.1v-7.1h1.8c2,0,3.4,0.2,4.2,0.7c1,0.6,1.6,1.6,1.6,2.9C73.5,27.2,73.3,27.8,72.9,28.4z"/>
		<path class="st0" d="M117.8,45.1l-4.4-4.6c-1.9,1.9-3.6,3.2-5.2,3.9c-1.6,0.7-3.3,1.1-5.2,1.1c-2.2,0-4.3-0.5-6.1-1.5
			c-1.8-1-3.2-2.4-4.2-4.2c-1-1.8-1.5-3.8-1.5-6.1c0-3.3,1.1-6.1,3.4-8.3c2.3-2.2,5-3.4,8.3-3.4c3.9,0,7.4,1.7,10.5,4.9l4.6-4.4
			c-1.9-2.2-4.2-3.9-6.8-5.1c-2.6-1.2-5.4-1.8-8.2-1.8c-3.3,0-6.5,0.8-9.4,2.4c-2.9,1.6-5.1,3.8-6.7,6.4c-1.6,2.7-2.3,5.7-2.3,9.2
			c0,5.3,1.7,9.7,5.1,13.1s7.8,5.1,13.2,5.1c2.9,0,5.5-0.5,7.8-1.4C112.9,49.4,115.3,47.6,117.8,45.1z"/>
		<polygon class="st0" points="130.4,35.6 141,50.9 148.8,50.9 135.6,31.8 147.6,16.4 139.7,16.4 130.4,28.3 130.4,16.4 123.7,16.4 
			123.7,50.9 130.4,50.9 		"/>
		<path class="st0" d="M68.3,71.3c-2.2-1.6-3.5-2.6-3.9-3c-0.7-0.7-1.2-1.4-1.5-2s-0.4-1.2-0.4-1.9c0-1.1,0.4-2,1.2-2.7
			c0.8-0.7,1.8-1.1,3-1.1c0.9,0,1.8,0.2,2.6,0.7c0.8,0.5,1.8,1.5,2.9,3l2.4-1.9c-1.4-1.9-2.7-3.2-3.9-3.9c-1.2-0.7-2.6-1.1-4-1.1
			c-1.3,0-2.6,0.3-3.7,0.9s-2,1.5-2.7,2.5c-0.6,1.1-0.9,2.3-0.9,3.6c0,1.7,0.5,3.2,1.6,4.6c0.6,0.8,2.2,2.2,4.7,4.1
			c2.5,1.9,4.2,3.5,5.2,4.8c0.7,1,1,2,1,3c0,0.9-0.2,1.7-0.7,2.5c-0.5,0.8-1.1,1.4-2,1.9c-0.9,0.5-1.8,0.7-2.8,0.7
			c-2.4,0-4.4-1.6-6.2-5l-2.5,1.5c1.2,2.3,2.6,3.9,4.1,4.9c1.5,1,3.1,1.5,5,1.5c2.4,0,4.4-0.8,6-2.4s2.5-3.5,2.5-5.7
			c0-1.5-0.5-3-1.4-4.5C72.7,74.9,70.9,73.2,68.3,71.3z"/>
		<path class="st0" d="M98.4,76.4c0,2.4-0.1,3.9-0.3,4.7c-0.3,1.1-0.7,2-1.3,2.7c-0.6,0.8-1.4,1.3-2.3,1.8s-1.9,0.6-2.9,0.6
			c-1.1,0-2.3-0.3-3.4-0.8c-1.1-0.5-2-1.2-2.5-2c-0.5-0.8-0.9-1.8-1-3c-0.1-0.5-0.1-1.9-0.1-4V58.2h-3v18.1c0,3.1,0.2,5.2,0.6,6.3
			c0.6,1.9,1.7,3.4,3.5,4.6s3.8,1.7,6.2,1.7c2.2,0,4.1-0.6,5.7-1.8c1.6-1.2,2.6-2.7,3.2-4.3c0.5-1.7,0.8-3.8,0.8-6.5V58.3h-3
			L98.4,76.4L98.4,76.4z"/>
		<polygon class="st0" points="136.6,58.2 124.5,82.9 112.2,58.2 111.8,58.2 107.5,88.3 110.4,88.3 113.3,66.6 124.1,88.3 
			124.8,88.3 135.5,66.8 138.4,88.3 141.4,88.3 137.1,58.2 		"/>
		<polygon class="st0" points="175,58.2 162.9,82.9 150.7,58.2 150.2,58.2 145.9,88.3 148.8,88.3 151.8,66.6 162.5,88.3 163.3,88.3 
			173.9,66.8 176.9,88.3 179.8,88.3 175.5,58.2 		"/>
		<rect x="185.3" y="58.2" class="st0" width="3" height="30.1"/>
		<polygon class="st0" points="192.2,58.2 192.2,61.2 198.9,61.2 198.9,88.3 202,88.3 202,61.2 208.7,61.2 208.7,58.2 		"/>
	</g>
	<g>
		
			<linearGradient id="SVGID_1_" gradientUnits="userSpaceOnUse" x1="47.86" y1="96.4059" x2="47.86" y2="41.1835" gradientTransform="matrix(1 0 0 -1 0 115.9075)">
			<stop  offset="0" style="stop-color:#9BAEBD"/>
			<stop  offset="1" style="stop-color:#1E3954"/>
		</linearGradient>
		<path class="st1" d="M46.6,10.1c-0.7-1-1.5-2.1-2.2-3.1v6.3v1.4v12.3v1.8v9.1v1.2v49.2h6.9V35.7v-3.3v-2.6v-1.5V20v-1.5v-3.9
			C49.1,12.7,47.4,11.2,46.6,10.1z"/>
		
			<linearGradient id="SVGID_2_" gradientUnits="userSpaceOnUse" x1="36.48" y1="96.4055" x2="36.48" y2="41.1834" gradientTransform="matrix(1 0 0 -1 0 115.9075)">
			<stop  offset="0" style="stop-color:#9BAEBD"/>
			<stop  offset="1" style="stop-color:#1E3954"/>
		</linearGradient>
		<path class="st2" d="M33,6v1.5v6.7V15v13.1v1.5v58.7h6.9V34v-1.7V8.2V5.4V2c-1.3,0.2-4.2,0.6-6.9,1.5C33,3.5,33,6,33,6z"/>
		
			<linearGradient id="SVGID_3_" gradientUnits="userSpaceOnUse" x1="25.09" y1="96.4057" x2="25.09" y2="41.1835" gradientTransform="matrix(1 0 0 -1 0 115.9075)">
			<stop  offset="0" style="stop-color:#9BAEBD"/>
			<stop  offset="1" style="stop-color:#1E3954"/>
		</linearGradient>
		<path class="st3" d="M21.6,13.4v4.5v1.5v24v3v42.1h6.9V35.4V34V15.6v-1.2v-0.4v-1.2v-0.3v-2V5.9C25.5,8.5,22.6,12,21.6,13.4z"/>
		
			<linearGradient id="SVGID_4_" gradientUnits="userSpaceOnUse" x1="13.71" y1="96.4062" x2="13.71" y2="41.1836" gradientTransform="matrix(1 0 0 -1 0 115.9075)">
			<stop  offset="0" style="stop-color:#9BAEBD"/>
			<stop  offset="1" style="stop-color:#1E3954"/>
		</linearGradient>
		<path class="st4" d="M10.2,28.3v1.8v1.8v1.3v1.4v2v51.7h6.9V34.9v-5.8v-0.5V23v-1.6V17c-1.9,1.6-4.4,3.6-6.9,6.1V28.3z"/>
	</g>
</g>
</svg>
