<?xml version="1.0" encoding="utf-8"?>
<!-- Generator: Adobe Illustrator 23.0.2, SVG Export Plug-In . SVG Version: 6.00 Build 0)  -->
<svg version="1.1" xmlns="http://www.w3.org/2000/svg" xmlns:xlink="http://www.w3.org/1999/xlink" x="0px" y="0px"
	 viewBox="0 0 89.01 70.18" style="enable-background:new 0 0 89.01 70.18;" xml:space="preserve">
<style type="text/css">
	.st0{fill:#FFFFFF;stroke:#FFFFFF;stroke-width:0.5;stroke-miterlimit:10;}
	.st1{fill:none;stroke:#AD499B;stroke-width:2;stroke-linecap:round;stroke-miterlimit:10;}
	.st2{fill:none;stroke:#000000;stroke-width:1.8;stroke-miterlimit:10;}
	.st3{fill:none;stroke:#000000;stroke-width:3;stroke-miterlimit:10;}
	.st4{fill:none;stroke:#000000;stroke-width:2.7636;stroke-miterlimit:10;}
	.st5{fill:#FFFFFF;stroke:#000000;stroke-width:2.0482;stroke-miterlimit:10;}
	.st6{fill:none;stroke:#000000;stroke-width:2;stroke-miterlimit:10;}
	.st7{fill:#FFFFFF;stroke:#000000;stroke-width:1.6952;stroke-miterlimit:10;}
	.st8{fill:#FFFFFF;stroke:#000000;stroke-width:2;stroke-miterlimit:10;}
	.st9{fill:#FFFFFF;}
	.st10{fill:none;stroke:#000000;stroke-width:2;stroke-miterlimit:10;stroke-dasharray:3.2052,2.1368;}
	.st11{fill:#FFFFFF;stroke:#FFFFFF;stroke-width:0.25;stroke-miterlimit:10;}
	.st12{fill:#4AB862;}
	.st13{fill:none;}
	.st14{fill:none;stroke:#000000;stroke-width:4;stroke-miterlimit:10;}
	.st15{fill:none;stroke:#B73A95;stroke-width:0.25;stroke-miterlimit:10;}
	.st16{fill:none;stroke:#000000;stroke-miterlimit:10;}
	.st17{fill:none;stroke:#AD499B;stroke-width:1.8;stroke-linecap:round;stroke-linejoin:round;stroke-miterlimit:10;}
	.st18{fill:none;stroke:#AD499B;stroke-width:1.8;stroke-linecap:round;stroke-miterlimit:10;}
	.st19{fill:none;stroke:#358E6A;stroke-width:1.8532;stroke-linecap:round;stroke-linejoin:round;stroke-miterlimit:10;}
	.st20{fill:none;stroke:#AD499B;stroke-width:2.1568;stroke-linecap:round;stroke-miterlimit:10;}
	.st21{fill:#FFFFFF;stroke:#AD499B;stroke-width:2;stroke-linecap:round;stroke-miterlimit:10;}
	.st22{fill:none;stroke:#AD499B;stroke-width:1.9947;stroke-linecap:round;stroke-miterlimit:10;}
	.st23{clip-path:url(#SVGID_2_);}
	.st24{clip-path:url(#SVGID_4_);}
	.st25{clip-path:url(#SVGID_6_);}
	.st26{clip-path:url(#SVGID_8_);}
	.st27{stroke:#000000;stroke-width:2.1568;stroke-linecap:round;stroke-miterlimit:10;}
	.st28{fill:none;stroke:#FFFFFF;stroke-width:2.1568;stroke-linecap:round;stroke-miterlimit:10;}
	.st29{stroke:#000000;stroke-width:2;stroke-linecap:round;stroke-miterlimit:10;}
	.st30{fill:none;stroke:#000000;stroke-width:2.0656;stroke-linecap:round;stroke-miterlimit:10;}
	.st31{fill:#FFFFFF;stroke:#000000;stroke-width:2.0827;stroke-linecap:round;stroke-miterlimit:10;}
	.st32{clip-path:url(#SVGID_10_);}
	.st33{clip-path:url(#SVGID_12_);}
	.st34{clip-path:url(#SVGID_14_);}
	.st35{clip-path:url(#SVGID_16_);}
	.st36{fill:#FFFFFF;stroke:#000000;stroke-width:2.1568;stroke-linecap:round;stroke-miterlimit:10;}
	.st37{stroke:#000000;stroke-width:1.9485;stroke-linecap:round;stroke-miterlimit:10;}
	.st38{fill:#FFFFFF;stroke:#000000;stroke-width:2.5715;stroke-linecap:round;stroke-miterlimit:10;}
	.st39{fill:none;stroke:#000000;stroke-width:1.9947;stroke-linecap:round;stroke-miterlimit:10;}
	.st40{clip-path:url(#SVGID_18_);}
	.st41{clip-path:url(#SVGID_20_);}
	.st42{clip-path:url(#SVGID_22_);}
	.st43{clip-path:url(#SVGID_24_);}
	.st44{fill:none;stroke:#000000;stroke-width:2.1568;stroke-linecap:round;stroke-miterlimit:10;}
	.st45{clip-path:url(#SVGID_26_);}
	.st46{clip-path:url(#SVGID_28_);}
	.st47{clip-path:url(#SVGID_30_);}
	.st48{clip-path:url(#SVGID_32_);}
	.st49{fill:none;stroke:#000000;stroke-width:0.8028;stroke-miterlimit:10;}
	.st50{fill:none;stroke:#000000;stroke-width:0.446;stroke-miterlimit:10;}
	.st51{clip-path:url(#SVGID_34_);}
	.st52{clip-path:url(#SVGID_36_);}
	.st53{clip-path:url(#SVGID_38_);}
	.st54{clip-path:url(#SVGID_40_);}
	.st55{fill:#F58256;}
	.st56{fill:#2C87B6;}
	.st57{fill:#FFFFFF;stroke:#A9A8A9;stroke-linecap:round;stroke-miterlimit:10;}
	.st58{fill:none;stroke:#000000;stroke-width:3.1344;stroke-miterlimit:10;}
	.st59{clip-path:url(#SVGID_42_);}
	.st60{clip-path:url(#SVGID_44_);}
	.st61{clip-path:url(#SVGID_46_);}
	.st62{clip-path:url(#SVGID_48_);}
	.st63{clip-path:url(#SVGID_50_);}
	.st64{clip-path:url(#SVGID_52_);}
	.st65{clip-path:url(#SVGID_54_);}
	.st66{clip-path:url(#SVGID_56_);}
	.st67{clip-path:url(#SVGID_58_);}
	.st68{clip-path:url(#SVGID_60_);}
	.st69{clip-path:url(#SVGID_62_);}
	.st70{clip-path:url(#SVGID_64_);}
	.st71{clip-path:url(#SVGID_66_);}
	.st72{clip-path:url(#SVGID_68_);}
	.st73{clip-path:url(#SVGID_70_);}
	.st74{clip-path:url(#SVGID_72_);}
	.st75{fill:none;stroke:#000000;stroke-width:2;stroke-linecap:round;stroke-linejoin:round;stroke-miterlimit:10;}
	.st76{clip-path:url(#SVGID_74_);}
	.st77{clip-path:url(#SVGID_76_);}
	.st78{clip-path:url(#SVGID_78_);}
	.st79{clip-path:url(#SVGID_80_);}
	.st80{fill:none;stroke:#000000;stroke-width:0.8585;stroke-miterlimit:10;}
	.st81{fill:none;stroke:#000000;stroke-width:1.314;stroke-miterlimit:10;}
	.st82{fill:#FFFFFF;stroke:#000000;stroke-width:1.5;stroke-miterlimit:10;}
	.st83{fill:none;stroke:#000000;stroke-width:1.5;stroke-miterlimit:10;}
	.st84{fill:#FFFFFF;stroke:#000000;stroke-miterlimit:10;}
	.st85{fill:none;stroke:#000000;stroke-width:0.5;stroke-miterlimit:10;}
	.st86{fill:#FFFFFF;stroke:#A9A8A9;stroke-miterlimit:10;}
	.st87{fill:#282828;}
	.st88{fill:#FFFFFF;stroke:#A9A8A9;stroke-width:1.0863;stroke-linecap:round;stroke-miterlimit:10;}
	.st89{fill:#FFFFFF;stroke:#A9A8A9;stroke-width:1.0863;stroke-miterlimit:10;}
	.st90{fill:#E7BBD8;}
	.st91{fill:#A8AAAD;}
	.st92{fill:#F48E46;}
	.st93{fill:#A74277;}
	.st94{fill:#B78D5B;}
	.st95{fill:#6B3875;}
	.st96{fill:#93AA3C;}
	.st97{fill:#906F5A;}
	.st98{fill:#02815A;}
	.st99{fill:#F2EEDA;}
	.st100{fill:none;stroke:#153E5A;stroke-width:0.8905;stroke-miterlimit:10;}
	.st101{fill:#153E5A;}
	.st102{fill:none;stroke:#153E5A;stroke-width:0;stroke-linecap:round;stroke-linejoin:round;}
	.st103{fill:none;stroke:#153E5A;stroke-width:0.852;stroke-miterlimit:10;}
	.st104{fill:none;stroke:#153E5A;stroke-width:2.2;stroke-linecap:round;stroke-miterlimit:10;}
	.st105{fill:none;stroke:#153E5A;stroke-width:2.3462;stroke-linecap:round;stroke-miterlimit:10;}
	.st106{fill:none;stroke:#153E5A;stroke-width:2.3462;stroke-miterlimit:10;}
	.st107{fill:#708A80;}
	.st108{fill:#94A360;}
	.st109{fill:#6E96CA;}
	.st110{fill:#A9A8A8;}
	.st111{fill:#5B7A93;}
	.st112{fill:#58677A;}
	.st113{fill:#3C7D5F;}
	.st114{fill:#FEC236;}
	.st115{fill:#5C9DB4;}
	.st116{fill:#589395;}
	.st117{fill:#376D62;}
	.st118{fill:#F47B56;}
	.st119{fill:#615D5D;}
	.st120{fill:#7C8B5E;}
	.st121{fill:#AA5C42;}
	.st122{fill:#7076AA;}
	.st123{fill:#35424D;}
	.st124{fill:#819C62;}
	.st125{fill:#5C9575;}
	.st126{fill:#634455;}
	.st127{fill:#3A4D60;}
	.st128{fill:#B6885B;}
	.st129{fill:#64554F;}
	.st130{fill:#6387A4;}
	.st131{fill:#597A78;}
	.st132{fill:#748860;}
	.st133{fill:#7F6B97;}
	.st134{fill:#8E9090;}
	.st135{fill:#5B6B71;}
	.st136{fill:#949170;}
	.st137{fill:#A47050;}
	.st138{fill:#6A9982;}
	.st139{fill:#929084;}
	.st140{fill:#848E5C;}
	.st141{fill:#7C845E;}
	.st142{fill:#586D79;}
	.st143{fill:#B15C42;}
	.st144{fill:#93704B;}
	.st145{fill:#58796D;}
	.st146{fill:#957246;}
	.st147{fill:#B59058;}
	.st148{fill:#7B4B49;}
	.st149{fill:#5A5E5F;}
	.st150{fill:#948F57;}
	.st151{fill:#BA9F73;}
	.st152{fill:#167894;}
	.st153{fill:#B45444;}
	.st154{fill:#C75780;}
	.st155{fill:#576379;}
	.st156{fill:#8F815B;}
	.st157{fill:#3E7C66;}
	.st158{fill:#586D5D;}
	.st159{fill:#607664;}
	.st160{fill:#5899B2;}
	.st161{fill:#B89B7B;}
	.st162{fill:#94499C;}
	.st163{fill:#6F758C;}
	.st164{fill:#6D9FB4;}
	.st165{fill:#D3317F;}
	.st166{fill:#736B5B;}
	.st167{fill:#B05C62;}
	.st168{fill:#8E5A60;}
	.st169{fill:#57594A;}
	.st170{fill:#077287;}
	.st171{fill:#709796;}
	.st172{fill:#586765;}
	.st173{fill:#5991B1;}
	.st174{fill:#B99E58;}
	.st175{fill:#587374;}
	.st176{fill:#745B60;}
	.st177{fill:#8C7B6C;}
	.st178{fill:#825F5C;}
	.st179{fill:#724099;}
	.st180{fill:#586760;}
	.st181{fill:#C78E8A;}
	.st182{fill:#71846B;}
	.st183{fill:#587B90;}
	.st184{fill:#6A6161;}
	.st185{fill:#947F59;}
	.st186{opacity:0.37;fill:#010101;}
	.st187{fill:#989898;}
	.st188{fill:#F36E41;}
	.st189{fill:#354254;}
	.st190{fill:#2BBFC7;}
	.st191{fill:#60B0CA;}
	.st192{fill:#DCDCDC;}
	.st193{fill:#2B2E31;}
	.st194{fill-rule:evenodd;clip-rule:evenodd;fill:#2B2E31;}
	.st195{fill:#193340;}
	.st196{clip-path:url(#SVGID_82_);}
	.st197{fill-rule:evenodd;clip-rule:evenodd;fill:#193340;}
	.st198{fill:#BBBBBB;}
	.st199{fill:#5D737E;}
	.st200{fill:#293476;}
	.st201{fill:#F8A07E;}
	.st202{fill:#F16036;}
	.st203{fill:#87C38F;}
	.st204{fill:#F8DBBD;}
	.st205{fill:none;stroke:#B0B0B0;stroke-width:2;stroke-miterlimit:10;}
	.st206{fill:none;stroke:#B0B0B0;stroke-width:3;stroke-miterlimit:10;}
	.st207{fill:#6D98BA;}
	.st208{fill:none;stroke:#193340;stroke-width:2;stroke-miterlimit:10;}
	.st209{fill:#B0B0B0;}
	.st210{clip-path:url(#SVGID_84_);}
	.st211{clip-path:url(#SVGID_86_);}
	.st212{clip-path:url(#SVGID_88_);}
	.st213{clip-path:url(#SVGID_90_);}
	.st214{fill:none;stroke:#232323;stroke-linecap:round;stroke-miterlimit:10;}
	.st215{fill:none;stroke:#000000;stroke-width:0.9782;stroke-linecap:round;stroke-miterlimit:10;}
	.st216{fill:#FFFFFF;stroke:#000000;stroke-width:1.0214;stroke-linecap:round;stroke-miterlimit:10;}
	.st217{clip-path:url(#SVGID_92_);}
	.st218{clip-path:url(#SVGID_94_);}
	.st219{clip-path:url(#SVGID_96_);}
	.st220{clip-path:url(#SVGID_98_);}
	.st221{fill:#FFFFFF;stroke:#000000;stroke-width:1.0577;stroke-linecap:round;stroke-miterlimit:10;}
	.st222{fill:none;stroke:#000000;stroke-width:1.013;stroke-linecap:round;stroke-miterlimit:10;}
	.st223{stroke:#000000;stroke-width:0.9556;stroke-linecap:round;stroke-miterlimit:10;}
	.st224{stroke:#000000;stroke-width:0.9808;stroke-linecap:round;stroke-miterlimit:10;}
	.st225{fill:#FFFFFF;stroke:#000000;stroke-width:1.261;stroke-linecap:round;stroke-miterlimit:10;}
	.st226{fill:none;stroke:#000000;stroke-width:1.0577;stroke-linecap:round;stroke-miterlimit:10;}
	.st227{fill:none;stroke:#000000;stroke-width:0.8827;stroke-miterlimit:10;}
	.st228{fill:none;stroke:#000000;stroke-width:0.4904;stroke-miterlimit:10;}
	.st229{fill:#FFFFFF;stroke:#000000;stroke-width:1.0044;stroke-miterlimit:10;}
	.st230{fill:none;stroke:#000000;stroke-width:0.9808;stroke-miterlimit:10;}
	.st231{fill:#FFFFFF;stroke:#000000;stroke-width:0.9808;stroke-miterlimit:10;}
	.st232{fill:none;stroke:#000000;stroke-width:0.9808;stroke-miterlimit:10;stroke-dasharray:1.5718,1.0479;}
	.st233{fill:#FFFFFF;stroke:#FFFFFF;stroke-width:0.2452;stroke-miterlimit:10;}
	.st234{fill:#232323;}
	.st235{fill:none;stroke:#B0B0B0;stroke-width:2.1564;stroke-miterlimit:10;}
	.st236{fill:none;stroke:#B0B0B0;stroke-miterlimit:10;}
	.st237{display:none;}
	.st238{display:inline;}
	.st239{display:inline;fill:none;stroke:#AD499B;stroke-width:2;stroke-linecap:round;stroke-miterlimit:10;}
	.st240{display:inline;fill:none;stroke:#000000;stroke-width:1.8;stroke-miterlimit:10;}
	.st241{display:inline;fill:none;stroke:#000000;stroke-width:3;stroke-miterlimit:10;}
	.st242{display:inline;fill:none;stroke:#000000;stroke-width:2.7636;stroke-miterlimit:10;}
	.st243{display:inline;fill:#FFFFFF;stroke:#000000;stroke-width:2.0482;stroke-miterlimit:10;}
	.st244{display:inline;fill:none;stroke:#000000;stroke-width:2;stroke-miterlimit:10;}
	.st245{display:inline;fill:#FFFFFF;stroke:#000000;stroke-width:1.6952;stroke-miterlimit:10;}
	.st246{display:inline;fill:#FFFFFF;stroke:#000000;stroke-width:2;stroke-miterlimit:10;}
	.st247{display:inline;fill:#FFFFFF;stroke:#FFFFFF;stroke-width:0.25;stroke-miterlimit:10;}
	.st248{display:inline;fill:#FFFFFF;stroke:#FFFFFF;stroke-width:0.5;stroke-miterlimit:10;}
	.st249{display:inline;fill:#4AB862;}
	.st250{display:inline;fill:none;}
	.st251{display:inline;fill:none;stroke:#000000;stroke-width:4;stroke-miterlimit:10;}
	.st252{display:inline;fill:none;stroke:#B73A95;stroke-width:0.25;stroke-miterlimit:10;}
	.st253{display:inline;fill:none;stroke:#000000;stroke-miterlimit:10;}
	
		.st254{display:inline;fill:none;stroke:#AD499B;stroke-width:1.8;stroke-linecap:round;stroke-linejoin:round;stroke-miterlimit:10;}
	.st255{display:inline;fill:none;stroke:#AD499B;stroke-width:1.8;stroke-linecap:round;stroke-miterlimit:10;}
	
		.st256{display:inline;fill:none;stroke:#358E6A;stroke-width:1.8532;stroke-linecap:round;stroke-linejoin:round;stroke-miterlimit:10;}
	.st257{display:inline;fill:none;stroke:#AD499B;stroke-width:2.1568;stroke-linecap:round;stroke-miterlimit:10;}
	.st258{display:inline;fill:#FFFFFF;stroke:#AD499B;stroke-width:2;stroke-linecap:round;stroke-miterlimit:10;}
	.st259{display:inline;fill:none;stroke:#AD499B;stroke-width:1.9947;stroke-linecap:round;stroke-miterlimit:10;}
	.st260{clip-path:url(#SVGID_100_);}
	.st261{clip-path:url(#SVGID_102_);}
	.st262{clip-path:url(#SVGID_104_);}
	.st263{clip-path:url(#SVGID_106_);}
	.st264{display:inline;stroke:#000000;stroke-width:2.1568;stroke-linecap:round;stroke-miterlimit:10;}
	.st265{display:inline;fill:none;stroke:#FFFFFF;stroke-width:2.1568;stroke-linecap:round;stroke-miterlimit:10;}
	.st266{display:inline;stroke:#000000;stroke-width:2;stroke-linecap:round;stroke-miterlimit:10;}
	.st267{display:inline;fill:#FFFFFF;}
	.st268{display:inline;fill:none;stroke:#000000;stroke-width:2.0656;stroke-linecap:round;stroke-miterlimit:10;}
	.st269{display:inline;fill:#FFFFFF;stroke:#000000;stroke-width:2.0827;stroke-linecap:round;stroke-miterlimit:10;}
	.st270{clip-path:url(#SVGID_108_);}
	.st271{clip-path:url(#SVGID_110_);}
	.st272{clip-path:url(#SVGID_112_);}
	.st273{clip-path:url(#SVGID_114_);}
	.st274{display:inline;fill:#FFFFFF;stroke:#000000;stroke-width:2.1568;stroke-linecap:round;stroke-miterlimit:10;}
	.st275{display:inline;stroke:#000000;stroke-width:1.9485;stroke-linecap:round;stroke-miterlimit:10;}
	.st276{display:inline;fill:#FFFFFF;stroke:#000000;stroke-width:2.5715;stroke-linecap:round;stroke-miterlimit:10;}
	.st277{display:inline;fill:none;stroke:#000000;stroke-width:1.9947;stroke-linecap:round;stroke-miterlimit:10;}
	.st278{clip-path:url(#SVGID_116_);}
	.st279{clip-path:url(#SVGID_118_);}
	.st280{clip-path:url(#SVGID_120_);}
	.st281{clip-path:url(#SVGID_122_);}
	.st282{clip-path:url(#SVGID_124_);}
	.st283{clip-path:url(#SVGID_126_);}
	.st284{clip-path:url(#SVGID_128_);}
	.st285{clip-path:url(#SVGID_130_);}
	.st286{display:inline;fill:none;stroke:#000000;stroke-width:2;stroke-linecap:round;stroke-linejoin:round;stroke-miterlimit:10;}
	.st287{clip-path:url(#SVGID_132_);}
	.st288{clip-path:url(#SVGID_134_);}
	.st289{clip-path:url(#SVGID_136_);}
	.st290{clip-path:url(#SVGID_138_);}
</style>
<g id="hand">
</g>
<g id="BOTT_PAGE">
</g>
<g id="TOP_PAGE">
	<path class="st55" d="M74.49,51.97H16.53c-2.92,0-5.32-2.39-5.32-5.32V25.72c0-2.92,2.39-5.32,5.32-5.32h57.96
		c2.92,0,5.32,2.39,5.32,5.32v20.94C79.8,49.58,77.41,51.97,74.49,51.97z"/>
	<circle class="st9" cx="45.51" cy="36.19" r="29.39"/>
	<g>
		<path class="st195" d="M47.68,30.91h-0.54c-0.07-0.28-0.18-0.54-0.32-0.79l0.39-0.39c0.08-0.08,0.08-0.21,0-0.28l-0.85-0.85
			c-0.08-0.08-0.21-0.08-0.28,0l-0.39,0.39c-0.24-0.14-0.5-0.25-0.77-0.32v-0.53c0-0.11-0.09-0.2-0.2-0.2h-1.2
			c-0.11,0-0.2,0.09-0.2,0.2v0.53c-0.27,0.07-0.53,0.18-0.77,0.32l-0.38-0.38c-0.08-0.08-0.21-0.08-0.28,0l-0.85,0.85
			c-0.08,0.08-0.08,0.21,0,0.28l0.38,0.38c-0.14,0.24-0.25,0.51-0.32,0.78h-0.56c-0.11,0-0.2,0.09-0.2,0.2v1.2
			c0,0.11,0.09,0.2,0.2,0.2h0.57c0.07,0.27,0.18,0.53,0.32,0.76L41,33.67c-0.08,0.08-0.08,0.21,0,0.28l0.85,0.85
			c0.08,0.08,0.21,0.08,0.28,0l0.39-0.39c0.24,0.14,0.5,0.25,0.78,0.32v0.55c0,0.11,0.09,0.2,0.2,0.2h1.2c0.11,0,0.2-0.09,0.2-0.2
			v-0.55c0.27-0.07,0.53-0.18,0.77-0.32l0.39,0.39c0.08,0.08,0.21,0.08,0.28,0l0.85-0.85c0.08-0.08,0.08-0.21,0-0.28l-0.39-0.39
			c0.14-0.24,0.25-0.49,0.32-0.76h0.54c0.11,0,0.2-0.09,0.2-0.2v-1.2C47.89,31,47.8,30.91,47.68,30.91z M44.11,33.45
			c-0.97,0-1.75-0.79-1.75-1.75c0-0.97,0.79-1.75,1.75-1.75s1.75,0.79,1.75,1.75C45.86,32.67,45.08,33.45,44.11,33.45z"/>
		<path class="st195" d="M52.73,28.24l-0.38-0.04c-0.03-0.2-0.09-0.39-0.17-0.58l0.3-0.24c0.06-0.05,0.07-0.14,0.02-0.2l-0.53-0.66
			c-0.05-0.06-0.14-0.07-0.2-0.02l-0.3,0.24c-0.16-0.12-0.33-0.21-0.52-0.28L51,26.08c0.01-0.08-0.05-0.15-0.13-0.16l-0.84-0.09
			c-0.08-0.01-0.15,0.05-0.16,0.13l-0.04,0.37c-0.2,0.03-0.39,0.09-0.57,0.17l-0.24-0.29c-0.05-0.06-0.14-0.07-0.2-0.02l-0.66,0.53
			c-0.06,0.05-0.07,0.14-0.02,0.2l0.24,0.29c-0.12,0.16-0.22,0.34-0.29,0.53l-0.4-0.04c-0.08-0.01-0.15,0.05-0.16,0.13l-0.09,0.84
			c-0.01,0.08,0.05,0.15,0.13,0.16l0.4,0.04c0.03,0.2,0.09,0.38,0.16,0.56l-0.31,0.24c-0.06,0.05-0.07,0.14-0.02,0.2l0.53,0.66
			c0.05,0.06,0.14,0.07,0.2,0.02l0.31-0.24c0.16,0.12,0.33,0.21,0.52,0.29l-0.04,0.39c-0.01,0.08,0.05,0.15,0.13,0.16l0.84,0.09
			c0.08,0.01,0.15-0.05,0.16-0.13l0.04-0.39c0.2-0.03,0.39-0.09,0.57-0.17l0.24,0.3c0.05,0.06,0.14,0.07,0.2,0.02l0.66-0.53
			c0.06-0.05,0.07-0.14,0.02-0.2l-0.24-0.3c0.12-0.16,0.21-0.33,0.28-0.51l0.38,0.04c0.08,0.01,0.15-0.05,0.16-0.13l0.09-0.84
			C52.87,28.32,52.81,28.25,52.73,28.24z M50.03,29.75c-0.68-0.07-1.17-0.69-1.09-1.37c0.07-0.68,0.69-1.17,1.37-1.09
			s1.17,0.69,1.09,1.37S50.71,29.82,50.03,29.75z"/>
		<path class="st195" d="M59.87,33.42c-0.63-1.77-0.93-3.26-1-3.67l-0.98,0.18c0.08,0.43,0.39,1.98,1.04,3.83L59.87,33.42z"/>
		<path class="st195" d="M56.4,30.11c-0.46-4.68-4.41-8.35-9.21-8.35c-5.1,0-9.26,4.15-9.26,9.26c0,0.52,0.05,1.03,0.14,1.53l0,0
			c0,0.01,0.01,0.05,0.02,0.11c0.15,1.05,1.12,10.24-1.36,16.28c-0.2,0.48-0.41,0.95-0.66,1.38c0.41,0.29,0.83,0.56,1.27,0.8
			c2.02,1.12,4.34,1.76,6.8,1.76c2.39,0,4.63-0.61,6.59-1.66c0.45-0.24,0.87-0.5,1.29-0.79c-0.23-0.46-0.43-0.92-0.61-1.4
			c-0.7-1.84-1.07-3.68-1.24-4.78c3.27,0.46,6.13-0.63,6.27-0.68l0.67-0.26l-0.23-0.68c-0.22-0.65-0.44-2.75-0.58-4.39l2.99-0.08
			l-0.55-1.06C57.11,33.93,56.49,30.67,56.4,30.11z M44.15,51.4c-2.23,0-4.32-0.6-6.13-1.62c0.2-0.46,0.37-0.95,0.54-1.45
			c1.72,0.78,3.62,1.23,5.63,1.23c1.94,0,3.76-0.44,5.43-1.17c0.15,0.49,0.33,0.98,0.52,1.48C48.35,50.84,46.31,51.4,44.15,51.4z
			 M54.69,36.81l0.05,0.78c0.03,0.37,0.23,3.2,0.53,4.8c-1.08,0.31-3.43,0.81-5.81,0.22l-1.02-0.25l0.1,1.05
			c0.01,0.12,0.18,1.86,0.77,4.03c-1.58,0.7-3.31,1.12-5.15,1.12c-1.91,0-3.72-0.44-5.35-1.2c1.01-3.62,1.23-7.77,1.12-10.58
			c-0.08-2.02-0.27-3.57-0.36-4.19c-0.02-0.09-0.03-0.19-0.04-0.28c-0.07-0.42-0.12-0.85-0.12-1.29c0-4.28,3.48-7.76,7.76-7.76
			c4.01,0,7.33,3.07,7.72,6.98c0,0.02,0,0.03,0,0.05c0.05,0.28,0.32,1.83,0.98,3.85c0.27,0.81,0.6,1.7,1.02,2.61L54.69,36.81z"/>
		<path class="st195" d="M40.56,22.55c-0.24-0.3-0.39-0.49-0.62-0.78c-0.31,0.24-0.61,0.51-0.9,0.78c0.26,0.27,0.43,0.44,0.7,0.72
			C40,23.02,40.27,22.78,40.56,22.55z"/>
		<path class="st195" d="M45.67,20.37c0.7-0.1,1.42-0.12,2.11-0.09l0.05-1c-0.76-0.04-1.54-0.01-2.3,0.1h0
			c-1.52,0.21-2.94,0.72-4.22,1.46c0.19,0.32,0.31,0.52,0.51,0.86C42.99,21.03,44.29,20.57,45.67,20.37z"/>
		<path class="st195" d="M36.6,32.88l-0.02-0.11c-0.1-0.61-0.15-1.19-0.15-1.74c0-0.97,0.13-1.93,0.39-2.86
			c0.39-1.39,1.04-2.66,1.9-3.76c-0.3-0.23-0.49-0.38-0.79-0.61c-0.93,1.2-1.65,2.58-2.07,4.1l0,0c-0.28,1.02-0.42,2.07-0.42,3.13
			c0,0.61,0.06,1.25,0.17,1.9l0.01,0.1c0.03,0.23,0.15,1.09,0.22,2.55l1-0.05C36.75,34.01,36.63,33.12,36.6,32.88z"/>
		<path class="st195" d="M55.8,45.36c0.1,0.38,0.16,0.61,0.25,0.97c0.5-0.13,0.89-0.26,1.14-0.35c-0.13-0.35-0.21-0.57-0.34-0.94
			C56.63,45.12,56.27,45.23,55.8,45.36z"/>
		<path class="st195" d="M54.3,45.68c-0.51,0.08-1.07,0.15-1.67,0.19l-0.61,0.03l0.16,0.59c0.19,0.72,0.4,1.4,0.64,2.03
			c0.15,0.4,0.34,0.83,0.55,1.26l0.9-0.44c-0.2-0.41-0.37-0.8-0.52-1.18c-0.16-0.42-0.31-0.87-0.45-1.34
			c0.39-0.04,0.76-0.09,1.11-0.14C54.37,46.29,54.35,46.06,54.3,45.68z"/>
	</g>
	<g>
		<path class="st209" d="M45.51,61.26c-13.83,0-25.07-11.25-25.07-25.07c0-13.83,11.25-25.07,25.07-25.07
			c13.83,0,25.07,11.25,25.07,25.07C70.58,50.01,59.33,61.26,45.51,61.26z M45.51,14.12c-12.17,0-22.07,9.9-22.07,22.07
			s9.9,22.07,22.07,22.07c12.17,0,22.07-9.9,22.07-22.07S57.68,14.12,45.51,14.12z"/>
	</g>
</g>
<g id="ICONS_01">
</g>
<g id="copy" class="st237">
</g>
</svg>
