<?xml version="1.0" encoding="utf-8"?>
<!-- Generator: Adobe Illustrator 16.0.3, SVG Export Plug-In . SVG Version: 6.00 Build 0)  -->
<!DOCTYPE svg PUBLIC "-//W3C//DTD SVG 1.1//EN" "http://www.w3.org/Graphics/SVG/1.1/DTD/svg11.dtd">
<svg version="1.1" id="Layer_1" xmlns="http://www.w3.org/2000/svg" xmlns:xlink="http://www.w3.org/1999/xlink" x="0px" y="0px"
	 width="305px" height="91.167px" viewBox="0 0 305 91.167" enable-background="new 0 0 305 91.167" xml:space="preserve">
<rect x="8.858" y="7.607" fill="#0067AC" width="147" height="73.75"/>
<rect x="9.024" y="7.862" fill="#0067AC" width="146.88" height="73.489"/>
<g>
	<path fill="#FFFFFF" d="M22.61,19.806h31.874v9.727H33.356v9.088h19.723v9.514H33.356v11.928h23.02v9.869H22.61V19.806z"/>
	<path fill="#FFFFFF" d="M62.237,19.806H76.99c4.146,0,7.722,0.533,10.729,1.598c3.007,1.065,5.476,2.651,7.407,4.757
		c1.931,2.106,3.354,4.722,4.268,7.846s1.372,6.745,1.372,10.863c0,2.982-0.326,5.964-0.976,8.946
		c-0.651,2.982-1.788,5.669-3.414,8.059c-1.626,2.391-3.831,4.331-6.615,5.822c-2.784,1.491-6.31,2.236-10.577,2.236H62.237V19.806z
		 M72.984,59.708h3.505c2.337,0,4.356-0.258,6.058-0.776c1.701-0.518,3.105-1.354,4.212-2.508s1.927-2.697,2.46-4.628
		c0.532-1.931,0.8-4.31,0.8-7.137c0-1.931-0.165-3.769-0.493-5.511s-0.922-3.262-1.783-4.557c-0.861-1.296-2.05-2.32-3.567-3.074
		c-1.517-0.753-3.465-1.13-5.843-1.13h-5.351V59.708z"/>
	<path fill="#FFFFFF" d="M144.363,58.501c-0.855,1.752-1.883,3.408-3.083,4.97c-1.201,1.562-2.575,2.936-4.122,4.119
		c-1.548,1.184-3.267,2.118-5.16,2.804c-1.893,0.686-3.959,1.03-6.198,1.03c-2.85,0-5.526-0.594-8.029-1.775
		c-2.503-1.184-4.692-2.911-6.564-5.183c-1.873-2.272-3.349-5.052-4.427-8.343c-1.079-3.289-1.618-7.064-1.618-11.324
		c0-3.692,0.519-7.159,1.557-10.402c1.038-3.241,2.473-6.058,4.305-8.449c1.832-2.39,4.03-4.271,6.594-5.645
		c2.565-1.373,5.374-2.059,8.426-2.059c1.994,0,3.917,0.319,5.771,0.958c1.852,0.639,3.572,1.539,5.159,2.698
		c1.588,1.161,3.002,2.533,4.244,4.118c1.241,1.586,2.249,3.326,3.022,5.219l-8.647,4.97c-0.247-0.955-0.659-1.898-1.235-2.83
		c-0.576-0.932-1.269-1.756-2.077-2.473c-0.809-0.717-1.708-1.301-2.699-1.755c-0.991-0.454-2.031-0.681-3.123-0.681
		c-1.738,0-3.265,0.439-4.579,1.317c-1.313,0.877-2.416,2.051-3.305,3.522c-0.889,1.471-1.556,3.166-2,5.088
		c-0.445,1.921-0.667,3.925-0.667,6.012c0,2.752,0.284,5.16,0.855,7.223c0.569,2.063,1.333,3.783,2.29,5.158
		c0.956,1.376,2.076,2.408,3.358,3.095c1.282,0.688,2.656,1.032,4.122,1.032c1.424,0,2.635-0.249,3.633-0.746
		c0.997-0.497,1.862-1.124,2.595-1.881c0.733-0.756,1.343-1.573,1.832-2.449c0.488-0.875,0.916-1.669,1.282-2.379L144.363,58.501z"
		/>
</g>
<g>
	<path fill="#0067AC" d="M165.012,27.119V8.233h4.708v14.9h7.384v3.986H165.012z"/>
	<path fill="#0067AC" d="M182.318,20.993v0.158c0,0.931,0.29,1.708,0.87,2.331c0.579,0.624,1.351,0.935,2.313,0.935
		c0.482,0,0.918-0.074,1.311-0.223c0.393-0.148,0.736-0.34,1.03-0.576c0.294-0.235,0.539-0.497,0.735-0.785
		c0.196-0.288,0.348-0.572,0.455-0.851l3.104,1.605c-0.803,1.337-1.802,2.345-2.996,3.022c-1.195,0.678-2.516,1.017-3.959,1.017
		c-1.07,0-2.038-0.165-2.902-0.495c-0.865-0.33-1.605-0.802-2.221-1.417s-1.093-1.373-1.432-2.274
		c-0.338-0.9-0.508-1.913-0.508-3.036c0-0.874,0.115-1.766,0.348-2.675c0.232-0.91,0.629-1.734,1.19-2.475
		c0.562-0.74,1.302-1.346,2.22-1.819c0.919-0.472,2.056-0.709,3.411-0.709c1.319,0,2.425,0.241,3.317,0.722
		c0.891,0.481,1.609,1.106,2.153,1.873c0.544,0.767,0.937,1.632,1.177,2.595c0.24,0.963,0.361,1.926,0.361,2.889v0.187H182.318z
		 M188.043,18.425c-0.035-0.785-0.294-1.44-0.775-1.966s-1.15-0.79-2.006-0.79c-0.482,0-0.9,0.09-1.258,0.268
		c-0.356,0.179-0.65,0.406-0.883,0.682c-0.231,0.277-0.41,0.575-0.535,0.896c-0.125,0.321-0.213,0.624-0.268,0.909H188.043z"/>
	<path fill="#0067AC" d="M202.516,27.119v-1.257c-0.268,0.179-0.545,0.366-0.83,0.562s-0.593,0.375-0.922,0.535
		c-0.331,0.161-0.701,0.29-1.111,0.388c-0.41,0.098-0.883,0.147-1.417,0.147c-0.803,0-1.489-0.129-2.06-0.388
		c-0.571-0.258-1.043-0.589-1.418-0.99c-0.375-0.401-0.651-0.856-0.83-1.364c-0.178-0.508-0.268-1.012-0.268-1.512
		c0-0.874,0.272-1.672,0.816-2.394s1.253-1.261,2.127-1.618c0.481-0.196,1.137-0.388,1.966-0.575
		c0.829-0.188,2.011-0.423,3.544-0.709v-0.776c0-0.125-0.014-0.281-0.041-0.468c-0.026-0.188-0.09-0.37-0.189-0.548
		s-0.258-0.334-0.475-0.468s-0.516-0.201-0.895-0.201c-0.436,0-0.793,0.058-1.072,0.174c-0.28,0.116-0.498,0.254-0.651,0.415
		c-0.153,0.161-0.263,0.334-0.325,0.521c-0.064,0.188-0.113,0.361-0.149,0.522h-4.065c0-0.767,0.164-1.427,0.495-1.979
		s0.769-1.003,1.313-1.351s1.171-0.602,1.877-0.762s1.443-0.241,2.213-0.241c0.607,0,1.264,0.049,1.97,0.147
		c0.706,0.098,1.358,0.294,1.957,0.588c0.599,0.294,1.1,0.705,1.501,1.23c0.402,0.526,0.604,1.208,0.604,2.046v8.159
		c0,0.607,0.022,1.057,0.066,1.351c0.045,0.294,0.156,0.566,0.335,0.816H202.516z M199.481,21.314
		c-0.709,0.232-1.179,0.504-1.409,0.816s-0.346,0.62-0.346,0.923c0,0.125,0.027,0.268,0.08,0.428
		c0.053,0.161,0.142,0.313,0.266,0.455s0.288,0.268,0.492,0.375c0.203,0.107,0.447,0.16,0.73,0.16c0.408,0,0.78-0.084,1.117-0.254
		s0.633-0.405,0.891-0.709c0.257-0.303,0.456-0.664,0.599-1.083c0.142-0.418,0.212-0.878,0.212-1.377v-0.615L199.481,21.314z"/>
	<path fill="#0067AC" d="M212.975,13.156V14.6c0.179-0.143,0.381-0.303,0.605-0.481s0.569-0.365,1.037-0.562
		c0.574-0.232,1.059-0.379,1.453-0.441s0.718-0.103,0.97-0.121v3.638l-1.374,0.214c-0.538,0.089-0.979,0.192-1.319,0.308
		c-0.341,0.116-0.606,0.268-0.795,0.455c-0.188,0.188-0.313,0.415-0.377,0.682c-0.063,0.268-0.094,0.589-0.094,0.963v7.864h-4.065
		V13.156H212.975z"/>
	<path fill="#0067AC" d="M227.232,27.119v-8.613c0-0.321-0.027-0.629-0.082-0.923c-0.055-0.294-0.158-0.553-0.312-0.776
		c-0.153-0.223-0.366-0.397-0.637-0.522c-0.271-0.125-0.614-0.187-1.029-0.187c-0.487,0-0.876,0.08-1.165,0.241
		s-0.51,0.384-0.664,0.669c-0.153,0.285-0.252,0.625-0.297,1.016c-0.046,0.393-0.068,0.821-0.068,1.284v7.811h-4.066V13.156h4.12
		v1.23c0.339-0.41,0.833-0.776,1.484-1.097c0.651-0.321,1.467-0.481,2.448-0.481c1.426,0,2.505,0.357,3.236,1.07
		c0.73,0.713,1.097,1.783,1.097,3.21v10.031H227.232z"/>
	<path fill="#0067AC" d="M234.428,11.417V8.233h4.065v3.184H234.428z M234.428,27.119V13.156h4.065v13.963H234.428z"/>
	<path fill="#0067AC" d="M249.969,27.119v-8.613c0-0.321-0.027-0.629-0.082-0.923c-0.054-0.294-0.158-0.553-0.311-0.776
		c-0.154-0.223-0.366-0.397-0.637-0.522c-0.271-0.125-0.614-0.187-1.029-0.187c-0.488,0-0.877,0.08-1.166,0.241
		s-0.51,0.384-0.663,0.669s-0.253,0.625-0.298,1.016c-0.045,0.393-0.068,0.821-0.068,1.284v7.811h-4.065V13.156h4.12v1.23
		c0.338-0.41,0.832-0.776,1.484-1.097c0.65-0.321,1.467-0.481,2.447-0.481c1.426,0,2.506,0.357,3.236,1.07
		c0.731,0.713,1.098,1.783,1.098,3.21v10.031H249.969z"/>
	<path fill="#0067AC" d="M269.79,13.156v13.616c0,1.836-0.583,3.188-1.749,4.053c-1.166,0.865-2.887,1.297-5.166,1.297
		c-0.943,0-1.806-0.094-2.589-0.281c-0.784-0.187-1.455-0.473-2.016-0.856c-0.561-0.384-0.997-0.86-1.308-1.431
		c-0.313-0.571-0.467-1.24-0.467-2.006v-0.428h4.252c0,0.231,0.031,0.481,0.094,0.749s0.188,0.512,0.375,0.736
		c0.188,0.223,0.445,0.41,0.775,0.562c0.33,0.151,0.763,0.228,1.298,0.228c0.767,0,1.364-0.17,1.792-0.508
		c0.428-0.339,0.643-0.91,0.643-1.712v-1.899c-0.232,0.161-0.469,0.312-0.709,0.455c-0.241,0.143-0.5,0.268-0.775,0.375
		c-0.277,0.107-0.594,0.197-0.95,0.268c-0.356,0.071-0.767,0.107-1.23,0.107c-0.571,0-1.19-0.098-1.859-0.294
		s-1.293-0.544-1.872-1.043c-0.58-0.499-1.066-1.186-1.458-2.06c-0.393-0.874-0.589-1.988-0.589-3.344
		c0-1.052,0.143-1.997,0.428-2.835s0.687-1.552,1.204-2.14c0.517-0.588,1.128-1.043,1.833-1.364
		c0.703-0.321,1.475-0.481,2.313-0.481c1.017,0,1.823,0.165,2.421,0.495c0.598,0.33,1.083,0.673,1.457,1.03v-1.284H269.79z
		 M265.645,18.372c-0.055-0.446-0.174-0.843-0.361-1.19s-0.455-0.633-0.803-0.856s-0.825-0.334-1.432-0.334
		c-0.588,0-1.053,0.147-1.391,0.441c-0.339,0.294-0.594,0.638-0.762,1.03c-0.17,0.393-0.273,0.789-0.309,1.19
		s-0.053,0.709-0.053,0.923c0,0.5,0.03,0.977,0.094,1.431c0.062,0.455,0.187,0.856,0.374,1.204c0.187,0.348,0.454,0.625,0.802,0.829
		c0.348,0.206,0.799,0.308,1.352,0.308c0.605,0,1.084-0.125,1.432-0.375c0.348-0.25,0.605-0.557,0.775-0.923
		c0.169-0.365,0.271-0.757,0.307-1.177c0.036-0.419,0.055-0.816,0.055-1.19C265.725,19.255,265.697,18.818,265.645,18.372z"/>
	<path fill="#0067AC" d="M169.586,42.768v6.688c0,0.464,0.098,0.771,0.295,0.923c0.195,0.151,0.454,0.227,0.775,0.227
		c0.089,0,0.209-0.004,0.361-0.013c0.15-0.009,0.307-0.013,0.468-0.013h0.615v3.183c-0.144,0.036-0.424,0.08-0.843,0.134
		c-0.419,0.053-1.003,0.08-1.752,0.08c-0.553,0-1.074-0.053-1.564-0.161c-0.491-0.107-0.914-0.308-1.271-0.602
		c-0.356-0.294-0.637-0.696-0.842-1.204c-0.205-0.508-0.309-1.173-0.309-1.993v-7.276h-2.032v-2.515h2.032v-4.36h4.066v4.387h2.729
		v2.515H169.586z"/>
	<path fill="#0067AC" d="M178.601,39.906v1.444c0.179-0.143,0.381-0.303,0.605-0.481s0.569-0.365,1.037-0.562
		c0.574-0.232,1.059-0.379,1.454-0.441c0.395-0.063,0.717-0.103,0.969-0.121v3.638l-1.373,0.214
		c-0.539,0.089-0.979,0.192-1.32,0.308c-0.341,0.116-0.605,0.268-0.795,0.455c-0.188,0.188-0.313,0.415-0.377,0.682
		c-0.063,0.268-0.094,0.589-0.094,0.963v7.864h-4.065V39.906H178.601z"/>
	<path fill="#0067AC" d="M192.243,53.869v-1.257c-0.268,0.179-0.544,0.366-0.829,0.562s-0.594,0.375-0.923,0.535
		c-0.331,0.161-0.7,0.29-1.11,0.388c-0.41,0.098-0.883,0.147-1.418,0.147c-0.803,0-1.488-0.129-2.06-0.388s-1.043-0.589-1.417-0.99
		c-0.375-0.401-0.652-0.856-0.83-1.364s-0.268-1.012-0.268-1.512c0-0.874,0.271-1.672,0.816-2.394
		c0.543-0.722,1.252-1.261,2.127-1.618c0.48-0.196,1.137-0.388,1.965-0.575c0.83-0.188,2.012-0.423,3.545-0.709v-0.776
		c0-0.125-0.014-0.281-0.041-0.468c-0.027-0.188-0.09-0.37-0.189-0.548s-0.258-0.334-0.475-0.468
		c-0.218-0.134-0.516-0.201-0.896-0.201c-0.435,0-0.792,0.058-1.071,0.174c-0.281,0.116-0.498,0.254-0.652,0.415
		c-0.153,0.161-0.262,0.334-0.324,0.521c-0.064,0.188-0.113,0.361-0.15,0.522h-4.065c0-0.767,0.165-1.427,0.495-1.979
		c0.331-0.553,0.77-1.003,1.314-1.351s1.17-0.602,1.877-0.762c0.705-0.161,1.443-0.241,2.212-0.241c0.607,0,1.265,0.049,1.97,0.147
		c0.707,0.098,1.359,0.294,1.957,0.588c0.6,0.294,1.1,0.705,1.502,1.23c0.402,0.526,0.604,1.208,0.604,2.046v8.159
		c0,0.607,0.021,1.057,0.066,1.351s0.156,0.566,0.334,0.816H192.243z M189.209,48.064c-0.709,0.232-1.178,0.504-1.408,0.816
		s-0.346,0.62-0.346,0.923c0,0.125,0.026,0.268,0.08,0.428c0.053,0.161,0.141,0.313,0.266,0.455
		c0.123,0.143,0.287,0.268,0.491,0.375s0.448,0.16,0.731,0.16c0.408,0,0.779-0.084,1.117-0.254c0.336-0.169,0.633-0.405,0.891-0.709
		c0.256-0.303,0.455-0.664,0.598-1.083c0.143-0.418,0.213-0.878,0.213-1.377v-0.615L189.209,48.064z"/>
	<path fill="#0067AC" d="M207.143,53.869v-8.613c0-0.321-0.027-0.629-0.082-0.923c-0.054-0.294-0.158-0.553-0.311-0.776
		c-0.154-0.223-0.366-0.397-0.637-0.522c-0.271-0.125-0.614-0.187-1.029-0.187c-0.488,0-0.877,0.08-1.166,0.241
		s-0.51,0.384-0.663,0.669s-0.253,0.625-0.298,1.016c-0.045,0.393-0.068,0.821-0.068,1.284v7.811h-4.065V39.906h4.12v1.23
		c0.338-0.41,0.832-0.776,1.484-1.097c0.65-0.321,1.467-0.481,2.447-0.481c1.426,0,2.506,0.357,3.236,1.07
		c0.731,0.713,1.098,1.783,1.098,3.21v10.031H207.143z"/>
	<path fill="#0067AC" d="M223.353,43.892c-0.464-0.375-1.009-0.7-1.638-0.977c-0.627-0.276-1.272-0.415-1.936-0.415
		c-0.216,0-0.439,0.018-0.674,0.053c-0.232,0.036-0.443,0.099-0.631,0.188c-0.188,0.089-0.342,0.201-0.458,0.334
		s-0.175,0.299-0.175,0.495c0,0.339,0.175,0.584,0.523,0.736s0.935,0.308,1.758,0.468l0.993,0.188
		c0.751,0.143,1.44,0.33,2.066,0.562c0.626,0.232,1.158,0.522,1.597,0.87c0.438,0.348,0.778,0.767,1.02,1.257
		c0.242,0.491,0.362,1.057,0.362,1.699c0,0.874-0.21,1.618-0.628,2.233c-0.42,0.615-0.95,1.119-1.592,1.511
		c-0.643,0.393-1.352,0.678-2.127,0.856c-0.775,0.178-1.529,0.268-2.26,0.268c-0.875,0-1.668-0.089-2.381-0.268
		c-0.714-0.178-1.355-0.401-1.926-0.668c-0.572-0.268-1.063-0.562-1.473-0.883c-0.41-0.321-0.74-0.615-0.989-0.883l2.595-2.354
		c0.518,0.535,1.137,0.99,1.859,1.364s1.458,0.562,2.207,0.562c0.678,0,1.262-0.116,1.752-0.348c0.49-0.231,0.736-0.57,0.736-1.017
		c0-0.392-0.184-0.664-0.549-0.815c-0.366-0.151-0.924-0.29-1.672-0.415l-1.258-0.214c-1.658-0.285-2.854-0.78-3.584-1.484
		c-0.731-0.705-1.098-1.592-1.098-2.662c0-0.589,0.125-1.164,0.375-1.726c0.25-0.562,0.619-1.061,1.11-1.498
		c0.49-0.437,1.105-0.789,1.846-1.057c0.739-0.268,1.601-0.401,2.581-0.401c1.195,0,2.314,0.188,3.357,0.562s1.993,0.883,2.85,1.525
		L223.353,43.892z"/>
	<path fill="#0067AC" d="M233.304,42.741v11.128h-4.065V42.741h-2.193v-2.515h2.193V38.22c0-0.606,0.105-1.127,0.319-1.565
		c0.214-0.437,0.507-0.802,0.879-1.097c0.373-0.294,0.813-0.512,1.319-0.655c0.506-0.143,1.061-0.214,1.665-0.214
		c0.248,0,0.506,0.013,0.772,0.04c0.266,0.027,0.52,0.054,0.759,0.08c0.24,0.027,0.444,0.054,0.613,0.081s0.271,0.04,0.307,0.04
		v3.103h-0.749c-0.428,0-0.768,0.022-1.017,0.067c-0.25,0.044-0.433,0.12-0.548,0.227c-0.117,0.107-0.192,0.25-0.229,0.428
		c-0.035,0.179-0.053,0.393-0.053,0.642v0.829h2.755v2.515H233.304z"/>
	<path fill="#0067AC" d="M251.053,49.964c-0.349,0.909-0.844,1.685-1.485,2.327s-1.427,1.137-2.354,1.484
		c-0.927,0.348-1.979,0.522-3.156,0.522c-0.909,0-1.811-0.134-2.701-0.401c-0.893-0.268-1.695-0.696-2.408-1.284
		s-1.288-1.359-1.725-2.314c-0.438-0.954-0.656-2.117-0.656-3.491c0-0.892,0.139-1.774,0.415-2.648
		c0.276-0.874,0.714-1.658,1.312-2.354c0.597-0.695,1.359-1.257,2.287-1.685c0.926-0.428,2.041-0.642,3.344-0.642
		c1.461,0,2.684,0.228,3.664,0.682c0.98,0.455,1.766,1.043,2.354,1.766c0.589,0.722,1.008,1.521,1.258,2.394
		c0.25,0.874,0.375,1.739,0.375,2.595C251.574,48.038,251.4,49.054,251.053,49.964z M246.491,43.711
		c-0.606-0.682-1.472-1.023-2.595-1.023c-0.393,0-0.775,0.077-1.15,0.229c-0.375,0.153-0.713,0.395-1.017,0.727
		s-0.548,0.758-0.735,1.278c-0.188,0.521-0.281,1.149-0.281,1.885c0,0.593,0.063,1.145,0.188,1.656
		c0.125,0.511,0.325,0.956,0.602,1.333c0.277,0.377,0.629,0.673,1.057,0.888c0.428,0.216,0.945,0.323,1.552,0.323
		c0.571,0,1.062-0.112,1.472-0.336c0.41-0.224,0.748-0.521,1.016-0.888s0.469-0.794,0.603-1.279s0.2-0.997,0.2-1.535
		C247.4,45.479,247.098,44.393,246.491,43.711z"/>
	<path fill="#0067AC" d="M257.646,39.906v1.444c0.179-0.143,0.381-0.303,0.605-0.481s0.569-0.365,1.037-0.562
		c0.574-0.232,1.059-0.379,1.453-0.441s0.718-0.103,0.97-0.121v3.638l-1.374,0.214c-0.538,0.089-0.979,0.192-1.319,0.308
		c-0.341,0.116-0.606,0.268-0.795,0.455c-0.188,0.188-0.313,0.415-0.377,0.682c-0.063,0.268-0.094,0.589-0.094,0.963v7.864h-4.065
		V39.906H257.646z"/>
	<path fill="#0067AC" d="M267.597,39.906v1.444c0.089-0.107,0.231-0.263,0.427-0.468c0.195-0.205,0.453-0.405,0.773-0.602
		c0.319-0.196,0.701-0.37,1.146-0.522c0.444-0.151,0.97-0.227,1.573-0.227c0.941,0,1.719,0.143,2.332,0.428
		c0.613,0.286,1.133,0.687,1.561,1.204c0.195-0.161,0.424-0.334,0.682-0.522c0.258-0.187,0.557-0.365,0.896-0.535
		c0.338-0.169,0.723-0.308,1.15-0.415c0.428-0.107,0.9-0.16,1.418-0.16c1.283,0,2.318,0.334,3.104,1.003
		c0.783,0.669,1.176,1.699,1.176,3.09v10.245h-4.066v-8.052c0-0.945-0.135-1.672-0.404-2.18c-0.269-0.508-0.78-0.762-1.534-0.762
		s-1.297,0.223-1.629,0.668c-0.332,0.446-0.498,1.097-0.498,1.953v8.373h-4.065v-8.346c0-0.98-0.174-1.663-0.521-2.046
		c-0.349-0.383-0.844-0.575-1.485-0.575c-0.464,0-0.829,0.093-1.097,0.281c-0.268,0.187-0.473,0.428-0.615,0.722
		s-0.236,0.606-0.281,0.936c-0.045,0.331-0.066,0.647-0.066,0.95v8.079h-4.066V39.906H267.597z"/>
	<path fill="#0067AC" d="M295.926,43.892c-0.465-0.375-1.01-0.7-1.637-0.977c-0.629-0.276-1.273-0.415-1.938-0.415
		c-0.215,0-0.439,0.018-0.672,0.053c-0.234,0.036-0.445,0.099-0.633,0.188c-0.188,0.089-0.34,0.201-0.457,0.334
		s-0.176,0.299-0.176,0.495c0,0.339,0.176,0.584,0.523,0.736c0.35,0.151,0.936,0.308,1.758,0.468l0.994,0.188
		c0.75,0.143,1.439,0.33,2.066,0.562c0.625,0.232,1.158,0.522,1.596,0.87s0.779,0.767,1.02,1.257
		c0.242,0.491,0.363,1.057,0.363,1.699c0,0.874-0.211,1.618-0.629,2.233c-0.42,0.615-0.949,1.119-1.592,1.511
		c-0.643,0.393-1.352,0.678-2.127,0.856c-0.775,0.178-1.529,0.268-2.26,0.268c-0.875,0-1.668-0.089-2.381-0.268
		c-0.713-0.178-1.355-0.401-1.926-0.668s-1.061-0.562-1.471-0.883c-0.412-0.321-0.74-0.615-0.99-0.883l2.594-2.354
		c0.518,0.535,1.137,0.99,1.859,1.364s1.459,0.562,2.207,0.562c0.678,0,1.262-0.116,1.752-0.348c0.49-0.231,0.736-0.57,0.736-1.017
		c0-0.392-0.184-0.664-0.549-0.815s-0.922-0.29-1.672-0.415l-1.258-0.214c-1.658-0.285-2.854-0.78-3.584-1.484
		s-1.096-1.592-1.096-2.662c0-0.589,0.123-1.164,0.373-1.726c0.25-0.562,0.621-1.061,1.111-1.498
		c0.49-0.437,1.105-0.789,1.846-1.057s1.6-0.401,2.58-0.401c1.195,0,2.314,0.188,3.357,0.562s1.994,0.883,2.85,1.525L295.926,43.892
		z"/>
	<path fill="#0067AC" d="M165.039,80.619V61.733h4.065v18.886H165.039z"/>
	<path fill="#0067AC" d="M172.314,64.917v-3.184h4.066v3.184H172.314z M172.314,80.619V66.656h4.066v13.963H172.314z"/>
	<path fill="#0067AC" d="M186.572,80.619h-4.307l-4.548-13.963h4.36l2.488,9.469l2.3-9.469h4.227L186.572,80.619z"/>
	<path fill="#0067AC" d="M195.641,74.493v0.158c0,0.931,0.289,1.708,0.869,2.331c0.579,0.623,1.351,0.936,2.313,0.936
		c0.481,0,0.919-0.074,1.312-0.223c0.392-0.148,0.734-0.34,1.029-0.576c0.295-0.235,0.539-0.497,0.736-0.785
		c0.195-0.287,0.348-0.572,0.454-0.852l3.103,1.605c-0.803,1.338-1.801,2.346-2.996,3.023c-1.194,0.678-2.514,1.016-3.959,1.016
		c-1.069,0-2.037-0.164-2.902-0.494s-1.604-0.803-2.22-1.418s-1.093-1.373-1.431-2.273c-0.34-0.9-0.509-1.913-0.509-3.037
		c0-0.873,0.116-1.766,0.348-2.674c0.231-0.91,0.629-1.734,1.19-2.475c0.563-0.74,1.302-1.347,2.221-1.819
		c0.918-0.472,2.055-0.709,3.41-0.709c1.32,0,2.426,0.241,3.316,0.722c0.893,0.482,1.609,1.106,2.154,1.873
		c0.543,0.768,0.936,1.632,1.177,2.595c0.241,0.964,0.361,1.927,0.361,2.89v0.187H195.641z M201.365,71.926
		c-0.037-0.785-0.295-1.44-0.776-1.967c-0.481-0.525-1.149-0.789-2.007-0.789c-0.48,0-0.9,0.09-1.256,0.268
		c-0.357,0.179-0.652,0.406-0.883,0.682c-0.232,0.277-0.411,0.576-0.535,0.896c-0.125,0.321-0.215,0.625-0.268,0.91H201.365z"/>
	<path fill="#0067AC" d="M216.531,70.642c-0.463-0.374-1.009-0.7-1.637-0.977s-1.273-0.415-1.937-0.415
		c-0.216,0-0.439,0.019-0.673,0.054c-0.232,0.036-0.443,0.099-0.632,0.188s-0.341,0.2-0.458,0.335
		c-0.115,0.133-0.174,0.299-0.174,0.494c0,0.339,0.174,0.584,0.523,0.736c0.348,0.15,0.934,0.307,1.758,0.467l0.992,0.188
		c0.752,0.144,1.44,0.33,2.066,0.563c0.627,0.231,1.158,0.521,1.598,0.869c0.438,0.348,0.777,0.768,1.02,1.258
		c0.241,0.49,0.361,1.057,0.361,1.698c0,0.874-0.209,1.618-0.628,2.233s-0.95,1.119-1.592,1.512s-1.351,0.678-2.126,0.855
		c-0.776,0.178-1.529,0.268-2.261,0.268c-0.874,0-1.668-0.09-2.381-0.268c-0.714-0.178-1.355-0.4-1.926-0.668
		c-0.571-0.268-1.062-0.563-1.472-0.883c-0.41-0.322-0.74-0.615-0.99-0.883l2.596-2.354c0.517,0.535,1.137,0.989,1.859,1.364
		c0.722,0.375,1.457,0.562,2.207,0.562c0.677,0,1.261-0.116,1.752-0.348c0.49-0.231,0.735-0.57,0.735-1.017
		c0-0.392-0.183-0.664-0.549-0.815s-0.923-0.29-1.672-0.415l-1.257-0.214c-1.658-0.285-2.854-0.78-3.584-1.484
		c-0.732-0.704-1.098-1.592-1.098-2.661c0-0.59,0.125-1.164,0.375-1.727c0.249-0.561,0.619-1.061,1.109-1.498
		c0.49-0.436,1.105-0.789,1.846-1.056s1.602-0.401,2.582-0.401c1.194,0,2.314,0.188,3.357,0.562
		c1.043,0.374,1.992,0.883,2.849,1.524L216.531,70.642z"/>
	<path fill="#0067AC" d="M220.731,80.619v-4.467h4.227v4.467H220.731z"/>
</g>
</svg>
