<svg id="Layer_1" data-name="Layer 1" xmlns="http://www.w3.org/2000/svg" viewBox="0 0 519.43 240.69"><defs><style>.cls-1{fill:#38939b;}.cls-2{fill:#455560;}</style></defs><title>moore-logo-FINAL-PMS</title><path class="cls-1" d="M132.78,68.58c-3.72,6.15-3.23,14.88-3.23,23,0,19.4-.81,39.61,1.29,59,.81,7.27,1.46,14.7,5,21.17H112.09c2.91-8.08,2.91-20,2.91-29.09V89c0-1.61,0-3.55-1.13-3.55s-1.62,1.13-2.1,2.42L75.56,173.34,44.84,94c-1.78-4.69-2.91-8.57-4.36-8.57S39,88.31,39,90.73l-.16,52.54c0,12.61,0,23.12,3.56,28.45H23.18l1.45-2.1c6-8.57,6.63-34.11,6.63-51.57V77.64c0-4.36-.16-6.63-4-9.06H47.27c1.94,0,4.36.33,5,2.43L76.2,141.49c.81,2.43,1.3,5.18,2.59,5.18,1.46,0,1.94-1.62,2.91-3.88l28-67.42c1.45-3.39,2.58-6.79,6.62-6.79Z"/><path class="cls-1" d="M221.68,122.58c0,23.28-10,44.62-33.3,44.62-26,0-33.3-28.13-33.3-49.47,0-23.28,10-44.62,33.3-44.62C214.4,73.11,221.68,101.24,221.68,122.58Zm16.81-4.53c0-28.77-14.87-52-48.82-52-33.62,0-51.41,25.54-51.41,56.25,0,28.78,14.88,52.06,48.82,52.06C220.71,174.31,238.49,148.77,238.49,118.05Z"/><path class="cls-1" d="M327.92,122.58c0,23.28-10,44.62-33.3,44.62-26,0-33.31-28.13-33.31-49.47,0-23.28,10-44.62,33.31-44.62C320.64,73.11,327.92,101.24,327.92,122.58Zm16.81-4.53c0-28.77-14.87-52-48.82-52-33.63,0-51.41,25.54-51.41,56.25,0,28.78,14.88,52.06,48.82,52.06C327,174.31,344.73,148.77,344.73,118.05Z"/><path class="cls-1" d="M365.89,81.2c0-2.59.17-5.34.33-7.76h7.59c14.39.32,23.61,2.26,23.61,18.42,0,15.36-8.57,23.77-24.25,23.77a54,54,0,0,1-7.28-.49ZM388,117.89C399.68,113.2,412,103.5,412,88.63,412,76,403.4,67,386.91,67c-12.61,0-25.54,1.61-39.12,1.61,3.55,5.5,3.55,13.91,3.55,21.18v59.81c0,7,.33,14.71-4.36,22.15h22.47c-3.56-5.49-3.56-13.9-3.56-21.17v-29.1c9.38.8,10.51,3.55,17.3,13.25l19.72,28.13c3.56,5.17,6.63,8.89,13.58,8.89h13.26a88.55,88.55,0,0,1-13.58-15Z"/><path class="cls-1" d="M449.79,165.25h18.59c10,0,20.37-2.42,28-9.21l-2.91,14.87c-4.37.33-9.7.81-15.52.81H431.2c3.56-5.49,4-13.9,4-21.17V89.76c0-7.27,0-15.68-3.55-21.18H488.1L488.75,81c-5.66-4.85-14.39-6-23.92-6h-15v38.64c12.45,0,25.54,0,38-1.13-5.66,9.21-23.92,9.21-33.95,9.21h-4Z"/><path class="cls-2" d="M51.73,41.41V52.9a41.69,41.69,0,0,1-10.31,1.37c-12.31,0-14.35-8.3-14.35-12.51,0-8.06,6.52-13.41,15.65-13.41a25,25,0,0,1,7.2,1.06c.43.16.43.32.47.79l.12,2.52c0,.19,0,.27-.2.39l-.74.43c-.16.08-.16.08-.24.08S48.19,33,48,32.83a13.48,13.48,0,0,0-5.9-1.41c-4.8,0-9.24,2.75-9.24,9.67,0,1.62.27,6,3.38,8.35a10.57,10.57,0,0,0,6.1,1.77,14.82,14.82,0,0,0,3.93-.56V41.41Z"/><path class="cls-2" d="M84.46,31.38a12.08,12.08,0,0,1,4.33,9.75c0,8.93-7.32,13.18-14.83,13.18-10.07,0-13.89-6.92-13.89-12.82a12,12,0,0,1,4.8-9.84c3.46-2.75,7-3.26,10.5-3.26C76.32,28.39,81.08,28.58,84.46,31.38ZM65.81,41c0,6.45,4.25,10.23,9,10.23,3.11,0,8.26-2.05,8.26-9.45,0-6.53-4.25-10.3-9-10.3C68.57,31.46,65.81,36,65.81,41Z"/><path class="cls-2" d="M103.26,53.8H97.79V28.86c1.14,0,8.42-.2,9.25-.2,4.29,0,6.57.28,8.57,2a6.19,6.19,0,0,1,2.25,5c0,2.95-1.73,5.5-5.86,6.69,2.28,4.87,4.67,7.94,6.21,8.81a5.25,5.25,0,0,0,2.79.63l.08.19-.35,1.58a.54.54,0,0,1-.2.35,8,8,0,0,1-2.87.43c-5.31,0-7.67-3.89-11.09-11a18.38,18.38,0,0,1-3.31,0Zm0-13.33a25.81,25.81,0,0,0,5.19-.12c2.6-.44,3.66-2.17,3.66-4.49,0-2.59-1.34-4.17-5.62-4.17h-3.23Z"/><path class="cls-2" d="M127.89,28.86c2.44,0,5.94-.28,8.93-.28h1.61c4,0,14.95,0,14.95,11.89,0,5.82-2.8,9.48-5.82,11.25C144,53.8,138,53.8,135.91,53.8h-8Zm5.47,21.83h4.21c5.35,0,10-1.06,10-9.6,0-5.82-1.89-9.44-9.72-9.44-1.42,0-2.75,0-4.52.08Z"/><path class="cls-2" d="M184.93,31.38a12.08,12.08,0,0,1,4.33,9.75c0,8.93-7.32,13.18-14.84,13.18-10.07,0-13.88-6.92-13.88-12.82a12,12,0,0,1,4.8-9.84c3.46-2.75,7-3.26,10.5-3.26C176.79,28.39,181.54,28.58,184.93,31.38ZM166.28,41c0,6.45,4.25,10.23,9,10.23,3.11,0,8.26-2.05,8.26-9.45,0-6.53-4.25-10.3-9-10.3C169,31.46,166.28,36,166.28,41Z"/><path class="cls-2" d="M202.24,28.86l16,17.54-.32-17.54h3.94l0,24.67-3.23.82-16.8-18.41.32,17.86h-3.93l.11-24.94Z"/><path class="cls-2" d="M259,28.86,269.31,53.8h-6l-2.76-7.43h-9.68l-3,7.43h-4.8L255,28.86Zm.35,14.56L255.89,34l-3.82,9.45Z"/><path class="cls-2" d="M281,28.86,297,46.4l-.32-17.54h3.94l0,24.67-3.23.82-16.8-18.41.32,17.86H276.9L277,28.86Z"/><path class="cls-2" d="M311.47,28.86c2.44,0,5.94-.28,8.93-.28H322c4,0,14.94,0,14.94,11.89,0,5.82-2.79,9.48-5.82,11.25-3.54,2.08-9.59,2.08-11.64,2.08h-8Zm5.47,21.83h4.21c5.35,0,10-1.06,10-9.6,0-5.82-1.89-9.44-9.71-9.44-1.42,0-2.76,0-4.53.08Z"/><path class="cls-2" d="M363.33,28.86c2.55,0,6.72-.2,9.28-.2,2.83,0,5.43.2,7.32,1.62a4.86,4.86,0,0,1,1.92,3.85c0,3.42-3.1,4.8-4.17,5.27a6.92,6.92,0,0,1,4.57,2.76,6.73,6.73,0,0,1,1.22,4A7.1,7.1,0,0,1,380.4,52,13.37,13.37,0,0,1,373,53.8h-9.71Zm5.39,10.07h1.84c2.64,0,5.59,0,5.59-3.81,0-1.89-.75-3.55-4-3.55-.79,0-1.85,0-3.38,0Zm0,11.88c3.73,0,5.23,0,6.41-.39a3.9,3.9,0,0,0,2.63-4c0-4.48-3.7-4.6-7.16-4.6h-1.88Z"/><path class="cls-2" d="M410.81,28.86v3.07H398.18v7.2h11.33v3.1H398.18V50.5h13.06v3.3H392.71V28.86Z"/><path class="cls-2" d="M441,28.86v3.3h-9.8V53.8h-5.5V32.16h-9.76v-3.3Z"/><path class="cls-2" d="M468.91,28.86v3.3h-9.8V53.8H453.6V32.16h-9.75v-3.3Z"/><path class="cls-2" d="M479.49,28.86l6.25,10.62,6.1-10.62h5.27l-9.67,13.93v11H482V42.94l-9-14.08Z"/><path class="cls-2" d="M45.65,184.27v3.64H31.27v8H43.4v3.64H31.27v12.17h-6V184.27Z"/><path class="cls-2" d="M94.29,187a13.32,13.32,0,0,1,4.76,10.75c0,9.83-8,14.51-16.32,14.51-11.09,0-15.29-7.63-15.29-14.12a13.15,13.15,0,0,1,5.28-10.83c3.81-3,7.71-3.6,11.56-3.6C85.32,183.75,90.57,184,94.29,187ZM73.76,197.61c0,7.11,4.68,11.26,9.92,11.26,3.42,0,9.09-2.25,9.09-10.39,0-7.19-4.68-11.35-9.87-11.35C76.79,187.13,73.76,192.11,73.76,197.61Z"/><path class="cls-2" d="M130.84,184.27v16.37c0,3.08,0,4.33,1.22,5.68.95,1,2.77,1.82,5.41,1.82a8.45,8.45,0,0,0,6.37-2.34c1.38-1.52,1.38-3.55,1.38-7.11V184.27h4.38l-.35,14.29c-.13,5-.39,8.1-3.12,10.53-3.51,3.16-8.4,3.16-10.13,3.16-3.21,0-6.41-.47-8.79-2.73-2.17-2-2.39-4.55-2.39-8.62V184.27Z"/><path class="cls-2" d="M181.39,184.27,199,203.59l-.35-19.32H203l-.05,27.16-3.55.91-18.49-20.27.34,19.66h-4.33l.13-27.46Z"/><path class="cls-2" d="M230.81,184.27c2.68,0,6.53-.3,9.83-.3h1.77c4.38,0,16.46,0,16.46,13.08,0,6.41-3.07,10.44-6.41,12.39-3.9,2.29-10.57,2.29-12.82,2.29h-8.83Zm6,24h4.63c5.89,0,11-1.17,11-10.57,0-6.41-2.07-10.39-10.69-10.39-1.56,0-3,0-5,.08Z"/><path class="cls-2" d="M295.84,184.27l11.3,27.46h-6.63l-3-8.18H286.83l-3.29,8.18h-5.29l13.13-27.46Zm.39,16-3.86-10.4-4.2,10.4Z"/><path class="cls-2" d="M353.1,184.27v3.64H342.31v23.82h-6.06V187.91H325.51v-3.64Z"/><path class="cls-2" d="M384.48,184.27v27.46h-6V184.27Z"/><path class="cls-2" d="M437.06,187a13.35,13.35,0,0,1,4.76,10.75c0,9.83-8.06,14.51-16.33,14.51-11.09,0-15.29-7.63-15.29-14.12a13.13,13.13,0,0,1,5.29-10.83c3.81-3,7.71-3.6,11.56-3.6C428.09,183.75,433.33,184,437.06,187Zm-20.54,10.57c0,7.11,4.68,11.26,9.92,11.26,3.42,0,9.1-2.25,9.1-10.39,0-7.19-4.68-11.35-9.88-11.35C419.56,187.13,416.52,192.11,416.52,197.61Z"/><path class="cls-2" d="M470,184.27l17.59,19.32-.35-19.32h4.33l0,27.16-3.55.91-18.5-20.27.35,19.66h-4.33l.13-27.46Z"/></svg>